# Blender 4.0.2
# www.blender.org
o elbow_leg_phy
v -0.083087 0.037763 -0.007511
v -0.083087 0.038503 0.000000
v -0.083087 0.037763 0.007511
v -0.083087 0.035572 0.014733
v -0.083087 0.032015 0.021389
v -0.083087 0.027227 0.027224
v -0.083087 0.021392 0.032012
v -0.083087 0.014736 0.035569
v -0.083087 0.007514 0.037760
v -0.083087 0.000003 0.038500
v -0.083087 -0.007508 0.037760
v -0.083087 -0.014730 0.035569
v -0.083087 -0.021386 0.032012
v -0.083087 -0.027221 0.027224
v -0.083087 -0.032009 0.021389
v -0.083087 -0.035566 0.014733
v -0.083087 -0.037757 0.007511
v -0.083087 -0.038497 0.000000
v -0.083087 -0.037757 -0.007511
v -0.083087 -0.035566 -0.014733
v -0.083087 -0.032009 -0.021389
v -0.083087 -0.027221 -0.027224
v -0.083087 -0.021386 -0.032012
v -0.083087 -0.014730 -0.035569
v -0.083087 -0.007508 -0.037760
v -0.083087 0.000003 -0.038500
v -0.083087 0.007514 -0.037760
v -0.083087 0.014736 -0.035569
v -0.083087 0.021392 -0.032012
v -0.083087 0.027227 -0.027224
v -0.083087 0.032015 -0.021389
v -0.083087 0.035572 -0.014733
v -0.038885 -0.032009 -0.021389
v -0.038885 -0.027221 -0.027224
v -0.038885 -0.021386 -0.032012
v -0.038885 -0.014730 -0.035569
v -0.038885 -0.007508 -0.037760
v -0.038885 0.000003 -0.038500
v -0.038885 0.007514 -0.037760
v -0.038885 0.014736 -0.035569
v -0.038885 0.021392 -0.032012
v -0.038885 0.027227 -0.027224
v -0.038885 0.032015 -0.021389
v -0.038885 0.035572 -0.014733
v -0.038885 0.037763 -0.007511
v -0.038885 0.038503 0.000000
v -0.038885 0.037763 0.007511
v -0.038885 0.035572 0.014733
v -0.038885 0.032015 0.021389
v -0.038885 0.027227 0.027224
v -0.038885 0.021392 0.032012
v -0.038885 0.014736 0.035569
v -0.038885 0.007514 0.037760
v -0.038885 0.000003 0.038500
v -0.038885 -0.007508 0.037760
v -0.038885 -0.014730 0.035569
v -0.038885 -0.021386 0.032012
v -0.038885 -0.027221 0.027224
v -0.038885 -0.032009 0.021389
v -0.038885 -0.035566 0.014733
v -0.038885 -0.037757 0.007511
v -0.038885 -0.038497 0.000000
v -0.038885 -0.038080 -0.005649
v -0.038885 -0.036839 -0.011176
v -0.038885 -0.034801 -0.016461
vn -0.0174 -0.8207 -0.5711
vn -0.6428 -0.6385 -0.4233
vn -0.0084 -0.7008 -0.7134
vn -0.6437 -0.5437 -0.5386
vn -0.0065 -0.5492 -0.8357
vn -0.6440 -0.4286 -0.6336
vn -0.0043 -0.3778 -0.9259
vn -0.6442 -0.2962 -0.7051
vn -0.0021 -0.1924 -0.9813
vn -0.6445 -0.1524 -0.7492
vn -0.0000 -0.0011 -1.0000
vn -0.6438 -0.0035 -0.7652
vn -0.0020 0.1923 -0.9813
vn -0.6446 0.1455 -0.7506
vn -0.0045 0.3781 -0.9258
vn -0.6442 0.2897 -0.7079
vn -0.0068 0.5497 -0.8353
vn -0.6440 0.4228 -0.6376
vn -0.0085 0.7007 -0.7134
vn -0.6437 0.5387 -0.5435
vn -0.0098 0.8255 -0.5644
vn -0.6440 0.6336 -0.4286
vn -0.0111 0.9193 -0.3933
vn -0.6442 0.7052 -0.2962
vn -0.0120 0.9783 -0.2069
vn -0.6445 0.7497 -0.1502
vn -0.0123 0.9998 -0.0123
vn -0.6438 0.7652 -0.0035
vn -0.0121 0.9830 0.1833
vn -0.6446 0.7505 0.1455
vn -0.0116 0.9280 0.3724
vn -0.6441 0.7079 0.2899
vn -0.0108 0.8369 0.5473
vn -0.6440 0.6376 0.4228
vn -0.0090 0.7130 0.7011
vn -0.6437 0.5437 0.5386
vn -0.0069 0.5611 0.8277
vn -0.6440 0.4286 0.6336
vn -0.0050 0.3868 0.9222
vn -0.6442 0.2963 0.7051
vn -0.0029 0.1971 0.9804
vn -0.6445 0.1524 0.7492
vn -0.0013 -0.0000 1.0000
vn -0.6438 0.0035 0.7652
vn -0.0027 -0.1972 0.9804
vn -0.6446 -0.1455 0.7506
vn -0.0052 -0.3866 0.9222
vn -0.6442 -0.2897 0.7079
vn -0.0076 -0.5608 0.8279
vn -0.6440 -0.4228 0.6376
vn -0.0089 -0.7130 0.7011
vn -0.6437 -0.5386 0.5437
vn -0.0098 -0.8369 0.5472
vn -0.6440 -0.6336 0.4286
vn -0.0114 -0.9281 0.3722
vn -0.6442 -0.7051 0.2962
vn -0.0136 -0.9832 0.1821
vn -0.6446 -0.7492 0.1524
vn -0.0197 -0.9998 0.0017
vn -0.6436 -0.7654 0.0037
vn -0.3415 -0.9209 0.1882
vn -0.6442 -0.7509 -0.1454
vn -0.0876 -0.9739 -0.2095
vn -0.6438 -0.7082 -0.2898
vn -0.1229 -0.9452 -0.3024
vn 1.0000 -0.0000 -0.0000
vn -1.0000 -0.0000 -0.0000
vt 0.465127 0.382114
vt 0.203778 0.417207
vt 0.444062 0.350578
vt 0.196910 0.391405
vt 0.421732 0.320886
vt 0.188470 0.366196
vt 0.400050 0.293221
vt 0.178877 0.341537
vt 0.379716 0.267416
vt 0.168477 0.317369
vt 0.360902 0.243132
vt 0.157546 0.293627
vt 0.343586 0.220003
vt 0.146302 0.270245
vt 0.327677 0.197693
vt 0.134909 0.247155
vt 0.313062 0.175908
vt 0.123484 0.224290
vt 0.299618 0.154392
vt 0.112102 0.201586
vt 0.287226 0.132924
vt 0.100806 0.178991
vt 0.275751 0.111305
vt 0.089607 0.156463
vt 0.265030 0.089338
vt 0.078481 0.133960
vt 0.254816 0.066843
vt 0.067392 0.111474
vt 0.224062 0.932769
vt 0.038239 0.879836
vt 0.236110 0.910647
vt 0.051410 0.857544
vt 0.248591 0.888915
vt 0.064635 0.835269
vt 0.261772 0.867436
vt 0.077943 0.812992
vt 0.275835 0.846042
vt 0.091343 0.790673
vt 0.290924 0.824551
vt 0.104812 0.768269
vt 0.307170 0.802754
vt 0.118296 0.745724
vt 0.324701 0.780403
vt 0.131713 0.722965
vt 0.343637 0.757211
vt 0.144943 0.699910
vt 0.364067 0.732834
vt 0.157815 0.676471
vt 0.386010 0.706875
vt 0.170110 0.652557
vt 0.409296 0.678888
vt 0.181537 0.628082
vt 0.433327 0.648428
vt 0.191723 0.602993
vt 0.456649 0.615158
vt 0.200216 0.577311
vt 0.476635 0.579007
vt 0.206546 0.551136
vt 0.490118 0.540440
vt 0.210344 0.524593
vt 0.494886 0.500688
vt 0.211420 0.497777
vt 0.490346 0.471325
vt 0.210391 0.470523
vt 0.485174 0.437639
vt 0.207991 0.443603
vt 0.475418 0.408547
vt 0.000000 0.000000
s 1
f 33/1/1 21/2/2 34/3/3
f 34/3/3 21/2/2 22/4/4
f 34/3/3 22/4/4 35/5/5
f 35/5/5 22/4/4 23/6/6
f 35/5/5 23/6/6 36/7/7
f 36/7/7 23/6/6 24/8/8
f 36/7/7 24/8/8 37/9/9
f 37/9/9 24/8/8 25/10/10
f 37/9/9 25/10/10 38/11/11
f 38/11/11 25/10/10 26/12/12
f 38/11/11 26/12/12 39/13/13
f 39/13/13 26/12/12 27/14/14
f 39/13/13 27/14/14 40/15/15
f 40/15/15 27/14/14 28/16/16
f 40/15/15 28/16/16 41/17/17
f 41/17/17 28/16/16 29/18/18
f 41/17/17 29/18/18 42/19/19
f 42/19/19 29/18/18 30/20/20
f 42/19/19 30/20/20 43/21/21
f 43/21/21 30/20/20 31/22/22
f 43/21/21 31/22/22 44/23/23
f 44/23/23 31/22/22 32/24/24
f 44/23/23 32/24/24 45/25/25
f 45/25/25 32/24/24 1/26/26
f 45/25/25 1/26/26 46/27/27
f 46/27/27 1/26/26 2/28/28
f 46/29/27 2/30/28 47/31/29
f 47/31/29 2/30/28 3/32/30
f 47/31/29 3/32/30 48/33/31
f 48/33/31 3/32/30 4/34/32
f 48/33/31 4/34/32 49/35/33
f 49/35/33 4/34/32 5/36/34
f 49/35/33 5/36/34 50/37/35
f 50/37/35 5/36/34 6/38/36
f 50/37/35 6/38/36 51/39/37
f 51/39/37 6/38/36 7/40/38
f 51/39/37 7/40/38 52/41/39
f 52/41/39 7/40/38 8/42/40
f 52/41/39 8/42/40 53/43/41
f 53/43/41 8/42/40 9/44/42
f 53/43/41 9/44/42 54/45/43
f 54/45/43 9/44/42 10/46/44
f 54/45/43 10/46/44 55/47/45
f 55/47/45 10/46/44 11/48/46
f 55/47/45 11/48/46 56/49/47
f 56/49/47 11/48/46 12/50/48
f 56/49/47 12/50/48 57/51/49
f 57/51/49 12/50/48 13/52/50
f 57/51/49 13/52/50 58/53/51
f 58/53/51 13/52/50 14/54/52
f 58/53/51 14/54/52 59/55/53
f 59/55/53 14/54/52 15/56/54
f 59/55/53 15/56/54 60/57/55
f 60/57/55 15/56/54 16/58/56
f 60/57/55 16/58/56 61/59/57
f 61/59/57 16/58/56 17/60/58
f 61/59/57 17/60/58 62/61/59
f 62/61/59 17/60/58 18/62/60
f 62/61/59 18/62/60 63/63/61
f 63/63/61 18/62/60 19/64/62
f 63/63/61 19/64/62 64/65/63
f 64/65/63 19/64/62 20/66/64
f 64/65/63 20/66/64 65/67/65
f 65/67/65 20/66/64 21/2/2
f 65/67/65 21/2/2 33/1/1
s 0
f 64/68/66 65/68/66 33/68/66
f 54/68/66 55/68/66 53/68/66
f 44/68/66 45/68/66 47/68/66
f 53/68/66 55/68/66 52/68/66
f 57/68/66 59/68/66 56/68/66
f 44/68/66 48/68/66 40/68/66
f 58/68/66 59/68/66 57/68/66
f 52/68/66 48/68/66 51/68/66
f 52/68/66 56/68/66 48/68/66
f 50/68/66 51/68/66 49/68/66
f 44/68/66 40/68/66 41/68/66
f 55/68/66 56/68/66 52/68/66
f 61/68/66 63/68/66 60/68/66
f 48/68/66 36/68/66 40/68/66
f 62/68/66 63/68/66 61/68/66
f 63/68/66 36/68/66 60/68/66
f 56/68/66 60/68/66 48/68/66
f 46/68/66 47/68/66 45/68/66
f 63/68/66 64/68/66 36/68/66
f 59/68/66 60/68/66 56/68/66
f 33/68/66 36/68/66 64/68/66
f 48/68/66 44/68/66 47/68/66
f 34/68/66 35/68/66 33/68/66
f 35/68/66 36/68/66 33/68/66
f 48/68/66 49/68/66 51/68/66
f 42/68/66 43/68/66 41/68/66
f 36/68/66 48/68/66 60/68/66
f 43/68/66 44/68/66 41/68/66
f 40/68/66 36/68/66 37/68/66
f 40/68/66 37/68/66 39/68/66
f 15/68/67 14/68/67 13/68/67
f 10/68/67 9/68/67 11/68/67
f 9/68/67 12/68/67 11/68/67
f 9/68/67 8/68/67 12/68/67
f 8/68/67 16/68/67 12/68/67
f 15/68/67 13/68/67 12/68/67
f 5/68/67 4/68/67 7/68/67
f 7/68/67 6/68/67 5/68/67
f 16/68/67 15/68/67 12/68/67
f 4/68/67 3/68/67 1/68/67
f 39/68/66 37/68/66 38/68/66
f 16/68/67 8/68/67 4/68/67
f 4/68/67 20/68/67 16/68/67
f 4/68/67 8/68/67 7/68/67
f 20/68/67 17/68/67 16/68/67
f 3/68/67 2/68/67 1/68/67
f 32/68/67 31/68/67 29/68/67
f 20/68/67 19/68/67 17/68/67
f 32/68/67 4/68/67 1/68/67
f 20/68/67 4/68/67 32/68/67
f 32/68/67 24/68/67 20/68/67
f 19/68/67 18/68/67 17/68/67
f 24/68/67 21/68/67 20/68/67
f 23/68/67 22/68/67 21/68/67
f 31/68/67 30/68/67 29/68/67
f 24/68/67 23/68/67 21/68/67
f 28/68/67 32/68/67 29/68/67
f 24/68/67 32/68/67 28/68/67
f 28/68/67 25/68/67 24/68/67
f 28/68/67 27/68/67 25/68/67
f 27/68/67 26/68/67 25/68/67
