# Blender 4.5.3 LTS
# www.blender.org
mtllib gripper_2.mtl
o pinza_2
v 0.042383 0.217982 0.108652
v 0.040875 0.224653 0.106405
v 0.026207 0.218676 0.107338
v 0.027578 0.214992 0.112343
v 0.022192 0.280312 0.077569
v 0.026618 0.280473 0.078526
v 0.023400 0.273935 0.082293
v 0.028644 0.272216 0.083252
v 0.025970 0.263589 0.086314
v 0.030699 0.264059 0.086303
v 0.016404 0.261056 0.086143
v 0.019799 0.245780 0.088923
v 0.034307 0.249588 0.088882
v 0.028872 0.271508 0.092664
v 0.014768 0.265954 0.099358
v 0.026690 0.217018 0.103155
v 0.041404 0.222232 0.102206
v 0.025666 0.221172 0.103082
v 0.017544 0.274192 0.081179
v 0.012816 0.273809 0.080340
v 0.021632 0.288396 0.072526
v 0.037549 0.236585 0.093829
v 0.036722 0.239172 0.113703
v 0.036471 0.240889 0.110291
v 0.028135 0.273954 0.100969
v 0.020883 0.289090 0.084133
v 0.038684 0.232037 0.101961
v 0.041291 0.221647 0.087358
v 0.036261 0.241683 0.088757
v 0.038329 0.233370 0.087508
v 0.039932 0.227031 0.075286
v 0.040428 0.225174 0.078691
v 0.041986 0.218773 0.077119
v 0.016410 0.259971 0.107603
v 0.023277 0.231691 0.107663
v 0.012274 0.285734 0.072569
v 0.014586 0.266703 0.090959
v 0.009959 0.285539 0.085469
v 0.026379 0.219420 0.087674
v 0.023219 0.232101 0.093527
v 0.021535 0.238813 0.088497
v 0.023387 0.231431 0.087581
v 0.025754 0.221914 0.076117
v 0.027345 0.215429 0.076956
v 0.025015 0.224858 0.084942
v 0.014266 0.286813 0.084842
v 0.029095 0.228860 0.086801
v 0.030167 0.224655 0.075390
v 0.031775 0.218205 0.077579
v 0.030784 0.222179 0.078088
v 0.031441 0.219554 0.087684
v 0.032446 0.215515 0.075291
v 0.026223 0.262589 0.086009
v 0.035604 0.215485 0.096553
v 0.037394 0.216748 0.075291
v 0.016545 0.278258 0.094502
v 0.021978 0.279613 0.094502
v 0.035505 0.224371 0.076328
v 0.036841 0.218966 0.078511
v 0.036146 0.221699 0.087636
v 0.034067 0.230184 0.087274
v 0.030782 0.231362 0.096435
vn -0.6001 -0.5050 -0.6204
vn 0.8223 -0.0172 -0.5687
vn -0.6782 -0.4493 -0.5816
vn 0.7495 -0.1005 -0.6543
vn -0.7598 -0.2341 -0.6065
vn 0.0369 -0.2621 -0.9643
vn -0.7003 -0.3925 -0.5963
vn -0.9370 -0.2721 -0.2191
vn 0.0406 -0.1655 -0.9854
vn 0.7188 0.1230 -0.6843
vn 0.0146 -0.0234 -0.9996
vn 0.1543 -0.6607 0.7347
vn -0.1947 -0.9306 0.3100
vn 0.0965 -0.7379 -0.6679
vn -0.9218 -0.2560 -0.2912
vn 0.8196 -0.4162 0.3938
vn -0.9670 -0.0071 0.2546
vn 0.9208 0.2040 0.3325
vn -0.8658 -0.4784 0.1468
vn 0.9846 -0.1176 -0.1292
vn -0.6102 -0.4785 -0.6314
vn 0.8382 -0.1611 -0.5210
vn 0.9636 0.2674 0.0012
vn 0.9707 0.2402 -0.0026
vn -0.3372 0.9210 0.1953
vn -0.1635 0.5595 -0.8125
vn 0.9646 0.2636 -0.0088
vn 0.9403 0.2828 -0.1892
vn 0.9699 0.2390 0.0466
vn 0.5687 0.2045 0.7967
vn 0.9390 -0.2002 -0.2797
vn 0.5266 0.5927 0.6095
vn 0.6884 0.2301 -0.6879
vn 0.9704 0.2416 -0.0043
vn 0.6724 0.4235 -0.6071
vn 0.8539 0.5196 0.0284
vn 0.3823 0.6539 -0.6529
vn 0.3895 -0.8596 0.3307
vn -0.7992 0.5415 0.2609
vn -0.1040 0.4327 -0.8955
vn -0.9725 -0.2300 0.0359
vn -0.9717 -0.2363 -0.0047
vn -0.3855 -0.6743 0.6298
vn -0.9720 -0.2335 0.0253
vn -0.9532 -0.2492 -0.1712
vn -0.8022 -0.4937 -0.3359
vn -0.9676 -0.2516 -0.0201
vn -0.7011 -0.1105 -0.7044
vn -0.7301 -0.0305 -0.6827
vn -0.9751 -0.2197 0.0307
vn -0.9403 0.1761 -0.2911
vn -0.8314 -0.0906 -0.5483
vn 0.4498 0.8727 0.1900
vn -0.1266 0.4661 -0.8756
vn -0.4459 0.4977 -0.7439
vn -0.1456 -0.7604 -0.6329
vn -0.5454 0.5459 0.6361
vn -0.1474 -0.8889 0.4337
vn -0.2365 0.0629 -0.9696
vn 0.0157 -0.5562 0.8309
vn 0.2160 -0.9764 -0.0031
vn -0.2990 -0.7012 -0.6472
vn -0.3014 0.5658 0.7675
vn -0.1110 0.6736 0.7307
vn -0.0727 0.3784 0.9228
vn -0.6913 0.2625 -0.6732
vn -0.5941 -0.0607 -0.8021
vn 0.1376 0.9245 0.3555
vn 0.0840 -0.6874 0.7214
vn 0.0943 -0.1076 -0.9897
vn -0.1841 0.4854 0.8547
vn -0.1128 0.2966 0.9483
vn -0.0030 0.1036 -0.9946
vn -0.1894 0.8680 -0.4590
vn 0.0602 0.6570 -0.7515
vn -0.0117 0.9995 0.0291
vn -0.2684 0.8243 0.4985
vn 0.1889 -0.6188 -0.7625
vn 0.9867 -0.1587 -0.0364
vn 0.9110 0.3836 -0.1515
vn 0.9700 0.2429 0.0007
vn 0.9703 0.2421 -0.0001
vn 0.9701 0.2427 0.0009
vn 0.9454 0.3247 -0.0290
vn -0.1514 0.3578 -0.9214
vn -0.9748 -0.1758 -0.1374
vn -0.9710 -0.2392 -0.0020
vn -0.9816 -0.1889 -0.0264
vn 0.9921 0.1198 0.0378
vn -0.0850 0.4337 -0.8970
vn -0.0984 0.4266 -0.8991
vn -0.1054 0.4227 -0.9001
vn -0.0803 0.4362 -0.8963
s 1
f 5//1 6//2 7//3
f 6//2 8//4 7//3
f 7//3 8//4 9//5
f 8//4 10//6 9//5
f 11//7 10//6 12//8
f 10//9 13//10 12//11
f 37//12 14//13 15//14
f 3//15 1//16 16//17
f 1//16 17//18 16//17
f 16//17 17//18 18//19
f 17//18 2//20 18//19
f 20//21 19//22 11//7
f 14//23 22//24 13//10
f 26//25 6//2 21//26
f 27//27 2//20 28//28
f 2//20 17//18 28//28
f 24//29 23//30 27//27
f 27//27 23//30 2//20
f 28//28 1//16 33//31
f 17//18 1//16 28//28
f 2//20 23//30 1//16
f 26//25 25//32 6//2
f 14//23 25//32 24//29
f 6//2 25//32 8//4
f 13//10 22//24 29//33
f 25//32 14//23 8//4
f 8//4 14//23 10//34
f 25//32 23//30 24//29
f 29//33 22//24 30//35
f 32//36 33//31 31//37
f 10//34 14//23 13//10
f 30//35 28//28 32//38
f 22//24 27//27 30//35
f 27//27 28//28 30//35
f 20//21 38//39 36//40
f 18//19 35//41 40//42
f 4//43 34//44 35//41
f 18//19 40//42 39//45
f 3//15 35//41 18//19
f 4//43 35//41 3//15
f 16//17 18//19 39//45
f 16//17 39//45 44//46
f 4//43 16//17 44//46
f 40//42 37//47 12//8
f 40//42 12//8 41//48
f 37//47 20//21 11//7
f 37//47 38//39 20//21
f 40//42 41//48 42//49
f 15//50 38//39 37//47
f 34//44 38//39 15//50
f 37//47 11//7 12//8
f 34//44 15//50 35//41
f 39//45 45//51 43//52
f 39//45 42//49 45//51
f 39//45 40//42 42//49
f 36//40 38//39 46//53
f 20//21 36//40 19//22
f 42//49 47//54 45//51
f 48//55 45//51 47//54
f 43//52 45//51 48//55
f 52//56 43//52 48//55
f 44//46 43//52 52//56
f 44//46 49//57 43//52
f 49//57 50//58 43//52
f 44//46 51//59 49//57
f 44//46 39//45 51//59
f 39//45 50//58 51//59
f 39//45 43//52 50//58
f 9//5 10//6 53//60
f 4//43 54//61 1//16
f 54//61 33//31 1//16
f 54//61 55//62 33//31
f 54//61 44//46 52//56
f 4//43 44//46 54//61
f 1//16 23//30 4//43
f 56//63 46//53 38//39
f 57//64 25//32 26//25
f 34//65 57//64 56//63
f 34//65 56//63 38//39
f 25//32 57//64 34//65
f 23//30 25//32 34//65
f 23//30 34//65 4//43
f 58//66 61//67 31//37
f 31//37 61//67 32//36
f 33//31 55//62 31//37
f 55//62 58//66 31//37
f 18//19 2//20 3//15
f 2//20 1//16 3//15
f 59//68 33//31 58//69
f 33//31 32//38 58//69
f 59//68 60//70 28//28
f 59//68 28//28 33//31
f 60//70 58//69 32//38
f 60//70 32//38 28//28
f 30//35 32//36 61//67
f 22//71 14//13 37//12
f 22//71 37//12 40//72
f 24//73 27//74 35//75
f 35//75 27//74 40//76
f 27//77 22//71 40//72
f 14//13 24//73 15//14
f 15//14 24//73 35//75
f 42//49 61//67 47//54
f 42//49 30//35 61//67
f 29//33 30//35 42//49
f 41//48 29//33 42//49
f 13//10 29//33 12//11
f 12//11 29//33 41//48
f 53//60 10//6 11//7
f 62//78 47//79 61//67
f 47//79 51//80 50//81
f 50//81 49//82 48//83
f 47//79 50//81 48//83
f 47//79 62//78 51//80
f 49//82 51//80 52//84
f 48//83 49//82 52//84
f 62//78 54//85 51//80
f 51//80 54//85 52//84
f 58//66 60//86 61//67
f 59//87 58//66 55//62
f 55//62 54//85 60//86
f 54//85 62//78 60//86
f 55//62 60//86 59//87
f 60//86 62//78 61//67
f 5//1 26//25 21//26
f 7//3 26//25 5//1
f 9//5 57//88 7//3
f 57//88 26//25 7//3
f 53//60 57//88 9//5
f 46//53 19//22 36//40
f 46//53 56//89 19//22
f 56//89 11//7 19//22
f 53//90 56//91 57//92
f 11//93 56//91 53//90
f 21//26 6//2 5//1
f 4//43 3//15 16//17
