# Blender 4.5.3 LTS
# www.blender.org
mtllib gripper_3.mtl
o pinza_1
v 0.039088 0.240492 0.063317
v 0.041183 0.233329 0.059560
v 0.042249 0.227909 0.056310
v 0.042397 0.227374 0.068905
v 0.027704 0.223739 0.069236
v 0.027263 0.224797 0.060033
v 0.024545 0.237236 0.053791
v 0.021678 0.289578 0.072821
v 0.026397 0.291077 0.072607
v 0.015370 0.288247 0.073091
v 0.015881 0.271232 0.079922
v 0.030521 0.274777 0.080534
v 0.018638 0.260454 0.078271
v 0.032994 0.264809 0.078358
v 0.035534 0.254662 0.077795
v 0.028757 0.281861 0.073536
v 0.014343 0.278078 0.072680
v 0.025980 0.229822 0.064819
v 0.041034 0.233804 0.064739
v 0.025709 0.230537 0.060243
v 0.017522 0.285944 0.086916
v 0.022362 0.287138 0.086901
v 0.020139 0.275162 0.081552
v 0.025025 0.275825 0.081641
v 0.038149 0.244249 0.079732
v 0.036921 0.248890 0.054877
v 0.031318 0.271252 0.060879
v 0.038892 0.241187 0.072578
v 0.021759 0.247926 0.078054
v 0.023897 0.239385 0.080335
v 0.024632 0.236728 0.071609
v 0.023216 0.242071 0.057805
v 0.015879 0.271128 0.059697
v 0.017726 0.264093 0.061851
v 0.029137 0.239175 0.078479
v 0.035392 0.234449 0.090840
v 0.030222 0.234643 0.091610
v 0.036674 0.229433 0.089458
v 0.032172 0.226972 0.090672
v 0.030975 0.231623 0.089756
v 0.036067 0.231788 0.079509
v 0.031578 0.229272 0.079702
v 0.034060 0.239278 0.079878
v 0.037378 0.226607 0.091548
v 0.019443 0.298113 0.082034
v 0.014793 0.296942 0.082094
v 0.017066 0.297817 0.094062
v 0.041974 0.230081 0.062415
v 0.034965 0.236286 0.070746
v 0.034563 0.225400 0.069235
vn -0.8273 -0.4845 0.2844
vn -0.6760 -0.2448 0.6950
vn 0.6733 0.1635 0.7211
vn 0.0332 -0.1292 0.9911
vn 0.7021 0.2153 0.6787
vn -0.7373 -0.1000 0.6681
vn -0.3699 0.9189 -0.1371
vn -0.9156 -0.3233 -0.2392
vn 0.0636 -0.5191 -0.8523
vn -0.5702 -0.7063 -0.4195
vn -0.8314 -0.5124 0.2152
vn -0.0838 -0.4374 0.8953
vn 0.7765 -0.1077 0.6208
vn -0.3076 -0.2638 0.9142
vn 0.2846 -0.1476 0.9472
vn -0.6040 -0.4493 0.6583
vn 0.6687 -0.4675 -0.5781
vn 0.6383 0.6830 -0.3551
vn 0.9686 0.2453 -0.0401
vn 0.9718 0.2296 0.0531
vn 0.9827 -0.1095 0.1496
vn 0.6533 0.7272 0.2106
vn 0.7175 -0.4835 0.5015
vn 0.9670 0.2539 0.0216
vn 0.2139 0.7454 -0.6314
vn 0.9690 0.2471 -0.0009
vn 0.9417 -0.0171 -0.3360
vn 0.3397 0.9403 0.0203
vn 0.7047 -0.0241 0.7091
vn -0.5939 -0.6205 0.5122
vn -0.9754 -0.2193 0.0202
vn -0.6089 -0.2153 -0.7635
vn -0.3985 -0.7744 0.4913
vn -0.9678 -0.2513 -0.0163
vn -0.6877 0.1738 -0.7049
vn -0.9687 -0.2469 0.0243
vn -0.9160 -0.3850 0.1128
vn -0.7957 0.4255 -0.4310
vn -0.4945 -0.4841 0.7218
vn 0.1231 0.8906 -0.4378
vn 0.1092 0.5757 0.8104
vn 0.5095 0.5238 0.6827
vn -0.0440 -0.4974 0.8664
vn 0.2823 0.5108 0.8120
vn -0.7391 -0.4808 0.4717
vn 0.5975 -0.4923 0.6330
vn -0.7823 -0.5490 -0.2942
vn 0.7600 0.5856 -0.2820
vn 0.6864 -0.4456 -0.5747
vn 0.1153 -0.1283 0.9850
vn -0.9377 -0.3447 0.0431
vn -0.1204 0.4779 0.8701
vn 0.4525 0.8571 -0.2461
vn -0.7985 0.5615 -0.2171
vn 0.1203 -0.8324 0.5410
vn 0.6123 -0.7083 -0.3512
vn 0.0271 -0.9697 -0.2428
vn -0.0965 0.8633 -0.4953
vn 0.0584 0.5016 0.8631
vn 0.2066 -0.3776 0.9026
vn 0.4447 -0.6037 0.6617
vn 0.2077 -0.4281 0.8795
vn 0.6930 -0.6620 0.2855
vn 0.9926 0.0999 -0.0695
vn 0.9927 0.0927 -0.0773
vn -0.9666 -0.2469 -0.0692
vn -0.9703 -0.2420 0.0002
vn 0.9833 0.1822 -0.0013
s 1
f 11//1 13//2 12//3
f 12//3 13//2 14//4
f 14//4 13//2 15//5
f 13//2 29//6 15//5
f 48//7 18//8 19//9
f 6//10 18//8 48//7
f 19//9 20//11 2//12
f 18//8 20//11 19//9
f 22//13 23//14 24//15
f 21//16 23//14 22//13
f 24//15 11//1 12//3
f 3//17 26//18 2//19
f 14//20 28//21 12//3
f 26//18 1//22 2//19
f 4//23 19//24 28//25
f 28//21 16//26 12//3
f 27//27 9//28 16//26
f 16//26 9//28 12//3
f 19//24 1//22 28//25
f 25//29 28//21 15//5
f 15//5 28//21 14//20
f 11//1 31//30 13//2
f 31//31 7//32 20//11
f 18//8 5//33 31//31
f 32//34 7//32 31//31
f 33//35 7//32 32//34
f 33//35 32//34 34//36
f 31//30 29//6 13//2
f 33//35 34//36 17//37
f 10//38 17//37 11//1
f 33//35 17//37 10//38
f 31//30 30//39 29//6
f 31//31 20//11 18//8
f 12//3 9//28 24//15
f 24//15 9//28 8//40
f 37//41 43//42 35//43
f 36//44 43//42 37//41
f 39//45 36//44 37//41
f 44//46 36//44 39//45
f 39//45 40//47 38//48
f 38//48 40//47 36//49
f 38//48 41//50 42//51
f 38//48 42//51 39//45
f 41//50 36//49 40//47
f 41//50 40//47 42//51
f 47//52 45//53 46//54
f 22//13 47//52 21//16
f 6//10 50//55 5//33
f 3//17 50//55 6//10
f 3//17 4//23 50//55
f 50//56 44//46 39//45
f 10//38 45//53 8//40
f 10//38 46//54 45//53
f 33//35 8//40 9//28
f 33//35 10//38 8//40
f 33//35 9//28 27//27
f 33//35 27//27 26//18
f 7//32 33//35 26//18
f 7//32 26//18 3//17
f 6//10 7//32 3//17
f 2//12 6//10 48//7
f 20//11 6//10 2//12
f 11//1 17//37 16//57
f 11//1 16//57 28//25
f 31//58 11//1 28//25
f 26//18 32//59 1//22
f 32//59 31//58 1//22
f 1//22 31//58 28//25
f 17//37 34//60 16//57
f 16//57 34//60 27//27
f 27//27 32//59 26//18
f 34//60 32//59 27//27
f 30//39 35//43 25//29
f 25//29 35//43 43//42
f 29//6 30//39 25//29
f 15//5 29//6 25//29
f 22//13 45//53 47//52
f 8//40 22//13 24//15
f 8//40 45//53 22//13
f 10//38 23//14 21//16
f 46//54 21//16 47//52
f 46//54 10//38 21//16
f 23//14 10//38 11//1
f 4//23 28//61 49//62
f 49//62 28//61 43//63
f 28//21 25//29 43//42
f 50//55 4//23 49//62
f 36//44 41//64 43//42
f 50//56 49//65 41//64
f 44//46 38//48 36//49
f 44//46 50//56 41//64
f 44//46 41//64 38//48
f 41//64 49//65 43//42
f 30//39 31//30 35//43
f 35//43 31//30 50//55
f 5//33 50//55 31//30
f 35//66 40//47 37//67
f 42//51 40//47 35//66
f 40//47 39//45 37//67
f 50//56 39//45 42//51
f 35//66 50//56 42//51
f 11//1 24//15 23//14
f 18//8 6//10 5//33
f 7//32 6//10 20//11
f 2//19 1//22 19//24
f 3//17 48//68 4//23
f 3//17 2//19 48//68
f 4//23 48//68 19//24
