# Blender 4.5.3 LTS
# www.blender.org
mtllib pinza1_phy.mtl
o Cube
v 0.024589 0.237459 0.077674
v 0.019751 0.256865 0.077674
v 0.024589 0.237459 0.061674
v 0.019751 0.256865 0.061674
v 0.038174 0.240846 0.077674
v 0.033335 0.260252 0.077674
v 0.038174 0.240846 0.061674
v 0.033335 0.260252 0.061674
vn -0.9703 -0.2419 -0.0000
vn -0.0000 -0.0000 -1.0000
vn 0.9703 0.2419 -0.0000
vn -0.0000 -0.0000 1.0000
vn 0.2419 -0.9703 -0.0000
vn -0.2419 0.9703 -0.0000
vt 0.375000 0.000000
vt 0.625000 0.000000
vt 0.625000 0.250000
vt 0.375000 0.250000
vt 0.625000 0.500000
vt 0.375000 0.500000
vt 0.625000 0.750000
vt 0.375000 0.750000
vt 0.625000 1.000000
vt 0.375000 1.000000
vt 0.125000 0.500000
vt 0.125000 0.750000
vt 0.875000 0.500000
vt 0.875000 0.750000
s 0
f 1/1/1 2/2/1 4/3/1 3/4/1
f 3/4/2 4/3/2 8/5/2 7/6/2
f 7/6/3 8/5/3 6/7/3 5/8/3
f 5/8/4 6/7/4 2/9/4 1/10/4
f 3/11/5 7/6/5 5/8/5 1/12/5
f 8/5/6 4/13/6 2/14/6 6/7/6
o Cube.001
v 0.020070 0.255381 0.078172
v 0.017650 0.265020 0.079278
v 0.020070 0.256976 0.064263
v 0.017650 0.266616 0.065369
v 0.033654 0.258745 0.078558
v 0.031235 0.268385 0.079664
v 0.033654 0.260341 0.064649
v 0.031235 0.269980 0.065755
vn -0.9703 -0.2403 -0.0276
vn -0.0000 0.1140 -0.9935
vn 0.9703 0.2403 0.0276
vn -0.0000 -0.1140 0.9935
vn 0.2419 -0.9640 -0.1106
vn -0.2419 0.9640 0.1106
vt 0.375000 0.000000
vt 0.625000 0.000000
vt 0.625000 0.250000
vt 0.375000 0.250000
vt 0.625000 0.500000
vt 0.375000 0.500000
vt 0.625000 0.750000
vt 0.375000 0.750000
vt 0.625000 1.000000
vt 0.375000 1.000000
vt 0.125000 0.500000
vt 0.125000 0.750000
vt 0.875000 0.500000
vt 0.875000 0.750000
s 0
f 9/15/7 10/16/7 12/17/7 11/18/7
f 11/18/8 12/17/8 16/19/8 15/20/8
f 15/20/9 16/19/9 14/21/9 13/22/9
f 13/22/10 14/21/10 10/23/10 9/24/10
f 11/25/11 15/20/11 13/22/11 9/26/11
f 16/19/12 12/27/12 10/28/12 14/21/12
o Cube.003
v 0.024604 0.238846 0.068265
v 0.018314 0.263590 0.073181
v 0.024604 0.241574 0.054533
v 0.018314 0.266318 0.059449
v 0.038188 0.242168 0.068925
v 0.031898 0.266912 0.073841
v 0.038188 0.244896 0.055193
v 0.031898 0.269640 0.060109
vn -0.9703 -0.2373 -0.0471
vn -0.0000 0.1949 -0.9808
vn 0.9703 0.2373 0.0471
vn -0.0000 -0.1949 0.9808
vn 0.2419 -0.9517 -0.1891
vn -0.2419 0.9517 0.1891
vt 0.375000 0.000000
vt 0.625000 0.000000
vt 0.625000 0.250000
vt 0.375000 0.250000
vt 0.625000 0.500000
vt 0.375000 0.500000
vt 0.625000 0.750000
vt 0.375000 0.750000
vt 0.625000 1.000000
vt 0.375000 1.000000
vt 0.125000 0.500000
vt 0.125000 0.750000
vt 0.875000 0.500000
vt 0.875000 0.750000
s 0
f 17/29/13 18/30/13 20/31/13 19/32/13
f 19/32/14 20/31/14 24/33/14 23/34/14
f 23/34/15 24/33/15 22/35/15 21/36/15
f 21/36/16 22/35/16 18/37/16 17/38/16
f 19/39/17 23/34/17 21/36/17 17/40/17
f 24/33/18 20/41/18 18/42/18 22/35/18
o Cube.004
v 0.014710 0.273579 0.080036
v 0.012290 0.282268 0.084354
v 0.014710 0.277139 0.072872
v 0.012290 0.285828 0.077190
v 0.028294 0.276612 0.081543
v 0.025875 0.285300 0.085862
v 0.028294 0.280172 0.074379
v 0.025875 0.288861 0.078698
vn -0.9703 -0.2166 -0.1077
vn -0.0000 0.4451 -0.8955
vn 0.9703 0.2166 0.1077
vn -0.0000 -0.4451 0.8955
vn 0.2419 -0.8689 -0.4319
vn -0.2419 0.8689 0.4319
vt 0.375000 0.000000
vt 0.625000 0.000000
vt 0.625000 0.250000
vt 0.375000 0.250000
vt 0.625000 0.500000
vt 0.375000 0.500000
vt 0.625000 0.750000
vt 0.375000 0.750000
vt 0.625000 1.000000
vt 0.375000 1.000000
vt 0.125000 0.500000
vt 0.125000 0.750000
vt 0.875000 0.500000
vt 0.875000 0.750000
s 0
f 25/43/19 26/44/19 28/45/19 27/46/19
f 27/46/20 28/45/20 32/47/20 31/48/20
f 31/48/21 32/47/21 30/49/21 29/50/21
f 29/50/22 30/49/22 26/51/22 25/52/22
f 27/53/23 31/48/23 29/50/23 25/54/23
f 32/47/24 28/55/24 26/56/24 30/49/24
o Cube.002
v 0.009589 0.289929 0.088620
v 0.008622 0.293308 0.090529
v 0.009589 0.293864 0.081654
v 0.008622 0.297243 0.083563
v 0.023174 0.292878 0.090286
v 0.022206 0.296257 0.092195
v 0.023174 0.296812 0.083320
v 0.022206 0.300192 0.085229
vn -0.9703 -0.2106 -0.1190
vn -0.0000 0.4919 -0.8707
vn 0.9703 0.2106 0.1190
vn -0.0000 -0.4919 0.8707
vn 0.2419 -0.8448 -0.4772
vn -0.2419 0.8448 0.4772
vt 0.375000 0.000000
vt 0.625000 0.000000
vt 0.625000 0.250000
vt 0.375000 0.250000
vt 0.625000 0.500000
vt 0.375000 0.500000
vt 0.625000 0.750000
vt 0.375000 0.750000
vt 0.625000 1.000000
vt 0.375000 1.000000
vt 0.125000 0.500000
vt 0.125000 0.750000
vt 0.875000 0.500000
vt 0.875000 0.750000
s 0
f 33/57/25 34/58/25 36/59/25 35/60/25
f 35/60/26 36/59/26 40/61/26 39/62/26
f 39/62/27 40/61/27 38/63/27 37/64/27
f 37/64/28 38/63/28 34/65/28 33/66/28
f 35/67/29 39/62/29 37/64/29 33/68/29
f 40/61/30 36/69/30 34/70/30 38/63/30
o Cube.005
v 0.011997 0.282196 0.084217
v 0.009578 0.290644 0.088989
v 0.011997 0.286131 0.077251
v 0.009578 0.294579 0.082024
v 0.025581 0.285145 0.085882
v 0.023162 0.293593 0.090655
v 0.025581 0.289080 0.078917
v 0.023162 0.297528 0.083689
vn -0.9703 -0.2106 -0.1190
vn -0.0000 0.4919 -0.8707
vn 0.9703 0.2106 0.1190
vn -0.0000 -0.4919 0.8707
vn 0.2419 -0.8448 -0.4772
vn -0.2419 0.8448 0.4772
vt 0.375000 0.000000
vt 0.625000 0.000000
vt 0.625000 0.250000
vt 0.375000 0.250000
vt 0.625000 0.500000
vt 0.375000 0.500000
vt 0.625000 0.750000
vt 0.375000 0.750000
vt 0.625000 1.000000
vt 0.375000 1.000000
vt 0.125000 0.500000
vt 0.125000 0.750000
vt 0.875000 0.500000
vt 0.875000 0.750000
s 0
f 41/71/31 42/72/31 44/73/31 43/74/31
f 43/74/32 44/73/32 48/75/32 47/76/32
f 47/76/33 48/75/33 46/77/33 45/78/33
f 45/78/34 46/77/34 42/79/34 41/80/34
f 43/81/35 47/76/35 45/78/35 41/82/35
f 48/75/36 44/83/36 42/84/36 46/77/36
o Cube.006
v 0.018022 0.265472 0.078938
v 0.015603 0.275057 0.080445
v 0.018022 0.267646 0.065108
v 0.015603 0.277231 0.066615
v 0.031606 0.268818 0.079464
v 0.029187 0.278403 0.080971
v 0.031606 0.270992 0.065634
v 0.029187 0.280577 0.067140
vn -0.9703 -0.2390 -0.0376
vn -0.0000 0.1553 -0.9879
vn 0.9703 0.2390 0.0376
vn -0.0000 -0.1553 0.9879
vn 0.2419 -0.9585 -0.1506
vn -0.2419 0.9585 0.1506
vt 0.375000 0.000000
vt 0.625000 0.000000
vt 0.625000 0.250000
vt 0.375000 0.250000
vt 0.625000 0.500000
vt 0.375000 0.500000
vt 0.625000 0.750000
vt 0.375000 0.750000
vt 0.625000 1.000000
vt 0.375000 1.000000
vt 0.125000 0.500000
vt 0.125000 0.750000
vt 0.875000 0.500000
vt 0.875000 0.750000
s 0
f 49/85/37 50/86/37 52/87/37 51/88/37
f 51/88/38 52/87/38 56/89/38 55/90/38
f 55/90/39 56/89/39 54/91/39 53/92/39
f 53/92/40 54/91/40 50/93/40 49/94/40
f 51/95/41 55/90/41 53/92/41 49/96/41
f 56/89/42 52/97/42 50/98/42 54/91/42
o Cube.007
v 0.017119 0.269493 0.065218
v 0.010829 0.288878 0.081363
v 0.017119 0.273333 0.060607
v 0.010829 0.292718 0.076753
v 0.030703 0.272096 0.067385
v 0.024413 0.291480 0.083531
v 0.030703 0.275936 0.062775
v 0.024413 0.295320 0.078920
vn -0.9703 -0.1859 -0.1548
vn -0.0000 0.6400 -0.7684
vn 0.9703 0.1859 0.1548
vn -0.0000 -0.6400 0.7684
vn 0.2419 -0.7456 -0.6210
vn -0.2419 0.7456 0.6210
vt 0.375000 0.000000
vt 0.625000 0.000000
vt 0.625000 0.250000
vt 0.375000 0.250000
vt 0.625000 0.500000
vt 0.375000 0.500000
vt 0.625000 0.750000
vt 0.375000 0.750000
vt 0.625000 1.000000
vt 0.375000 1.000000
vt 0.125000 0.500000
vt 0.125000 0.750000
vt 0.875000 0.500000
vt 0.875000 0.750000
s 0
f 57/99/43 58/100/43 60/101/43 59/102/43
f 59/102/44 60/101/44 64/103/44 63/104/44
f 63/104/45 64/103/45 62/105/45 61/106/45
f 61/106/46 62/105/46 58/107/46 57/108/46
f 59/109/47 63/104/47 61/106/47 57/110/47
f 64/103/48 60/111/48 58/112/48 62/105/48
