# Blender 4.5.3 LTS
# www.blender.org
mtllib pinza2_phy.mtl
o Cube
v -0.060851 0.243928 0.108142
v -0.065448 0.262326 0.106970
v -0.060851 0.242657 0.088182
v -0.065448 0.261055 0.087011
v -0.047267 0.247308 0.107926
v -0.051864 0.265706 0.106755
v -0.047267 0.246037 0.087967
v -0.051864 0.264435 0.086795
vn -0.9703 -0.2414 0.0154
vn -0.0000 -0.0635 -0.9980
vn 0.9703 0.2414 -0.0154
vn -0.0000 0.0635 0.9980
vn 0.2419 -0.9683 0.0617
vn -0.2419 0.9683 -0.0617
vt 0.375000 0.000000
vt 0.625000 0.000000
vt 0.625000 0.250000
vt 0.375000 0.250000
vt 0.625000 0.500000
vt 0.375000 0.500000
vt 0.625000 0.750000
vt 0.375000 0.750000
vt 0.625000 1.000000
vt 0.375000 1.000000
vt 0.125000 0.500000
vt 0.125000 0.750000
vt 0.875000 0.500000
vt 0.875000 0.750000
s 0
f 1/1/1 2/2/1 4/3/1 3/4/1
f 3/4/2 4/3/2 8/5/2 7/6/2
f 7/6/3 8/5/3 6/7/3 5/8/3
f 5/8/4 6/7/4 2/9/4 1/10/4
f 3/11/5 7/6/5 5/8/5 1/12/5
f 8/5/6 4/13/6 2/14/6 6/7/6
o Cube.001
v -0.056342 0.225527 0.108349
v -0.061037 0.244357 0.113187
v -0.057782 0.231302 0.084479
v -0.062476 0.250131 0.089318
v -0.042758 0.228914 0.108349
v -0.047452 0.247744 0.113187
v -0.044198 0.234689 0.084479
v -0.048892 0.253518 0.089318
vn -0.9703 -0.2419 -0.0000
vn -0.0585 0.2347 -0.9703
vn 0.9703 0.2419 -0.0000
vn 0.0585 -0.2347 0.9703
vn 0.2347 -0.9415 -0.2419
vn -0.2347 0.9415 0.2419
vt 0.375000 0.000000
vt 0.625000 0.000000
vt 0.625000 0.250000
vt 0.375000 0.250000
vt 0.625000 0.500000
vt 0.375000 0.500000
vt 0.625000 0.750000
vt 0.375000 0.750000
vt 0.625000 1.000000
vt 0.375000 1.000000
vt 0.125000 0.500000
vt 0.125000 0.750000
vt 0.875000 0.500000
vt 0.875000 0.750000
s 0
f 9/15/7 10/16/7 12/17/7 11/18/7
f 11/18/8 12/17/8 16/19/8 15/20/8
f 15/20/9 16/19/9 14/21/9 13/22/9
f 13/22/10 14/21/10 10/23/10 9/24/10
f 11/25/11 15/20/11 13/22/11 9/26/11
f 16/19/12 12/27/12 10/28/12 14/21/12
o Cube.002
v -0.064572 0.263101 0.105597
v -0.068084 0.274265 0.102945
v -0.064521 0.258956 0.088081
v -0.068033 0.270120 0.085429
v -0.051185 0.267097 0.104691
v -0.054698 0.278261 0.102039
v -0.051134 0.262952 0.087175
v -0.054647 0.274116 0.084523
vn -0.9562 -0.2855 0.0648
vn 0.0028 -0.2303 -0.9731
vn 0.9562 0.2855 -0.0648
vn -0.0028 0.2303 0.9731
vn 0.2927 -0.9303 0.2210
vn -0.2927 0.9303 -0.2210
vt 0.375000 0.000000
vt 0.625000 0.000000
vt 0.625000 0.250000
vt 0.375000 0.250000
vt 0.625000 0.500000
vt 0.375000 0.500000
vt 0.625000 0.750000
vt 0.375000 0.750000
vt 0.625000 1.000000
vt 0.375000 1.000000
vt 0.125000 0.500000
vt 0.125000 0.750000
vt 0.875000 0.500000
vt 0.875000 0.750000
s 0
f 17/29/13 18/30/13 20/31/13 19/32/13
f 19/32/14 20/31/14 24/33/14 23/34/14
f 23/34/15 24/33/15 22/35/15 21/36/15
f 21/36/16 22/35/16 18/37/16 17/38/16
f 19/39/17 23/34/17 21/36/17 17/40/17
f 24/33/18 20/41/18 18/42/18 22/35/18
o Cube.003
v -0.067567 0.272367 0.093010
v -0.071080 0.283341 0.089658
v -0.067544 0.270037 0.085356
v -0.071057 0.281011 0.082005
v -0.054180 0.276298 0.091852
v -0.057693 0.287272 0.088501
v -0.054158 0.273968 0.084199
v -0.057670 0.284942 0.080848
vn -0.9562 -0.2808 0.0826
vn 0.0028 -0.2912 -0.9567
vn 0.9562 0.2808 -0.0826
vn -0.0028 0.2912 0.9567
vn 0.2927 -0.9145 0.2793
vn -0.2927 0.9145 -0.2793
vt 0.375000 0.000000
vt 0.625000 0.000000
vt 0.625000 0.250000
vt 0.375000 0.250000
vt 0.625000 0.500000
vt 0.375000 0.500000
vt 0.625000 0.750000
vt 0.375000 0.750000
vt 0.625000 1.000000
vt 0.375000 1.000000
vt 0.125000 0.500000
vt 0.125000 0.750000
vt 0.875000 0.500000
vt 0.875000 0.750000
s 0
f 25/43/19 26/44/19 28/45/19 27/46/19
f 27/46/20 28/45/20 32/47/20 31/48/20
f 31/48/21 32/47/21 30/49/21 29/50/21
f 29/50/22 30/49/22 26/51/22 25/52/22
f 27/53/23 31/48/23 29/50/23 25/54/23
f 32/47/24 28/55/24 26/56/24 30/49/24
o Cube.004
v -0.067160 0.270873 0.105153
v -0.077112 0.296568 0.085235
v -0.067137 0.265977 0.098826
v -0.077089 0.291673 0.078908
v -0.053773 0.274137 0.102675
v -0.063725 0.299832 0.082758
v -0.053750 0.269242 0.096348
v -0.063702 0.294937 0.076431
vn -0.9562 -0.2332 0.1770
vn 0.0028 -0.6120 -0.7909
vn 0.9562 0.2332 -0.1770
vn -0.0028 0.6120 0.7909
vn 0.2927 -0.7557 0.5858
vn -0.2927 0.7557 -0.5858
vt 0.375000 0.000000
vt 0.625000 0.000000
vt 0.625000 0.250000
vt 0.375000 0.250000
vt 0.625000 0.500000
vt 0.375000 0.500000
vt 0.625000 0.750000
vt 0.375000 0.750000
vt 0.625000 1.000000
vt 0.375000 1.000000
vt 0.125000 0.500000
vt 0.125000 0.750000
vt 0.875000 0.500000
vt 0.875000 0.750000
s 0
f 33/57/25 34/58/25 36/59/25 35/60/25
f 35/60/26 36/59/26 40/61/26 39/62/26
f 39/62/27 40/61/27 38/63/27 37/64/27
f 37/64/28 38/63/28 34/65/28 33/66/28
f 35/67/29 39/62/29 37/64/29 33/68/29
f 40/61/30 36/69/30 34/70/30 38/63/30
o Cube.005
v -0.073417 0.291633 0.080783
v -0.074588 0.295451 0.080553
v -0.073395 0.291160 0.072797
v -0.074565 0.294978 0.072567
v -0.060031 0.295726 0.080578
v -0.061201 0.299544 0.080349
v -0.060008 0.295253 0.072592
v -0.061179 0.299071 0.072363
vn -0.9562 -0.2924 0.0146
vn 0.0028 -0.0591 -0.9982
vn 0.9562 0.2924 -0.0146
vn -0.0028 0.0591 0.9982
vn 0.2927 -0.9545 0.0574
vn -0.2927 0.9545 -0.0574
vt 0.375000 0.000000
vt 0.625000 0.000000
vt 0.625000 0.250000
vt 0.375000 0.250000
vt 0.625000 0.500000
vt 0.375000 0.500000
vt 0.625000 0.750000
vt 0.375000 0.750000
vt 0.625000 1.000000
vt 0.375000 1.000000
vt 0.125000 0.500000
vt 0.125000 0.750000
vt 0.875000 0.500000
vt 0.875000 0.750000
s 0
f 41/71/31 42/72/31 44/73/31 43/74/31
f 43/74/32 44/73/32 48/75/32 47/76/32
f 47/76/33 48/75/33 46/77/33 45/78/33
f 45/78/34 46/77/34 42/79/34 41/80/34
f 43/81/35 47/76/35 45/78/35 41/82/35
f 48/75/36 44/83/36 42/84/36 46/77/36
o Cube.006
v -0.069096 0.286334 0.089403
v -0.072608 0.294851 0.081714
v -0.069073 0.280978 0.083460
v -0.072586 0.289495 0.075771
v -0.055709 0.289404 0.086688
v -0.059222 0.297921 0.078999
v -0.055686 0.284048 0.080745
v -0.059199 0.292565 0.073056
vn -0.9562 -0.2193 0.1939
vn 0.0028 -0.6695 -0.7429
vn 0.9562 0.2193 -0.1939
vn -0.0028 0.6695 0.7429
vn 0.2927 -0.7098 0.6407
vn -0.2927 0.7098 -0.6407
vt 0.375000 0.000000
vt 0.625000 0.000000
vt 0.625000 0.250000
vt 0.375000 0.250000
vt 0.625000 0.500000
vt 0.375000 0.500000
vt 0.625000 0.750000
vt 0.375000 0.750000
vt 0.625000 1.000000
vt 0.375000 1.000000
vt 0.125000 0.500000
vt 0.125000 0.750000
vt 0.875000 0.500000
vt 0.875000 0.750000
s 0
f 49/85/37 50/86/37 52/87/37 51/88/37
f 51/88/38 52/87/38 56/89/38 55/90/38
f 55/90/39 56/89/39 54/91/39 53/92/39
f 53/92/40 54/91/40 50/93/40 49/94/40
f 51/95/41 55/90/41 53/92/41 49/96/41
f 56/89/42 52/97/42 50/98/42 54/91/42
o Cube.007
v -0.060337 0.241943 0.112025
v -0.069119 0.269821 0.105264
v -0.060315 0.240064 0.104249
v -0.069096 0.267942 0.097488
v -0.046951 0.245935 0.111100
v -0.055732 0.273813 0.104339
v -0.046928 0.244057 0.103324
v -0.055709 0.271934 0.096563
vn -0.9562 -0.2852 0.0661
vn 0.0028 -0.2348 -0.9720
vn 0.9562 0.2852 -0.0661
vn -0.0028 0.2348 0.9720
vn 0.2927 -0.9293 0.2254
vn -0.2927 0.9293 -0.2254
vt 0.375000 0.000000
vt 0.625000 0.000000
vt 0.625000 0.250000
vt 0.375000 0.250000
vt 0.625000 0.500000
vt 0.375000 0.500000
vt 0.625000 0.750000
vt 0.375000 0.750000
vt 0.625000 1.000000
vt 0.375000 1.000000
vt 0.125000 0.500000
vt 0.125000 0.750000
vt 0.875000 0.500000
vt 0.875000 0.750000
s 0
f 57/99/43 58/100/43 60/101/43 59/102/43
f 59/102/44 60/101/44 64/103/44 63/104/44
f 63/104/45 64/103/45 62/105/45 61/106/45
f 61/106/46 62/105/46 58/107/46 57/108/46
f 59/109/47 63/104/47 61/106/47 57/110/47
f 64/103/48 60/111/48 58/112/48 62/105/48
