# Blender 4.0.2
# www.blender.org
o weight_left
v 0.125432 0.100260 0.136297
v 0.128926 0.099674 0.131635
v 0.120943 0.097474 0.136430
v 0.128494 0.103333 0.136441
v 0.123844 0.102683 0.136440
v 0.124733 0.095830 0.136277
v 0.129445 0.099382 0.136369
v 0.124712 0.098997 0.131639
v 0.098043 0.109169 0.131804
v 0.098586 0.084469 0.131703
v 0.125276 0.095634 0.131641
v 0.103464 0.115891 0.131697
v 0.150331 0.115908 0.131673
v 0.106516 0.116017 0.135409
v 0.100939 0.112469 0.136522
v 0.148668 0.116154 0.134301
v 0.153016 0.113498 0.134345
v 0.148947 0.113779 0.138635
v 0.105675 0.113298 0.139233
v 0.153750 0.109978 0.137798
v 0.148895 0.108974 0.141595
v 0.132939 0.099480 0.141798
v 0.104970 0.108573 0.141618
v 0.151710 0.086544 0.140070
v 0.147866 0.086438 0.141732
v 0.130440 0.102836 0.141817
v 0.124721 0.103534 0.141760
v 0.121003 0.099204 0.141767
v 0.122445 0.093177 0.141806
v 0.105978 0.086782 0.141746
v 0.127451 0.091352 0.141871
v 0.123948 0.092464 0.136440
v 0.127560 0.094782 0.136347
v 0.129738 0.092185 0.136438
v 0.129582 0.096246 0.136362
v 0.132870 0.095395 0.141774
v 0.132754 0.096140 0.136441
v 0.130994 0.092838 0.141867
v 0.132049 0.100865 0.136438
v 0.128664 0.095489 0.131640
v 0.104724 0.078842 0.131709
v 0.150506 0.079157 0.131701
v 0.155425 0.084514 0.131643
v 0.155921 0.109751 0.131780
v 0.155453 0.085404 0.134417
v 0.151402 0.080515 0.134926
v 0.153629 0.085152 0.137872
v 0.148675 0.081948 0.139194
v 0.104853 0.082499 0.139636
v 0.147596 0.079196 0.135494
v 0.106061 0.079830 0.136559
v 0.102364 0.080662 0.134692
v 0.099265 0.085197 0.136130
v 0.099883 0.108681 0.137644
v 0.101258 0.087154 0.139411
vn -0.0092 -0.9930 0.1178
vn -0.0454 -0.9948 0.0910
vn 0.1544 -0.9593 0.2363
vn -0.2130 -0.9764 -0.0370
vn 0.0190 -0.0314 0.9993
vn 0.0446 -0.0011 0.9990
vn 0.0301 0.0267 0.9992
vn 0.0268 -0.0413 0.9988
vn -0.0211 -0.0137 0.9997
vn -0.0121 -0.0313 0.9994
vn 0.9999 0.0146 0.0055
vn 0.9819 -0.1544 -0.1098
vn 0.9993 -0.0280 -0.0236
vn -0.0067 -0.0050 -1.0000
vn 0.0025 0.0003 -1.0000
vn -0.0025 0.0009 -1.0000
vn -0.0071 -0.0024 -1.0000
vn -0.0029 0.0006 -1.0000
vn -0.0010 -0.0025 -1.0000
vn 0.9804 0.1646 0.1080
vn 0.0062 -0.0058 -1.0000
vn -0.0004 0.9956 -0.0934
vn -0.0038 0.9994 -0.0347
vn -0.0005 0.9959 -0.0910
vn -0.2411 0.8353 0.4941
vn -0.6010 0.7658 0.2287
vn -0.6855 0.5902 0.4262
vn -0.0040 0.9995 -0.0306
vn -0.9364 0.2641 0.2311
vn 0.6997 0.6814 0.2148
vn 0.5889 0.7980 0.1279
vn 0.3030 0.8635 0.4031
vn 0.2703 0.7007 0.6602
vn -0.2371 0.6489 0.7230
vn 0.2896 0.2477 0.9245
vn 0.7649 0.2907 0.5747
vn 0.0008 0.0339 0.9994
vn 0.0078 0.0017 1.0000
vn 0.1854 -0.2361 0.9539
vn -0.3066 0.2283 0.9240
vn -0.0016 0.0246 0.9997
vn 0.5579 -0.1918 0.8074
vn 0.8210 -0.5668 0.0678
vn 0.8171 -0.5732 0.0615
vn 0.7585 -0.6514 -0.0208
vn -0.0060 0.0056 1.0000
vn -0.2274 -0.9704 0.0810
vn -0.0048 -0.9994 0.0344
vn 0.1373 -0.9814 0.1345
vn -0.5107 -0.8597 0.0057
vn 0.9230 0.3819 0.0475
vn 0.9292 0.3679 0.0345
vn 0.9691 0.2313 -0.0859
vn 0.8641 -0.4816 0.1464
vn -0.0074 0.0095 0.9999
vn 0.8451 0.5071 0.1693
vn -0.2068 -0.2025 0.9572
vn -0.0004 -0.0190 0.9998
vn 0.1899 0.9787 0.0778
vn 0.3426 0.9390 -0.0288
vn -0.0236 0.9990 0.0383
vn -0.0079 0.0328 0.9994
vn 0.0182 0.0409 0.9990
vn -0.0131 0.0249 0.9996
vn -0.1133 0.9881 0.1039
vn -0.0235 0.0094 0.9997
vn -0.0247 0.0054 0.9997
vn -0.7953 0.5965 0.1081
vn -0.7938 0.5989 0.1058
vn -0.7989 0.5906 0.1137
vn -0.7911 0.6032 0.1016
vn -0.3868 0.9219 -0.0214
vn 0.0072 0.0074 0.9999
vn 0.0091 0.0028 1.0000
vn -0.0196 -0.0121 0.9997
vn -0.9558 -0.2921 0.0336
vn -0.9931 -0.0808 0.0847
vn -0.9996 0.0167 0.0242
vn -0.8449 -0.5256 0.0993
vn -0.9815 0.0618 0.1811
vn -0.9901 0.0041 0.1404
vn -0.9879 0.0228 0.1536
vn -0.9934 -0.0437 0.1062
vn -0.5864 0.8099 -0.0158
vn -0.0010 -0.0028 -1.0000
vn 0.0014 -0.0018 -1.0000
vn -0.0023 -0.0068 -1.0000
vn -0.0004 -0.0013 -1.0000
vn 0.0057 -0.0023 -1.0000
vn 0.1513 0.9829 0.1046
vn 0.2329 0.9705 0.0627
vn 0.0424 0.9865 0.1581
vn 0.9320 0.2697 0.2421
vn 0.9998 -0.0196 -0.0039
vn 0.9740 -0.0100 0.2262
vn 0.7221 -0.6608 0.2047
vn 0.7426 -0.6228 0.2462
vn 0.7585 -0.6440 0.0996
vn 0.5897 -0.7432 0.3162
vn 0.6208 -0.5634 0.5451
vn 0.8334 -0.0024 0.5527
vn 0.2557 -0.6459 0.7194
vn -0.3094 -0.5889 0.7466
vn 0.1277 -0.9318 0.3398
vn -0.1636 -0.8807 0.4445
vn -0.3005 -0.9415 0.1527
vn 0.1893 -0.9696 0.1553
vn -0.5973 -0.7599 0.2564
vn -0.8588 -0.3184 0.4013
vn -0.7507 -0.6493 0.1220
vn -0.8014 0.1870 0.5682
vn -0.6555 -0.1699 0.7359
vn -0.9876 -0.0224 0.1552
vn 0.3476 0.9377 0.0012
s 1
g off
f 2//1 1//2 8//3
f 2//1 7//4 1//2
f 1//5 3//6 6//7
f 1//5 5//8 3//6
f 7//9 4//10 1//5
f 1//5 4//10 5//8
f 8//11 1//12 6//13
f 12//14 2//15 8//16
f 9//17 12//14 8//16
f 8//16 10//18 9//17
f 10//18 8//16 11//19
f 8//11 6//13 11//20
f 13//21 2//15 12//14
f 13//22 12//23 16//24
f 14//25 12//26 15//27
f 16//24 12//23 14//28
f 12//26 9//29 15//27
f 17//30 13//31 16//32
f 18//33 17//30 16//32
f 16//32 14//25 18//33
f 18//33 14//25 19//34
f 18//33 19//34 21//35
f 21//35 20//36 18//33
f 18//33 20//36 17//30
f 21//35 26//37 22//38
f 21//35 22//38 25//39
f 21//35 19//34 23//40
f 23//40 27//41 21//35
f 24//42 21//35 25//39
f 24//42 20//36 21//35
f 21//35 27//41 26//37
f 28//43 5//44 27//45
f 23//40 28//46 27//41
f 4//47 27//48 5//49
f 4//47 26//50 27//48
f 29//51 3//52 28//53
f 28//43 3//54 5//44
f 23//40 29//55 28//46
f 29//51 32//56 3//52
f 30//57 29//55 23//40
f 30//57 31//58 29//55
f 32//59 29//60 31//61
f 33//62 32//63 34//64
f 6//7 32//63 33//62
f 32//59 31//61 34//65
f 6//7 3//6 32//63
f 33//62 34//64 35//66
f 35//66 34//64 37//67
f 36//68 34//69 38//70
f 36//68 37//71 34//69
f 34//65 31//61 38//72
f 36//73 38//74 25//39
f 25//39 38//74 31//58
f 35//66 37//67 39//75
f 22//76 37//77 36//78
f 22//76 39//79 37//77
f 35//66 39//75 7//9
f 26//50 39//79 22//76
f 7//9 39//75 4//10
f 39//79 26//50 4//47
f 25//39 22//38 36//73
f 40//80 35//81 2//82
f 2//82 35//81 7//83
f 40//84 33//84 35//84
f 41//85 40//86 42//87
f 41//85 11//19 40//86
f 40//86 43//88 42//87
f 44//89 43//88 40//86
f 40//86 2//15 44//89
f 11//90 33//91 40//92
f 17//30 44//93 13//31
f 2//15 13//21 44//89
f 17//30 20//36 44//93
f 43//94 44//93 45//95
f 45//95 44//93 20//36
f 43//96 45//97 42//98
f 45//97 46//99 42//98
f 45//97 47//100 46//99
f 45//95 20//36 47//101
f 46//99 47//100 48//102
f 47//100 24//42 48//102
f 47//101 20//36 24//42
f 49//103 48//102 25//39
f 24//42 25//39 48//102
f 49//103 50//104 48//102
f 46//99 48//102 50//104
f 51//105 50//104 49//103
f 41//106 42//107 50//104
f 41//106 50//104 51//105
f 42//107 46//99 50//104
f 51//105 52//108 41//106
f 49//103 52//108 51//105
f 49//103 53//109 52//108
f 53//109 10//110 52//108
f 52//108 10//110 41//106
f 9//29 53//109 54//111
f 54//111 53//109 55//112
f 9//29 10//113 53//109
f 49//103 55//112 53//109
f 54//111 55//112 23//40
f 23//40 55//112 30//57
f 30//57 55//112 49//103
f 54//111 23//40 15//27
f 9//29 54//111 15//27
f 49//103 25//39 30//57
f 11//19 41//85 10//18
f 11//90 6//114 33//91
f 30//57 25//39 31//58
f 15//27 23//40 19//34
f 15//27 19//34 14//25
