# Blender v3.0.1 OBJ File: 'falcon_final.obj.blend'
# www.blender.org
mtllib camera.mtl
o camera_obj12.001
v 0.235747 -0.005010 -0.100777
v 0.235644 -0.016686 -0.097095
v 0.188638 -0.015335 -0.097589
v 0.188765 -0.000894 -0.101087
v 0.235849 0.006611 -0.099546
v 0.235096 -0.011361 -0.093609
v 0.235095 -0.003623 -0.095290
v 0.235438 0.004440 -0.094474
v 0.234684 -0.026262 -0.076159
v 0.234945 -0.026359 -0.065924
v 0.235509 -0.032170 -0.068213
v 0.235520 -0.030907 -0.079478
v 0.235582 -0.023818 -0.082381
v 0.235027 -0.022649 -0.056919
v 0.235539 -0.028718 -0.056343
v 0.235084 -0.015796 -0.050067
v 0.235192 -0.006913 -0.046386
v 0.235609 -0.020730 -0.046923
v 0.188587 -0.021141 -0.047589
v 0.188677 -0.010865 -0.041903
v 0.235701 -0.010257 -0.041598
v 0.188803 0.003454 -0.040667
v 0.235803 0.001401 -0.040665
v 0.235264 0.002635 -0.046361
v 0.235925 0.015315 -0.045680
v 0.188941 0.019189 -0.048486
v 0.235874 0.009497 -0.048834
v 0.235041 0.014938 -0.052577
v 0.236008 0.024780 -0.056825
v 0.235381 0.020738 -0.061027
v 0.235988 0.022520 -0.068227
v 0.236039 0.028367 -0.071421
v 0.189010 0.027075 -0.061348
v 0.189021 0.028331 -0.075925
v 0.236003 0.024279 -0.085435
v 0.235388 0.018528 -0.084413
v 0.235109 0.022387 -0.074957
v 0.235325 0.011674 -0.091265
v 0.235936 0.016599 -0.094409
v 0.188965 0.021964 -0.089493
v 0.188886 0.012966 -0.097095
v 0.188956 0.020939 -0.099406
v 0.188850 0.008849 -0.105624
v 0.189037 0.030236 -0.088543
v 0.126623 0.022481 -0.098599
v 0.126509 0.009456 -0.105733
v 0.189076 0.034660 -0.074904
v 0.126701 0.031389 -0.087420
v 0.189065 0.033380 -0.059983
v 0.126736 0.035332 -0.073635
v 0.126647 0.025237 -0.085435
v 0.126683 0.029325 -0.071421
v 0.126722 0.033804 -0.059999
v 0.126667 0.027482 -0.047876
v 0.126638 0.024189 -0.053567
v 0.049001 0.028414 -0.061854
v 0.048936 0.021029 -0.048945
v 0.126517 0.010361 -0.042564
v 0.126395 -0.003512 -0.040561
v 0.048793 0.004680 -0.040667
v 0.126503 0.008808 -0.035480
v 0.126594 0.019116 -0.040399
v 0.188856 0.009496 -0.035849
v 0.188984 0.024156 -0.044511
v 0.188732 -0.004564 -0.034225
v 0.188613 -0.018215 -0.038076
v 0.126380 -0.005304 -0.034350
v 0.126261 -0.018805 -0.038675
v 0.188515 -0.029426 -0.046893
v 0.126166 -0.029697 -0.047876
v 0.188525 -0.028205 -0.056366
v 0.188451 -0.036688 -0.059983
v 0.126215 -0.024051 -0.051026
v 0.126098 -0.037403 -0.064299
v 0.126297 -0.014789 -0.043742
v 0.048668 -0.009638 -0.041903
v 0.048578 -0.019914 -0.047589
v 0.048500 -0.028789 -0.059604
v 0.126156 -0.030794 -0.063926
v 0.048485 -0.030427 -0.074167
v 0.049012 0.029677 -0.073119
v 0.048984 0.026419 -0.084507
v 0.126162 -0.030146 -0.078977
v 0.048516 -0.026979 -0.084965
v 0.048601 -0.017235 -0.096150
v 0.126212 -0.024443 -0.089927
v 0.126293 -0.015222 -0.097315
v 0.126166 -0.029697 -0.093456
v 0.126111 -0.036019 -0.081333
v 0.188443 -0.037588 -0.078824
v 0.188504 -0.030596 -0.079491
v 0.188495 -0.031653 -0.067164
v 0.188557 -0.024597 -0.090305
v 0.188515 -0.029426 -0.094439
v 0.235566 -0.025684 -0.089493
v 0.235028 -0.019401 -0.088333
v 0.188608 -0.018739 -0.102923
v 0.126266 -0.018284 -0.103012
v 0.126386 -0.004574 -0.100667
v 0.188727 -0.005218 -0.107115
v 0.126385 -0.004650 -0.106995
v 0.048727 -0.002832 -0.100770
v 0.126488 0.007084 -0.099734
v 0.048829 0.008784 -0.099429
v 0.126580 0.017557 -0.094409
v 0.048919 0.019060 -0.093743
vt 0.917650 0.956060
vt 0.920280 0.956060
vt 0.920080 0.967870
vt 0.916770 0.967870
vt 0.914740 0.956060
vt 0.898760 0.953290
vt 0.897720 0.952070
vt 0.900800 0.952010
vt 0.900740 0.953430
vt 0.903510 0.953120
vt 0.902630 0.954190
vt 0.893940 0.956450
vt 0.893190 0.958910
vt 0.891960 0.957950
vt 0.893050 0.955320
vt 0.894970 0.955120
vt 0.893460 0.961340
vt 0.891950 0.961050
vt 0.894630 0.963480
vt 0.896510 0.964990
vt 0.893220 0.963890
vt 0.821330 0.951120
vt 0.821330 0.953710
vt 0.809520 0.953480
vt 0.809520 0.956360
vt 0.821330 0.956620
vt 0.895370 0.965910
vt 0.809520 0.959900
vt 0.821330 0.959490
vt 0.898810 0.965670
vt 0.898110 0.966960
vt 0.901820 0.966720
vt 0.821340 0.962490
vt 0.809530 0.963130
vt 0.900640 0.965550
vt 0.902210 0.965040
vt 0.845240 0.962090
vt 0.842000 0.961860
vt 0.845210 0.950250
vt 0.904890 0.964700
vt 0.904210 0.963410
vt 0.905150 0.961790
vt 0.906780 0.961440
vt 0.838240 0.961590
vt 0.841640 0.949990
vt 0.838010 0.949730
vt 0.835030 0.961360
vt 0.905320 0.957610
vt 0.906780 0.957770
vt 0.905590 0.960160
vt 0.904150 0.955480
vt 0.905560 0.955060
vt 0.909580 0.956060
vt 0.912000 0.956060
vt 0.910490 0.967870
vt 0.913150 0.967870
vt 0.767140 0.931590
vt 0.768650 0.930150
vt 0.770030 0.932230
vt 0.765230 0.930170
vt 0.763590 0.932310
vt 0.771980 0.931480
vt 0.951800 0.949610
vt 0.954720 0.949610
vt 0.954430 0.965270
vt 0.958030 0.965270
vt 0.958040 0.949610
vt 0.773020 0.934510
vt 0.774550 0.934000
vt 0.951580 0.965280
vt 0.830860 0.949570
vt 0.833970 0.949520
vt 0.833970 0.965180
vt 0.774440 0.937900
vt 0.827120 0.949620
vt 0.830790 0.965230
vt 0.776000 0.937470
vt 0.778880 0.936310
vt 0.777540 0.939730
vt 0.776090 0.939040
vt 0.777390 0.935680
vt 0.827370 0.965280
vt 0.776170 0.942480
vt 0.824050 0.965330
vt 0.778430 0.944310
vt 0.777480 0.945660
vt 0.847870 0.643230
vt 0.852530 0.643230
vt 0.850090 0.662740
vt 0.846530 0.662740
vt 0.844430 0.643230
vt 0.781640 0.947370
vt 0.812640 0.643490
vt 0.815840 0.643600
vt 0.813810 0.663050
vt 0.785070 0.948180
vt 0.781870 0.949180
vt 0.779400 0.947720
vt 0.817160 0.663160
vt 0.683710 0.961360
vt 0.683720 0.964280
vt 0.668050 0.963240
vt 0.821770 0.965370
vt 0.822830 0.949690
vt 0.668050 0.961100
vt 0.771590 0.945260
vt 0.775750 0.941990
vt 0.773500 0.945630
vt 0.770550 0.947620
vt 0.683710 0.958090
vt 0.768260 0.946650
vt 0.767070 0.948360
vt 0.668050 0.957780
vt 0.683710 0.954520
vt 0.765310 0.946580
vt 0.668050 0.954220
vt 0.683710 0.951200
vt 0.763540 0.947700
vt 0.668040 0.950940
vt 0.762710 0.945450
vt 0.760400 0.945630
vt 0.683700 0.948520
vt 0.790440 0.946020
vt 0.794080 0.943000
vt 0.791790 0.946940
vt 0.787790 0.949780
vt 0.790070 0.965440
vt 0.786880 0.965440
vt 0.787960 0.947640
vt 0.788850 0.949000
vt 0.809690 0.643400
vt 0.810280 0.662940
vt 0.807400 0.662850
vt 0.806950 0.643310
vt 0.890490 0.958110
vt 0.890490 0.961060
vt 0.885210 0.966940
vt 0.888920 0.954690
vt 0.804410 0.662750
vt 0.804410 0.643230
vt 0.832690 0.643470
vt 0.833090 0.663000
vt 0.829800 0.662910
vt 0.885920 0.952560
vt 0.881470 0.966990
vt 0.878840 0.965900
vt 0.876740 0.963800
vt 0.829100 0.643380
vt 0.826960 0.662840
vt 0.883130 0.952010
vt 0.879490 0.952790
vt 0.823470 0.662750
vt 0.826020 0.643300
vt 0.823470 0.643230
vt 0.789270 0.934240
vt 0.792810 0.935530
vt 0.791410 0.936300
vt 0.794120 0.938710
vt 0.792590 0.939170
vt 0.783430 0.949780
vt 0.782750 0.965440
vt 0.779340 0.965440
vt 0.759490 0.940580
vt 0.760690 0.943440
vt 0.758010 0.941540
vt 0.759570 0.937470
vt 0.779040 0.949780
vt 0.758010 0.937110
vt 0.760780 0.934770
vt 0.747120 0.965000
vt 0.744790 0.953190
vt 0.747320 0.953190
vt 0.744540 0.965000
vt 0.741720 0.953190
vt 0.741730 0.965000
vt 0.896450 0.954000
vt 0.895020 0.953270
vt 0.759400 0.933980
vt 0.776090 0.965440
vt 0.776100 0.949780
vt 0.790160 0.932890
vt 0.786680 0.933170
vt 0.961560 0.949610
vt 0.964610 0.949610
vt 0.964630 0.965280
vt 0.961550 0.965270
vt 0.786840 0.931590
vt 0.783280 0.931590
vt 0.841450 0.643230
vt 0.843850 0.643230
vt 0.844430 0.662740
vt 0.841200 0.662740
vt 0.783740 0.933140
vt 0.838550 0.643230
vt 0.876720 0.955390
vt 0.875600 0.958110
vt 0.838290 0.662740
vt 0.835680 0.643230
vt 0.835440 0.662740
vt 0.875600 0.961060
vt 0.781000 0.934240
vt 0.779870 0.933080
vt 0.833260 0.643230
vt 0.833090 0.662740
vt 0.761930 0.931470
vt 0.738960 0.965000
vt 0.738730 0.953190
vt 0.736470 0.965000
vt 0.736490 0.953190
vt 0.855750 0.643230
vt 0.855550 0.662740
vt 0.852920 0.662740
vt 0.792420 0.942950
vt 0.889020 0.964350
vt 0.809520 0.951150
vt 0.785380 0.949780
vt 0.774180 0.941690
vt 0.835030 0.949520
vn 0.7040 -0.0789 -0.7058
vn 0.6991 -0.3491 -0.6240
vn 0.7534 -0.2940 -0.5882
vn 0.7659 0.0065 -0.6430
vn 0.6992 0.1940 -0.6881
vn 0.9940 0.0334 0.1041
vn 0.9940 -0.0050 0.1092
vn 0.9966 -0.0452 0.0692
vn 0.9912 0.1144 0.0666
vn 0.9923 0.1146 -0.0466
vn 0.7009 -0.7114 0.0518
vn 0.6967 -0.6940 -0.1815
vn 0.9989 0.0335 0.0328
vn 0.9945 0.0812 -0.0661
vn 0.6899 -0.6381 0.3418
vn 0.9943 0.0473 -0.0952
vn 0.9947 0.0084 -0.1028
vn 0.6947 -0.4491 0.5618
vn 0.7486 -0.4309 0.5039
vn 0.7542 -0.1976 0.6262
vn 0.6951 -0.1980 0.6911
vn 0.7711 0.1091 0.6273
vn 0.6966 0.0882 0.7120
vn 0.9939 -0.0413 -0.1020
vn 0.6879 0.4232 0.5896
vn 0.7736 0.4247 0.4702
vn 0.9534 -0.1431 -0.2657
vn 0.9870 -0.0913 -0.1320
vn 0.7088 0.6240 0.3290
vn 0.9946 -0.1018 -0.0186
vn 0.9997 0.0039 0.0232
vn 0.6898 0.7235 -0.0279
vn 0.7635 0.6127 0.2041
vn 0.7714 0.6262 -0.1133
vn 0.7041 0.6219 -0.3427
vn 0.9922 -0.1046 0.0681
vn 0.9823 -0.1810 0.0478
vn 0.9928 -0.0583 0.1050
vn 0.7049 0.4370 -0.5587
vn 0.7591 0.5137 -0.3999
vn 0.7561 0.3040 -0.5796
vn 0.6711 0.4558 -0.5847
vn 0.6706 0.2069 -0.7124
vn 0.6724 0.6443 -0.3644
vn -0.6622 0.4859 -0.5704
vn -0.6627 0.2227 -0.7150
vn 0.6727 0.7350 -0.0849
vn -0.6609 0.6684 -0.3413
vn 0.6684 0.7079 0.2282
vn -0.6603 0.7485 -0.0617
vn -0.7518 0.5814 -0.3110
vn -0.7673 0.6412 -0.0035
vn -0.6625 0.7169 0.2170
vn -0.6655 0.5926 0.4538
vn -0.7735 0.5291 0.3489
vn -0.6610 0.7144 0.2297
vn -0.6478 0.5281 0.5491
vn -0.7647 0.2606 0.5893
vn -0.7544 -0.0377 0.6553
vn -0.6532 0.1482 0.7425
vn -0.6678 0.1987 0.7173
vn -0.6749 0.4115 0.6125
vn 0.6677 0.2303 0.7079
vn 0.6637 0.5250 0.5327
vn 0.6666 -0.0653 0.7425
vn 0.6640 -0.3437 0.6641
vn -0.6679 -0.0797 0.7400
vn -0.6701 -0.3551 0.6518
vn 0.6614 -0.5734 0.4835
vn -0.6695 -0.5863 0.4561
vn 0.7450 -0.5890 0.3133
vn 0.6562 -0.7253 0.2080
vn -0.7593 -0.4975 0.4195
vn -0.6635 -0.7360 0.1345
vn -0.7540 -0.2926 0.5881
vn -0.6679 -0.2121 0.7134
vn -0.6693 -0.4862 0.5618
vn -0.6626 -0.6962 0.2760
vn -0.7729 -0.6190 0.1393
vn -0.6723 -0.7366 -0.0743
vn -0.6603 0.7483 -0.0642
vn -0.6598 0.6697 -0.3409
vn -0.7623 -0.6247 -0.1696
vn -0.6729 -0.6435 -0.3647
vn -0.6572 -0.4089 -0.6331
vn -0.7585 -0.5012 -0.4165
vn -0.7527 -0.3022 -0.5849
vn -0.6707 -0.5769 -0.4662
vn -0.6729 -0.7091 -0.2105
vn 0.6492 -0.7424 -0.1654
vn 0.7507 -0.6325 -0.1909
vn 0.7474 -0.6603 0.0738
vn 0.7488 -0.5073 -0.4265
vn 0.6592 -0.5816 -0.4767
vn 0.6823 -0.5620 -0.4676
vn 0.9961 0.0711 0.0526
vn 0.6656 -0.3530 -0.6576
vn -0.6676 -0.3459 -0.6593
vn -0.7537 -0.0686 -0.6537
vn 0.6642 -0.0786 -0.7434
vn -0.6689 -0.0665 -0.7403
vn -0.6641 -0.0670 -0.7447
vn -0.7512 0.1854 -0.6335
vn -0.6647 0.2333 -0.7097
vn -0.7494 0.4135 -0.5171
vn -0.6623 0.4870 -0.5694
usemtl mat9.001
s 1
f 1/1/1 2/2/2 3/3/3
f 1/1/1 3/3/3 4/4/4
f 4/4/4 5/5/5 1/1/1
f 6/6/6 2/7/2 1/8/1
f 7/9/7 1/8/1 5/10/5
f 7/9/7 6/6/6 1/8/1
f 7/9/7 5/10/5 8/11/8
f 9/12/9 10/13/10 11/14/11
f 9/12/9 11/14/11 12/15/12
f 13/16/13 9/12/9 12/15/12
f 14/17/14 11/14/11 10/13/10
f 14/17/14 15/18/15 11/14/11
f 16/19/16 15/18/15 14/17/14
f 17/20/17 18/21/18 16/19/16
f 16/19/16 18/21/18 15/18/15
f 15/22/15 18/23/18 19/24/19
f 18/23/18 20/25/20 19/24/19
f 18/23/18 21/26/21 20/25/20
f 17/20/17 21/27/21 18/21/18
f 21/26/21 22/28/22 20/25/20
f 21/26/21 23/29/23 22/28/22
f 24/30/24 21/27/21 17/20/17
f 24/30/24 23/31/23 21/27/21
f 24/30/24 25/32/25 23/31/23
f 23/29/23 25/33/25 22/28/22
f 25/33/25 26/34/26 22/28/22
f 27/35/27 28/36/28 25/32/25
f 24/30/24 27/35/27 25/32/25
f 25/37/25 29/38/29 26/39/26
f 28/36/28 29/40/29 25/32/25
f 27/35/27 24/30/24 28/36/28
f 28/36/28 30/41/30 29/40/29
f 30/41/30 31/42/31 32/43/32
f 30/41/30 32/43/32 29/40/29
f 29/38/29 32/44/32 33/45/33
f 32/44/32 34/46/34 33/45/33
f 32/44/32 35/47/35 34/46/34
f 36/48/36 35/49/35 32/43/32
f 36/48/36 32/43/32 37/50/37
f 37/50/37 32/43/32 31/42/31
f 38/51/38 35/49/35 36/48/36
f 38/51/38 39/52/39 35/49/35
f 8/11/8 39/52/39 38/51/38
f 35/53/35 39/54/39 40/55/40
f 39/54/39 41/56/41 40/55/40
f 39/54/39 5/5/5 41/56/41
f 8/11/8 5/10/5 39/52/39
f 41/57/41 42/58/42 40/59/40
f 5/5/5 4/4/4 41/56/41
f 41/57/41 43/60/43 42/58/42
f 4/61/4 43/60/43 41/57/41
f 40/59/40 42/58/42 44/62/44
f 44/63/44 42/64/42 45/65/45
f 42/64/42 46/66/46 45/65/45
f 42/64/42 43/67/43 46/66/46
f 34/68/34 44/62/44 47/69/47
f 40/59/40 44/62/44 34/68/34
f 44/63/44 45/65/45 48/70/48
f 47/71/47 44/72/44 48/73/48
f 33/74/33 34/68/34 47/69/47
f 49/75/49 47/71/47 50/76/50
f 33/74/33 47/69/47 49/77/49
f 47/71/47 48/73/48 50/76/50
f 51/78/51 52/79/52 50/80/50
f 51/78/51 50/80/50 48/81/48
f 49/75/49 50/76/50 53/82/53
f 52/79/52 53/83/53 50/80/50
f 54/84/54 49/75/49 53/82/53
f 55/85/55 54/86/54 53/83/53
f 55/85/55 53/83/53 52/79/52
f 55/87/55 52/88/52 56/89/56
f 57/90/57 55/87/55 56/89/56
f 57/90/57 58/91/58 55/87/55
f 58/92/58 54/86/54 55/85/55
f 59/93/59 58/94/58 60/95/60
f 59/96/59 61/97/61 58/92/58
f 58/92/58 61/97/61 62/98/62
f 58/94/58 57/99/57 60/95/60
f 58/92/58 62/98/62 54/86/54
f 63/100/63 64/101/64 62/102/62
f 62/103/62 64/104/64 54/84/54
f 63/100/63 62/102/62 61/105/61
f 22/106/22 64/107/64 63/108/63
f 22/106/22 63/108/63 65/109/65
f 65/110/65 63/100/63 61/105/61
f 20/111/20 65/109/65 66/112/66
f 22/106/22 65/109/65 20/111/20
f 65/110/65 61/105/61 67/113/67
f 66/114/66 65/110/65 67/113/67
f 20/111/20 66/112/66 19/115/19
f 66/114/66 67/113/67 68/116/68
f 69/117/69 66/114/66 68/116/68
f 19/115/19 66/112/66 69/118/69
f 69/117/69 68/116/68 70/119/70
f 71/120/71 69/118/69 72/121/72
f 72/122/72 69/117/69 70/119/70
f 19/115/19 69/118/69 71/120/71
f 73/123/73 74/124/74 70/125/70
f 72/126/72 70/127/70 74/128/74
f 75/129/75 73/123/73 70/125/70
f 75/129/75 70/125/70 68/130/68
f 75/131/75 59/93/59 76/132/76
f 75/131/75 76/132/76 77/133/77
f 59/96/59 75/129/75 68/130/68
f 73/134/73 75/131/75 77/133/77
f 77/135/77 76/136/76 57/137/57
f 78/138/78 77/135/77 57/137/57
f 73/134/73 77/133/77 78/139/78
f 79/140/79 73/134/73 78/139/78
f 79/141/79 78/142/78 80/143/80
f 80/144/80 78/138/78 56/145/56
f 57/137/57 56/145/56 78/138/78
f 81/146/81 82/147/82 80/144/80
f 56/145/56 81/146/81 80/144/80
f 83/148/83 79/141/79 80/143/80
f 83/148/83 80/143/80 84/149/84
f 84/150/84 80/144/80 82/147/82
f 85/151/85 84/150/84 82/147/82
f 85/152/85 86/153/86 84/149/84
f 86/153/86 83/148/83 84/149/84
f 85/152/85 87/154/87 86/153/86
f 87/155/87 88/156/88 86/157/86
f 86/157/86 88/156/88 89/158/89
f 86/157/86 89/158/89 83/159/83
f 83/159/83 89/158/89 74/124/74
f 90/160/90 74/128/74 89/161/89
f 88/162/88 90/160/90 89/161/89
f 91/163/91 92/164/92 90/165/90
f 93/166/93 91/163/91 90/165/90
f 88/162/88 94/167/94 90/160/90
f 74/128/74 90/160/90 72/126/72
f 92/164/92 72/121/72 90/165/90
f 93/166/93 90/165/90 94/168/94
f 3/169/3 93/166/93 94/168/94
f 2/170/2 93/171/93 3/172/3
f 2/170/2 95/173/95 93/171/93
f 95/173/95 91/174/91 93/171/93
f 95/173/95 12/175/12 91/174/91
f 96/176/96 13/16/13 95/177/95
f 96/176/96 95/177/95 2/7/2
f 13/16/13 12/15/12 95/177/95
f 3/169/3 94/168/94 97/178/97
f 98/179/98 97/180/97 94/167/94
f 98/179/98 94/167/94 88/162/88
f 87/155/87 98/181/98 88/156/88
f 99/182/99 98/181/98 87/155/87
f 100/183/100 97/184/97 98/185/98
f 100/183/100 98/185/98 101/186/101
f 99/182/99 101/187/101 98/181/98
f 46/66/46 100/183/100 101/186/101
f 99/182/99 46/188/46 101/187/101
f 99/189/99 87/190/87 85/191/85
f 99/189/99 85/191/85 102/192/102
f 99/182/99 103/193/103 46/188/46
f 103/194/103 99/189/99 102/192/102
f 102/195/102 85/151/85 104/196/104
f 103/194/103 102/192/102 104/197/104
f 105/198/105 104/197/104 106/199/106
f 106/200/106 104/196/104 85/151/85
f 105/198/105 103/194/103 104/197/104
f 103/193/103 105/201/105 45/202/45
f 105/201/105 51/78/51 48/81/48
f 51/203/51 105/198/105 106/199/106
f 105/201/105 48/81/48 45/202/45
f 82/147/82 106/200/106 85/151/85
f 51/203/51 106/199/106 82/204/82
f 103/193/103 45/202/45 46/188/46
f 46/66/46 43/67/43 100/183/100
f 4/61/4 100/205/100 43/60/43
f 4/61/4 97/178/97 100/205/100
f 4/61/4 3/169/3 97/178/97
f 91/174/91 11/206/11 92/207/92
f 92/207/92 11/206/11 15/208/15
f 92/207/92 15/208/15 71/209/71
f 71/120/71 72/121/72 92/164/92
f 91/174/91 12/175/12 11/206/11
f 52/88/52 51/210/51 82/211/82
f 52/88/52 82/211/82 81/212/81
f 83/159/83 74/124/74 79/213/79
f 52/88/52 81/212/81 56/89/56
f 73/123/73 79/213/79 74/124/74
f 57/137/57 76/136/76 60/214/60
f 59/93/59 60/95/60 76/132/76
f 15/22/15 19/24/19 71/215/71
f 59/96/59 68/130/68 67/216/67
f 59/96/59 67/216/67 61/97/61
f 54/84/54 64/104/64 49/75/49
f 26/217/26 49/77/49 64/107/64
f 22/106/22 26/217/26 64/107/64
f 26/217/26 33/74/33 49/77/49
f 35/47/35 40/218/40 34/46/34
f 29/38/29 33/45/33 26/39/26
f 6/6/6 96/176/96 2/7/2
