# Blender v3.0.1 OBJ File: 'falcon_final.obj.blend'
# www.blender.org
mtllib center_light.mtl
o center_light_obj7.001
v 0.186369 0.010722 0.012283
v 0.171000 0.010856 0.019279
v 0.171000 0.010856 0.043182
v 0.186369 0.010722 0.050177
v 0.201737 0.010587 0.019279
v 0.186152 -0.013986 0.012283
v 0.201521 -0.014120 0.019279
v 0.201737 0.010587 0.043182
v 0.186152 -0.013986 0.050177
v 0.201521 -0.014120 0.043182
v 0.170784 -0.013851 0.043182
v 0.170784 -0.013851 0.019279
v 0.235336 -0.009600 0.020694
v 0.252906 -0.020450 0.012997
v 0.252857 -0.026039 0.021363
v 0.235297 -0.014694 0.028690
v 0.235393 -0.005009 0.022485
v 0.235416 0.000460 0.018437
v 0.252980 -0.012085 0.007408
v 0.235342 -0.010809 0.029123
v 0.235464 0.003107 0.023875
v 0.194423 -0.007013 0.023965
v 0.194684 -0.000109 0.022380
v 0.194257 -0.010569 0.029764
v 0.183094 -0.009462 0.018246
v 0.186262 -0.003604 0.015724
v 0.185221 0.003690 0.016572
v 0.182857 -0.007956 -0.008937
v 0.184072 0.004042 -0.008935
v 0.186629 -0.001637 -0.008947
v 0.177709 -0.009665 -0.008982
v 0.184314 -0.008928 -0.009025
v 0.178635 -0.010748 0.023016
v 0.172505 -0.004714 -0.008927
v 0.171161 -0.005512 -0.008894
v 0.177288 -0.009878 -0.016183
v 0.170104 -0.003439 -0.015996
v 0.184917 -0.007789 -0.016157
v 0.173275 0.003782 -0.008929
v 0.175977 0.006638 -0.016166
v 0.184442 0.005697 -0.009025
v 0.183625 0.005397 -0.016177
v 0.177851 0.006550 -0.008982
v 0.187105 0.000058 -0.016107
v 0.178796 0.007616 0.023016
v 0.182304 0.006867 0.019524
v 0.193917 0.007178 0.029435
v 0.194578 0.004551 0.024975
v 0.194435 0.005681 0.036278
v 0.235500 0.007201 0.031707
v 0.235519 0.010568 0.033771
v 0.235500 0.008937 0.024378
v 0.235459 0.002555 0.038938
v 0.235469 0.005475 0.041767
v 0.194570 -0.003189 0.040093
v 0.235401 -0.004091 0.039981
v 0.194553 0.001681 0.039403
v 0.235372 -0.004585 0.044024
v 0.253152 0.007650 0.055053
v 0.253226 0.016015 0.049463
v 0.253275 0.021604 0.041098
v 0.270381 0.025848 0.042918
v 0.270323 0.019228 0.052826
v 0.298174 0.026262 0.043190
v 0.298115 0.019487 0.053329
v 0.270236 0.009320 0.059446
v 0.296913 0.015160 0.048800
v 0.296971 0.020530 0.040636
v 0.298195 0.028641 0.031230
v 0.296573 0.022377 0.031230
v 0.296971 0.020530 0.021825
v 0.298174 0.026262 0.019271
v 0.270381 0.025848 0.019543
v 0.270402 0.028172 0.031230
v 0.253275 0.021604 0.021363
v 0.253292 0.023567 0.031230
v 0.253226 0.016015 0.012997
v 0.253152 0.007650 0.007408
v 0.270323 0.019228 0.009635
v 0.253066 -0.002217 0.005445
v 0.270236 0.009320 0.003015
v 0.298115 0.019487 0.009132
v 0.298026 0.009349 0.002357
v 0.270134 -0.002367 0.000690
v 0.297921 -0.002610 -0.000022
v 0.297816 -0.014570 0.002357
v 0.270032 -0.014054 0.003015
v 0.297144 -0.002604 0.006224
v 0.296663 -0.012281 0.008188
v 0.297727 -0.024708 0.009132
v 0.296602 -0.020360 0.013661
v 0.269945 -0.023961 0.009635
v 0.297668 -0.031483 0.019271
v 0.296565 -0.025731 0.021825
v 0.297647 -0.033861 0.031230
v 0.269887 -0.030582 0.019543
v 0.269866 -0.032906 0.031230
v 0.269887 -0.030582 0.042918
v 0.252857 -0.026039 0.041098
v 0.252840 -0.028002 0.031230
v 0.252906 -0.020450 0.049463
v 0.235307 -0.013062 0.038083
v 0.252980 -0.012085 0.055053
v 0.269945 -0.023961 0.052826
v 0.253066 -0.002217 0.057016
v 0.270032 -0.014054 0.059446
v 0.297727 -0.024708 0.053329
v 0.297816 -0.014570 0.060104
v 0.270134 -0.002367 0.061771
v 0.296664 -0.012281 0.054272
v 0.297144 -0.002604 0.056237
v 0.297921 -0.002610 0.062482
v 0.298026 0.009349 0.060104
v 0.296833 0.007081 0.054272
v 0.296833 0.007081 0.008188
v 0.296913 0.015160 0.013661
v 0.296565 -0.025731 0.040636
v 0.297668 -0.031483 0.043190
v 0.296135 -0.027570 0.031230
v 0.296602 -0.020360 0.048800
v 0.235352 -0.009663 0.036045
v 0.194548 -0.009015 0.036496
v 0.173497 -0.005346 0.028354
v 0.174388 0.003879 0.027345
vt 0.967970 0.553230
vt 0.971830 0.554870
vt 0.971830 0.560460
vt 0.967970 0.562090
vt 0.964110 0.554860
vt 0.659170 0.951000
vt 0.663100 0.949550
vt 0.663360 0.952750
vt 0.667140 0.954320
vt 0.666880 0.951120
vt 0.631480 0.964070
vt 0.631480 0.970280
vt 0.625480 0.970280
vt 0.964110 0.560450
vt 0.960640 0.520840
vt 0.954210 0.524500
vt 0.954490 0.520840
vt 0.960360 0.524500
vt 0.625480 0.964070
vt 0.960460 0.516820
vt 0.659430 0.954190
vt 0.662950 0.960910
vt 0.659170 0.959340
vt 0.666880 0.959460
vt 0.970350 0.770220
vt 0.970350 0.776420
vt 0.964340 0.776420
vt 0.954310 0.516820
vt 0.964350 0.770220
vt 0.867580 0.963680
vt 0.867210 0.959070
vt 0.869740 0.959010
vt 0.869960 0.963630
vt 0.920150 0.873520
vt 0.921360 0.873260
vt 0.922290 0.875450
vt 0.918960 0.872290
vt 0.922290 0.870060
vt 0.864930 0.959180
vt 0.921310 0.875400
vt 0.918080 0.873530
vt 0.867100 0.947220
vt 0.864570 0.937140
vt 0.869100 0.946360
vt 0.632070 0.945480
vt 0.637830 0.937010
vt 0.632970 0.946050
vt 0.865700 0.936640
vt 0.862980 0.937770
vt 0.864330 0.934250
vt 0.625860 0.946350
vt 0.624090 0.946580
vt 0.625090 0.944600
vt 0.865820 0.934420
vt 0.626890 0.944990
vt 0.623540 0.945090
vt 0.624580 0.938330
vt 0.627590 0.938630
vt 0.626190 0.938480
vt 0.537750 0.914150
vt 0.536790 0.912790
vt 0.537210 0.912900
vt 0.537750 0.911140
vt 0.869270 0.930950
vt 0.869960 0.932030
vt 0.862790 0.933660
vt 0.869320 0.929440
vt 0.640890 0.928390
vt 0.641740 0.926830
vt 0.642120 0.926920
vt 0.966870 0.890980
vt 0.968100 0.892490
vt 0.966590 0.892740
vt 0.966920 0.894350
vt 0.968620 0.890500
vt 0.968620 0.894310
vt 0.907470 0.933680
vt 0.907470 0.931320
vt 0.909260 0.933170
vt 0.909290 0.930570
vt 0.633410 0.931220
vt 0.632070 0.930140
vt 0.633190 0.928570
vt 0.634360 0.929860
vt 0.634760 0.928760
vt 0.967520 0.839240
vt 0.965730 0.840640
vt 0.965720 0.839320
vt 0.967530 0.841070
vt 0.965720 0.842630
vt 0.545240 0.917720
vt 0.544630 0.919280
vt 0.544260 0.919060
vt 0.640670 0.934070
vt 0.639450 0.934350
vt 0.633350 0.931070
vt 0.639900 0.938070
vt 0.638730 0.937530
vt 0.638230 0.934460
vt 0.627590 0.945810
vt 0.641080 0.938950
vt 0.634840 0.947220
vt 0.916750 0.875300
vt 0.915830 0.875680
vt 0.916620 0.873410
vt 0.917600 0.877280
vt 0.840890 0.945010
vt 0.841570 0.934860
vt 0.842290 0.945190
vt 0.916760 0.877870
vt 0.843900 0.934990
vt 0.843980 0.945200
vt 0.919200 0.877820
vt 0.842670 0.934970
vt 0.919160 0.878840
vt 0.766240 0.948480
vt 0.763410 0.953140
vt 0.763670 0.948400
vt 0.761140 0.952980
vt 0.913610 0.879330
vt 0.912570 0.877030
vt 0.758340 0.957050
vt 0.759480 0.952750
vt 0.760310 0.957320
vt 0.758010 0.963990
vt 0.760030 0.964270
vt 0.762990 0.957510
vt 0.653330 0.964360
vt 0.656340 0.963520
vt 0.654180 0.965690
vt 0.655050 0.962610
vt 0.657520 0.960690
vt 0.845370 0.956520
vt 0.845240 0.949530
vt 0.847820 0.949520
vt 0.655960 0.960380
vt 0.655970 0.957980
vt 0.657520 0.957630
vt 0.850830 0.949520
vt 0.850840 0.956500
vt 0.847890 0.956500
vt 0.850820 0.960790
vt 0.848330 0.960800
vt 0.846200 0.960810
vt 0.853290 0.960790
vt 0.851290 0.965250
vt 0.853460 0.965250
vt 0.855360 0.960800
vt 0.853760 0.956500
vt 0.917410 0.869250
vt 0.919930 0.869170
vt 0.856220 0.956500
vt 0.856720 0.960810
vt 0.853820 0.949520
vt 0.856340 0.949520
vt 0.857830 0.956520
vt 0.857990 0.949530
vt 0.862120 0.955030
vt 0.861830 0.948060
vt 0.863880 0.947880
vt 0.864130 0.954860
vt 0.863240 0.959320
vt 0.651040 0.953000
vt 0.648560 0.953010
vt 0.648290 0.951460
vt 0.651350 0.951460
vt 0.645460 0.952630
vt 0.866650 0.947750
vt 0.646300 0.953960
vt 0.866840 0.954730
vt 0.869710 0.947680
vt 0.643290 0.954800
vt 0.644570 0.955710
vt 0.642120 0.957630
vt 0.869830 0.954660
vt 0.872590 0.947680
vt 0.872640 0.954660
vt 0.874860 0.954730
vt 0.873990 0.959070
vt 0.872120 0.959010
vt 0.772390 0.957210
vt 0.770220 0.953080
vt 0.771340 0.952880
vt 0.871780 0.963690
vt 0.568490 0.913640
vt 0.565970 0.913640
vt 0.567470 0.910680
vt 0.768160 0.948360
vt 0.768320 0.953200
vt 0.771070 0.957440
vt 0.765930 0.953220
vt 0.768810 0.957580
vt 0.771030 0.964400
vt 0.768730 0.964540
vt 0.765980 0.957610
vt 0.646300 0.964360
vt 0.645460 0.965690
vt 0.643290 0.963520
vt 0.648590 0.965320
vt 0.648290 0.966860
vt 0.765830 0.964570
vt 0.762770 0.964470
vt 0.651350 0.966860
vt 0.651070 0.965310
vt 0.653330 0.953960
vt 0.656340 0.954800
vt 0.655050 0.955700
vt 0.654180 0.952630
vt 0.643650 0.960340
vt 0.642120 0.960690
vt 0.643660 0.957940
vt 0.644580 0.962620
vt 0.772390 0.964160
vt 0.874860 0.947750
vt 0.920740 0.877070
vt 0.921500 0.877710
vt 0.845240 0.934900
vt 0.845240 0.945090
vt 0.865830 0.947680
vt 0.861830 0.938250
vt 0.861830 0.932540
vt 0.844130 0.929440
vt 0.841800 0.929630
vt 0.730190 0.914820
vt 0.732340 0.905690
vt 0.732520 0.915060
vt 0.733810 0.913720
vt 0.641820 0.933490
vt 0.730190 0.905700
vt 0.848940 0.965250
vt 0.545240 0.920700
vt 0.640890 0.924880
vt 0.967510 0.842920
vn 0.0055 0.6246 -0.7809
vn -0.6654 0.6091 -0.4316
vn -0.6654 0.6091 0.4316
vn 0.0055 0.6246 0.7809
vn 0.6760 0.5973 -0.4316
vn -0.0055 -0.6246 -0.7809
vn 0.6654 -0.6091 -0.4316
vn 0.6760 0.5973 0.4316
vn -0.0055 -0.6246 0.7809
vn 0.6654 -0.6091 0.4316
vn -0.6760 -0.5973 0.4316
vn -0.6760 -0.5973 -0.4316
vn -0.8623 -0.2870 -0.4172
vn -0.4352 -0.6377 -0.6356
vn -0.4378 -0.8286 -0.3490
vn -0.8653 -0.4911 -0.0999
vn -0.8337 -0.1794 -0.5222
vn -0.8576 0.1070 -0.5030
vn -0.4336 -0.3374 -0.8355
vn -0.8195 -0.5515 -0.1560
vn -0.8157 0.3463 -0.4634
vn 0.2856 -0.6132 -0.7365
vn 0.3532 0.1486 -0.9237
vn 0.0311 -0.9959 -0.0845
vn 0.4064 -0.8829 -0.2352
vn 0.8697 -0.2286 -0.4375
vn 0.7532 0.5520 -0.3578
vn 0.4060 -0.5110 0.7577
vn 0.4663 0.4403 0.7673
vn 0.9939 -0.0379 0.1031
vn -0.2224 -0.9719 0.0766
vn 0.5128 -0.6386 0.5738
vn -0.3335 -0.9360 0.1129
vn -0.5211 -0.1946 0.8310
vn -0.7011 -0.3420 0.6257
vn -0.2341 -0.9711 -0.0457
vn -0.9904 -0.1376 -0.0102
vn 0.7342 -0.6766 -0.0574
vn -0.8310 0.5537 0.0543
vn -0.4076 0.9126 -0.0335
vn 0.5046 0.6452 0.5737
vn 0.5261 0.8450 -0.0956
vn -0.1264 0.9907 0.0494
vn 0.9918 0.1279 0.0061
vn -0.2835 0.9522 0.1140
vn 0.2881 0.9421 -0.1716
vn 0.0478 0.9952 -0.0849
vn 0.2393 0.7242 -0.6468
vn -0.1468 0.8119 0.5651
vn -0.8308 0.5561 0.0241
vn -0.8566 0.5062 0.0999
vn -0.8558 0.4395 -0.2729
vn -0.8070 0.3253 0.4930
vn -0.8572 0.3021 0.4171
vn -0.2302 -0.1814 0.9561
vn -0.8043 -0.1286 0.5801
vn -0.2258 0.3608 0.9049
vn -0.8594 -0.0920 0.5029
vn -0.4276 0.3450 0.8355
vn -0.4239 0.6452 0.6356
vn -0.4232 0.8362 0.3490
vn -0.1379 0.9152 0.3786
vn -0.1398 0.7008 0.6995
vn 0.7206 0.6396 0.2677
vn 0.7198 0.4876 0.4941
vn -0.1426 0.3799 0.9140
vn 0.9822 -0.1386 -0.1271
vn 0.9798 -0.1853 -0.0754
vn 0.7326 0.6806 0.0000
vn 0.9681 -0.2506 -0.0000
vn 0.9798 -0.1853 0.0754
vn 0.7206 0.6396 -0.2677
vn -0.1379 0.9152 -0.3786
vn -0.1372 0.9905 0.0000
vn -0.4222 0.8397 -0.3417
vn -0.4226 0.9063 -0.0038
vn -0.4251 0.6386 -0.6414
vn -0.4265 0.3540 -0.8323
vn -0.1398 0.7008 -0.6995
vn -0.4294 -0.0012 -0.9031
vn -0.1426 0.3799 -0.9140
vn 0.7198 0.4876 -0.4941
vn 0.7145 0.2698 -0.6455
vn -0.1459 0.0013 -0.9893
vn 0.6966 -0.0061 -0.7175
vn 0.7097 -0.2823 -0.6455
vn -0.1492 -0.3773 -0.9140
vn 0.9894 -0.0087 0.1452
vn 0.9833 0.0446 0.1762
vn 0.7112 -0.5001 -0.4941
vn 0.9844 0.1213 0.1271
vn -0.1520 -0.6982 -0.6995
vn 0.7093 -0.6522 -0.2677
vn 0.9829 0.1681 0.0754
vn 0.7206 -0.6934 -0.0000
vn -0.1539 -0.9127 -0.3786
vn -0.1546 -0.9880 -0.0000
vn -0.1539 -0.9127 0.3786
vn -0.4368 -0.8321 0.3417
vn -0.4384 -0.8988 0.0038
vn -0.4363 -0.6311 0.6414
vn -0.8634 -0.4244 0.2729
vn -0.4326 -0.3465 0.8323
vn -0.1520 -0.6982 0.6995
vn -0.4293 0.0087 0.9031
vn -0.1492 -0.3773 0.9140
vn 0.7112 -0.5001 0.4941
vn 0.7097 -0.2823 0.6455
vn -0.1459 0.0013 0.9893
vn 0.9833 0.0446 -0.1762
vn 0.9894 -0.0087 -0.1452
vn 0.6965 -0.0061 0.7175
vn 0.7145 0.2698 0.6455
vn 0.9824 -0.0618 -0.1762
vn 0.9824 -0.0618 0.1762
vn 0.9822 -0.1386 0.1271
vn 0.9829 0.1681 -0.0754
vn 0.7093 -0.6522 0.2677
vn 0.9723 0.2336 0.0000
vn 0.9844 0.1213 -0.1271
vn -0.8094 -0.4956 0.3149
vn -0.1573 -0.7782 0.6079
vn -0.8006 -0.3339 0.4975
vn -0.7476 0.4912 0.4470
usemtl mat4.001
s 1
f 1/1/1 2/2/2 3/3/3
f 1/1/1 3/3/3 4/4/4
f 5/5/5 1/1/1 4/4/4
f 2/6/2 1/7/1 6/8/6
f 1/7/1 7/9/7 6/8/6
f 1/7/1 5/10/5 7/9/7
f 7/11/7 5/12/5 8/13/8
f 5/5/5 4/4/4 8/14/8
f 9/15/9 8/16/8 4/17/4
f 9/15/9 10/18/10 8/16/8
f 7/11/7 8/13/8 10/19/10
f 11/20/11 9/15/9 4/17/4
f 12/21/12 9/22/9 11/23/11
f 12/21/12 6/8/6 9/22/9
f 6/8/6 10/24/10 9/22/9
f 2/25/2 12/26/12 11/27/11
f 2/6/2 6/8/6 12/21/12
f 11/20/11 4/17/4 3/28/3
f 2/25/2 11/27/11 3/29/3
f 6/8/6 7/9/7 10/24/10
f 13/30/13 14/31/14 15/32/15
f 13/30/13 15/32/15 16/33/16
f 17/34/17 13/35/13 16/36/16
f 17/34/17 18/37/18 13/35/13
f 18/37/18 19/38/19 13/35/13
f 13/30/13 19/39/19 14/31/14
f 17/34/17 16/36/16 20/40/20
f 17/34/17 21/41/21 18/37/18
f 20/42/20 22/43/22 17/44/17
f 17/45/17 23/46/23 21/47/21
f 17/44/17 22/43/22 23/48/23
f 22/43/22 24/49/24 25/50/25
f 20/42/20 24/49/24 22/43/22
f 23/51/23 22/52/22 26/53/26
f 22/43/22 25/50/25 26/54/26
f 23/51/23 26/53/26 27/55/27
f 26/53/26 25/56/25 28/57/28
f 26/53/26 29/58/29 27/55/27
f 26/53/26 30/59/30 29/58/29
f 26/53/26 28/57/28 30/59/30
f 31/60/31 32/61/32 28/62/28
f 28/62/28 32/61/32 30/63/30
f 25/50/25 31/64/31 28/65/28
f 25/50/25 33/66/33 31/64/31
f 33/66/33 34/67/34 31/64/31
f 31/68/31 34/69/34 35/70/35
f 35/71/35 36/72/36 31/73/31
f 32/74/32 31/73/31 36/72/36
f 35/71/35 37/75/37 36/72/36
f 32/74/32 36/72/36 38/76/38
f 35/77/35 39/78/39 37/79/37
f 39/78/39 40/80/40 37/79/37
f 41/81/41 42/82/42 40/83/40
f 41/81/41 40/83/40 43/84/43
f 39/85/39 43/84/43 40/83/40
f 41/86/41 44/87/44 42/88/42
f 30/89/30 44/87/44 41/86/41
f 30/89/30 38/90/38 44/87/44
f 43/91/43 29/92/29 41/93/41
f 45/94/45 43/84/43 39/85/39
f 46/95/46 43/84/43 45/94/45
f 46/95/46 29/96/29 43/84/43
f 47/97/47 46/95/46 45/94/45
f 48/98/48 46/95/46 47/97/47
f 48/98/48 27/99/27 46/95/46
f 27/55/27 29/58/29 46/100/46
f 21/47/21 48/98/48 47/97/47
f 23/46/23 27/99/27 48/98/48
f 21/47/21 23/46/23 48/98/48
f 47/97/47 45/94/45 49/101/49
f 50/102/50 47/97/47 49/101/49
f 21/47/21 47/97/47 50/102/50
f 50/103/50 51/104/51 52/105/52
f 53/106/53 51/104/51 50/103/50
f 21/41/21 50/103/50 52/105/52
f 50/107/50 49/108/49 53/109/53
f 53/106/53 54/110/54 51/104/51
f 53/109/53 55/111/55 56/112/56
f 56/113/56 54/110/54 53/106/53
f 53/109/53 49/108/49 57/114/57
f 53/109/53 57/114/57 55/111/55
f 56/113/56 58/115/58 54/110/54
f 58/116/58 59/117/59 54/118/54
f 54/118/54 59/117/59 60/119/60
f 54/110/54 60/120/60 61/121/61
f 54/110/54 61/121/61 51/104/51
f 62/122/62 61/123/61 60/119/60
f 62/122/62 60/119/60 63/124/63
f 63/124/63 60/119/60 59/117/59
f 63/124/63 64/125/64 62/122/62
f 63/124/63 65/126/65 64/125/64
f 66/127/66 65/126/65 63/124/63
f 63/124/63 59/117/59 66/127/66
f 67/128/67 64/129/64 65/130/65
f 67/128/67 68/131/68 64/129/64
f 68/131/68 69/132/69 64/129/64
f 62/133/62 64/134/64 69/135/69
f 68/131/68 70/136/70 69/132/69
f 71/137/71 72/138/72 69/132/69
f 71/137/71 69/132/69 70/136/70
f 69/135/69 72/139/72 73/140/73
f 69/135/69 73/140/73 74/141/74
f 62/133/62 69/135/69 74/141/74
f 74/141/74 73/140/73 75/142/75
f 74/141/74 76/143/76 61/144/61
f 74/141/74 75/142/75 76/143/76
f 74/141/74 61/144/61 62/133/62
f 73/140/73 77/145/77 75/142/75
f 76/143/76 75/142/75 52/146/52
f 75/142/75 77/145/77 52/146/52
f 77/145/77 18/147/18 52/146/52
f 77/145/77 78/148/78 18/147/18
f 73/140/73 79/149/79 77/145/77
f 79/149/79 78/148/78 77/145/77
f 78/150/78 80/151/80 18/37/18
f 81/152/81 80/153/80 78/148/78
f 79/149/79 81/152/81 78/148/78
f 82/154/82 83/155/83 81/152/81
f 82/154/82 81/152/81 79/149/79
f 83/155/83 84/156/84 81/152/81
f 81/152/81 84/156/84 80/153/80
f 83/155/83 85/157/85 84/156/84
f 84/158/84 85/159/85 86/160/86
f 87/161/87 80/162/80 84/158/84
f 84/158/84 86/160/86 87/161/87
f 88/163/88 89/164/89 86/165/86
f 88/163/88 86/165/86 85/166/85
f 89/164/89 90/167/90 86/165/86
f 87/161/87 86/160/86 90/168/90
f 89/164/89 91/169/91 90/167/90
f 92/170/92 90/168/90 93/171/93
f 87/161/87 90/168/90 92/170/92
f 91/169/91 93/172/93 90/167/90
f 91/169/91 94/173/94 93/172/93
f 94/173/94 95/174/95 93/172/93
f 96/175/96 93/171/93 95/176/95
f 92/170/92 93/171/93 96/175/96
f 97/177/97 15/32/15 96/175/96
f 96/175/96 95/176/95 97/177/97
f 96/175/96 14/31/14 92/170/92
f 96/175/96 15/32/15 14/31/14
f 97/177/97 98/178/98 99/179/99
f 95/176/95 98/178/98 97/177/97
f 97/177/97 100/180/100 15/32/15
f 97/177/97 99/179/99 100/180/100
f 98/181/98 101/182/101 99/183/99
f 100/180/100 99/179/99 102/184/102
f 99/185/99 101/186/101 102/187/102
f 101/182/101 58/116/58 102/188/102
f 101/182/101 103/189/103 58/116/58
f 98/181/98 104/190/104 101/182/101
f 104/190/104 103/189/103 101/182/101
f 103/189/103 105/191/105 58/116/58
f 106/192/106 105/191/105 103/189/103
f 104/190/104 106/192/106 103/189/103
f 107/193/107 108/194/108 106/192/106
f 107/193/107 106/192/106 104/190/104
f 106/192/106 109/195/109 105/191/105
f 108/194/108 109/195/109 106/192/106
f 110/196/110 108/197/108 107/198/107
f 111/199/111 108/197/108 110/196/110
f 111/199/111 112/200/112 108/197/108
f 108/194/108 112/201/112 109/195/109
f 109/195/109 112/201/112 113/202/113
f 111/199/111 113/203/113 112/200/112
f 111/199/111 114/204/114 113/203/113
f 114/204/114 65/130/65 113/203/113
f 66/127/66 113/202/113 65/126/65
f 109/195/109 113/202/113 66/127/66
f 114/204/114 67/128/67 65/130/65
f 115/205/115 82/206/82 116/207/116
f 115/205/115 83/208/83 82/206/82
f 88/163/88 83/208/83 115/205/115
f 116/207/116 82/206/82 72/138/72
f 116/207/116 72/138/72 71/137/71
f 117/209/117 118/210/118 95/174/95
f 117/209/117 95/174/95 119/211/119
f 120/212/120 118/210/118 117/209/117
f 120/212/120 107/198/107 118/210/118
f 118/213/118 107/193/107 104/190/104
f 118/213/118 104/190/104 98/181/98
f 95/176/95 118/214/118 98/178/98
f 110/196/110 107/198/107 120/212/120
f 94/173/94 119/211/119 95/174/95
f 66/127/66 105/191/105 109/195/109
f 66/127/66 59/117/59 105/191/105
f 58/116/58 105/191/105 59/117/59
f 121/215/121 16/36/16 102/216/102
f 100/180/100 102/184/102 16/33/16
f 56/113/56 102/216/102 58/115/58
f 56/113/56 121/215/121 102/216/102
f 121/215/121 20/40/20 16/36/16
f 56/112/56 122/217/122 121/218/121
f 121/219/121 122/220/122 24/49/24
f 121/219/121 24/49/24 20/42/20
f 56/112/56 55/111/55 122/217/122
f 24/49/24 122/220/122 33/66/33
f 122/220/122 123/221/123 33/66/33
f 122/217/122 55/111/55 123/222/123
f 57/114/57 124/223/124 123/222/123
f 57/114/57 123/222/123 55/111/55
f 124/224/124 34/225/34 123/226/123
f 33/227/33 123/226/123 34/225/34
f 49/101/49 45/94/45 124/228/124
f 45/94/45 39/85/39 124/228/124
f 124/224/124 39/229/39 34/225/34
f 49/108/49 124/223/124 57/114/57
f 16/33/16 15/32/15 100/180/100
f 92/170/92 19/39/19 87/161/87
f 92/170/92 14/31/14 19/39/19
f 88/163/88 85/166/85 83/208/83
f 87/161/87 19/39/19 80/162/80
f 72/139/72 82/154/82 79/149/79
f 18/37/18 80/151/80 19/38/19
f 72/139/72 79/149/79 73/140/73
f 51/230/51 61/144/61 76/143/76
f 76/143/76 52/146/52 51/230/51
f 21/41/21 52/105/52 18/37/18
f 29/92/29 30/231/30 41/93/41
f 39/232/39 35/70/35 34/69/34
f 30/89/30 32/233/32 38/90/38
f 24/49/24 33/66/33 25/50/25
