# Blender 4.2.0
# www.blender.org
mtllib falcon_arm_base.mtl
o Cube.007
v -0.252929 -0.150763 0.159411
v -0.252929 -0.172006 0.159411
v -0.273924 -0.150763 0.159411
v -0.273924 -0.172006 0.159411
v -0.252929 -0.150763 0.216817
v -0.252929 -0.172006 0.216817
v -0.273924 -0.150763 0.216817
v -0.273924 -0.172006 0.216817
v -0.273924 -0.172006 0.252522
v -0.273924 -0.150763 0.252522
v -0.252929 -0.150763 0.252522
v -0.252929 -0.172006 0.252522
v -0.324458 0.175565 0.160462
v -0.324458 0.175565 0.181706
v -0.324458 0.196560 0.160462
v -0.324458 0.196560 0.181706
v 0.083256 0.175565 0.160462
v 0.083256 0.175565 0.181706
v 0.083256 0.196560 0.160462
v 0.083256 0.196560 0.181706
v 0.336846 0.196560 0.181706
v 0.336846 0.196560 0.160462
v 0.336846 0.175565 0.160462
v 0.336846 0.175565 0.181706
v 0.399178 0.196560 0.181706
v 0.399178 0.196560 0.160462
v 0.399178 0.175565 0.160462
v 0.399178 0.175565 0.181706
v -0.324458 -0.191302 0.160462
v -0.324458 -0.170307 0.160462
v -0.324458 -0.191302 0.181706
v 0.083256 -0.191302 0.160462
v 0.083256 -0.170307 0.160462
v 0.083256 -0.191302 0.181706
v 0.336846 -0.191302 0.160462
v 0.336846 -0.170307 0.160462
v 0.336846 -0.191302 0.181706
v 0.336846 -0.170307 0.181706
v 0.083256 -0.170307 0.181706
v -0.324458 -0.170307 0.181706
v 0.399178 -0.191302 0.160462
v 0.399178 -0.170307 0.160462
v 0.399178 -0.191302 0.181706
v 0.399178 -0.170307 0.181706
v -0.324458 0.175565 0.231773
v -0.324458 0.175565 0.253016
v -0.324458 0.196560 0.231773
v -0.324458 0.196560 0.253016
v 0.083256 0.175565 0.231773
v 0.083256 0.175565 0.253016
v 0.083256 0.196560 0.231773
v 0.083256 0.196560 0.253016
v 0.336846 0.196560 0.253016
v 0.336846 0.196560 0.231773
v 0.336846 0.175565 0.231773
v 0.336846 0.175565 0.253016
v 0.399178 0.196560 0.253016
v 0.399178 0.196560 0.231773
v 0.399178 0.175565 0.231773
v 0.399178 0.175565 0.253016
v -0.324458 -0.191302 0.231773
v -0.324458 -0.170307 0.231773
v -0.324458 -0.191302 0.253016
v 0.083256 -0.191302 0.231773
v 0.083256 -0.170307 0.231773
v 0.083256 -0.191302 0.253016
v 0.336846 -0.191302 0.231773
v 0.336846 -0.170307 0.231773
v 0.336846 -0.191302 0.253016
v 0.336846 -0.170307 0.253016
v 0.083256 -0.170307 0.253016
v -0.324458 -0.170307 0.253016
v 0.399178 -0.191302 0.231773
v 0.399178 -0.170307 0.231773
v 0.399178 -0.191302 0.253016
v 0.399178 -0.170307 0.253016
v 0.250530 -0.169458 0.234659
v 0.250530 -0.169458 0.255902
v 0.229535 -0.169458 0.234659
v 0.229535 -0.169458 0.255902
v 0.250530 0.043874 0.234659
v 0.250530 0.043874 0.255902
v 0.229535 0.043874 0.234659
v 0.229535 0.043874 0.255902
v 0.229535 0.176562 0.255902
v 0.229535 0.176562 0.234659
v 0.250530 0.176562 0.234659
v 0.250530 0.176562 0.255902
v 0.229535 -0.171529 0.234659
v 0.250530 -0.171529 0.234659
v 0.250530 -0.171529 0.255902
v 0.229535 -0.171529 0.255902
v 0.226885 0.176383 0.159411
v 0.226885 0.155140 0.159411
v 0.205891 0.176383 0.159411
v 0.205891 0.155140 0.159411
v 0.226885 0.176383 0.216817
v 0.226885 0.155140 0.216817
v 0.205891 0.176383 0.216817
v 0.205891 0.155140 0.216817
v 0.205891 0.155140 0.252522
v 0.205891 0.176383 0.252522
v 0.226885 0.176383 0.252522
v 0.226885 0.155140 0.252522
v 0.226885 -0.150763 0.159411
v 0.226885 -0.172006 0.159411
v 0.205891 -0.150763 0.159411
v 0.205891 -0.172006 0.159411
v 0.226885 -0.150763 0.216817
v 0.226885 -0.172006 0.216817
v 0.205891 -0.150763 0.216817
v 0.205891 -0.172006 0.216817
v 0.205891 -0.172006 0.252522
v 0.205891 -0.150763 0.252522
v 0.226885 -0.150763 0.252522
v 0.226885 -0.172006 0.252522
v -0.229285 -0.169458 0.234659
v -0.229285 -0.169458 0.255902
v -0.250279 -0.169458 0.234659
v -0.250279 -0.169458 0.255902
v -0.229285 0.043874 0.234659
v -0.229285 0.043874 0.255902
v -0.250279 0.043874 0.234659
v -0.250279 0.043874 0.255902
v -0.250279 0.176562 0.255902
v -0.250279 0.176562 0.234659
v -0.229285 0.176562 0.234659
v -0.229285 0.176562 0.255902
v -0.250279 -0.171529 0.234659
v -0.229285 -0.171529 0.234659
v -0.229285 -0.171529 0.255902
v -0.250279 -0.171529 0.255902
v -0.252929 0.176383 0.159411
v -0.252929 0.155140 0.159411
v -0.273924 0.176383 0.159411
v -0.273924 0.155140 0.159411
v -0.252929 0.176383 0.216817
v -0.252929 0.155140 0.216817
v -0.273924 0.176383 0.216817
v -0.273924 0.155140 0.216817
v -0.273924 0.155140 0.252522
v -0.273924 0.176383 0.252522
v -0.252929 0.176383 0.252522
v -0.252929 0.155140 0.252522
vn -0.0000 -0.0000 -1.0000
vn -1.0000 -0.0000 -0.0000
vn 1.0000 -0.0000 -0.0000
vn -0.0000 1.0000 -0.0000
vn -0.0000 -1.0000 -0.0000
vn -0.0000 -0.0000 1.0000
vt 0.625000 0.000000
vt 0.375000 0.250000
vt 0.375000 0.000000
vt 0.625000 0.250000
vt 0.375000 0.500000
vt 0.375000 0.750000
vt 0.625000 0.750000
vt 0.375000 1.000000
vt 0.125000 0.750000
vt 0.125000 0.500000
vt 0.875000 0.500000
vt 0.625000 0.500000
vt 0.875000 0.750000
vt 0.625000 1.000000
s 0
f 2/1/1 3/2/1 1/3/1
f 4/4/2 7/5/2 3/2/2
f 5/6/3 12/7/3 6/7/3
f 6/7/3 1/8/3 5/6/3
f 7/5/4 1/9/4 3/10/4
f 4/11/5 6/7/5 8/12/5
f 9/12/6 11/6/6 10/5/6
f 7/5/4 11/6/4 5/6/4
f 6/7/5 9/12/5 8/12/5
f 8/12/2 10/5/2 7/5/2
f 14/1/2 15/2/2 13/3/2
f 16/4/4 19/5/4 15/2/4
f 17/6/5 24/7/5 18/7/5
f 18/7/5 13/8/5 17/6/5
f 19/5/1 13/9/1 15/10/1
f 16/11/6 18/7/6 20/12/6
f 22/5/1 27/6/1 23/6/1
f 19/5/1 23/6/1 17/6/1
f 18/7/6 21/12/6 20/12/6
f 20/12/4 22/5/4 19/5/4
f 25/12/3 27/6/3 26/5/3
f 24/7/6 25/12/6 21/12/6
f 21/12/4 26/5/4 22/5/4
f 24/7/5 27/6/5 28/7/5
f 33/5/1 29/9/1 30/10/1
f 31/1/2 30/2/2 29/3/2
f 34/7/5 29/8/5 32/6/5
f 33/5/1 35/6/1 32/6/1
f 32/6/5 37/7/5 34/7/5
f 38/12/4 42/5/4 36/5/4
f 34/7/6 38/12/6 39/12/6
f 39/12/4 36/5/4 33/5/4
f 40/11/6 34/7/6 39/12/6
f 40/4/4 33/5/4 30/2/4
f 44/12/3 41/6/3 42/5/3
f 37/7/6 44/12/6 38/12/6
f 36/5/1 41/6/1 35/6/1
f 37/7/5 41/6/5 43/7/5
f 46/1/2 47/2/2 45/3/2
f 48/4/4 51/5/4 47/2/4
f 49/6/5 56/7/5 50/7/5
f 50/7/5 45/8/5 49/6/5
f 51/5/1 45/9/1 47/10/1
f 48/11/6 50/7/6 52/12/6
f 56/7/5 59/6/5 60/7/5
f 51/5/1 55/6/1 49/6/1
f 50/7/6 53/12/6 52/12/6
f 52/12/4 54/5/4 51/5/4
f 57/12/3 59/6/3 58/5/3
f 54/5/1 59/6/1 55/6/1
f 56/7/6 57/12/6 53/12/6
f 53/12/4 58/5/4 54/5/4
f 65/5/1 61/9/1 62/10/1
f 63/1/2 62/2/2 61/3/2
f 66/7/5 61/8/5 64/6/5
f 65/5/1 67/6/1 64/6/1
f 64/6/5 69/7/5 66/7/5
f 70/12/4 74/5/4 68/5/4
f 66/7/6 70/12/6 71/12/6
f 71/12/4 68/5/4 65/5/4
f 72/11/6 66/7/6 71/12/6
f 72/4/4 65/5/4 62/2/4
f 76/12/3 73/6/3 74/5/3
f 69/7/6 76/12/6 70/12/6
f 68/5/1 73/6/1 67/6/1
f 69/7/5 73/6/5 75/7/5
f 80/11/6 91/13/6 78/13/6
f 80/4/2 83/5/2 79/2/2
f 81/6/3 88/7/3 82/7/3
f 82/7/3 77/8/3 81/6/3
f 83/5/1 77/9/1 79/10/1
f 80/11/6 82/7/6 84/12/6
f 85/12/4 87/6/4 86/5/4
f 83/5/1 87/6/1 81/6/1
f 82/7/6 85/12/6 84/12/6
f 84/12/2 86/5/2 83/5/2
f 91/1/5 89/2/5 90/3/5
f 77/9/1 89/10/1 79/10/1
f 79/2/2 92/4/2 80/4/2
f 78/14/3 90/8/3 77/8/3
f 94/1/1 95/2/1 93/3/1
f 96/4/2 99/5/2 95/2/2
f 97/6/3 104/7/3 98/7/3
f 98/7/3 93/8/3 97/6/3
f 99/5/4 93/9/4 95/10/4
f 96/11/5 98/7/5 100/12/5
f 101/12/6 103/6/6 102/5/6
f 99/5/4 103/6/4 97/6/4
f 98/7/5 101/12/5 100/12/5
f 100/12/2 102/5/2 99/5/2
f 106/1/1 107/2/1 105/3/1
f 108/4/2 111/5/2 107/2/2
f 109/6/3 116/7/3 110/7/3
f 110/7/3 105/8/3 109/6/3
f 111/5/4 105/9/4 107/10/4
f 108/11/5 110/7/5 112/12/5
f 113/12/6 115/6/6 114/5/6
f 111/5/4 115/6/4 109/6/4
f 110/7/5 113/12/5 112/12/5
f 112/12/2 114/5/2 111/5/2
f 120/11/6 131/13/6 118/13/6
f 120/4/2 123/5/2 119/2/2
f 121/6/3 128/7/3 122/7/3
f 122/7/3 117/8/3 121/6/3
f 123/5/1 117/9/1 119/10/1
f 120/11/6 122/7/6 124/12/6
f 125/12/4 127/6/4 126/5/4
f 123/5/1 127/6/1 121/6/1
f 122/7/6 125/12/6 124/12/6
f 124/12/2 126/5/2 123/5/2
f 131/1/5 129/2/5 130/3/5
f 117/9/1 129/10/1 119/10/1
f 119/2/2 132/4/2 120/4/2
f 118/14/3 130/8/3 117/8/3
f 134/1/1 135/2/1 133/3/1
f 136/4/2 139/5/2 135/2/2
f 137/6/3 144/7/3 138/7/3
f 138/7/3 133/8/3 137/6/3
f 139/5/4 133/9/4 135/10/4
f 136/11/5 138/7/5 140/12/5
f 141/12/6 143/6/6 142/5/6
f 139/5/4 143/6/4 137/6/4
f 138/7/5 141/12/5 140/12/5
f 140/12/2 142/5/2 139/5/2
f 2/1/1 4/4/1 3/2/1
f 4/4/2 8/12/2 7/5/2
f 5/6/3 11/6/3 12/7/3
f 6/7/3 2/14/3 1/8/3
f 7/5/4 5/6/4 1/9/4
f 4/11/5 2/13/5 6/7/5
f 9/12/6 12/7/6 11/6/6
f 7/5/4 10/5/4 11/6/4
f 6/7/5 12/7/5 9/12/5
f 8/12/2 9/12/2 10/5/2
f 14/1/2 16/4/2 15/2/2
f 16/4/4 20/12/4 19/5/4
f 17/6/5 23/6/5 24/7/5
f 18/7/5 14/14/5 13/8/5
f 19/5/1 17/6/1 13/9/1
f 16/11/6 14/13/6 18/7/6
f 22/5/1 26/5/1 27/6/1
f 19/5/1 22/5/1 23/6/1
f 18/7/6 24/7/6 21/12/6
f 20/12/4 21/12/4 22/5/4
f 25/12/3 28/7/3 27/6/3
f 24/7/6 28/7/6 25/12/6
f 21/12/4 25/12/4 26/5/4
f 24/7/5 23/6/5 27/6/5
f 33/5/1 32/6/1 29/9/1
f 31/1/2 40/4/2 30/2/2
f 34/7/5 31/14/5 29/8/5
f 33/5/1 36/5/1 35/6/1
f 32/6/5 35/6/5 37/7/5
f 38/12/4 44/12/4 42/5/4
f 34/7/6 37/7/6 38/12/6
f 39/12/4 38/12/4 36/5/4
f 40/11/6 31/13/6 34/7/6
f 40/4/4 39/12/4 33/5/4
f 44/12/3 43/7/3 41/6/3
f 37/7/6 43/7/6 44/12/6
f 36/5/1 42/5/1 41/6/1
f 37/7/5 35/6/5 41/6/5
f 46/1/2 48/4/2 47/2/2
f 48/4/4 52/12/4 51/5/4
f 49/6/5 55/6/5 56/7/5
f 50/7/5 46/14/5 45/8/5
f 51/5/1 49/6/1 45/9/1
f 48/11/6 46/13/6 50/7/6
f 56/7/5 55/6/5 59/6/5
f 51/5/1 54/5/1 55/6/1
f 50/7/6 56/7/6 53/12/6
f 52/12/4 53/12/4 54/5/4
f 57/12/3 60/7/3 59/6/3
f 54/5/1 58/5/1 59/6/1
f 56/7/6 60/7/6 57/12/6
f 53/12/4 57/12/4 58/5/4
f 65/5/1 64/6/1 61/9/1
f 63/1/2 72/4/2 62/2/2
f 66/7/5 63/14/5 61/8/5
f 65/5/1 68/5/1 67/6/1
f 64/6/5 67/6/5 69/7/5
f 70/12/4 76/12/4 74/5/4
f 66/7/6 69/7/6 70/12/6
f 71/12/4 70/12/4 68/5/4
f 72/11/6 63/13/6 66/7/6
f 72/4/4 71/12/4 65/5/4
f 76/12/3 75/7/3 73/6/3
f 69/7/6 75/7/6 76/12/6
f 68/5/1 74/5/1 73/6/1
f 69/7/5 67/6/5 73/6/5
f 80/11/6 92/11/6 91/13/6
f 80/4/2 84/12/2 83/5/2
f 81/6/3 87/6/3 88/7/3
f 82/7/3 78/14/3 77/8/3
f 83/5/1 81/6/1 77/9/1
f 80/11/6 78/13/6 82/7/6
f 85/12/4 88/7/4 87/6/4
f 83/5/1 86/5/1 87/6/1
f 82/7/6 88/7/6 85/12/6
f 84/12/2 85/12/2 86/5/2
f 91/1/5 92/4/5 89/2/5
f 77/9/1 90/9/1 89/10/1
f 79/2/2 89/2/2 92/4/2
f 78/14/3 91/14/3 90/8/3
f 94/1/1 96/4/1 95/2/1
f 96/4/2 100/12/2 99/5/2
f 97/6/3 103/6/3 104/7/3
f 98/7/3 94/14/3 93/8/3
f 99/5/4 97/6/4 93/9/4
f 96/11/5 94/13/5 98/7/5
f 101/12/6 104/7/6 103/6/6
f 99/5/4 102/5/4 103/6/4
f 98/7/5 104/7/5 101/12/5
f 100/12/2 101/12/2 102/5/2
f 106/1/1 108/4/1 107/2/1
f 108/4/2 112/12/2 111/5/2
f 109/6/3 115/6/3 116/7/3
f 110/7/3 106/14/3 105/8/3
f 111/5/4 109/6/4 105/9/4
f 108/11/5 106/13/5 110/7/5
f 113/12/6 116/7/6 115/6/6
f 111/5/4 114/5/4 115/6/4
f 110/7/5 116/7/5 113/12/5
f 112/12/2 113/12/2 114/5/2
f 120/11/6 132/11/6 131/13/6
f 120/4/2 124/12/2 123/5/2
f 121/6/3 127/6/3 128/7/3
f 122/7/3 118/14/3 117/8/3
f 123/5/1 121/6/1 117/9/1
f 120/11/6 118/13/6 122/7/6
f 125/12/4 128/7/4 127/6/4
f 123/5/1 126/5/1 127/6/1
f 122/7/6 128/7/6 125/12/6
f 124/12/2 125/12/2 126/5/2
f 131/1/5 132/4/5 129/2/5
f 117/9/1 130/9/1 129/10/1
f 119/2/2 129/2/2 132/4/2
f 118/14/3 131/14/3 130/8/3
f 134/1/1 136/4/1 135/2/1
f 136/4/2 140/12/2 139/5/2
f 137/6/3 143/6/3 144/7/3
f 138/7/3 134/14/3 133/8/3
f 139/5/4 137/6/4 133/9/4
f 136/11/5 134/13/5 138/7/5
f 141/12/6 144/7/6 143/6/6
f 139/5/4 142/5/4 143/6/4
f 138/7/5 144/7/5 141/12/5
f 140/12/2 141/12/2 142/5/2
