# Blender v3.0.1 OBJ File: 'falcon_final.obj.blend'
# www.blender.org
mtllib frame_left.mtl
o frame_left_obj5.001
v 0.140166 -0.184569 -0.112488
v 0.116911 -0.184366 -0.130671
v 0.113891 -0.184339 -0.107857
v 0.102639 -0.184241 -0.111450
v 0.102537 -0.195906 -0.111450
v 0.113788 -0.196004 -0.107857
v 0.172553 -0.196519 -0.034962
v 0.172655 -0.184854 -0.034962
v 0.135152 -0.184526 -0.108387
v 0.135050 -0.196191 -0.108387
v 0.140063 -0.196235 -0.112488
v 0.196172 -0.185060 -0.112472
v 0.199597 -0.185090 -0.131792
v 0.183801 -0.196618 -0.132495
v 0.213534 -0.196878 -0.129842
v 0.255529 -0.185580 -0.120909
v 0.200358 -0.196763 -0.112075
v 0.255427 -0.197245 -0.120909
v 0.242681 -0.197134 -0.104068
v 0.281086 -0.197470 -0.109596
v 0.281188 -0.185805 -0.109596
v 0.272256 -0.197393 -0.090114
v 0.242783 -0.185469 -0.104068
v 0.274322 -0.185745 -0.088557
v 0.290073 -0.197549 -0.064976
v 0.316630 -0.197782 -0.071818
v 0.305611 -0.197685 -0.089835
v 0.323279 -0.197840 -0.005312
v 0.316732 -0.186116 -0.071818
v 0.292491 -0.197570 -0.051206
v 0.305713 -0.186020 -0.089835
v 0.293243 -0.185911 -0.055775
v 0.323381 -0.186175 -0.005312
v 0.288866 -0.197538 -0.041204
v 0.288968 -0.185873 -0.041204
v 0.275452 -0.197421 -0.033882
v 0.275554 -0.185756 -0.033882
v 0.255842 -0.197249 -0.031202
v 0.205107 -0.196805 -0.031202
v 0.205209 -0.185139 -0.031202
v 0.255944 -0.185584 -0.031202
v -0.266887 -0.192669 0.021880
v 0.255842 -0.197249 0.021880
v 0.167529 -0.196475 -0.031202
v 0.193865 -0.196706 -0.034966
v 0.255944 -0.185584 0.021880
v 0.275922 -0.197425 0.024571
v -0.113896 -0.182343 -0.031202
v -0.266785 -0.181004 0.021880
v -0.076319 -0.182673 -0.031202
v 0.276024 -0.185760 0.024571
v 0.167631 -0.184810 -0.031202
v 0.193967 -0.185041 -0.034966
v 0.290622 -0.197554 0.031921
v 0.290724 -0.185889 0.031921
v 0.296003 -0.197601 0.041962
v 0.296105 -0.185936 0.041962
v 0.323279 -0.197840 0.102948
v 0.296003 -0.197601 0.087459
v 0.296105 -0.185936 0.087459
v 0.289917 -0.197548 0.099878
v 0.290020 -0.185882 0.099878
v 0.275226 -0.197419 0.109254
v 0.317343 -0.197788 0.115452
v 0.323381 -0.186175 0.102948
v 0.275328 -0.185754 0.109254
v 0.317445 -0.186123 0.115452
v 0.303114 -0.185997 0.125033
v 0.208020 -0.185164 0.132661
v 0.219030 -0.185261 0.156214
v 0.303012 -0.197662 0.125033
v 0.206198 -0.196814 0.159874
v 0.195726 -0.185056 0.161643
v 0.183179 -0.184946 0.137881
v 0.181503 -0.196598 0.162500
v -0.295979 -0.180748 0.162500
v -0.296082 -0.192413 0.162500
v -0.311287 -0.180614 0.160172
v -0.270049 -0.180975 0.138613
v -0.285356 -0.180841 0.136285
v -0.298498 -0.180726 0.128027
v -0.324986 -0.180494 0.151804
v -0.285458 -0.192506 0.136285
v -0.299157 -0.192386 0.127916
v -0.270151 -0.192641 0.138613
v -0.324531 -0.192164 0.151915
v -0.311389 -0.192279 0.160172
v -0.326696 -0.192145 -0.005312
v -0.298419 -0.192393 0.032305
v -0.300663 -0.180707 0.038820
v -0.296124 -0.180747 0.030350
v -0.283826 -0.192521 0.024150
v -0.326594 -0.180480 -0.005312
v -0.283724 -0.180855 0.024150
v -0.270529 -0.180971 -0.033520
v -0.252173 -0.181132 -0.031202
v -0.288705 -0.180812 -0.042007
v -0.324917 -0.180495 -0.090824
v -0.325468 -0.192156 -0.090711
v -0.300663 -0.180707 -0.069960
v -0.285669 -0.192504 -0.039852
v -0.293359 -0.192437 -0.048503
v -0.300267 -0.192377 -0.074197
v -0.297178 -0.180738 -0.078419
v -0.287761 -0.192486 -0.085934
v -0.281152 -0.180878 -0.088990
v -0.274756 -0.192600 -0.090492
v -0.165512 -0.181891 -0.099135
v -0.153310 -0.181998 -0.118669
v -0.300479 -0.180709 -0.105162
v -0.313536 -0.180594 -0.100634
v -0.313638 -0.192259 -0.100634
v -0.300581 -0.192374 -0.105162
v -0.149866 -0.193694 -0.118911
v -0.154898 -0.193650 -0.096163
v -0.128429 -0.193882 -0.101552
v -0.165615 -0.193556 -0.099135
v -0.154795 -0.181985 -0.096163
v -0.108513 -0.182391 -0.035032
v -0.133739 -0.182170 -0.097547
v -0.128326 -0.182217 -0.101552
v -0.133842 -0.193835 -0.097547
v -0.087182 -0.182577 -0.035038
v -0.087284 -0.194243 -0.035038
v -0.108616 -0.194056 -0.035032
v -0.113998 -0.194009 -0.031202
v -0.265852 -0.192678 -0.032340
v -0.076421 -0.194338 -0.031202
v 0.170330 -0.196500 0.138613
v 0.196375 -0.196728 0.135784
vt 0.790880 0.545750
vt 0.795510 0.551540
vt 0.789790 0.552360
vt 0.790720 0.555180
vt 0.596180 0.851810
vt 0.593250 0.854410
vt 0.593250 0.851800
vt 0.596180 0.854420
vt 0.596120 0.877850
vt 0.771330 0.537790
vt 0.789870 0.547020
vt 0.593190 0.877850
vt 0.905660 0.933500
vt 0.904160 0.930570
vt 0.905670 0.930570
vt 0.629860 0.860180
vt 0.626950 0.869910
vt 0.626930 0.860180
vt 0.795580 0.530770
vt 0.790740 0.531680
vt 0.904150 0.933500
vt 0.801470 0.529810
vt 0.798540 0.525890
vt 0.801470 0.522400
vt 0.798540 0.546630
vt 0.792700 0.516750
vt 0.798530 0.512050
vt 0.574860 0.527140
vt 0.579280 0.530510
vt 0.574090 0.534600
vt 0.801460 0.512050
vt 0.577250 0.516640
vt 0.581430 0.519900
vt 0.580180 0.510240
vt 0.798530 0.505810
vt 0.801460 0.505810
vt 0.585040 0.512520
vt 0.629880 0.870730
vt 0.629890 0.879540
vt 0.626960 0.879540
vt 0.629890 0.887210
vt 0.626960 0.887830
vt 0.629880 0.894870
vt 0.589790 0.501440
vt 0.591420 0.508130
vt 0.585230 0.504150
vt 0.736900 0.828600
vt 0.736900 0.814740
vt 0.739830 0.814750
vt 0.606520 0.500000
vt 0.594890 0.507580
vt 0.736890 0.812100
vt 0.780210 0.501500
vt 0.784770 0.504220
vt 0.784530 0.512110
vt 0.739820 0.812110
vt 0.776240 0.507440
vt 0.763490 0.500000
vt 0.739830 0.828600
vt 0.629870 0.897790
vt 0.626950 0.897070
vt 0.629860 0.898970
vt 0.626930 0.898970
vt 0.772600 0.508550
vt 0.912520 0.809050
vt 0.909600 0.805560
vt 0.912530 0.805560
vt 0.597380 0.508520
vt 0.599180 0.511920
vt 0.909590 0.809040
vt 0.912520 0.814010
vt 0.599780 0.516850
vt 0.912510 0.826720
vt 0.909580 0.826720
vt 0.909590 0.814000
vt 0.599610 0.529590
vt 0.611310 0.648340
vt 0.613120 0.517030
vt 0.599480 0.539030
vt 0.598620 0.532410
vt 0.912510 0.829480
vt 0.901220 0.896400
vt 0.904150 0.896400
vt 0.904150 0.900380
vt 0.613860 0.512000
vt 0.904090 0.805560
vt 0.756830 0.517010
vt 0.771120 0.609780
vt 0.758180 0.648320
vt 0.771020 0.600340
vt 0.901160 0.805560
vt 0.770170 0.516870
vt 0.756110 0.511970
vt 0.770390 0.539060
vt 0.771270 0.532430
vt 0.770300 0.529620
vt 0.901220 0.900370
vt 0.912530 0.842970
vt 0.909600 0.842970
vt 0.909580 0.829470
vt 0.904150 0.904270
vt 0.901220 0.904260
vt 0.754220 0.508300
vt 0.904140 0.907030
vt 0.901210 0.907020
vt 0.751690 0.506970
vt 0.633710 0.500370
vt 0.629730 0.507170
vt 0.618300 0.507020
vt 0.615760 0.508330
vt 0.904090 0.915280
vt 0.901160 0.915270
vt 0.801480 0.500000
vt 0.804410 0.500000
vt 0.804410 0.501740
vt 0.632830 0.508740
vt 0.801480 0.501740
vt 0.804400 0.505580
vt 0.636830 0.501910
vt 0.635130 0.512470
vt 0.737150 0.508650
vt 0.736300 0.500280
vt 0.740260 0.507090
vt 0.801470 0.505580
vt 0.734840 0.512370
vt 0.733170 0.501800
vt 0.736900 0.852450
vt 0.739830 0.852450
vt 0.739830 0.855930
vt 0.736900 0.855920
vt 0.730800 0.505430
vt 0.739820 0.859770
vt 0.729130 0.529330
vt 0.723180 0.526630
vt 0.736890 0.859760
vt 0.739760 0.876780
vt 0.736820 0.879120
vt 0.739740 0.880790
vt 0.727880 0.535590
vt 0.721880 0.532500
vt 0.939120 0.636330
vt 0.942050 0.634040
vt 0.942060 0.637850
vt 0.722930 0.656020
vt 0.938940 0.551040
vt 0.941870 0.551040
vt 0.938940 0.547960
vt 0.728860 0.649440
vt 0.729490 0.653280
vt 0.723550 0.659860
vt 0.731600 0.656560
vt 0.725690 0.663280
vt 0.801480 0.642770
vt 0.804410 0.646570
vt 0.801480 0.646570
vt 0.804410 0.649860
vt 0.801480 0.649720
vt 0.804410 0.642770
vt 0.646530 0.656160
vt 0.639980 0.653400
vt 0.640620 0.649560
vt 0.643770 0.663270
vt 0.637830 0.656810
vt 0.645890 0.660000
vt 0.938940 0.544060
vt 0.941870 0.544180
vt 0.941870 0.547960
vt 0.941990 0.515280
vt 0.604270 0.663270
vt 0.613820 0.656300
vt 0.542280 0.907150
vt 0.542290 0.885990
vt 0.545210 0.887720
vt 0.545220 0.885300
vt 0.611820 0.652600
vt 0.542300 0.882440
vt 0.756130 0.655720
vt 0.765160 0.663280
vt 0.754010 0.656880
vt 0.757650 0.652580
vt 0.545230 0.882440
vt 0.542310 0.879890
vt 0.545240 0.879900
vt 0.772100 0.649120
vt 0.771470 0.644520
vt 0.774280 0.653670
vt 0.939060 0.515280
vt 0.939130 0.500050
vt 0.942060 0.500000
vt 0.786640 0.662640
vt 0.781330 0.656600
vt 0.630720 0.858510
vt 0.633650 0.857760
vt 0.633650 0.859540
vt 0.630710 0.854100
vt 0.901220 0.926780
vt 0.904140 0.922950
vt 0.904150 0.927660
vt 0.582820 0.662670
vt 0.587060 0.656390
vt 0.593540 0.654750
vt 0.595740 0.652850
vt 0.901210 0.921950
vt 0.904140 0.920660
vt 0.901220 0.917850
vt 0.584150 0.653210
vt 0.904150 0.916400
vt 0.783450 0.655700
vt 0.786060 0.651650
vt 0.901230 0.915280
vt 0.785570 0.814330
vt 0.782680 0.831720
vt 0.782640 0.813470
vt 0.793190 0.619460
vt 0.788320 0.622570
vt 0.790180 0.656460
vt 0.789070 0.659750
vt 0.801460 0.658160
vt 0.798530 0.658050
vt 0.798530 0.655030
vt 0.801460 0.655030
vt 0.798530 0.651680
vt 0.580370 0.659660
vt 0.801460 0.651680
vt 0.579280 0.656370
vt 0.583050 0.649930
vt 0.576350 0.618460
vt 0.798530 0.614560
vt 0.801460 0.613670
vt 0.582050 0.619800
vt 0.580780 0.613130
vt 0.581260 0.622480
vt 0.785610 0.831730
vt 0.785610 0.834130
vt 0.782680 0.834120
vt 0.787540 0.619890
vt 0.772070 0.608420
vt 0.787840 0.614590
vt 0.782640 0.853250
vt 0.788830 0.613220
vt 0.596120 0.813470
vt 0.593190 0.813460
vt 0.907470 0.933500
vt 0.905940 0.933500
vt 0.905940 0.930570
vt 0.907470 0.930570
vt 0.689310 0.877230
vt 0.692240 0.877230
vt 0.692250 0.887840
vt 0.689320 0.887840
vt 0.581770 0.614510
vt 0.597630 0.603030
vt 0.597560 0.608390
vt 0.630720 0.813460
vt 0.633650 0.813460
vt 0.633650 0.814880
vt 0.785570 0.853260
vt 0.598500 0.609750
vt 0.630720 0.814880
vt 0.630710 0.849540
vt 0.633640 0.852920
vt 0.597690 0.647890
vt 0.689310 0.874570
vt 0.598630 0.600310
vt 0.692240 0.874570
vt 0.692250 0.813430
vt 0.772010 0.603060
vt 0.579100 0.555080
vt 0.545220 0.907110
vt 0.804400 0.532370
vt 0.642140 0.538920
vt 0.648180 0.536190
vt 0.641520 0.532370
vt 0.801470 0.529160
vt 0.804400 0.525790
vt 0.647610 0.529980
vt 0.639190 0.505540
vt 0.801470 0.522840
vt 0.689320 0.812100
vt 0.689320 0.813430
vt 0.692250 0.812100
vt 0.598550 0.537760
vt 0.579980 0.546930
vt 0.770790 0.511940
vt 0.798530 0.500000
vt 0.801460 0.500000
vt 0.789800 0.510330
vt 0.788510 0.519990
vt 0.578960 0.545650
vt 0.580040 0.552270
vn 0.2124 0.7893 0.5760
vn -0.0228 0.6795 -0.7333
vn -0.3483 0.7810 0.5184
vn -0.0814 0.7494 0.6570
vn -0.0945 -0.7479 0.6570
vn -0.3620 -0.7748 0.5184
vn -0.4221 -0.9051 -0.0520
vn -0.4062 0.9123 -0.0520
vn 0.4345 0.8996 0.0449
vn 0.4186 -0.9070 0.0449
vn 0.1983 -0.7930 0.5761
vn -0.0435 0.7297 0.6824
vn 0.0722 0.6821 -0.7277
vn -0.0016 -0.6774 -0.7356
vn 0.1185 -0.6828 -0.7210
vn 0.2291 0.6828 -0.6938
vn -0.0833 -0.7287 0.6798
vn 0.2182 -0.6867 -0.6934
vn -0.2152 -0.7349 0.6431
vn 0.3758 -0.6821 -0.6273
vn 0.3877 0.6754 -0.6273
vn -0.4056 -0.7633 0.5028
vn -0.2029 0.7387 0.6427
vn -0.4260 0.7765 0.4644
vn -0.5783 -0.7710 0.2666
vn 0.7061 -0.6664 -0.2393
vn 0.5515 -0.6754 -0.4896
vn 0.7110 -0.7023 -0.0358
vn 0.7177 0.6540 -0.2393
vn -0.6370 -0.7650 -0.0945
vn 0.5632 0.6657 -0.4896
vn -0.5931 0.8035 0.0514
vn 0.7232 0.6898 -0.0358
vn -0.4671 -0.7980 -0.3807
vn -0.4557 0.8083 -0.3729
vn -0.2131 -0.7483 -0.6281
vn -0.2000 0.7520 -0.6281
vn -0.0532 -0.7223 -0.6896
vn 0.1007 -0.7461 -0.6582
vn 0.1138 0.7442 -0.6582
vn -0.0406 0.7231 -0.6896
vn 0.0397 -0.7228 0.6899
vn -0.0523 -0.7220 0.6899
vn -0.2023 -0.7838 -0.5871
vn 0.3538 -0.7796 -0.5168
vn -0.0397 0.7228 0.6899
vn -0.2023 -0.7443 0.6364
vn -0.1826 0.7841 -0.5932
vn 0.0523 0.7220 0.6899
vn 0.1188 0.7462 -0.6551
vn -0.1892 0.7478 0.6364
vn -0.1885 0.7872 -0.5871
vn 0.3674 0.7733 -0.5168
vn -0.4413 -0.7782 0.4469
vn -0.4276 0.7858 0.4469
vn -0.6299 -0.7607 0.1565
vn -0.6165 0.7717 0.1565
vn 0.7264 -0.6672 0.1650
vn -0.6379 -0.7561 -0.1464
vn -0.6245 0.7672 -0.1464
vn -0.4796 -0.7691 -0.4225
vn -0.4660 0.7774 -0.4225
vn -0.3022 -0.7317 -0.6110
vn 0.5682 -0.6569 0.4957
vn 0.7380 0.6544 0.1650
vn -0.2897 0.7368 -0.6109
vn 0.5796 0.6468 0.4957
vn 0.3387 0.6788 0.6515
vn -0.1926 0.7332 -0.6521
vn 0.2364 0.6762 0.6978
vn 0.3265 -0.6846 0.6517
vn 0.1561 -0.6827 0.7138
vn 0.0901 0.6821 0.7257
vn -0.0655 0.7318 -0.6784
vn 0.0121 -0.6798 0.7333
vn -0.0485 0.6910 0.7213
vn -0.0606 -0.6900 0.7212
vn -0.2499 0.6675 0.7014
vn 0.0583 0.7240 -0.6873
vn 0.2329 0.7527 -0.6158
vn 0.5004 0.8169 -0.2869
vn -0.6950 0.6060 0.3869
vn 0.2183 -0.7563 -0.6167
vn 0.4661 -0.8444 -0.2641
vn 0.0456 -0.7249 -0.6873
vn -0.6806 -0.6215 0.3880
vn -0.2634 -0.6629 0.7008
vn -0.7160 -0.6981 -0.0014
vn 0.4777 -0.8209 0.3129
vn 0.6034 0.7910 0.1015
vn 0.4322 0.7720 0.4661
vn 0.1953 -0.7492 0.6330
vn -0.7037 0.7105 -0.0016
vn 0.2023 0.7443 0.6364
vn 0.1978 0.7390 -0.6440
vn 0.0293 0.7400 -0.6720
vn 0.4462 0.7775 -0.4432
vn -0.6896 0.6433 -0.3325
vn -0.7207 -0.6081 -0.3329
vn 0.6034 0.7973 -0.0170
vn 0.3539 -0.7606 -0.5443
vn 0.5581 -0.7750 -0.2965
vn 0.5379 -0.8268 0.1645
vn 0.4940 0.7657 0.4120
vn 0.3338 -0.7569 0.5618
vn 0.2215 0.7522 0.6206
vn 0.1066 -0.7477 0.6554
vn -0.0566 0.7490 0.6602
vn -0.0452 0.7019 -0.7108
vn -0.1486 0.6822 -0.7159
vn -0.3628 0.6717 -0.6459
vn -0.3727 -0.6653 -0.6469
vn -0.1605 -0.6795 -0.7159
vn -0.0512 -0.7010 -0.7114
vn -0.3537 -0.7837 0.5106
vn 0.2021 -0.7811 0.5908
vn -0.0700 -0.7478 0.6602
vn -0.3399 0.7898 0.5106
vn -0.4062 0.9116 -0.0635
vn 0.4289 0.9012 0.0623
vn 0.2157 0.7774 0.5908
vn 0.4131 -0.9086 0.0623
vn 0.3788 0.7756 -0.5049
vn 0.3652 -0.7821 -0.5049
vn -0.4221 -0.9043 -0.0635
vn -0.1962 -0.7808 -0.5932
vn 0.1184 -0.7428 -0.6590
vn 0.1057 -0.7481 -0.6551
vn -0.0247 -0.7305 -0.6824
vn -0.1506 -0.7314 -0.6651
usemtl mat2.001
s 1
f 1/1/1 2/2/2 3/3/3
f 3/3/3 2/2/2 4/4/4
f 5/5/5 3/6/3 4/7/4
f 5/5/5 6/8/6 3/6/3
f 3/6/3 6/8/6 7/9/7
f 3/3/3 8/10/8 9/11/9
f 1/1/1 3/3/3 9/11/9
f 3/6/3 7/9/7 8/12/8
f 1/13/1 10/14/10 11/15/11
f 11/16/11 12/17/12 1/18/1
f 13/19/13 1/1/1 12/20/12
f 13/19/13 2/2/2 1/1/1
f 1/13/1 9/21/9 10/14/10
f 14/22/14 13/23/13 15/24/15
f 13/23/13 14/22/14 2/25/2
f 16/26/16 13/19/13 12/20/12
f 16/27/16 15/24/15 13/23/13
f 15/28/15 17/29/17 14/30/14
f 16/27/16 18/31/18 15/24/15
f 17/29/17 15/28/15 18/32/18
f 19/33/19 18/32/18 20/34/20
f 18/31/18 21/35/21 20/36/20
f 17/29/17 18/32/18 19/33/19
f 18/31/18 16/27/16 21/35/21
f 19/33/19 20/34/20 22/37/22
f 17/38/17 19/39/19 23/40/23
f 23/40/23 19/39/19 22/41/22
f 24/42/24 22/41/22 25/43/25
f 26/44/26 25/45/25 22/37/22
f 23/40/23 22/41/22 24/42/24
f 22/37/22 20/34/20 27/46/27
f 26/44/26 22/37/22 27/46/27
f 28/47/28 26/48/26 29/49/29
f 26/44/26 28/50/28 30/51/30
f 26/44/26 30/51/30 25/45/25
f 29/49/29 26/48/26 27/52/27
f 29/53/29 31/54/31 24/55/24
f 29/49/29 27/52/27 31/56/31
f 29/53/29 32/57/32 33/58/33
f 28/47/28 29/49/29 33/59/33
f 29/53/29 24/55/24 32/57/32
f 25/43/25 30/60/30 32/61/32
f 24/42/24 25/43/25 32/61/32
f 34/62/34 35/63/35 32/61/32
f 35/64/35 33/58/33 32/57/32
f 34/62/34 32/61/32 30/60/30
f 36/65/36 35/66/35 34/67/34
f 34/68/34 28/50/28 36/69/36
f 30/51/30 28/50/28 34/68/34
f 36/65/36 37/70/37 35/66/35
f 38/71/38 37/70/37 36/65/36
f 36/69/36 28/50/28 38/72/38
f 38/71/38 39/73/39 40/74/40
f 38/71/38 40/74/40 41/75/41
f 38/71/38 41/75/41 37/70/37
f 39/76/39 38/72/38 28/50/28
f 42/77/42 39/76/39 43/78/43
f 42/77/42 44/79/44 39/76/39
f 45/80/45 39/76/39 44/79/44
f 45/81/45 40/74/40 39/73/39
f 39/76/39 28/50/28 43/78/43
f 46/82/46 43/83/43 47/84/47
f 43/78/43 28/50/28 47/85/47
f 42/86/42 43/83/43 46/82/46
f 46/87/46 48/88/48 49/89/49
f 46/87/46 50/90/50 48/88/48
f 42/86/42 46/82/46 49/91/49
f 46/87/46 33/58/33 41/92/41
f 51/93/51 33/58/33 46/87/46
f 46/87/46 52/94/52 50/90/50
f 53/95/53 46/87/46 40/96/40
f 46/87/46 41/92/41 40/96/40
f 52/94/52 46/87/46 53/95/53
f 46/82/46 47/84/47 51/97/51
f 10/98/10 9/99/9 53/100/53
f 10/98/10 53/100/53 45/81/45
f 45/81/45 53/100/53 40/74/40
f 53/95/53 9/11/9 8/10/8
f 52/94/52 53/95/53 8/10/8
f 51/97/51 47/84/47 54/101/54
f 51/97/51 54/101/54 55/102/55
f 55/103/55 33/58/33 51/93/51
f 55/102/55 56/104/56 57/105/57
f 57/106/57 33/58/33 55/103/55
f 55/102/55 54/101/54 56/104/56
f 58/107/58 59/108/59 56/109/56
f 58/107/58 56/109/56 28/50/28
f 54/110/54 28/50/28 56/109/56
f 56/104/56 59/111/59 60/112/60
f 56/104/56 60/112/60 57/105/57
f 60/113/60 59/114/59 61/115/61
f 58/107/58 61/116/61 59/108/59
f 60/113/60 61/115/61 62/117/62
f 62/117/62 61/115/61 63/118/63
f 64/119/64 63/120/63 61/116/61
f 58/107/58 64/119/64 61/116/61
f 62/121/62 65/122/65 60/123/60
f 62/117/62 63/118/63 66/124/66
f 66/125/66 67/126/67 62/121/62
f 62/121/62 67/126/67 65/122/65
f 58/127/58 65/128/65 67/129/67
f 58/127/58 33/59/33 65/128/65
f 65/122/65 33/58/33 57/106/57
f 65/122/65 57/106/57 60/123/60
f 58/127/58 67/129/67 64/130/64
f 66/125/66 68/131/68 67/126/67
f 64/130/64 67/129/67 68/132/68
f 69/133/69 70/134/70 68/131/68
f 69/133/69 68/131/68 66/125/66
f 64/130/64 68/132/68 71/135/71
f 71/135/71 68/132/68 70/136/70
f 71/135/71 70/136/70 72/137/72
f 73/138/73 72/137/72 70/136/70
f 70/134/70 69/133/69 74/139/74
f 70/134/70 74/139/74 73/140/73
f 73/141/73 75/142/75 72/143/72
f 76/144/76 73/140/73 74/139/74
f 75/142/75 73/141/73 76/145/76
f 75/142/75 76/145/76 77/146/77
f 78/147/78 77/146/77 76/145/76
f 76/144/76 74/139/74 79/148/79
f 80/149/80 76/144/76 79/148/79
f 80/149/80 78/150/78 76/144/76
f 80/149/80 81/151/81 82/152/82
f 80/149/80 82/152/82 78/150/78
f 79/153/79 83/154/83 80/155/80
f 80/155/80 83/154/83 84/156/84
f 80/155/80 84/156/84 81/157/81
f 79/153/79 85/158/85 83/154/83
f 77/159/77 83/160/83 85/161/85
f 86/162/86 84/163/84 83/160/83
f 86/162/86 83/160/83 87/164/87
f 77/159/77 87/164/87 83/160/83
f 82/165/82 86/166/86 87/167/87
f 82/165/82 87/167/87 78/147/78
f 78/147/78 87/167/87 77/146/77
f 82/165/82 88/168/88 86/166/86
f 86/162/86 88/169/88 89/170/89
f 86/162/86 89/170/89 84/163/84
f 84/171/84 89/172/89 90/173/90
f 90/173/90 89/172/89 91/174/91
f 89/170/89 88/169/88 92/175/92
f 91/174/91 89/172/89 92/176/92
f 91/177/91 93/178/93 90/179/90
f 94/180/94 93/178/93 91/177/91
f 91/174/91 92/176/92 94/181/94
f 94/181/94 42/182/42 49/183/49
f 49/89/49 93/178/93 94/180/94
f 94/181/94 92/176/92 42/182/42
f 95/184/95 93/178/93 96/185/96
f 97/186/97 93/178/93 95/184/95
f 93/187/93 98/188/98 99/189/99
f 93/187/93 99/189/99 88/168/88
f 82/165/82 93/187/93 88/168/88
f 82/152/82 90/179/90 93/178/93
f 48/88/48 93/178/93 49/89/49
f 48/88/48 96/185/96 93/178/93
f 98/190/98 93/178/93 97/186/97
f 98/190/98 97/186/97 100/191/100
f 97/192/97 101/193/101 102/194/102
f 95/195/95 101/193/101 97/192/97
f 102/196/102 100/197/100 97/198/97
f 99/199/99 103/200/103 102/201/102
f 99/199/99 102/201/102 88/169/88
f 101/202/101 88/169/88 102/201/102
f 102/196/102 103/203/103 100/197/100
f 104/204/104 103/203/103 105/205/105
f 99/199/99 105/206/105 103/200/103
f 100/197/100 103/203/103 104/204/104
f 104/204/104 105/205/105 106/207/106
f 98/190/98 104/208/104 106/209/106
f 98/190/98 100/191/100 104/208/104
f 106/207/106 105/205/105 107/210/107
f 107/211/107 108/212/108 106/213/106
f 109/214/109 106/209/106 108/215/108
f 109/214/109 110/216/110 106/209/106
f 110/216/110 111/217/111 106/209/106
f 98/190/98 106/209/106 111/217/111
f 99/218/99 98/219/98 111/220/111
f 99/218/99 111/220/111 112/221/112
f 112/221/112 111/220/111 110/222/110
f 99/199/99 112/223/112 105/206/105
f 112/221/112 110/222/110 113/224/113
f 113/225/113 105/206/105 112/223/112
f 107/226/107 113/225/113 114/227/114
f 113/225/113 107/226/107 105/206/105
f 109/228/109 114/229/114 113/224/113
f 109/228/109 113/224/113 110/222/110
f 2/25/2 14/22/14 114/229/114
f 2/25/2 114/229/114 109/228/109
f 115/230/115 114/227/114 116/231/116
f 117/232/117 114/227/114 115/230/115
f 107/226/107 114/227/114 117/232/117
f 14/30/14 116/231/116 114/227/114
f 117/233/117 115/234/115 118/235/118
f 117/233/117 118/235/118 108/212/108
f 107/211/107 117/233/117 108/212/108
f 118/236/118 119/237/119 120/238/120
f 115/234/115 119/239/119 118/235/118
f 121/240/121 118/236/118 120/238/120
f 118/236/118 109/214/109 108/215/108
f 121/240/121 109/214/109 118/236/118
f 2/2/2 109/214/109 121/240/121
f 2/2/2 121/240/121 4/4/4
f 116/241/116 4/7/4 121/242/121
f 121/243/121 120/244/120 122/245/122
f 121/243/121 122/245/122 116/246/116
f 123/247/123 124/248/124 122/249/122
f 123/247/123 122/249/122 120/250/120
f 122/251/122 124/252/124 125/253/125
f 125/253/125 115/230/115 122/251/122
f 115/230/115 116/231/116 122/251/122
f 119/254/119 125/255/125 126/256/126
f 115/234/115 125/257/125 119/239/119
f 124/252/124 126/258/126 125/253/125
f 119/254/119 126/256/126 48/259/48
f 126/256/126 96/260/96 48/259/48
f 126/256/126 127/261/127 96/260/96
f 124/252/124 42/77/42 126/258/126
f 42/77/42 127/262/127 126/258/126
f 96/260/96 127/261/127 95/195/95
f 42/77/42 88/169/88 127/262/127
f 127/262/127 88/169/88 101/202/101
f 95/195/95 127/261/127 101/193/101
f 124/248/124 123/247/123 50/263/50
f 128/264/128 42/77/42 124/252/124
f 124/248/124 50/263/50 128/265/128
f 42/77/42 128/264/128 44/79/44
f 44/266/44 128/265/128 50/263/50
f 123/267/123 120/238/120 119/237/119
f 48/88/48 123/267/123 119/237/119
f 123/267/123 48/88/48 50/90/50
f 14/30/14 5/268/5 116/231/116
f 116/241/116 5/5/5 4/7/4
f 92/175/92 88/169/88 42/77/42
f 82/152/82 81/151/81 90/179/90
f 84/171/84 90/173/90 81/269/81
f 129/270/129 85/158/85 79/153/79
f 129/271/129 77/159/77 85/161/85
f 129/271/129 75/272/75 77/159/77
f 130/273/130 75/272/75 129/271/129
f 129/270/129 74/274/74 130/275/130
f 129/270/129 79/153/79 74/274/74
f 130/273/130 72/276/72 75/272/75
f 71/277/71 72/276/72 130/273/130
f 63/118/63 130/275/130 69/278/69
f 71/277/71 130/273/130 63/120/63
f 130/275/130 74/274/74 69/278/69
f 64/119/64 71/277/71 63/120/63
f 63/118/63 69/278/69 66/124/66
f 58/127/58 28/47/28 33/59/33
f 47/85/47 28/50/28 54/110/54
f 8/279/8 44/266/44 52/280/52
f 44/266/44 50/263/50 52/280/52
f 8/279/8 7/281/7 44/266/44
f 45/80/45 44/79/44 7/282/7
f 10/283/10 45/80/45 7/282/7
f 41/92/41 33/58/33 37/284/37
f 37/284/37 33/58/33 35/64/35
f 31/285/31 27/286/27 20/36/20
f 31/285/31 20/36/20 21/35/21
f 31/54/31 21/287/21 24/55/24
f 23/288/23 24/55/24 21/287/21
f 17/38/17 23/40/23 12/17/12
f 16/26/16 12/20/12 23/288/23
f 23/288/23 21/287/21 16/26/16
f 14/30/14 17/29/17 11/289/11
f 11/16/11 17/38/17 12/17/12
f 6/290/6 14/30/14 11/289/11
f 5/268/5 14/30/14 6/290/6
f 7/282/7 6/290/6 10/283/10
f 6/290/6 11/289/11 10/283/10
