# Blender v3.0.1 OBJ File: 'falcon_final.obj.blend'
# www.blender.org
mtllib left_light.mtl
o left_light_obj9.001
v 0.177198 -0.165699 0.066990
v 0.177198 -0.165699 0.043087
v 0.192567 -0.165834 0.036091
v 0.192567 -0.165834 0.073986
v 0.177415 -0.140992 0.066990
v 0.177415 -0.140992 0.043087
v 0.192783 -0.141127 0.036091
v 0.192783 -0.141127 0.073986
v 0.207936 -0.165969 0.066990
v 0.208152 -0.141261 0.066990
v 0.208152 -0.141261 0.043087
v 0.207936 -0.165969 0.043087
v 0.241831 -0.151389 0.042245
v 0.259481 -0.154066 0.029253
v 0.259394 -0.163933 0.031216
v 0.241751 -0.161449 0.044502
v 0.241819 -0.155592 0.046272
v 0.241914 -0.142912 0.048186
v 0.241877 -0.148966 0.047455
v 0.259640 -0.135833 0.036806
v 0.259567 -0.144198 0.031216
v 0.241910 -0.145150 0.053248
v 0.200991 -0.155344 0.046168
v 0.200332 -0.144671 0.053243
v 0.201007 -0.148372 0.047729
v 0.189646 -0.145596 0.042054
v 0.192711 -0.151508 0.039532
v 0.191543 -0.158784 0.040380
v 0.190387 -0.159115 0.014873
v 0.193044 -0.153482 0.014861
v 0.189383 -0.147098 0.014872
v 0.184124 -0.161514 0.014827
v 0.188571 -0.161909 0.043332
v 0.190729 -0.160777 0.014784
v 0.179909 -0.157865 0.014871
v 0.185050 -0.162596 0.046825
v 0.186726 -0.161750 0.007607
v 0.180532 -0.160381 0.007686
v 0.177575 -0.157360 0.014914
v 0.180708 -0.158782 0.051153
v 0.179049 -0.148825 0.014887
v 0.185210 -0.144232 0.046825
v 0.184266 -0.145298 0.014827
v 0.179979 -0.149543 0.052162
v 0.176553 -0.151391 0.007813
v 0.183848 -0.145079 0.007625
v 0.190857 -0.146151 0.014784
v 0.190040 -0.146452 0.007631
v 0.194033 -0.155405 0.007715
v 0.200908 -0.156938 0.063212
v 0.201011 -0.152069 0.063901
v 0.201091 -0.146244 0.060304
v 0.241900 -0.146310 0.059853
v 0.241851 -0.151883 0.063789
v 0.241883 -0.146373 0.065575
v 0.241793 -0.158529 0.062746
v 0.241787 -0.156433 0.067832
v 0.259567 -0.144198 0.078861
v 0.259481 -0.154066 0.080824
v 0.259321 -0.172298 0.073272
v 0.259394 -0.163933 0.078861
v 0.241722 -0.164910 0.061891
v 0.259272 -0.177887 0.064906
v 0.259255 -0.179850 0.055039
v 0.241712 -0.166542 0.052498
v 0.241757 -0.162658 0.057146
v 0.241768 -0.161394 0.049930
v 0.200768 -0.161078 0.059950
v 0.200861 -0.162399 0.055039
v 0.200745 -0.161148 0.050252
v 0.259272 -0.177887 0.045171
v 0.276281 -0.184755 0.055039
v 0.276301 -0.182430 0.043351
v 0.259321 -0.172298 0.036806
v 0.276301 -0.182430 0.066726
v 0.304062 -0.185710 0.055039
v 0.304083 -0.183331 0.066998
v 0.276359 -0.175810 0.076634
v 0.303017 -0.172209 0.072608
v 0.304142 -0.176556 0.077137
v 0.302980 -0.177579 0.064444
v 0.302550 -0.179419 0.055039
v 0.304231 -0.166418 0.026165
v 0.303559 -0.154452 0.030032
v 0.303078 -0.164129 0.031997
v 0.304142 -0.176556 0.032940
v 0.303017 -0.172208 0.037469
v 0.276446 -0.165902 0.026823
v 0.276549 -0.154215 0.024498
v 0.304336 -0.154459 0.023786
v 0.304440 -0.142499 0.026165
v 0.303248 -0.144768 0.031997
v 0.304529 -0.132361 0.032940
v 0.276651 -0.142528 0.026823
v 0.276738 -0.132621 0.033443
v 0.276796 -0.126001 0.043351
v 0.304589 -0.125587 0.043079
v 0.304609 -0.123208 0.055039
v 0.259689 -0.130244 0.045171
v 0.276816 -0.123676 0.055039
v 0.259707 -0.128281 0.055039
v 0.276796 -0.126001 0.066726
v 0.259689 -0.130244 0.064906
v 0.241933 -0.141280 0.057579
v 0.259640 -0.135833 0.073272
v 0.276738 -0.132621 0.076634
v 0.276651 -0.142528 0.083254
v 0.304529 -0.132361 0.077137
v 0.304589 -0.125587 0.066998
v 0.303328 -0.136689 0.072608
v 0.303248 -0.144768 0.078081
v 0.304440 -0.142499 0.083912
v 0.303559 -0.154452 0.080045
v 0.304336 -0.154459 0.086291
v 0.276549 -0.154215 0.085579
v 0.304231 -0.166418 0.083912
v 0.303078 -0.164129 0.078081
v 0.276446 -0.165902 0.083254
v 0.303385 -0.131318 0.064444
v 0.302988 -0.129471 0.055039
v 0.303385 -0.131318 0.045633
v 0.303328 -0.136689 0.037469
v 0.276359 -0.175810 0.033443
v 0.304083 -0.183331 0.043079
v 0.302980 -0.177579 0.045633
vt 0.962700 0.877160
vt 0.962700 0.871820
vt 0.966510 0.870540
vt 0.966510 0.879010
vt 0.954210 0.520790
vt 0.947860 0.516800
vt 0.954010 0.516800
vt 0.637490 0.970280
vt 0.631480 0.964070
vt 0.637490 0.964070
vt 0.631480 0.970280
vt 0.589400 0.961310
vt 0.595540 0.961310
vt 0.595330 0.965330
vt 0.589200 0.965330
vt 0.968070 0.695390
vt 0.971920 0.687670
vt 0.971920 0.693630
vt 0.968070 0.685950
vt 0.948060 0.520790
vt 0.953930 0.524500
vt 0.947780 0.524500
vt 0.964210 0.693670
vt 0.970350 0.770220
vt 0.964340 0.764010
vt 0.970350 0.764010
vt 0.964340 0.770220
vt 0.970320 0.872390
vt 0.970320 0.877730
vt 0.589070 0.957650
vt 0.595210 0.957650
vt 0.964210 0.687720
vt 0.599580 0.955880
vt 0.601170 0.951280
vt 0.603520 0.951600
vt 0.601960 0.956220
vt 0.965790 0.782230
vt 0.964350 0.782510
vt 0.966270 0.780770
vt 0.964350 0.785110
vt 0.965080 0.783760
vt 0.597240 0.955770
vt 0.596360 0.950920
vt 0.598650 0.951040
vt 0.965720 0.785380
vt 0.946000 0.874610
vt 0.943870 0.864490
vt 0.945560 0.864420
vt 0.951230 0.843010
vt 0.950030 0.853410
vt 0.949900 0.842970
vt 0.951290 0.853270
vt 0.944210 0.874700
vt 0.952820 0.856080
vt 0.945400 0.876530
vt 0.943870 0.877410
vt 0.947190 0.876780
vt 0.750930 0.903800
vt 0.752760 0.910020
vt 0.750930 0.910210
vt 0.752340 0.903810
vt 0.753950 0.903840
vt 0.754250 0.910670
vt 0.690590 0.930240
vt 0.691550 0.931590
vt 0.685530 0.934450
vt 0.686790 0.934710
vt 0.785000 0.914090
vt 0.784640 0.914300
vt 0.785600 0.912650
vt 0.785600 0.915660
vt 0.871050 0.643230
vt 0.872070 0.643980
vt 0.866740 0.648100
vt 0.684390 0.934070
vt 0.645820 0.905470
vt 0.645820 0.907460
vt 0.644520 0.906490
vt 0.645820 0.907450
vt 0.645820 0.905470
vt 0.647060 0.906330
vt 0.803750 0.663150
vt 0.802120 0.661890
vt 0.803750 0.661310
vt 0.639030 0.919910
vt 0.637900 0.921470
vt 0.638540 0.920240
vt 0.864940 0.647860
vt 0.637900 0.918080
vt 0.934200 0.869380
vt 0.936480 0.869420
vt 0.936530 0.878540
vt 0.951690 0.857190
vt 0.959630 0.857390
vt 0.959520 0.858730
vt 0.950200 0.858560
vt 0.656400 0.905410
vt 0.654610 0.906920
vt 0.654610 0.904780
vt 0.934200 0.878740
vt 0.961430 0.857480
vt 0.961210 0.859380
vt 0.959600 0.855740
vt 0.961370 0.855940
vt 0.683710 0.964280
vt 0.681920 0.966600
vt 0.681920 0.964340
vt 0.683720 0.966130
vt 0.683680 0.967950
vt 0.642650 0.907500
vt 0.643310 0.905470
vt 0.644520 0.907500
vt 0.784630 0.917010
vt 0.785600 0.915660
vt 0.785050 0.916900
vt 0.785600 0.918650
vt 0.656430 0.907680
vt 0.959550 0.856120
vt 0.733500 0.923320
vt 0.735760 0.923460
vt 0.735720 0.928750
vt 0.734530 0.928800
vt 0.732960 0.928770
vt 0.948220 0.853240
vt 0.948220 0.843000
vt 0.734480 0.939030
vt 0.732960 0.938980
vt 0.968860 0.785510
vt 0.968430 0.786910
vt 0.967240 0.786090
vt 0.736100 0.938980
vt 0.970340 0.785160
vt 0.969600 0.784000
vt 0.931640 0.937890
vt 0.928960 0.942570
vt 0.929060 0.937890
vt 0.931480 0.942570
vt 0.661280 0.933260
vt 0.662220 0.938200
vt 0.659920 0.938070
vt 0.933870 0.942500
vt 0.663670 0.933390
vt 0.970340 0.782560
vt 0.664750 0.938200
vt 0.667110 0.938070
vt 0.665890 0.933260
vt 0.968650 0.780870
vt 0.969040 0.782340
vt 0.967380 0.781560
vt 0.866220 0.653160
vt 0.872070 0.661540
vt 0.870560 0.662420
vt 0.684560 0.938520
vt 0.690160 0.947060
vt 0.688620 0.947900
vt 0.867260 0.652520
vt 0.865130 0.653760
vt 0.685620 0.937930
vt 0.687120 0.937380
vt 0.691550 0.946520
vt 0.519420 0.941000
vt 0.519800 0.944900
vt 0.517370 0.945030
vt 0.521790 0.941000
vt 0.516870 0.949130
vt 0.519740 0.948980
vt 0.522310 0.944910
vt 0.664960 0.942610
vt 0.667760 0.942460
vt 0.667890 0.949390
vt 0.516870 0.956020
vt 0.665020 0.949550
vt 0.661970 0.942610
vt 0.939330 0.964770
vt 0.938480 0.966100
vt 0.936310 0.963930
vt 0.661960 0.949550
vt 0.937610 0.963020
vt 0.935140 0.961100
vt 0.936700 0.960790
vt 0.938480 0.953040
vt 0.941620 0.953410
vt 0.939330 0.954370
vt 0.936310 0.955210
vt 0.937610 0.956110
vt 0.525340 0.949160
vt 0.525540 0.956050
vt 0.522850 0.955870
vt 0.601790 0.946930
vt 0.605360 0.940400
vt 0.604570 0.947320
vt 0.602500 0.940010
vt 0.941310 0.951870
vt 0.599460 0.939720
vt 0.944370 0.951870
vt 0.944100 0.953420
vt 0.947200 0.953040
vt 0.598810 0.946650
vt 0.596680 0.939570
vt 0.596090 0.946510
vt 0.951750 0.942470
vt 0.954010 0.942570
vt 0.953890 0.949550
vt 0.951580 0.949450
vt 0.952700 0.938160
vt 0.956800 0.949610
vt 0.954610 0.938240
vt 0.956850 0.942630
vt 0.957010 0.938290
vt 0.959830 0.942630
vt 0.959530 0.938290
vt 0.958070 0.933710
vt 0.960230 0.933670
vt 0.961790 0.938240
vt 0.925980 0.946850
vt 0.926680 0.942500
vt 0.962510 0.942570
vt 0.928680 0.946930
vt 0.925910 0.953820
vt 0.959860 0.949610
vt 0.962600 0.949550
vt 0.950540 0.961100
vt 0.949370 0.963930
vt 0.948080 0.963030
vt 0.946360 0.964770
vt 0.947200 0.966100
vt 0.928660 0.953910
vt 0.944070 0.965730
vt 0.944370 0.967270
vt 0.931670 0.946930
vt 0.931720 0.953910
vt 0.934610 0.953820
vt 0.941310 0.967270
vt 0.941590 0.965720
vt 0.659240 0.942460
vt 0.659170 0.949390
vt 0.934490 0.946850
vt 0.950540 0.958040
vt 0.949010 0.960750
vt 0.949000 0.958340
vt 0.948080 0.956120
vt 0.949370 0.955210
vt 0.946360 0.954370
vt 0.966050 0.786800
vt 0.955780 0.933670
vt 0.522720 0.948990
vt 0.524530 0.945060
vt 0.519810 0.955860
vt 0.935140 0.958040
vt 0.936690 0.958380
vt 0.605360 0.951960
vn -0.6760 -0.5973 0.4316
vn -0.6760 -0.5973 -0.4316
vn -0.0055 -0.6246 -0.7809
vn -0.0055 -0.6246 0.7809
vn -0.6654 0.6091 0.4316
vn -0.6654 0.6091 -0.4316
vn 0.0055 0.6246 -0.7809
vn 0.0055 0.6246 0.7809
vn 0.6654 -0.6091 0.4316
vn 0.6760 0.5973 0.4316
vn 0.6760 0.5973 -0.4316
vn 0.6654 -0.6091 -0.4316
vn -0.8577 0.1070 -0.5029
vn -0.4294 -0.0012 -0.9031
vn -0.4336 -0.3374 -0.8355
vn -0.8623 -0.2870 -0.4171
vn -0.8004 -0.1083 -0.5896
vn -0.8558 0.4394 -0.2729
vn -0.8064 0.3306 -0.4904
vn -0.4251 0.6386 -0.6414
vn -0.4265 0.3540 -0.8323
vn -0.7958 0.5932 -0.1213
vn 0.3640 -0.2086 -0.9078
vn 0.0577 0.9936 -0.0976
vn 0.2952 0.5938 -0.7485
vn 0.4221 0.8755 -0.2352
vn 0.8736 0.2134 -0.4374
vn 0.7434 -0.5625 -0.3618
vn 0.4585 -0.4484 0.7673
vn 0.9907 0.0293 0.1332
vn 0.4148 0.5038 0.7577
vn -0.1993 -0.9763 0.0848
vn 0.2724 -0.9500 -0.1523
vn 0.5018 -0.6522 0.5682
vn -0.5212 -0.2656 0.8111
vn -0.2995 -0.9482 0.1057
vn 0.1841 -0.9783 -0.0951
vn -0.5942 -0.8029 -0.0468
vn -0.7077 -0.3449 0.6166
vn -0.7583 -0.4793 0.4418
vn -0.8501 0.5153 0.1086
vn -0.3074 0.9439 0.1207
vn -0.1815 0.9825 0.0406
vn -0.7942 0.3448 0.5003
vn -0.9671 0.2537 0.0210
vn -0.2490 0.9684 -0.0108
vn 0.5358 0.6279 0.5646
vn 0.6141 0.7825 -0.1030
vn 0.9835 -0.1784 -0.0298
vn -0.2323 -0.3589 0.9040
vn -0.2270 0.1854 0.9561
vn -0.1425 0.7828 0.6058
vn -0.7996 0.5096 0.3176
vn -0.8018 0.1431 0.5801
vn -0.8572 0.3021 0.4172
vn -0.8053 -0.3009 0.5109
vn -0.8594 -0.0920 0.5029
vn -0.4276 0.3450 0.8355
vn -0.4293 0.0087 0.9031
vn -0.4363 -0.6311 0.6414
vn -0.4326 -0.3465 0.8323
vn -0.8634 -0.4244 0.2729
vn -0.4368 -0.8321 0.3417
vn -0.4384 -0.8988 0.0038
vn -0.8654 -0.4911 -0.1000
vn -0.8097 -0.5712 0.1347
vn -0.8143 -0.4791 -0.3275
vn -0.1630 -0.8020 0.5746
vn -0.0212 -0.9990 0.0392
vn 0.1607 -0.8557 -0.4920
vn -0.4378 -0.8286 -0.3490
vn -0.1546 -0.9880 0.0000
vn -0.1539 -0.9127 -0.3786
vn -0.4352 -0.6377 -0.6356
vn -0.1539 -0.9127 0.3786
vn 0.7206 -0.6934 -0.0000
vn 0.7093 -0.6522 0.2677
vn -0.1520 -0.6982 0.6995
vn 0.9844 0.1213 -0.1271
vn 0.7112 -0.5001 0.4941
vn 0.9829 0.1681 -0.0754
vn 0.9723 0.2336 -0.0000
vn 0.7097 -0.2823 -0.6455
vn 0.9894 -0.0087 0.1452
vn 0.9833 0.0446 0.1762
vn 0.7112 -0.5001 -0.4941
vn 0.9844 0.1213 0.1271
vn -0.1492 -0.3773 -0.9140
vn -0.1459 0.0013 -0.9893
vn 0.6966 -0.0061 -0.7175
vn 0.7145 0.2698 -0.6455
vn 0.9824 -0.0618 0.1762
vn 0.7198 0.4876 -0.4941
vn -0.1426 0.3799 -0.9140
vn -0.1398 0.7008 -0.6995
vn -0.1379 0.9152 -0.3786
vn 0.7206 0.6396 -0.2677
vn 0.7326 0.6806 0.0000
vn -0.4222 0.8397 -0.3417
vn -0.1372 0.9905 0.0000
vn -0.4226 0.9063 -0.0038
vn -0.1379 0.9152 0.3786
vn -0.4232 0.8362 0.3490
vn -0.8566 0.5061 0.1000
vn -0.4239 0.6452 0.6356
vn -0.1398 0.7008 0.6995
vn -0.1426 0.3799 0.9140
vn 0.7198 0.4876 0.4941
vn 0.7206 0.6396 0.2677
vn 0.9822 -0.1386 -0.1271
vn 0.9824 -0.0618 -0.1762
vn 0.7145 0.2698 0.6455
vn 0.9894 -0.0087 -0.1452
vn 0.6966 -0.0061 0.7175
vn -0.1459 0.0013 0.9893
vn 0.7097 -0.2823 0.6455
vn 0.9833 0.0446 -0.1762
vn -0.1492 -0.3773 0.9140
vn 0.9798 -0.1853 -0.0754
vn 0.9681 -0.2507 0.0000
vn 0.9798 -0.1853 0.0754
vn 0.9822 -0.1386 0.1271
vn -0.1520 -0.6982 -0.6995
vn 0.7093 -0.6522 -0.2677
vn 0.9829 0.1681 0.0754
usemtl mat6.001
s 1
f 1/1/1 2/2/2 3/3/3
f 1/1/1 3/3/3 4/4/4
f 4/5/4 5/6/5 1/7/1
f 5/8/5 2/9/2 1/10/1
f 5/8/5 6/11/6 2/9/2
f 7/12/7 3/13/3 2/14/2
f 7/12/7 2/14/2 6/15/6
f 8/16/8 6/17/6 5/18/5
f 8/16/8 7/19/7 6/17/6
f 4/5/4 8/20/8 5/6/5
f 9/21/9 10/22/10 8/20/8
f 10/23/10 7/19/7 8/16/8
f 9/21/9 8/20/8 4/5/4
f 9/24/9 11/25/11 10/26/10
f 9/24/9 12/27/12 11/25/11
f 4/4/4 12/28/12 9/29/9
f 11/30/11 12/31/12 3/13/3
f 4/4/4 3/3/3 12/28/12
f 10/23/10 11/32/11 7/19/7
f 11/30/11 3/13/3 7/12/7
f 13/33/13 14/34/14 15/35/15
f 13/33/13 15/35/15 16/36/16
f 17/37/17 13/38/13 16/39/16
f 18/40/18 13/38/13 19/41/19
f 13/33/13 18/42/18 20/43/20
f 13/33/13 20/43/20 21/44/21
f 13/33/13 21/44/21 14/34/14
f 13/38/13 17/37/17 19/41/19
f 18/40/18 19/41/19 22/45/22
f 23/46/23 19/47/19 17/48/17
f 19/49/19 24/50/24 22/51/22
f 19/49/19 25/52/25 24/50/24
f 23/46/23 25/53/25 19/47/19
f 25/52/25 26/54/26 24/50/24
f 23/46/23 27/55/27 25/53/25
f 25/53/25 27/55/27 26/56/26
f 28/57/28 27/55/27 23/46/23
f 29/58/29 27/59/27 28/60/28
f 27/59/27 30/61/30 31/62/31
f 27/59/27 31/62/31 26/63/26
f 29/58/29 30/61/30 27/59/27
f 32/64/32 29/65/29 33/66/33
f 29/65/29 28/67/28 33/66/33
f 29/68/29 34/69/34 30/70/30
f 32/71/32 34/69/34 29/68/29
f 35/72/35 32/73/32 36/74/36
f 32/64/32 33/66/33 36/75/36
f 37/76/37 34/77/34 32/78/32
f 32/79/32 38/80/38 37/81/37
f 39/82/39 38/83/38 32/84/32
f 39/85/39 32/86/32 35/87/35
f 35/72/35 36/74/36 40/88/40
f 39/85/39 35/87/35 41/89/41
f 41/90/41 35/91/35 40/92/40
f 42/93/42 43/94/43 41/95/41
f 42/93/42 41/95/41 44/96/44
f 45/97/45 39/98/39 41/99/41
f 41/90/41 40/92/40 44/100/44
f 46/101/46 41/95/41 43/94/43
f 46/101/46 45/102/45 41/95/41
f 47/103/47 48/104/48 46/101/46
f 47/103/47 46/101/46 43/94/43
f 47/105/47 49/106/49 48/107/48
f 30/108/30 49/106/49 47/105/47
f 49/106/49 30/108/30 34/109/34
f 37/110/37 49/111/49 34/112/34
f 47/113/47 43/114/43 31/115/31
f 47/113/47 31/115/31 30/116/30
f 39/98/39 45/97/45 38/117/38
f 26/54/26 43/94/43 42/93/42
f 26/54/26 31/118/31 43/94/43
f 44/119/44 40/120/40 50/121/50
f 44/119/44 50/121/50 51/122/51
f 52/123/52 44/119/44 51/122/51
f 52/124/52 42/93/42 44/96/44
f 24/50/24 52/124/52 53/125/53
f 52/123/52 54/126/54 53/127/53
f 24/50/24 42/93/42 52/124/52
f 52/123/52 51/122/51 54/126/54
f 54/128/54 55/129/55 53/130/53
f 51/122/51 56/131/56 54/126/54
f 57/132/57 54/128/54 56/133/56
f 54/128/54 57/132/57 55/129/55
f 57/134/57 58/135/58 55/136/55
f 57/134/57 59/137/59 58/135/58
f 57/138/57 60/139/60 61/140/61
f 57/134/57 61/141/61 59/137/59
f 57/138/57 62/142/62 60/139/60
f 62/143/62 57/132/57 56/133/56
f 62/142/62 63/144/63 60/139/60
f 62/142/62 64/145/64 63/144/63
f 62/142/62 65/146/65 64/145/64
f 65/147/65 62/143/62 66/148/66
f 62/143/62 56/133/56 66/148/66
f 67/149/67 65/147/65 66/148/66
f 68/150/68 66/151/66 56/152/56
f 69/153/69 67/154/67 66/155/66
f 68/150/68 69/156/69 66/151/66
f 36/74/36 69/156/69 68/150/68
f 50/157/50 68/150/68 56/152/56
f 40/88/40 36/74/36 68/150/68
f 40/88/40 68/150/68 50/157/50
f 36/75/36 70/158/70 69/153/69
f 69/153/69 70/158/70 67/154/67
f 36/75/36 33/66/33 70/158/70
f 33/66/33 28/67/28 70/158/70
f 28/67/28 23/159/23 70/158/70
f 67/154/67 70/158/70 23/159/23
f 67/149/67 16/39/16 65/147/65
f 67/154/67 23/159/23 17/160/17
f 17/37/17 16/39/16 67/149/67
f 65/161/65 71/162/71 64/163/64
f 16/164/16 71/162/71 65/161/65
f 72/165/72 64/163/64 71/162/71
f 73/166/73 71/162/71 74/167/74
f 16/164/16 74/167/74 71/162/71
f 72/165/72 71/162/71 73/166/73
f 75/168/75 72/169/72 76/170/76
f 73/166/73 76/171/76 72/165/72
f 63/144/63 72/169/72 75/168/75
f 63/144/63 64/145/64 72/169/72
f 75/168/75 76/170/76 77/172/77
f 60/139/60 63/144/63 75/168/75
f 60/139/60 75/168/75 78/173/78
f 78/173/78 75/168/75 77/172/77
f 79/174/79 80/175/80 77/176/77
f 78/173/78 77/172/77 80/177/80
f 79/174/79 77/176/77 81/178/81
f 81/178/81 77/176/77 76/179/76
f 81/178/81 76/179/76 82/180/82
f 83/181/83 84/182/84 85/183/85
f 86/184/86 85/183/85 87/185/87
f 86/184/86 83/181/83 85/183/85
f 88/186/88 83/187/83 86/188/86
f 89/189/89 83/190/83 88/191/88
f 89/189/89 90/192/90 83/190/83
f 83/181/83 90/193/90 84/182/84
f 89/189/89 91/194/91 90/192/90
f 84/182/84 90/193/90 91/195/91
f 84/182/84 91/195/91 92/196/92
f 92/196/92 91/195/91 93/197/93
f 94/198/94 93/199/93 91/194/91
f 89/189/89 94/198/94 91/194/91
f 14/34/14 94/198/94 89/189/89
f 14/34/14 21/44/21 94/198/94
f 21/44/21 95/200/95 94/198/94
f 94/198/94 95/200/95 93/199/93
f 95/201/95 96/202/96 97/203/97
f 95/201/95 97/203/97 93/204/93
f 21/44/21 20/43/20 95/200/95
f 20/205/20 96/202/96 95/201/95
f 96/202/96 98/206/98 97/203/97
f 20/205/20 99/207/99 96/202/96
f 99/207/99 100/208/100 96/202/96
f 96/202/96 100/208/100 98/206/98
f 99/207/99 101/209/101 100/208/100
f 102/210/102 98/206/98 100/208/100
f 100/208/100 101/209/101 103/211/103
f 100/208/100 103/211/103 102/210/102
f 104/212/104 103/211/103 101/209/101
f 55/213/55 105/214/105 103/211/103
f 55/213/55 103/211/103 104/212/104
f 102/210/102 103/211/103 105/214/105
f 106/215/106 105/216/105 58/135/58
f 55/136/55 58/135/58 105/216/105
f 102/210/102 105/214/105 106/217/106
f 106/215/106 58/135/58 107/218/107
f 107/218/107 108/219/108 106/215/106
f 106/217/106 109/220/109 102/210/102
f 106/217/106 108/221/108 109/220/109
f 109/222/109 108/223/108 110/224/110
f 108/223/108 111/225/111 110/224/110
f 108/223/108 112/226/112 111/225/111
f 107/218/107 112/227/112 108/219/108
f 112/226/112 113/228/113 111/225/111
f 112/226/112 114/229/114 113/228/113
f 115/230/115 114/231/114 112/227/112
f 115/230/115 112/227/112 107/218/107
f 115/230/115 116/232/116 114/231/114
f 113/228/113 114/229/114 116/233/116
f 113/228/113 116/233/116 117/234/117
f 117/234/117 116/233/116 80/175/80
f 118/235/118 80/177/80 116/236/116
f 115/230/115 118/237/118 116/232/116
f 59/137/59 61/141/61 118/237/118
f 61/140/61 78/173/78 118/235/118
f 59/137/59 118/237/118 115/230/115
f 118/235/118 78/173/78 80/177/80
f 117/234/117 80/175/80 79/174/79
f 107/218/107 59/137/59 115/230/115
f 98/238/98 109/222/109 119/239/119
f 98/238/98 119/239/119 120/240/120
f 109/222/109 110/224/110 119/239/119
f 121/241/121 98/238/98 120/240/120
f 121/241/121 97/242/97 98/238/98
f 122/243/122 97/242/97 121/241/121
f 92/196/92 93/197/93 122/243/122
f 122/243/122 93/197/93 97/242/97
f 102/210/102 109/220/109 98/206/98
f 107/218/107 58/135/58 59/137/59
f 104/244/104 18/40/18 22/45/22
f 18/245/18 104/212/104 101/209/101
f 53/130/53 55/129/55 104/244/104
f 53/130/53 104/244/104 22/45/22
f 18/245/18 101/209/101 99/207/99
f 18/245/18 99/207/99 20/205/20
f 88/191/88 14/34/14 89/189/89
f 123/246/123 15/247/15 88/186/88
f 88/186/88 86/188/86 123/246/123
f 88/191/88 15/35/15 14/34/14
f 73/166/73 74/167/74 123/246/123
f 123/246/123 124/248/124 73/166/73
f 123/246/123 74/167/74 15/247/15
f 123/246/123 86/188/86 124/248/124
f 73/166/73 124/248/124 76/171/76
f 76/179/76 124/249/124 125/250/125
f 124/249/124 87/185/87 125/250/125
f 124/249/124 86/184/86 87/185/87
f 76/179/76 125/250/125 82/180/82
f 61/140/61 60/139/60 78/173/78
f 16/36/16 15/35/15 74/251/74
f 51/122/51 50/121/50 56/131/56
f 24/50/24 53/125/53 22/51/22
f 24/50/24 26/54/26 42/93/42
