# Blender v3.0.1 OBJ File: 'falcon_final.obj.blend'
# www.blender.org
mtllib propeller.mtl
o propeller_left_front_obj21.001
v 0.107287 -0.148598 0.096482
v 0.103753 -0.139869 0.110606
v 0.099647 -0.128300 0.091939
v 0.106529 -0.146724 0.094474
v 0.098962 -0.129462 0.092290
v 0.092224 -0.110530 0.117795
v 0.091519 -0.109657 0.081227
v 0.093249 -0.113930 0.081227
v 0.098229 -0.126227 0.121000
v 0.095352 -0.120463 0.122268
v 0.091013 -0.109794 0.112792
v 0.094249 -0.115593 0.122177
v 0.091004 -0.111902 0.052943
v 0.094875 -0.121560 0.033045
v 0.087426 -0.104894 0.033579
v 0.088117 -0.106506 0.031513
v 0.095228 -0.120013 0.032591
v 0.102489 -0.135576 0.040387
v 0.091471 -0.110027 0.071750
v 0.105100 -0.140486 0.056718
v 0.105642 -0.141395 0.048887
v 0.091829 -0.111243 0.051791
v 0.104394 -0.136663 0.059885
v 0.092606 -0.112041 0.075741
v 0.082445 -0.092757 0.086180
v 0.088958 -0.104512 0.080204
v 0.081104 -0.088554 0.089034
v 0.090093 -0.106526 0.076215
v 0.071052 -0.069278 0.089226
v 0.071410 -0.067373 0.071797
v 0.078304 -0.081904 0.060358
v 0.076970 -0.076968 0.058932
v 0.073648 -0.071137 0.061489
v 0.073602 -0.075863 0.104342
v 0.072026 -0.069094 0.090545
v 0.074728 -0.076269 0.105025
v 0.075494 -0.078617 0.104194
vt 0.971450 0.906640
vt 0.967300 0.905670
vt 0.970610 0.901150
vt 0.971740 0.905990
vt 0.647840 0.760130
vt 0.647840 0.757910
vt 0.648100 0.758050
vt 0.962830 0.898900
vt 0.971340 0.895420
vt 0.971740 0.896500
vt 0.648030 0.754060
vt 0.963550 0.903130
vt 0.543970 0.960980
vt 0.544100 0.963810
vt 0.542890 0.960270
vt 0.963900 0.898180
vt 0.544520 0.962650
vt 0.962280 0.900570
vt 0.962690 0.901730
vt 0.543240 0.965220
vt 0.539500 0.967760
vt 0.536200 0.963450
vt 0.535460 0.957510
vt 0.535350 0.968730
vt 0.535050 0.968080
vt 0.535050 0.958590
vt 0.966710 0.606730
vt 0.963320 0.602230
vt 0.967860 0.601610
vt 0.967340 0.601170
vt 0.799030 0.658160
vt 0.799030 0.659910
vt 0.798780 0.659740
vt 0.959680 0.604700
vt 0.798970 0.663020
vt 0.967860 0.611330
vt 0.958980 0.608980
vt 0.958390 0.607080
vt 0.647740 0.691740
vt 0.648100 0.696700
vt 0.647830 0.696990
vt 0.647740 0.701240
vt 0.721900 0.965620
vt 0.715210 0.962450
vt 0.723550 0.963090
vt 0.722960 0.964990
vt 0.722260 0.960720
vt 0.967460 0.612420
vt 0.960040 0.609610
vt 0.714080 0.967340
vt 0.714480 0.968430
vt 0.714080 0.957620
vt 0.718330 0.958080
vt 0.714600 0.957180
vt 0.553750 0.962040
vt 0.554730 0.958490
vt 0.553600 0.963340
vt 0.554320 0.957400
vt 0.550180 0.967580
vt 0.546540 0.965110
vt 0.546890 0.960170
vt 0.970170 0.882090
vt 0.971260 0.882840
vt 0.962740 0.879330
vt 0.963460 0.885270
vt 0.962340 0.880420
vt 0.970520 0.887030
vt 0.971830 0.884540
vt 0.545240 0.962620
vt 0.545810 0.960920
vt 0.554230 0.968630
vt 0.648100 0.723670
vt 0.647850 0.723990
vt 0.647840 0.719390
vt 0.648070 0.727840
vt 0.966600 0.889670
vt 0.647840 0.728060
vt 0.962570 0.890500
vt 0.554500 0.968580
vt 0.554730 0.967970
vt 0.962340 0.889890
vn -0.3755 0.9265 0.0228
vn -0.2712 0.6676 -0.6933
vn -0.8314 -0.0353 0.5545
vn -0.2294 0.5651 0.7925
vn 0.6883 0.4452 0.5727
vn 0.1508 -0.7264 -0.6706
vn 0.2504 -0.6223 0.7417
vn -0.0381 0.0963 0.9946
vn -0.2552 0.6065 -0.7530
vn 0.3649 0.2859 -0.8860
vn 0.6700 -0.7380 -0.0801
vn 0.0532 -0.5138 -0.8563
vn 0.9848 -0.1635 -0.0591
vn 0.5025 0.5367 0.6778
vn 0.4204 -0.8407 0.3413
vn 0.2825 -0.5130 0.8106
vn -0.5633 -0.1322 0.8156
vn -0.3537 0.7777 0.5196
vn 0.3206 -0.7140 -0.6225
vn -0.2616 0.9040 -0.3382
vn -0.3353 0.7382 0.5854
vn -0.4586 -0.8771 -0.1426
vn -0.6285 0.2692 -0.7297
vn 0.1698 -0.4227 -0.8902
vn -0.7590 -0.5603 0.3316
vn 0.3513 -0.7263 0.5908
vn 0.2130 -0.1718 0.9618
vn 0.4407 -0.8792 -0.1814
vn -0.9210 0.3782 0.0937
vn -0.4113 0.8827 -0.2272
vn -0.1001 -0.4895 -0.8663
vn 0.1254 0.2295 -0.9652
vn -0.3397 0.7299 -0.5932
vn -0.7630 0.2799 0.5827
vn 0.2066 0.9312 0.3002
vn 0.2764 0.2598 0.9253
vn 0.2461 -0.6563 0.7133
usemtl mat18.001
s 1
f 1/1/1 2/2/2 3/3/3
f 3/3/3 4/4/4 1/1/1
f 4/5/4 3/6/3 5/7/5
f 6/8/6 7/9/7 3/3/3
f 7/9/7 8/10/8 3/3/3
f 3/6/3 8/11/8 5/7/5
f 6/8/6 3/3/3 2/2/2
f 2/2/2 9/12/9 6/8/6
f 6/13/6 10/14/10 11/15/11
f 7/9/7 6/8/6 11/16/11
f 12/17/12 10/14/10 6/13/6
f 9/12/9 12/18/12 6/8/6
f 10/19/10 12/18/12 9/12/9
f 9/20/9 2/21/2 11/15/11
f 10/14/10 9/20/9 11/15/11
f 2/21/2 5/22/5 11/15/11
f 7/23/7 11/15/11 5/22/5
f 2/21/2 1/24/1 5/22/5
f 4/25/4 5/22/5 1/24/1
f 5/22/5 8/26/8 7/23/7
f 13/27/13 14/28/14 15/29/15
f 14/28/14 16/30/16 15/29/15
f 16/31/16 14/32/14 17/33/17
f 18/34/18 14/28/14 13/27/13
f 14/32/14 18/35/18 17/33/17
f 13/27/13 19/36/19 20/37/20
f 20/37/20 21/38/21 13/27/13
f 15/39/15 22/40/22 13/41/13
f 13/41/13 22/40/22 19/42/19
f 21/38/21 18/34/18 13/27/13
f 23/43/23 22/44/22 21/45/21
f 21/45/21 20/46/20 23/43/23
f 18/47/18 21/45/21 22/44/22
f 24/48/24 23/49/23 20/37/20
f 19/50/19 22/44/22 23/43/23
f 23/43/23 24/51/24 19/50/19
f 24/48/24 20/37/20 19/36/19
f 22/44/22 15/52/15 17/53/17
f 17/53/17 18/47/18 22/44/22
f 16/54/16 17/53/17 15/52/15
f 25/55/25 26/56/26 27/57/27
f 28/58/28 26/56/26 25/55/25
f 29/59/29 30/60/30 25/55/25
f 30/60/30 31/61/31 25/55/25
f 27/57/27 29/59/29 25/55/25
f 31/61/31 28/58/28 25/55/25
f 31/62/31 32/63/32 28/64/28
f 28/64/28 32/63/32 27/65/27
f 26/66/26 28/64/28 27/65/27
f 27/65/27 32/63/32 30/67/30
f 33/68/33 30/67/30 32/63/32
f 33/69/33 32/70/32 31/61/31
f 30/60/30 33/69/33 31/61/31
f 34/71/34 29/59/29 27/57/27
f 29/72/29 35/73/35 30/74/30
f 34/75/34 35/73/35 29/72/29
f 30/67/30 35/76/35 27/65/27
f 34/75/34 36/77/36 35/73/35
f 35/76/35 36/78/36 27/65/27
f 36/79/36 34/71/34 37/80/37
f 27/65/27 36/78/36 37/81/37
f 27/57/27 37/80/37 34/71/34
