# Blender v3.0.1 OBJ File: 'falcon_final.obj.blend'
# www.blender.org
mtllib rear_right_duct.mtl
o rear_right_duct_obj20.001
v -0.299843 0.120998 0.073005
v -0.308216 0.116654 0.077728
v -0.299756 0.121713 0.081167
v -0.289093 0.122553 0.080475
v -0.289080 0.121609 0.072471
v -0.290363 0.118920 0.068006
v -0.302178 0.116140 0.069125
v -0.305042 0.110107 0.070095
v -0.307132 0.105946 0.077728
v -0.302178 0.116140 0.086331
v -0.305042 0.110107 0.085361
v -0.294550 0.110142 0.091483
v -0.296817 0.105390 0.090439
v -0.299492 0.099917 0.085876
v -0.288332 0.101337 0.090437
v -0.300472 0.097719 0.077728
v -0.291131 0.095469 0.085314
v -0.291931 0.093793 0.074900
v -0.289071 0.099788 0.082959
v -0.286615 0.104937 0.086335
v -0.285185 0.107934 0.091526
v -0.283296 0.111895 0.083993
v -0.243100 0.091413 0.084626
v -0.246462 0.084501 0.086242
v -0.248383 0.080105 0.082261
v -0.241944 0.093824 0.081011
v -0.289656 0.098562 0.074040
v -0.249052 0.078925 0.077728
v -0.289475 0.098940 0.066204
v -0.246462 0.084501 0.069214
v -0.286615 0.104937 0.069121
v -0.248383 0.080105 0.073195
v -0.299492 0.099917 0.069579
v -0.296817 0.105390 0.065017
v -0.285185 0.107933 0.063929
v -0.281248 0.116188 0.069341
v -0.292284 0.114893 0.065022
v -0.283939 0.110546 0.070540
v -0.294550 0.110142 0.063972
v -0.282407 0.113757 0.075964
v -0.241944 0.093824 0.074444
v -0.243100 0.091413 0.070830
v -0.241663 0.094414 0.077728
v -0.280143 0.118504 0.077728
v -0.281248 0.116188 0.086114
v -0.290363 0.118920 0.087450
v -0.292284 0.114893 0.090434
v -0.278294 0.105661 0.127281
v -0.278294 0.105661 0.028044
v -0.288577 0.110566 0.030789
v -0.291127 0.105221 0.030789
v -0.291127 0.105221 0.124536
v -0.288577 0.110566 0.124536
v -0.270560 0.095411 0.124536
v -0.268010 0.100756 0.124536
v -0.268010 0.100756 0.030789
v -0.280843 0.100316 0.127281
v -0.270560 0.095411 0.030789
v -0.280843 0.100316 0.028044
v -0.302078 0.091733 0.125649
v -0.235163 0.081806 0.129598
v -0.293531 0.109649 0.129598
v -0.226617 0.099722 0.125649
v -0.284985 0.127565 0.125649
v -0.293531 0.109649 0.125806
v -0.235163 0.081806 0.125806
v -0.301453 0.093043 0.122146
v -0.227241 0.098412 0.122146
v -0.285610 0.126255 0.122146
v -0.277740 0.142753 0.114405
v -0.220526 0.112490 0.111724
v -0.278895 0.140333 0.111724
v -0.272899 0.152902 0.097578
v -0.274408 0.149740 0.096126
v -0.216039 0.121897 0.096126
v -0.212831 0.128622 0.077728
v -0.214531 0.125059 0.097578
v -0.214463 0.125200 0.077728
v -0.219372 0.114910 0.114405
v -0.216039 0.121897 0.059329
v -0.272832 0.153043 0.077728
v -0.274408 0.149740 0.059329
v -0.214531 0.125059 0.057878
v -0.220526 0.112490 0.043732
v -0.278895 0.140333 0.043732
v -0.285610 0.126255 0.033310
v -0.227241 0.098412 0.033310
v -0.219372 0.114910 0.041050
v -0.277740 0.142753 0.041050
v -0.284985 0.127565 0.029806
v -0.226617 0.099722 0.029806
v -0.293531 0.109649 0.025858
v -0.235163 0.081806 0.025858
v -0.235163 0.081806 0.029650
v -0.243709 0.063890 0.029806
v -0.293531 0.109649 0.029650
v -0.301453 0.093043 0.033310
v -0.243084 0.065200 0.033310
v -0.308168 0.078965 0.043732
v -0.249800 0.051122 0.043732
v -0.250954 0.048702 0.041050
v -0.309323 0.076545 0.041050
v -0.314164 0.066397 0.057878
v -0.312655 0.069559 0.059329
v -0.315864 0.062833 0.077728
v -0.314231 0.066256 0.077728
v -0.254287 0.041716 0.059329
v -0.257495 0.034990 0.077728
v -0.255795 0.038554 0.057878
v -0.255862 0.038413 0.077728
v -0.254287 0.041716 0.096126
v -0.249800 0.051122 0.111724
v -0.255795 0.038554 0.097578
v -0.312655 0.069559 0.096126
v -0.250954 0.048702 0.114405
v -0.243084 0.065200 0.122146
v -0.308168 0.078965 0.111724
v -0.314164 0.066397 0.097578
v -0.309323 0.076545 0.114405
v -0.243709 0.063890 0.125649
v -0.302078 0.091733 0.029806
v -0.272899 0.152902 0.057878
v -0.271199 0.156465 0.077728
vt 0.918390 0.838550
vt 0.918710 0.840760
vt 0.916720 0.839750
vt 0.960370 0.658460
vt 0.960390 0.660090
vt 0.958060 0.659190
vt 0.957990 0.657620
vt 0.955100 0.933450
vt 0.954190 0.931000
vt 0.955430 0.931030
vt 0.956770 0.933520
vt 0.920010 0.838950
vt 0.920910 0.840390
vt 0.920210 0.842520
vt 0.916720 0.841750
vt 0.917990 0.842870
vt 0.967630 0.599170
vt 0.965230 0.598930
vt 0.965260 0.597370
vt 0.967650 0.597910
vt 0.967650 0.596010
vt 0.965230 0.595370
vt 0.970010 0.597930
vt 0.967650 0.594410
vt 0.970020 0.595860
vt 0.968950 0.720070
vt 0.966690 0.718820
vt 0.969060 0.718190
vt 0.741130 0.907970
vt 0.739830 0.908280
vt 0.739960 0.905630
vt 0.742340 0.909120
vt 0.741140 0.909900
vt 0.742870 0.910570
vt 0.744360 0.908970
vt 0.790600 0.961190
vt 0.791600 0.949820
vt 0.792140 0.961130
vt 0.965190 0.663300
vt 0.965630 0.674610
vt 0.964210 0.674620
vt 0.966850 0.663280
vt 0.967190 0.674620
vt 0.842870 0.949430
vt 0.841840 0.948960
vt 0.841780 0.945770
vt 0.840890 0.929430
vt 0.840120 0.940740
vt 0.839250 0.929430
vt 0.564070 0.901110
vt 0.564950 0.912420
vt 0.564070 0.912570
vt 0.741300 0.905710
vt 0.741840 0.903810
vt 0.629440 0.921670
vt 0.631460 0.932880
vt 0.629440 0.932970
vt 0.630940 0.921570
vt 0.743300 0.904900
vt 0.632070 0.921610
vt 0.969030 0.715570
vt 0.966690 0.716800
vt 0.966630 0.714980
vt 0.968870 0.713680
vt 0.744410 0.903810
vt 0.955040 0.928650
vt 0.957700 0.928760
vt 0.956780 0.931080
vt 0.744750 0.905600
vt 0.746350 0.905650
vt 0.958020 0.931150
vt 0.966550 0.714010
vt 0.958020 0.933620
vt 0.964220 0.715960
vt 0.745320 0.907120
vt 0.964210 0.541890
vt 0.965610 0.553170
vt 0.964110 0.553230
vt 0.965270 0.541860
vt 0.967100 0.553160
vt 0.967100 0.541870
vt 0.793510 0.949780
vt 0.794120 0.949780
vt 0.794120 0.961100
vt 0.792730 0.949790
vt 0.746500 0.907850
vt 0.955600 0.658570
vt 0.953330 0.928650
vt 0.745410 0.909760
vt 0.955570 0.660680
vt 0.957930 0.661190
vt 0.957930 0.662420
vt 0.955570 0.663070
vt 0.960330 0.662010
vt 0.967610 0.600160
vt 0.969980 0.599630
vt 0.964220 0.718210
vt 0.573660 0.934650
vt 0.573660 0.913720
vt 0.576520 0.914270
vt 0.605280 0.876390
vt 0.606770 0.876390
vt 0.606770 0.899940
vt 0.605280 0.899940
vt 0.576520 0.934040
vt 0.898210 0.907830
vt 0.896940 0.907820
vt 0.896580 0.904970
vt 0.570800 0.914330
vt 0.570800 0.934110
vt 0.897840 0.904980
vt 0.896940 0.902090
vt 0.944910 0.583120
vt 0.947760 0.563060
vt 0.947760 0.582410
vt 0.749440 0.882940
vt 0.750930 0.906490
vt 0.749440 0.906490
vt 0.944910 0.562640
vt 0.750930 0.882940
vt 0.942060 0.563350
vt 0.898210 0.902110
vt 0.942060 0.582690
vt 0.736580 0.944720
vt 0.752790 0.949480
vt 0.736540 0.949480
vt 0.752710 0.953190
vt 0.736470 0.953190
vt 0.855660 0.928500
vt 0.855470 0.929440
vt 0.850780 0.927490
vt 0.860560 0.929440
vt 0.948840 0.821870
vt 0.953200 0.838180
vt 0.948840 0.838100
vt 0.860370 0.928500
vt 0.861560 0.946120
vt 0.861800 0.949520
vt 0.845590 0.949520
vt 0.851310 0.926700
vt 0.845360 0.946120
vt 0.847180 0.923890
vt 0.861440 0.941730
vt 0.845240 0.941730
vt 0.847970 0.923370
vt 0.845240 0.919200
vt 0.846170 0.919010
vt 0.861450 0.937020
vt 0.845240 0.937020
vt 0.522820 0.921510
vt 0.520020 0.917380
vt 0.523610 0.920980
vt 0.519490 0.918180
vt 0.861580 0.932700
vt 0.524630 0.925860
vt 0.525560 0.925680
vt 0.711450 0.952670
vt 0.695200 0.952670
vt 0.695200 0.947590
vt 0.711440 0.947590
vt 0.695230 0.942860
vt 0.524630 0.930570
vt 0.525560 0.930760
vt 0.711480 0.957340
vt 0.695240 0.957340
vt 0.515140 0.916370
vt 0.845380 0.932700
vt 0.845620 0.929440
vt 0.861830 0.929440
vt 0.515320 0.915440
vt 0.510420 0.916370
vt 0.964040 0.579490
vt 0.947800 0.579490
vt 0.947760 0.575190
vt 0.964000 0.575190
vt 0.947760 0.570480
vt 0.964000 0.570480
vt 0.506070 0.918180
vt 0.510240 0.915440
vt 0.948630 0.912420
vt 0.953330 0.912330
vt 0.953330 0.928560
vt 0.958410 0.928560
vt 0.958410 0.912330
vt 0.505540 0.917380
vt 0.963110 0.928650
vt 0.963110 0.912420
vt 0.502740 0.921510
vt 0.501950 0.920980
vt 0.500000 0.925680
vt 0.947790 0.566070
vt 0.964040 0.566070
vt 0.947860 0.562640
vt 0.500930 0.925860
vt 0.964100 0.562640
vt 0.947930 0.663280
vt 0.964210 0.667600
vt 0.947970 0.667600
vt 0.500930 0.930570
vt 0.500000 0.930760
vt 0.964180 0.663280
vt 0.864730 0.906610
vt 0.868850 0.909420
vt 0.868060 0.909950
vt 0.870800 0.914110
vt 0.869860 0.914300
vt 0.964210 0.672320
vt 0.870800 0.919200
vt 0.869860 0.919010
vt 0.947970 0.672320
vt 0.964180 0.676700
vt 0.502740 0.934930
vt 0.505540 0.939050
vt 0.501950 0.935460
vt 0.947940 0.676700
vt 0.506070 0.938260
vt 0.947880 0.680080
vt 0.510420 0.940060
vt 0.515140 0.940060
vt 0.510240 0.941000
vt 0.964120 0.680080
vt 0.957910 0.821950
vt 0.962260 0.821870
vt 0.962260 0.838100
vt 0.515320 0.941000
vt 0.519490 0.938260
vt 0.957910 0.838180
vt 0.953200 0.821950
vt 0.864730 0.926700
vt 0.868850 0.923890
vt 0.865260 0.927490
vt 0.868060 0.923370
vt 0.736530 0.935010
vt 0.752820 0.939640
vt 0.736580 0.939640
vt 0.752820 0.944720
vt 0.522820 0.934930
vt 0.523610 0.935460
vt 0.520020 0.939050
vt 0.794370 0.947600
vt 0.810320 0.951100
vt 0.794120 0.951120
vt 0.752780 0.935010
vt 0.810580 0.947570
vt 0.810720 0.942920
vt 0.794510 0.942940
vt 0.810720 0.937830
vt 0.794510 0.937860
vt 0.810580 0.933100
vt 0.794370 0.933120
vt 0.865260 0.905820
vt 0.810320 0.929430
vt 0.794120 0.929460
vt 0.860370 0.904810
vt 0.860560 0.903880
vt 0.855470 0.903880
vt 0.855660 0.904810
vt 0.850780 0.905820
vt 0.948630 0.928650
vt 0.851310 0.906610
vt 0.847180 0.909420
vt 0.711540 0.939220
vt 0.711480 0.942860
vt 0.695300 0.939220
vt 0.847970 0.909950
vt 0.845240 0.914110
vt 0.846170 0.914300
vt 0.841050 0.947150
vt 0.842830 0.945200
vt 0.844010 0.945300
vt 0.845240 0.946270
vt 0.845240 0.948240
vt 0.844490 0.949090
vt 0.843710 0.949420
vn -0.3237 0.8678 -0.3770
vn -0.9039 0.4278 0.0002
vn -0.3197 0.9056 0.2786
vn 0.1784 0.9675 0.1793
vn 0.1752 0.9280 -0.3288
vn 0.0754 0.7095 -0.7006
vn -0.5255 0.4482 -0.7232
vn -0.7763 -0.0677 -0.6268
vn -0.9273 -0.3743 -0.0000
vn -0.5208 0.4615 0.7182
vn -0.7763 -0.0677 0.6268
vn -0.2209 0.0836 0.9717
vn -0.3692 -0.2495 0.8952
vn -0.5557 -0.6150 0.5595
vn 0.4644 -0.5492 0.6948
vn -0.6180 -0.7861 0.0099
vn 0.2988 -0.8661 0.4006
vn 0.2623 -0.9538 -0.1466
vn 0.5290 -0.7849 0.3227
vn 0.6990 -0.4103 0.5857
vn 0.6416 -0.1615 0.7498
vn 0.9237 0.0010 0.3830
vn 0.7526 0.1016 0.6506
vn 0.4687 -0.4305 0.7714
vn 0.3089 -0.8555 0.4155
vn 0.8915 0.3417 0.2975
vn 0.5512 -0.8077 -0.2094
vn 0.2191 -0.9756 0.0112
vn 0.4007 -0.6643 -0.6310
vn 0.4665 -0.4317 -0.7721
vn 0.6835 -0.4466 -0.5773
vn 0.3203 -0.8477 -0.4228
vn -0.5586 -0.6164 -0.5550
vn -0.3681 -0.2367 -0.8991
vn 0.6342 -0.1762 -0.7528
vn 0.8436 0.2630 -0.4682
vn -0.0362 0.4508 -0.8919
vn 0.8693 -0.0385 -0.4927
vn -0.2209 0.0836 -0.9717
vn 0.9793 0.1775 -0.0973
vn 0.8911 0.3357 -0.3054
vn 0.7520 0.1065 -0.6505
vn 0.9208 0.3899 0.0060
vn 0.9182 0.3962 -0.0029
vn 0.8413 0.2678 0.4696
vn 0.0842 0.7293 0.6790
vn -0.0362 0.4508 0.8919
vn 0.2833 0.5939 0.7530
vn 0.4305 0.9026 0.0000
vn -0.2671 0.9637 0.0000
vn -0.9170 -0.3988 -0.0000
vn -0.8264 -0.2604 0.4992
vn -0.3177 0.8061 0.4992
vn 0.3177 -0.8061 0.4992
vn 0.8264 0.2604 0.4992
vn 0.9171 0.3988 0.0000
vn -0.2833 -0.5939 0.7530
vn 0.2671 -0.9637 -0.0000
vn -0.4305 -0.9026 -0.0000
vn -0.7238 0.0289 0.6894
vn 0.6009 -0.2866 0.7462
vn -0.6009 0.2866 0.7462
vn 0.7238 -0.0289 0.6894
vn -0.4779 0.5444 0.6894
vn -0.6803 0.3245 -0.6571
vn 0.6803 -0.3245 -0.6571
vn -0.5721 0.5515 -0.6071
vn 0.5721 -0.5515 -0.6071
vn -0.7886 0.0976 -0.6071
vn -0.3737 0.7629 0.5276
vn 0.4803 -0.7439 -0.4647
vn -0.8804 -0.0949 -0.4647
vn -0.3040 0.9089 0.2856
vn -0.9417 -0.2234 -0.2515
vn 0.4189 -0.8725 -0.2515
vn 0.9221 0.3869 -0.0000
vn 0.8977 0.3356 0.2856
vn 0.3974 -0.9176 0.0000
vn 0.8280 0.1896 0.5276
vn 0.4189 -0.8725 0.2515
vn -0.9633 -0.2686 0.0000
vn -0.9417 -0.2234 0.2515
vn 0.8977 0.3356 -0.2856
vn 0.4803 -0.7439 0.4647
vn -0.8804 -0.0949 0.4647
vn -0.7886 0.0976 0.6071
vn 0.5721 -0.5515 0.6071
vn 0.8280 0.1896 -0.5276
vn -0.3737 0.7629 -0.5276
vn -0.4779 0.5444 -0.6894
vn 0.7238 -0.0289 -0.6894
vn -0.6009 0.2866 -0.7462
vn 0.6009 -0.2866 -0.7462
vn 0.6803 -0.3245 0.6571
vn 0.4779 -0.5444 -0.6894
vn -0.6803 0.3245 0.6571
vn -0.5721 0.5515 0.6071
vn 0.7886 -0.0976 0.6071
vn -0.4803 0.7439 0.4647
vn 0.8804 0.0949 0.4647
vn 0.3737 -0.7629 -0.5276
vn -0.8280 -0.1896 -0.5276
vn -0.8977 -0.3356 -0.2856
vn -0.4189 0.8725 0.2515
vn -0.9221 -0.3869 -0.0000
vn -0.3974 0.9176 0.0000
vn 0.9417 0.2234 0.2515
vn 0.2796 -0.9601 -0.0000
vn 0.3040 -0.9089 -0.2856
vn 0.9633 0.2686 0.0000
vn 0.9417 0.2234 -0.2515
vn 0.8804 0.0949 -0.4647
vn 0.3040 -0.9089 0.2856
vn -0.4189 0.8725 -0.2515
vn 0.3737 -0.7629 0.5276
vn 0.7886 -0.0975 -0.6071
vn -0.4803 0.7439 -0.4647
vn -0.8977 -0.3356 0.2856
vn -0.8280 -0.1896 0.5276
vn 0.4779 -0.5444 0.6894
vn -0.7238 0.0289 -0.6894
vn -0.3040 0.9089 -0.2856
vn -0.2796 0.9601 0.0000
usemtl mat17.001
s 1
f 1/1/1 2/2/2 3/3/3
f 1/4/1 3/5/3 4/6/4
f 1/4/1 4/6/4 5/7/5
f 1/8/1 5/9/5 6/10/6
f 7/11/7 1/8/1 6/10/6
f 7/12/7 2/2/2 1/1/1
f 8/13/8 2/2/2 7/12/7
f 9/14/9 2/2/2 8/13/8
f 3/3/3 2/2/2 10/15/10
f 10/15/10 2/2/2 11/16/11
f 11/16/11 2/2/2 9/14/9
f 12/17/12 10/18/10 11/19/11
f 12/17/12 11/19/11 13/20/13
f 13/20/13 11/19/11 14/21/14
f 14/21/14 11/19/11 9/22/9
f 15/23/15 13/20/13 14/21/14
f 9/22/9 16/24/16 14/21/14
f 17/25/17 14/21/14 16/24/16
f 15/23/15 14/21/14 17/25/17
f 17/26/17 16/27/16 18/28/18
f 19/29/19 17/30/17 18/31/18
f 20/32/20 17/30/17 19/29/19
f 20/32/20 15/33/15 17/30/17
f 20/32/20 21/34/21 15/33/15
f 21/34/21 20/32/20 22/35/22
f 20/36/20 23/37/23 22/38/22
f 20/39/20 24/40/24 23/41/23
f 19/42/19 24/40/24 20/39/20
f 19/42/19 25/43/25 24/40/24
f 26/44/26 23/45/23 25/46/25
f 27/47/27 25/48/25 19/49/19
f 27/50/27 28/51/28 25/52/25
f 19/29/19 18/31/18 27/53/27
f 18/31/18 29/54/29 27/53/27
f 30/55/30 27/56/27 31/57/31
f 30/55/30 32/58/32 27/56/27
f 29/54/29 31/59/31 27/53/27
f 32/58/32 28/60/28 27/56/27
f 29/61/29 33/62/33 34/63/34
f 35/64/35 29/61/29 34/63/34
f 29/61/29 18/28/18 33/62/33
f 29/54/29 35/65/35 31/59/31
f 36/66/36 35/67/35 37/68/37
f 38/69/38 35/65/35 36/70/36
f 35/67/35 39/71/39 37/68/37
f 31/59/31 35/65/35 38/69/38
f 35/64/35 34/63/34 39/72/39
f 7/11/7 37/68/37 39/71/39
f 8/73/8 7/11/7 39/71/39
f 8/74/8 39/72/39 34/63/34
f 38/69/38 36/70/36 40/75/40
f 41/76/41 38/77/38 40/78/40
f 41/76/41 42/79/42 38/77/38
f 42/79/42 31/80/31 38/77/38
f 42/79/42 30/81/30 31/80/31
f 43/82/43 41/83/41 40/84/40
f 22/38/22 43/82/43 40/84/40
f 22/38/22 26/85/26 43/82/43
f 22/38/22 23/37/23 26/85/26
f 44/86/44 22/35/22 40/75/40
f 40/75/40 36/70/36 44/86/44
f 44/87/44 5/7/5 4/6/4
f 44/88/44 36/66/36 5/9/5
f 44/86/44 45/89/45 22/35/22
f 44/87/44 4/6/4 45/90/45
f 45/90/45 46/91/46 47/92/47
f 45/90/45 4/6/4 46/91/46
f 45/90/45 47/92/47 21/93/21
f 45/89/45 21/34/21 22/35/22
f 46/91/46 10/94/10 47/92/47
f 47/95/47 10/18/10 12/17/12
f 21/96/21 47/95/47 12/17/12
f 46/91/46 3/5/3 10/94/10
f 4/6/4 3/5/3 46/91/46
f 36/66/36 37/68/37 6/10/6
f 7/11/7 6/10/6 37/68/37
f 36/66/36 6/10/6 5/9/5
f 8/74/8 34/63/34 33/62/33
f 9/97/9 8/74/8 33/62/33
f 16/27/16 9/97/9 33/62/33
f 18/28/18 16/27/16 33/62/33
f 21/96/21 13/20/13 15/23/15
f 21/96/21 12/17/12 13/20/13
f 48/98/48 49/99/49 50/100/50
f 50/101/50 51/102/51 52/103/52
f 50/101/50 52/103/52 53/104/53
f 48/98/48 50/100/50 53/105/53
f 54/106/54 55/107/55 48/108/48
f 56/109/56 48/98/48 55/110/55
f 56/109/56 49/99/49 48/98/48
f 57/111/57 48/108/48 53/112/53
f 54/106/54 48/108/48 57/111/57
f 57/113/57 58/114/58 54/115/54
f 58/116/58 55/117/55 54/118/54
f 57/113/57 59/119/59 58/114/58
f 58/116/58 56/120/56 55/117/55
f 51/121/51 59/119/59 57/113/57
f 57/111/57 53/112/53 52/122/52
f 51/121/51 57/113/57 52/123/52
f 60/124/60 61/125/61 62/126/62
f 62/126/62 61/125/61 63/127/63
f 62/126/62 63/127/63 64/128/64
f 65/129/65 62/130/62 64/131/64
f 65/129/65 60/132/60 62/130/62
f 66/133/66 67/134/67 65/135/65
f 65/129/65 67/136/67 60/132/60
f 68/137/68 66/138/66 65/139/65
f 65/129/65 64/131/64 69/140/69
f 68/137/68 65/139/65 69/141/69
f 69/140/69 64/131/64 70/142/70
f 71/143/71 69/141/69 72/144/72
f 71/143/71 68/137/68 69/141/69
f 69/140/69 70/142/70 72/145/72
f 72/145/72 73/146/73 74/147/74
f 72/145/72 70/142/70 73/146/73
f 75/148/75 72/144/72 74/149/74
f 75/148/75 71/143/71 72/144/72
f 75/150/75 76/151/76 77/152/77
f 75/150/75 78/153/78 76/151/76
f 78/154/78 75/148/75 74/149/74
f 71/155/71 75/150/75 77/152/77
f 71/155/71 77/152/77 79/156/79
f 70/157/70 79/158/79 77/159/77
f 70/157/70 77/159/77 73/160/73
f 73/160/73 77/159/77 76/161/76
f 68/162/68 79/156/79 63/163/63
f 64/164/64 63/165/63 79/158/79
f 64/164/64 79/158/79 70/157/70
f 68/162/68 71/155/71 79/156/79
f 80/166/80 76/151/76 78/153/78
f 78/154/78 74/149/74 81/167/81
f 78/154/78 81/167/81 82/168/82
f 78/154/78 82/168/82 80/169/80
f 80/166/80 83/170/83 76/151/76
f 84/171/84 83/170/83 80/166/80
f 80/172/80 82/173/82 85/174/85
f 80/172/80 85/174/85 84/175/84
f 84/175/84 85/174/85 86/176/86
f 84/175/84 86/176/86 87/177/87
f 87/178/87 88/179/88 84/171/84
f 84/171/84 88/179/88 83/170/83
f 83/180/83 88/181/88 89/182/89
f 88/181/88 90/183/90 89/182/89
f 88/181/88 91/184/91 90/183/90
f 87/178/87 91/185/91 88/179/88
f 91/184/91 92/186/92 90/183/90
f 91/184/91 93/187/93 92/186/92
f 94/188/94 93/189/93 91/185/91
f 94/188/94 91/185/91 87/178/87
f 94/188/94 95/190/95 93/189/93
f 87/177/87 96/191/96 94/192/94
f 94/192/94 96/191/96 97/193/97
f 94/188/94 98/194/98 95/190/95
f 94/192/94 97/193/97 98/195/98
f 98/196/98 99/197/99 100/198/100
f 98/194/98 100/199/100 101/200/101
f 98/194/98 101/200/101 95/190/95
f 98/196/98 97/201/97 99/197/99
f 97/202/97 102/203/102 99/204/99
f 99/204/99 102/203/102 103/205/103
f 99/204/99 103/205/103 104/206/104
f 100/198/100 99/197/99 104/207/104
f 104/206/104 105/208/105 106/209/106
f 104/206/104 103/205/103 105/208/105
f 100/198/100 104/207/104 107/210/107
f 107/210/107 104/207/104 106/211/106
f 107/212/107 108/213/108 109/214/109
f 100/199/100 107/212/107 109/214/109
f 107/210/107 106/211/106 110/215/110
f 107/212/107 110/216/110 108/213/108
f 111/217/111 110/215/110 106/211/106
f 111/218/111 108/213/108 110/216/110
f 112/219/112 113/220/113 111/218/111
f 111/218/111 113/220/113 108/213/108
f 111/217/111 106/211/106 114/221/114
f 112/222/112 111/223/111 114/224/114
f 112/219/112 115/225/115 113/220/113
f 116/226/116 115/225/115 112/219/112
f 112/222/112 114/224/114 117/227/117
f 116/228/116 112/222/112 117/227/117
f 117/229/117 118/230/118 119/231/119
f 117/229/117 114/232/114 118/230/118
f 67/136/67 117/229/117 119/231/119
f 116/228/116 117/227/117 67/134/67
f 118/233/118 115/234/115 119/235/119
f 119/235/119 115/234/115 120/236/120
f 67/136/67 119/231/119 60/132/60
f 119/235/119 120/236/120 60/124/60
f 60/124/60 120/236/120 61/125/61
f 66/237/66 61/238/61 120/239/120
f 66/237/66 120/239/120 116/226/116
f 116/226/116 120/239/120 115/225/115
f 105/240/105 113/241/113 118/242/118
f 114/232/114 105/208/105 118/230/118
f 118/233/118 113/243/113 115/234/115
f 66/133/66 116/228/116 67/134/67
f 114/232/114 106/209/106 105/208/105
f 105/240/105 108/244/108 113/241/113
f 109/245/109 108/244/108 105/240/105
f 109/245/109 105/240/105 103/246/103
f 100/199/100 109/214/109 101/200/101
f 101/247/101 109/245/109 103/246/103
f 101/247/101 103/246/103 102/248/102
f 95/249/95 102/248/102 121/250/121
f 97/202/97 121/251/121 102/203/102
f 95/249/95 101/247/101 102/248/102
f 93/252/93 121/250/121 92/253/92
f 96/254/96 92/255/92 121/251/121
f 93/252/93 95/249/95 121/250/121
f 96/254/96 121/251/121 97/202/97
f 96/254/96 90/256/90 92/255/92
f 96/254/96 86/257/86 90/256/90
f 87/177/87 86/176/86 96/191/96
f 86/257/86 89/258/89 90/256/90
f 83/180/83 89/182/89 122/259/122
f 85/260/85 122/261/122 89/258/89
f 86/257/86 85/260/85 89/258/89
f 76/161/76 122/262/122 123/263/123
f 76/161/76 83/264/83 122/262/122
f 82/265/82 123/266/123 122/261/122
f 85/260/85 82/265/82 122/261/122
f 73/160/73 76/161/76 123/263/123
f 74/147/74 73/146/73 123/266/123
f 74/147/74 123/266/123 81/267/81
f 82/265/82 81/267/81 123/266/123
f 66/237/66 68/162/68 63/163/63
f 66/237/66 63/163/63 61/238/61
f 24/268/24 25/46/25 23/45/23
f 25/46/25 28/269/28 32/270/32
f 26/44/26 25/46/25 32/270/32
f 32/270/32 30/271/30 42/272/42
f 26/44/26 32/270/32 41/273/41
f 42/272/42 41/273/41 32/270/32
f 41/273/41 43/274/43 26/44/26
