# Blender v3.0.1 OBJ File: 'falcon_final.obj.blend'
# www.blender.org
mtllib right_light.mtl
o right_light_obj8.001
v 0.195443 0.162434 0.036092
v 0.180074 0.162569 0.043087
v 0.180074 0.162569 0.066990
v 0.195443 0.162434 0.073986
v 0.210812 0.162300 0.043087
v 0.195227 0.137727 0.036092
v 0.210595 0.137592 0.043087
v 0.210812 0.162300 0.066990
v 0.195227 0.137727 0.073986
v 0.210595 0.137592 0.066990
v 0.179858 0.137862 0.066990
v 0.179858 0.137862 0.043087
v 0.244417 0.140889 0.053248
v 0.244349 0.139843 0.046057
v 0.244372 0.137019 0.057579
v 0.244450 0.144705 0.047455
v 0.261932 0.125674 0.045171
v 0.261914 0.123711 0.055039
v 0.244508 0.151330 0.046272
v 0.244491 0.152172 0.042245
v 0.262054 0.139628 0.031216
v 0.261981 0.131263 0.036806
v 0.203682 0.151799 0.046168
v 0.202836 0.141138 0.053243
v 0.203576 0.144828 0.047729
v 0.192168 0.142251 0.042054
v 0.195336 0.148108 0.039532
v 0.191931 0.143757 0.014872
v 0.194296 0.155403 0.040381
v 0.193146 0.155755 0.014873
v 0.195704 0.150076 0.014861
v 0.193389 0.142784 0.014784
v 0.186783 0.142047 0.014827
v 0.187709 0.140965 0.046825
v 0.184909 0.141992 0.007642
v 0.182569 0.145696 0.014871
v 0.180235 0.146201 0.014915
v 0.182572 0.146367 0.052162
v 0.203623 0.142698 0.060304
v 0.203644 0.148524 0.063901
v 0.244476 0.147621 0.063789
v 0.244427 0.142049 0.059853
v 0.244411 0.142112 0.065576
v 0.244534 0.154268 0.062746
v 0.244450 0.154717 0.067467
v 0.262054 0.139628 0.078861
v 0.262140 0.149495 0.080824
v 0.262300 0.167728 0.073272
v 0.262349 0.173317 0.064906
v 0.262227 0.159363 0.078861
v 0.244593 0.162281 0.057579
v 0.262366 0.175280 0.055039
v 0.244574 0.160649 0.048186
v 0.244559 0.157133 0.049930
v 0.244570 0.158396 0.057146
v 0.203675 0.158854 0.055039
v 0.203537 0.157606 0.050252
v 0.187870 0.159329 0.046825
v 0.191379 0.158580 0.043332
v 0.186925 0.158263 0.014827
v 0.193517 0.157410 0.014784
v 0.186508 0.158483 0.007625
v 0.181709 0.154736 0.014887
v 0.179213 0.152170 0.007813
v 0.194100 0.156261 0.007652
v 0.196150 0.148377 0.007702
v 0.192577 0.143099 0.007632
v 0.183462 0.155591 0.051153
v 0.203628 0.153394 0.063212
v 0.203560 0.157535 0.059950
v 0.262349 0.173317 0.045171
v 0.262300 0.167728 0.036806
v 0.262227 0.159363 0.031216
v 0.279456 0.177560 0.043351
v 0.279398 0.170940 0.033443
v 0.279311 0.161033 0.026823
v 0.262140 0.149495 0.029253
v 0.307189 0.171200 0.032940
v 0.307100 0.161062 0.026165
v 0.279208 0.149346 0.024498
v 0.306995 0.149102 0.023787
v 0.306891 0.137143 0.026165
v 0.279106 0.137659 0.026823
v 0.306802 0.127005 0.032940
v 0.279019 0.127751 0.033443
v 0.278961 0.121131 0.043351
v 0.306742 0.120230 0.043079
v 0.305676 0.131353 0.037469
v 0.305640 0.125982 0.045633
v 0.306722 0.117851 0.055039
v 0.305210 0.124142 0.055039
v 0.306742 0.120230 0.066998
v 0.278961 0.121131 0.066726
v 0.278941 0.118807 0.055039
v 0.305640 0.125982 0.064444
v 0.305676 0.131353 0.072608
v 0.306802 0.127005 0.077137
v 0.279019 0.127751 0.076634
v 0.305738 0.139432 0.078081
v 0.306891 0.137143 0.083912
v 0.279106 0.137659 0.083254
v 0.279208 0.149346 0.085579
v 0.306995 0.149102 0.086291
v 0.307100 0.161062 0.083912
v 0.279311 0.161033 0.083254
v 0.307189 0.171200 0.077137
v 0.279398 0.170940 0.076634
v 0.279456 0.177560 0.066726
v 0.307248 0.177975 0.066998
v 0.305988 0.166873 0.072608
v 0.306045 0.172243 0.064444
v 0.307269 0.180353 0.055039
v 0.305647 0.174090 0.055039
v 0.307248 0.177975 0.043079
v 0.279476 0.179885 0.055039
v 0.306045 0.172243 0.045633
v 0.305988 0.166873 0.037470
v 0.305907 0.158793 0.031997
v 0.306219 0.149109 0.080045
v 0.305907 0.158793 0.078081
v 0.306219 0.149109 0.030032
v 0.305738 0.139432 0.031997
v 0.261981 0.131263 0.073272
v 0.261932 0.125674 0.064906
vt 0.966970 0.923500
vt 0.970830 0.925250
vt 0.970830 0.931260
vt 0.966970 0.933020
vt 0.963110 0.925250
vt 0.954430 0.805190
vt 0.954220 0.801170
vt 0.960350 0.801170
vt 0.960680 0.797510
vt 0.954550 0.797510
vt 0.963110 0.931260
vt 0.954230 0.634980
vt 0.954230 0.641190
vt 0.948230 0.641190
vt 0.954220 0.801500
vt 0.947880 0.805190
vt 0.948030 0.801500
vt 0.954070 0.805190
vt 0.948230 0.634980
vt 0.954120 0.797500
vt 0.964210 0.698590
vt 0.968060 0.706320
vt 0.964210 0.704540
vt 0.968060 0.696880
vt 0.971910 0.704610
vt 0.970220 0.720070
vt 0.970220 0.726270
vt 0.964220 0.726270
vt 0.960560 0.805190
vt 0.947930 0.797500
vt 0.964220 0.720070
vt 0.971910 0.698650
vt 0.945210 0.635780
vt 0.943460 0.635260
vt 0.946430 0.634980
vt 0.943630 0.636520
vt 0.958670 0.895420
vt 0.959320 0.900100
vt 0.956920 0.900150
vt 0.955880 0.895500
vt 0.943090 0.638120
vt 0.942060 0.638180
vt 0.955590 0.657480
vt 0.958340 0.652780
vt 0.958800 0.657600
vt 0.960630 0.652940
vt 0.961230 0.899990
vt 0.694970 0.930310
vt 0.692840 0.940430
vt 0.693280 0.930240
vt 0.864940 0.660750
vt 0.863860 0.661510
vt 0.858380 0.652650
vt 0.859500 0.652070
vt 0.694630 0.940530
vt 0.859300 0.648890
vt 0.694970 0.943230
vt 0.693440 0.942350
vt 0.565760 0.963690
vt 0.564320 0.964410
vt 0.564320 0.957570
vt 0.691660 0.942610
vt 0.567330 0.957400
vt 0.567600 0.963800
vt 0.565920 0.957480
vt 0.565550 0.911920
vt 0.565970 0.912030
vt 0.565000 0.913690
vt 0.864340 0.644120
vt 0.864940 0.645220
vt 0.565000 0.910680
vt 0.857750 0.648570
vt 0.840890 0.946130
vt 0.840810 0.947770
vt 0.839000 0.948180
vt 0.637900 0.924880
vt 0.638540 0.923650
vt 0.639030 0.923320
vt 0.863640 0.643230
vt 0.840890 0.949490
vt 0.855750 0.648190
vt 0.856940 0.653760
vt 0.875240 0.931440
vt 0.873840 0.931410
vt 0.874630 0.925930
vt 0.873210 0.941610
vt 0.862420 0.662390
vt 0.874530 0.941610
vt 0.947580 0.637850
vt 0.946810 0.636320
vt 0.948230 0.636550
vt 0.871530 0.941470
vt 0.948230 0.639750
vt 0.947070 0.639460
vt 0.959460 0.884050
vt 0.955570 0.879330
vt 0.958700 0.879330
vt 0.957020 0.884080
vt 0.692520 0.948520
vt 0.693940 0.953040
vt 0.691840 0.953050
vt 0.954520 0.884010
vt 0.952320 0.883870
vt 0.945490 0.641260
vt 0.690040 0.948550
vt 0.689370 0.953030
vt 0.687680 0.948520
vt 0.943780 0.639700
vt 0.943220 0.640510
vt 0.945530 0.640280
vt 0.691980 0.930310
vt 0.938130 0.862360
vt 0.945710 0.855310
vt 0.939510 0.863530
vt 0.944810 0.854510
vt 0.691550 0.940560
vt 0.946670 0.850950
vt 0.666860 0.905990
vt 0.668040 0.904780
vt 0.668040 0.907320
vt 0.945440 0.851060
vt 0.944400 0.851140
vt 0.939670 0.846800
vt 0.940670 0.845600
vt 0.568430 0.964500
vt 0.545240 0.914720
vt 0.544630 0.916290
vt 0.544260 0.916070
vt 0.939590 0.846860
vt 0.939350 0.844360
vt 0.941520 0.844600
vt 0.940570 0.842970
vt 0.938130 0.845820
vt 0.639030 0.926720
vt 0.640830 0.926290
vt 0.640840 0.928270
vt 0.639050 0.928550
vt 0.639050 0.924880
vt 0.640850 0.924960
vt 0.839110 0.946280
vt 0.908980 0.905460
vt 0.907180 0.906940
vt 0.907180 0.904410
vt 0.908960 0.907610
vt 0.757520 0.934180
vt 0.755250 0.924850
vt 0.757520 0.924810
vt 0.755200 0.933970
vt 0.637900 0.921470
vt 0.948220 0.850790
vt 0.872620 0.931300
vt 0.872290 0.925940
vt 0.871530 0.931120
vt 0.946670 0.856080
vt 0.940600 0.864420
vt 0.545240 0.917720
vt 0.686890 0.953000
vt 0.684780 0.952960
vt 0.951580 0.652900
vt 0.953710 0.657620
vt 0.953440 0.652760
vt 0.686390 0.957300
vt 0.683900 0.957250
vt 0.950700 0.648540
vt 0.952910 0.648380
vt 0.955820 0.652720
vt 0.950700 0.641590
vt 0.952960 0.641420
vt 0.955720 0.648330
vt 0.955840 0.641370
vt 0.958900 0.641450
vt 0.958710 0.648410
vt 0.961680 0.641640
vt 0.961430 0.648590
vt 0.959900 0.904450
vt 0.962160 0.904320
vt 0.959960 0.911430
vt 0.962280 0.911290
vt 0.800560 0.952670
vt 0.797460 0.952290
vt 0.800290 0.951120
vt 0.798300 0.953630
vt 0.795290 0.954460
vt 0.957060 0.911490
vt 0.796600 0.955340
vt 0.954000 0.911460
vt 0.954070 0.904490
vt 0.957050 0.904510
vt 0.795670 0.957560
vt 0.794120 0.957290
vt 0.795650 0.960010
vt 0.794120 0.960350
vt 0.951260 0.911360
vt 0.951390 0.904390
vt 0.796580 0.962280
vt 0.795290 0.963180
vt 0.962340 0.895260
vt 0.959920 0.895390
vt 0.959940 0.888420
vt 0.962300 0.888300
vt 0.957050 0.888450
vt 0.956960 0.895420
vt 0.953930 0.895350
vt 0.954080 0.888380
vt 0.951260 0.895180
vt 0.951480 0.888210
vt 0.692260 0.957350
vt 0.694750 0.957350
vt 0.692270 0.964340
vt 0.694820 0.964330
vt 0.803070 0.964970
vt 0.806180 0.965350
vt 0.803350 0.966520
vt 0.805330 0.964010
vt 0.808340 0.963180
vt 0.689270 0.964320
vt 0.807030 0.962310
vt 0.686260 0.964280
vt 0.689330 0.957340
vt 0.807960 0.960090
vt 0.809520 0.960350
vt 0.807980 0.957630
vt 0.809520 0.957290
vt 0.683720 0.964230
vt 0.807050 0.955360
vt 0.798330 0.964050
vt 0.797460 0.965350
vt 0.800620 0.964990
vt 0.800290 0.966520
vt 0.805310 0.953600
vt 0.803010 0.952660
vt 0.803350 0.951120
vt 0.806180 0.952290
vt 0.808340 0.954460
vt 0.952140 0.900050
vt 0.961450 0.883940
vt 0.954400 0.900130
vt 0.953730 0.895420
vn 0.0055 0.6246 -0.7809
vn -0.6654 0.6091 -0.4316
vn -0.6654 0.6091 0.4316
vn 0.0055 0.6246 0.7809
vn 0.6760 0.5973 -0.4316
vn -0.0055 -0.6246 -0.7809
vn 0.6654 -0.6091 -0.4316
vn 0.6760 0.5973 0.4316
vn -0.0055 -0.6246 0.7809
vn 0.6654 -0.6091 0.4316
vn -0.6760 -0.5973 0.4316
vn -0.6760 -0.5973 -0.4316
vn -0.8082 -0.5768 -0.1184
vn -0.8597 -0.3728 -0.3493
vn -0.8634 -0.4975 0.0843
vn -0.8174 -0.3156 -0.4819
vn -0.4419 -0.8315 -0.3366
vn -0.4429 -0.8966 -0.0072
vn -0.7989 0.1237 -0.5887
vn -0.8574 0.0940 -0.5060
vn -0.4359 -0.3371 -0.8345
vn -0.4264 -0.6369 -0.6423
vn 0.3676 0.2022 -0.9078
vn 0.0403 -0.9944 -0.0976
vn 0.2847 -0.5989 -0.7485
vn 0.4067 -0.8828 -0.2352
vn 0.8697 -0.2286 -0.4374
vn 0.4060 -0.5110 0.7577
vn 0.7532 0.5494 -0.3618
vn 0.4663 0.4403 0.7673
vn 0.9947 -0.0039 0.1031
vn 0.4960 -0.6508 0.5748
vn -0.1897 -0.9791 0.0734
vn -0.3316 -0.9364 0.1147
vn -0.3924 -0.9178 -0.0607
vn -0.5226 -0.2702 0.8086
vn -0.7203 -0.3559 0.5954
vn -0.7980 -0.3356 0.5006
vn -0.1562 -0.7802 0.6058
vn -0.2302 -0.1814 0.9561
vn -0.8074 -0.1315 0.5752
vn -0.8085 -0.4955 0.3176
vn -0.8603 -0.2749 0.4293
vn -0.8046 0.3125 0.5049
vn -0.8537 0.2029 0.4795
vn -0.4386 -0.3330 0.8347
vn -0.4357 -0.0058 0.9001
vn -0.4310 0.6469 0.6291
vn -0.4289 0.8319 0.3519
vn -0.4153 0.3514 0.8391
vn -0.8541 0.5059 0.1212
vn -0.4226 0.9063 -0.0038
vn -0.8558 0.4394 -0.2728
vn -0.8059 0.4933 -0.3274
vn -0.7993 0.5856 0.1349
vn -0.0037 0.9992 0.0392
vn 0.1756 0.8527 -0.4920
vn -0.2755 0.9548 0.1113
vn 0.2891 0.9451 -0.1523
vn -0.1730 0.9839 0.0452
vn 0.5211 0.6328 0.5727
vn -0.2330 0.9720 -0.0294
vn -0.8493 0.5175 0.1045
vn -0.9735 0.2285 -0.0054
vn 0.7459 0.6636 -0.0574
vn 0.9894 -0.1452 0.0061
vn 0.5112 -0.8541 -0.0956
vn -0.7440 0.4936 0.4503
vn -0.2260 0.3630 0.9040
vn -0.1489 0.8048 0.5746
vn -0.4222 0.8397 -0.3417
vn -0.4251 0.6386 -0.6414
vn -0.4265 0.3540 -0.8323
vn -0.1379 0.9152 -0.3786
vn -0.1398 0.7008 -0.6995
vn -0.1426 0.3799 -0.9140
vn -0.4294 -0.0012 -0.9031
vn 0.7198 0.4876 -0.4941
vn 0.7145 0.2698 -0.6455
vn -0.1459 0.0013 -0.9893
vn 0.6965 -0.0061 -0.7175
vn 0.7097 -0.2823 -0.6455
vn -0.1492 -0.3773 -0.9140
vn 0.7112 -0.5001 -0.4941
vn -0.1520 -0.6982 -0.6995
vn -0.1539 -0.9127 -0.3786
vn 0.7093 -0.6522 -0.2677
vn 0.9844 0.1213 0.1271
vn 0.9829 0.1681 0.0754
vn 0.7206 -0.6934 0.0000
vn 0.9723 0.2336 0.0000
vn 0.7093 -0.6522 0.2677
vn -0.1539 -0.9127 0.3786
vn -0.1546 -0.9880 -0.0000
vn 0.9829 0.1681 -0.0754
vn 0.9844 0.1213 -0.1271
vn 0.7112 -0.5001 0.4941
vn -0.1520 -0.6982 0.6995
vn 0.9833 0.0446 -0.1762
vn 0.7097 -0.2823 0.6455
vn -0.1492 -0.3773 0.9140
vn -0.1459 0.0013 0.9893
vn 0.6966 -0.0061 0.7175
vn 0.7145 0.2698 0.6455
vn -0.1426 0.3798 0.9140
vn 0.7198 0.4876 0.4941
vn -0.1398 0.7008 0.6995
vn -0.1379 0.9152 0.3786
vn 0.7206 0.6396 0.2677
vn 0.9822 -0.1386 -0.1271
vn 0.9798 -0.1853 -0.0754
vn 0.7326 0.6806 -0.0000
vn 0.9681 -0.2507 -0.0000
vn 0.7206 0.6396 -0.2677
vn -0.1372 0.9905 -0.0000
vn 0.9798 -0.1853 0.0754
vn 0.9822 -0.1386 0.1271
vn 0.9824 -0.0618 0.1762
vn 0.9894 -0.0087 -0.1452
vn 0.9824 -0.0618 -0.1762
vn 0.9894 -0.0087 0.1452
vn 0.9833 0.0446 0.1762
vn -0.4352 -0.6377 0.6356
vn -0.4378 -0.8286 0.3490
usemtl mat5.001
s 1
f 1/1/1 2/2/2 3/3/3
f 1/1/1 3/3/3 4/4/4
f 5/5/5 1/1/1 4/4/4
f 2/6/2 1/7/1 6/8/6
f 1/7/1 7/9/7 6/8/6
f 1/7/1 5/10/5 7/9/7
f 5/5/5 4/4/4 8/11/8
f 7/12/7 5/13/5 8/14/8
f 9/15/9 8/16/8 4/17/4
f 9/15/9 10/18/10 8/16/8
f 7/12/7 8/14/8 10/19/10
f 11/20/11 9/15/9 4/17/4
f 12/21/12 9/22/9 11/23/11
f 12/21/12 6/24/6 9/22/9
f 6/24/6 10/25/10 9/22/9
f 2/26/2 12/27/12 11/28/11
f 2/6/2 6/8/6 12/29/12
f 11/20/11 4/17/4 3/30/3
f 2/26/2 11/28/11 3/31/3
f 6/24/6 7/32/7 10/25/10
f 13/33/13 14/34/14 15/35/15
f 16/36/16 14/34/14 13/33/13
f 14/37/14 17/38/17 18/39/18
f 14/37/14 18/39/18 15/40/15
f 19/41/19 20/42/20 14/34/14
f 20/43/20 21/44/21 14/45/14
f 14/45/14 21/44/21 22/46/22
f 14/37/14 22/47/22 17/38/17
f 19/41/19 14/34/14 16/36/16
f 16/48/16 23/49/23 19/50/19
f 16/51/16 13/52/13 24/53/24
f 16/51/16 24/53/24 25/54/25
f 16/48/16 25/55/25 23/49/23
f 25/54/25 24/53/24 26/56/26
f 25/55/25 26/57/26 27/58/27
f 23/49/23 25/55/25 27/58/27
f 27/59/27 26/60/26 28/61/28
f 23/49/23 27/58/27 29/62/29
f 27/59/27 30/63/30 29/64/29
f 27/59/27 31/65/31 30/63/30
f 27/59/27 28/61/28 31/65/31
f 28/66/28 32/67/32 31/68/31
f 26/56/26 33/69/33 28/70/28
f 33/71/33 32/67/32 28/66/28
f 26/56/26 34/72/34 33/69/33
f 32/73/32 33/74/33 35/75/35
f 33/76/33 36/77/36 37/78/37
f 34/72/34 36/79/36 33/69/33
f 37/80/37 35/75/35 33/74/33
f 34/72/34 38/81/38 36/79/36
f 39/82/39 38/81/38 34/72/34
f 24/53/24 34/72/34 26/56/26
f 24/53/24 39/82/39 34/72/34
f 39/83/39 40/84/40 38/85/38
f 41/86/41 40/84/40 39/83/39
f 42/87/42 39/82/39 24/53/24
f 41/86/41 39/83/39 42/88/42
f 41/89/41 42/90/42 43/91/43
f 44/92/44 40/84/40 41/86/41
f 41/89/41 45/93/45 44/94/44
f 41/89/41 43/91/43 45/93/45
f 46/95/46 45/96/45 43/97/43
f 46/95/46 47/98/47 45/96/45
f 45/99/45 48/100/48 49/101/49
f 45/96/45 50/102/50 48/103/48
f 45/96/45 47/98/47 50/102/50
f 44/94/44 45/93/45 51/104/51
f 45/99/45 49/101/49 51/105/51
f 51/105/51 49/101/49 52/106/52
f 52/106/52 53/107/53 51/105/51
f 54/108/54 51/104/51 53/109/53
f 44/94/44 51/104/51 55/110/55
f 54/108/54 55/110/55 51/104/51
f 54/111/54 19/50/19 23/49/23
f 19/41/19 54/108/54 53/109/53
f 54/112/54 56/113/56 55/114/55
f 54/112/54 57/115/57 56/113/56
f 54/111/54 23/49/23 57/116/57
f 57/115/57 58/117/58 56/113/56
f 23/118/23 29/119/29 57/120/57
f 57/115/57 59/121/59 58/117/58
f 57/115/57 29/122/29 59/121/59
f 59/121/59 30/123/30 60/124/60
f 29/64/29 30/63/30 59/125/59
f 59/121/59 60/124/60 58/117/58
f 60/126/60 30/127/30 61/128/61
f 61/129/61 62/130/62 60/124/60
f 63/131/63 60/124/60 62/130/62
f 58/117/58 60/124/60 63/131/63
f 63/131/63 62/130/62 64/132/64
f 61/129/61 65/133/65 62/130/62
f 31/134/31 66/135/66 65/136/65
f 31/134/31 65/136/65 61/137/61
f 31/134/31 32/138/32 66/135/66
f 32/138/32 67/139/67 66/135/66
f 32/73/32 35/75/35 67/140/67
f 37/141/37 64/142/64 35/143/35
f 37/141/37 63/144/63 64/142/64
f 38/145/38 63/146/63 36/147/36
f 68/148/68 63/146/63 38/145/38
f 36/77/36 63/149/63 37/78/37
f 58/117/58 63/131/63 68/150/68
f 69/151/69 68/152/68 38/85/38
f 70/153/70 68/152/68 69/151/69
f 70/154/70 58/117/58 68/150/68
f 44/92/44 70/153/70 69/151/69
f 56/113/56 58/117/58 70/154/70
f 55/114/55 56/113/56 70/154/70
f 55/114/55 70/154/70 44/155/44
f 69/151/69 38/85/38 40/84/40
f 44/92/44 69/151/69 40/84/40
f 30/127/30 31/156/31 61/128/61
f 52/106/52 71/157/71 53/107/53
f 71/157/71 72/158/72 53/107/53
f 19/41/19 53/109/53 20/42/20
f 72/159/72 20/43/20 53/160/53
f 72/159/72 73/161/73 20/43/20
f 74/162/74 75/163/75 72/158/72
f 75/164/75 73/161/73 72/159/72
f 74/162/74 72/158/72 71/157/71
f 75/164/75 76/165/76 73/161/73
f 73/161/73 77/166/77 20/43/20
f 76/165/76 77/166/77 73/161/73
f 78/167/78 79/168/79 76/165/76
f 78/167/78 76/165/76 75/164/75
f 79/168/79 80/169/80 76/165/76
f 76/165/76 80/169/80 77/166/77
f 80/169/80 81/170/81 82/171/82
f 80/169/80 82/171/82 83/172/83
f 79/168/79 81/170/81 80/169/80
f 83/172/83 77/166/77 80/169/80
f 83/172/83 82/171/82 84/173/84
f 83/172/83 84/173/84 85/174/85
f 85/174/85 21/44/21 83/172/83
f 83/172/83 21/44/21 77/166/77
f 86/175/86 22/47/22 85/176/85
f 85/176/85 87/177/87 86/175/86
f 85/176/85 84/178/84 87/177/87
f 85/174/85 22/46/22 21/44/21
f 88/179/88 87/180/87 84/181/84
f 88/179/88 89/182/89 87/180/87
f 89/182/89 90/183/90 87/180/87
f 86/175/86 87/177/87 90/184/90
f 89/182/89 91/185/91 90/183/90
f 90/184/90 92/186/92 93/187/93
f 90/184/90 93/187/93 94/188/94
f 86/175/86 90/184/90 94/188/94
f 95/189/95 92/190/92 90/183/90
f 95/189/95 90/183/90 91/185/91
f 96/191/96 92/190/92 95/189/95
f 96/191/96 97/192/97 92/190/92
f 92/186/92 97/193/97 98/194/98
f 92/186/92 98/194/98 93/187/93
f 99/195/99 97/192/97 96/191/96
f 99/195/99 100/196/100 97/192/97
f 97/197/97 100/198/100 101/199/101
f 97/197/97 101/199/101 98/200/98
f 101/199/101 102/201/102 47/98/47
f 100/198/100 102/201/102 101/199/101
f 98/200/98 101/199/101 46/95/46
f 101/199/101 47/98/47 46/95/46
f 102/201/102 103/202/103 104/203/104
f 102/201/102 104/203/104 105/204/105
f 100/198/100 103/202/103 102/201/102
f 105/204/105 47/98/47 102/201/102
f 105/204/105 104/203/104 106/205/106
f 105/204/105 106/205/106 107/206/107
f 107/206/107 50/102/50 105/204/105
f 105/204/105 50/102/50 47/98/47
f 108/207/108 48/100/48 107/208/107
f 107/208/107 109/209/109 108/207/108
f 107/208/107 106/210/106 109/209/109
f 107/206/107 48/103/48 50/102/50
f 110/211/110 109/212/109 106/213/106
f 110/211/110 111/214/111 109/212/109
f 111/214/111 112/215/112 109/212/109
f 108/207/108 109/209/109 112/216/112
f 111/214/111 113/217/113 112/215/112
f 112/216/112 114/218/114 74/162/74
f 112/216/112 74/162/74 115/219/115
f 108/207/108 112/216/112 115/219/115
f 116/220/116 114/221/114 112/215/112
f 116/220/116 112/215/112 113/217/113
f 117/222/117 114/221/114 116/220/116
f 117/222/117 78/223/78 114/221/114
f 114/218/114 78/224/78 75/163/75
f 114/218/114 75/163/75 74/162/74
f 118/225/118 78/223/78 117/222/117
f 119/226/119 100/196/100 99/195/99
f 119/226/119 103/227/103 100/196/100
f 119/226/119 120/228/120 104/229/104
f 119/226/119 104/229/104 103/227/103
f 120/228/120 106/213/106 104/229/104
f 120/228/120 110/211/110 106/213/106
f 121/230/121 122/231/122 82/232/82
f 121/230/121 82/232/82 81/233/81
f 121/230/121 81/233/81 79/234/79
f 121/230/121 79/234/79 118/225/118
f 122/231/122 84/181/84 82/232/82
f 122/231/122 88/179/88 84/181/84
f 118/225/118 79/234/79 78/223/78
f 115/219/115 52/106/52 49/101/49
f 115/219/115 49/101/49 108/207/108
f 115/219/115 74/162/74 71/157/71
f 115/219/115 71/157/71 52/106/52
f 108/207/108 49/101/49 48/100/48
f 93/187/93 98/194/98 123/235/123
f 98/200/98 46/95/46 123/236/123
f 93/187/93 123/235/123 124/237/124
f 124/237/124 123/235/123 43/238/43
f 123/236/123 46/95/46 43/97/43
f 18/39/18 124/237/124 15/40/15
f 94/188/94 124/237/124 18/39/18
f 124/237/124 43/238/43 15/40/15
f 94/188/94 93/187/93 124/237/124
f 94/188/94 18/39/18 17/38/17
f 94/188/94 17/38/17 86/175/86
f 86/175/86 17/38/17 22/47/22
f 20/43/20 77/166/77 21/44/21
f 42/90/42 15/35/15 43/91/43
f 42/90/42 13/33/13 15/35/15
f 42/87/42 24/53/24 13/52/13
