# Blender 4.2.0
# www.blender.org
mtllib under_frame.mtl
o frame_obj6.001
v 0.111625 0.154693 0.131059
v -0.281864 0.157437 0.131059
v -0.281852 0.158843 0.142776
v 0.111631 0.155395 0.142776
v 0.111613 0.153287 0.140585
v -0.281870 0.156735 0.140585
v -0.281997 0.142246 0.140585
v -0.282016 0.140138 0.142776
v 0.111486 0.138798 0.140585
v 0.111468 0.136690 0.142776
v 0.111480 0.138096 0.131059
v -0.282010 0.140841 0.131059
v 0.108767 -0.185419 0.160652
v 0.112000 0.183485 0.160652
v 0.076796 0.183793 0.160652
v 0.073564 -0.185111 0.160652
v 0.112000 0.183485 0.142944
v 0.108767 -0.185419 0.142944
v 0.076796 0.183793 0.142944
v 0.073564 -0.185111 0.142944
v -0.255841 0.186708 0.142605
v -0.255841 0.186708 0.160652
v -0.259074 -0.182196 0.160652
v -0.259074 -0.182196 0.142605
v -0.281446 0.186932 0.142605
v -0.281446 0.186932 0.160652
v -0.284678 -0.181972 0.160652
v -0.284678 -0.181972 0.142605
v -0.153885 0.185814 0.142785
v -0.153885 0.185814 0.146500
v -0.154541 0.110928 0.146500
v -0.154541 0.110928 0.142784
v -0.179490 0.186039 0.142785
v -0.182722 -0.182865 0.142784
v -0.179490 0.186039 0.146500
v -0.155080 0.049444 0.142784
v -0.100187 0.048963 0.142784
v -0.155080 0.049444 0.146500
v -0.155922 -0.046719 0.142784
v -0.100187 0.048963 0.146500
v -0.101029 -0.047200 0.146500
v -0.101029 -0.047200 0.142784
v -0.076619 -0.183795 0.142784
v -0.099648 0.110447 0.142784
v -0.101568 -0.108684 0.142784
v -0.156461 -0.108203 0.142784
v -0.156461 -0.108203 0.146500
v -0.157117 -0.183090 0.142784
v -0.157117 -0.183090 0.146500
v -0.182722 -0.182865 0.146500
v -0.155922 -0.046719 0.146500
v -0.101568 -0.108684 0.146500
v -0.076619 -0.183795 0.146500
v -0.102224 -0.183571 0.146500
v -0.073387 0.185109 0.146500
v -0.099648 0.110447 0.146500
v -0.073387 0.185109 0.142785
v -0.098992 0.185334 0.142785
v -0.098992 0.185334 0.146500
v -0.102224 -0.183571 0.142784
v -0.284592 -0.153880 0.142775
v -0.284580 -0.152475 0.131059
v 0.108898 -0.156625 0.131059
v 0.108891 -0.157327 0.142775
v -0.284428 -0.135175 0.142775
v -0.284573 -0.151772 0.140585
v 0.109037 -0.140730 0.140585
v 0.108910 -0.155220 0.140585
v -0.284447 -0.137283 0.140585
v -0.284434 -0.135878 0.131059
v 0.109043 -0.140028 0.131059
v 0.109055 -0.138623 0.142775
v 0.096656 -0.116464 0.142777
v 0.096656 -0.116464 0.127357
v 0.102045 -0.114008 0.127357
v 0.102045 -0.114008 0.142777
v 0.089526 -0.100816 0.142777
v 0.089526 -0.100816 0.127357
v 0.094915 -0.098361 0.142777
v 0.094915 -0.098361 0.127357
v -0.270555 -0.090315 0.142777
v -0.270555 -0.090315 0.127357
v -0.275944 -0.092770 0.127357
v -0.275944 -0.092770 0.142777
v -0.263424 -0.105962 0.142777
v -0.263424 -0.105962 0.127357
v -0.268813 -0.108418 0.142777
v -0.268813 -0.108418 0.127357
v -0.274334 0.090965 0.127357
v -0.268988 0.088416 0.142777
v -0.274334 0.090965 0.142777
v -0.268988 0.088416 0.127357
v -0.266930 0.106486 0.127357
v -0.261585 0.103936 0.127357
v -0.266930 0.106486 0.142777
v -0.261585 0.103936 0.142777
v 0.104027 0.112203 0.127357
v 0.098682 0.114753 0.142777
v 0.104027 0.112203 0.142777
v 0.098682 0.114753 0.127357
v 0.096624 0.096682 0.127357
v 0.091278 0.099232 0.127357
v 0.096624 0.096682 0.142777
v 0.091278 0.099232 0.142777
vn 0.5409 0.0323 -0.8405
vn -0.5409 -0.0151 -0.8410
vn -0.5665 0.6183 0.5448
vn 0.5794 0.5909 0.5613
vn 0.8843 -0.3099 -0.3493
vn -0.8984 -0.2947 -0.3257
vn -0.8844 0.3097 -0.3493
vn -0.5795 -0.5909 0.5613
vn 0.8984 0.2948 -0.3257
vn 0.5665 -0.6183 0.5448
vn 0.5409 0.0151 -0.8410
vn -0.5409 -0.0322 -0.8405
vn 0.7071 -0.0062 0.7071
vn -0.7071 0.0062 0.7071
vn 0.7071 -0.0062 -0.7071
vn -0.7071 0.0062 -0.7071
vn 0.3041 0.2989 0.9045
vn 0.3041 0.2989 -0.9045
vn 0.2988 -0.3041 -0.9045
vn -0.3041 -0.2989 -0.9045
vn 0.2989 -0.3041 0.9045
vn -0.3041 -0.2989 0.9045
vn -0.2989 0.3041 0.9045
vn -0.2989 0.3041 -0.9045
vn -0.2988 0.3042 -0.9045
vn 0.2989 -0.3041 -0.9045
vn -0.5772 -0.6083 0.5448
vn -0.5405 0.0245 -0.8410
vn 0.5403 -0.0417 -0.8405
vn 0.5690 -0.6010 0.5613
vn -0.5690 0.6010 0.5613
vn -0.8930 0.3105 -0.3257
vn 0.8932 -0.3103 -0.3256
vn 0.8898 0.2940 -0.3491
vn -0.8898 -0.2939 -0.3491
vn -0.5406 0.0415 -0.8403
vn 0.5405 -0.0245 -0.8410
vn 0.5771 0.6083 0.5448
vn -0.3503 -0.9367 -0.0000
vn 0.9367 -0.3502 -0.0000
vn -0.9366 0.3503 -0.0000
vn 0.3503 0.9366 -0.0000
vn -0.9367 0.3503 -0.0000
vn -0.3502 -0.9367 -0.0000
vn -0.9426 -0.3338 -0.0000
vn 0.3339 -0.9426 -0.0000
vn -0.3338 0.9427 -0.0000
vn 0.9427 0.3337 -0.0000
vn 0.3338 -0.9426 -0.0000
vn -0.9427 -0.3338 -0.0000
vt 0.895840 0.809420
vt 0.895850 0.908270
vt 0.892900 0.908270
vt 0.892900 0.809420
vt 0.951170 0.838450
vt 0.954110 0.838280
vt 0.953560 0.838800
vt 0.794110 0.811200
vt 0.794120 0.910050
vt 0.791710 0.910050
vt 0.791710 0.811200
vt 0.954110 0.842620
vt 0.956500 0.842440
vt 0.957050 0.842970
vt 0.956500 0.838800
vt 0.957050 0.838280
vt 0.882660 0.908270
vt 0.882660 0.809420
vt 0.886300 0.809420
vt 0.886300 0.908270
vt 0.953560 0.842440
vt 0.954110 0.842970
vt 0.642120 0.808850
vt 0.642120 0.907700
vt 0.639720 0.907700
vt 0.951170 0.842620
vt 0.877960 0.908270
vt 0.789300 0.811200
vt 0.789310 0.910050
vt 0.786350 0.910050
vt 0.786350 0.811200
vt 0.954110 0.838450
vt 0.639710 0.808850
vt 0.877960 0.809420
vt 0.856270 0.903880
vt 0.856270 0.811200
vt 0.865110 0.811200
vt 0.865110 0.903880
vt 0.659150 0.812100
vt 0.663600 0.812100
vt 0.663600 0.904780
vt 0.659150 0.904780
vt 0.847430 0.811200
vt 0.847430 0.903880
vt 0.668040 0.812100
vt 0.668040 0.904780
vt 0.867000 0.811200
vt 0.871530 0.811200
vt 0.871530 0.903880
vt 0.867000 0.903880
vt 0.877960 0.903880
vt 0.877960 0.811200
vt 0.648180 0.904780
vt 0.648180 0.812100
vt 0.654610 0.812100
vt 0.654610 0.904780
vt 0.693330 0.884020
vt 0.694270 0.884020
vt 0.694270 0.902830
vt 0.693330 0.902830
vt 0.800550 0.830010
vt 0.794120 0.811200
vt 0.800550 0.811200
vt 0.897270 0.809420
vt 0.898210 0.902090
vt 0.897270 0.902090
vt 0.800550 0.845460
vt 0.794120 0.903880
vt 0.814340 0.845460
vt 0.865110 0.846490
vt 0.866050 0.846490
vt 0.865110 0.870640
vt 0.800550 0.869620
vt 0.624140 0.875690
vt 0.624140 0.861900
vt 0.625070 0.861900
vt 0.625070 0.875690
vt 0.866050 0.870640
vt 0.866980 0.846490
vt 0.866980 0.870640
vt 0.814340 0.869620
vt 0.820770 0.903880
vt 0.814340 0.830010
vt 0.917570 0.658980
vt 0.916640 0.658980
vt 0.916640 0.645190
vt 0.814340 0.885060
vt 0.800550 0.885060
vt 0.780700 0.885150
vt 0.781630 0.898940
vt 0.780700 0.898940
vt 0.695200 0.884020
vt 0.800550 0.903880
vt 0.695200 0.902830
vt 0.840990 0.903880
vt 0.840990 0.885060
vt 0.840990 0.869620
vt 0.840990 0.845460
vt 0.898210 0.809420
vt 0.917570 0.645190
vt 0.827200 0.869620
vt 0.827200 0.885060
vt 0.781630 0.885150
vt 0.692400 0.902830
vt 0.827200 0.903880
vt 0.820770 0.811200
vt 0.827200 0.830010
vt 0.895850 0.809420
vt 0.896780 0.809420
vt 0.896780 0.902090
vt 0.827200 0.845460
vt 0.895850 0.902090
vt 0.814340 0.811200
vt 0.894040 0.643230
vt 0.894970 0.662040
vt 0.894040 0.662040
vt 0.827200 0.811200
vt 0.894970 0.643230
vt 0.918500 0.645190
vt 0.840990 0.830010
vt 0.692400 0.884020
vt 0.814340 0.903880
vt 0.918500 0.658980
vt 0.840990 0.811200
vt 0.889940 0.809420
vt 0.892890 0.908270
vt 0.889940 0.908270
vt 0.647350 0.905470
vt 0.642650 0.806620
vt 0.647350 0.806620
vt 0.951170 0.842970
vt 0.950610 0.838800
vt 0.951170 0.838280
vt 0.948220 0.838630
vt 0.907180 0.805560
vt 0.909580 0.904410
vt 0.907180 0.904410
vt 0.950610 0.842440
vt 0.948220 0.842800
vt 0.791700 0.910050
vt 0.789310 0.811200
vt 0.901160 0.908270
vt 0.898210 0.908270
vt 0.693950 0.943760
vt 0.691550 0.943580
vt 0.694500 0.943230
vt 0.694500 0.947930
vt 0.642650 0.905470
vt 0.901160 0.809420
vt 0.693950 0.947400
vt 0.909580 0.805560
vt 0.691550 0.947750
vt 0.629310 0.902870
vt 0.629310 0.899000
vt 0.630660 0.898970
vt 0.630660 0.902840
vt 0.765760 0.968490
vt 0.761880 0.964570
vt 0.765760 0.964570
vt 0.761880 0.968490
vt 0.865360 0.903830
vt 0.866710 0.899940
vt 0.866710 0.903810
vt 0.865360 0.899960
vt 0.951640 0.562640
vt 0.947760 0.562640
vt 0.947760 0.558720
vt 0.951640 0.558720
vt 0.591760 0.876340
vt 0.591760 0.872470
vt 0.593110 0.872440
vt 0.593110 0.876310
vt 0.959390 0.562640
vt 0.955510 0.558720
vt 0.959390 0.558720
vt 0.955510 0.562640
vt 0.591760 0.872440
vt 0.593110 0.868550
vt 0.593110 0.872420
vt 0.591760 0.868570
vt 0.769630 0.968490
vt 0.769630 0.964570
vt 0.749580 0.906490
vt 0.750930 0.910390
vt 0.749580 0.910360
vt 0.750930 0.906520
vt 0.963260 0.558720
vt 0.917990 0.659000
vt 0.917990 0.662870
vt 0.963260 0.562640
vt 0.916640 0.662850
vt 0.625220 0.911440
vt 0.626570 0.915330
vt 0.625220 0.915310
vt 0.626570 0.911460
vt 0.564320 0.968420
vt 0.564320 0.964500
vt 0.568190 0.964500
vt 0.902810 0.927660
vt 0.904150 0.927690
vt 0.904150 0.931560
vt 0.568190 0.968420
vt 0.902810 0.931530
vt 0.758010 0.968490
vt 0.758010 0.964570
s 1
usemtl mat3.001
f 1/1/1 2/2/2 3/3/3
f 1/1/1 3/3/3 4/4/4
f 1/5/1 4/6/4 5/7/5
f 2/8/2 1/9/1 5/10/5
f 2/8/2 5/10/5 6/11/6
f 2/12/2 6/13/6 3/14/3
f 6/13/6 7/15/7 8/16/8
f 6/13/6 8/16/8 3/14/3
f 9/17/9 7/18/7 6/19/6
f 9/17/9 6/19/6 5/20/5
f 9/21/9 5/7/5 4/6/4
f 9/21/9 4/6/4 10/22/10
f 7/23/7 9/24/9 11/25/11
f 11/26/11 9/21/9 10/22/10
f 8/18/8 10/17/10 4/27/4
f 12/28/12 11/29/11 10/30/10
f 12/28/12 10/30/10 8/31/8
f 12/32/12 8/16/8 7/15/7
f 7/23/7 11/25/11 12/33/12
f 8/18/8 4/27/4 3/34/3
f 13/35/13 14/36/13 15/37/14
f 13/35/13 15/37/14 16/38/14
f 17/39/15 14/40/13 13/41/13
f 17/39/15 13/41/13 18/42/15
f 18/35/15 19/43/16 17/36/15
f 20/44/16 19/43/16 18/35/15
f 16/45/14 19/41/16 20/40/16
f 19/41/16 16/45/14 15/46/14
f 21/47/15 22/48/13 23/49/13
f 21/47/15 23/49/13 24/50/15
f 24/51/15 25/48/16 21/52/15
f 23/53/13 22/54/13 26/55/14
f 27/39/14 26/42/14 25/56/16
f 27/56/14 23/53/13 26/55/14
f 27/39/14 25/56/16 28/55/16
f 28/49/16 25/48/16 24/51/15
f 29/57/15 30/58/13 31/59/17
f 29/57/15 31/59/17 32/60/18
f 32/61/18 33/62/16 29/63/15
f 34/64/16 35/65/14 33/66/16
f 36/67/19 33/62/16 32/61/18
f 36/67/19 34/68/16 33/62/16
f 32/61/18 37/69/20 36/67/19
f 36/70/19 38/71/21 39/72/18
f 39/73/18 34/68/16 36/67/19
f 36/74/19 37/75/20 40/76/22
f 36/74/19 40/76/22 38/77/21
f 37/78/20 41/79/23 40/80/22
f 41/79/23 37/78/20 42/71/24
f 42/81/24 37/69/20 43/82/15
f 43/82/15 37/69/20 44/83/25
f 32/61/18 44/83/25 37/69/20
f 41/84/23 42/85/24 39/86/18
f 42/81/24 45/87/20 46/88/26
f 45/87/20 42/81/24 43/82/15
f 42/81/24 46/88/26 39/73/18
f 45/89/20 47/90/21 46/91/26
f 47/92/21 48/59/15 46/58/26
f 34/68/16 39/73/18 46/88/26
f 34/68/16 46/88/26 48/93/15
f 47/92/21 49/94/13 48/59/15
f 50/44/14 49/95/13 47/96/21
f 50/44/14 51/97/17 38/98/21
f 38/98/21 35/43/14 50/44/14
f 34/64/16 50/99/14 35/65/14
f 50/44/14 47/96/21 51/97/17
f 41/84/23 39/86/18 51/100/17
f 47/96/21 41/101/23 51/97/17
f 38/71/21 51/78/17 39/72/18
f 47/96/21 52/102/22 41/101/23
f 45/89/20 52/103/22 47/90/21
f 52/102/22 53/82/13 41/101/23
f 54/57/14 52/60/22 45/104/20
f 54/105/14 53/82/13 52/102/22
f 53/82/13 55/106/13 56/107/23
f 57/108/15 55/109/13 53/110/13
f 53/82/13 56/107/23 40/111/22
f 57/108/15 53/110/13 43/112/15
f 53/82/13 40/111/22 41/101/23
f 43/82/15 44/83/25 57/106/15
f 57/106/15 44/83/25 58/113/16
f 44/114/25 59/115/14 58/116/16
f 55/106/13 59/117/14 56/107/23
f 44/114/25 56/118/23 59/115/14
f 31/84/17 56/100/23 44/119/25
f 31/120/17 40/111/22 56/107/23
f 54/57/14 45/104/20 60/121/16
f 60/122/16 45/87/20 43/82/15
f 31/84/17 44/119/25 32/123/18
f 38/98/21 31/120/17 35/43/14
f 31/120/17 38/98/21 40/111/22
f 31/120/17 30/124/13 35/43/14
f 61/125/27 62/4/28 63/126/29
f 61/125/27 63/126/29 64/127/30
f 64/128/30 65/129/31 61/130/27
f 65/131/31 66/132/32 61/133/27
f 66/132/32 62/134/28 61/133/27
f 66/19/32 67/127/33 68/20/34
f 68/135/34 62/136/28 66/137/32
f 66/19/32 69/125/35 67/127/33
f 65/131/31 69/138/35 66/132/32
f 65/131/31 70/139/36 69/138/35
f 71/140/37 69/141/35 70/11/36
f 71/140/37 67/29/33 69/141/35
f 72/142/38 71/143/37 70/99/36
f 67/144/33 71/145/37 72/146/38
f 64/147/30 67/144/33 72/146/38
f 64/128/30 72/148/38 65/129/31
f 72/142/38 70/99/36 65/149/31
f 64/147/30 68/150/34 67/144/33
f 68/135/34 63/151/29 62/136/28
f 64/147/30 63/152/29 68/150/34
f 73/153/39 74/154/39 75/155/40
f 73/153/39 75/155/40 76/156/40
f 77/157/41 74/158/39 73/159/39
f 77/157/41 78/160/41 74/158/39
f 79/161/42 78/162/41 77/163/41
f 79/161/42 80/164/42 78/162/41
f 76/165/40 75/166/40 80/167/42
f 76/165/40 80/167/42 79/168/42
f 81/169/42 82/170/42 83/171/43
f 81/169/42 83/171/43 84/172/43
f 85/173/40 82/174/42 81/175/42
f 85/173/40 86/176/40 82/174/42
f 87/177/44 86/178/40 85/179/40
f 87/177/44 88/180/44 86/178/40
f 84/181/43 83/157/43 88/159/44
f 84/181/43 88/159/44 87/182/44
f 89/183/45 90/184/46 91/185/45
f 89/183/45 92/186/46 90/184/46
f 93/173/47 89/175/45 91/187/45
f 94/85/48 93/188/47 95/189/47
f 93/173/47 91/187/45 95/190/47
f 94/85/48 95/189/47 96/191/48
f 92/165/46 94/168/48 96/174/48
f 92/165/46 96/174/48 90/176/46
f 97/192/48 98/193/47 99/194/48
f 97/192/48 100/195/47 98/193/47
f 101/196/49 97/197/48 99/198/48
f 102/199/50 101/200/49 103/201/49
f 101/196/49 99/198/48 103/202/49
f 102/199/50 103/201/49 104/203/50
f 100/204/47 102/205/50 104/158/50
f 100/204/47 104/158/50 98/160/47
