# Blender v3.0.1 OBJ File: 'falcon_final.obj.blend'
# www.blender.org
mtllib z_duct.mtl
o z_duct_obj23.001
v -0.050821 0.005856 -0.108507
v -0.055196 -0.001081 -0.113820
v -0.058382 0.006490 -0.108715
v -0.057740 0.011389 -0.100102
v -0.050326 0.010602 -0.099720
v -0.046190 0.007842 -0.099738
v -0.047226 0.000863 -0.108554
v -0.048125 -0.005324 -0.108582
v -0.055196 -0.009635 -0.108699
v -0.063166 0.000863 -0.108554
v -0.062267 -0.005324 -0.108582
v -0.067939 -0.001167 -0.099797
v -0.066971 -0.006044 -0.099829
v -0.062744 -0.011686 -0.099919
v -0.066969 -0.006106 -0.091118
v -0.055196 -0.013915 -0.099876
v -0.062224 -0.012129 -0.091158
v -0.052576 -0.013849 -0.091169
v -0.060042 -0.007695 -0.091129
v -0.063169 -0.002411 -0.091094
v -0.067978 0.000665 -0.091074
v -0.061000 0.004731 -0.091047
v -0.061586 0.003364 -0.049279
v -0.063083 -0.003756 -0.049380
v -0.059395 -0.008198 -0.049262
v -0.058238 0.005841 -0.049258
v -0.051780 -0.008953 -0.091137
v -0.055196 -0.009451 -0.049358
v -0.044521 -0.008566 -0.091134
v -0.047309 -0.003756 -0.049380
v -0.047223 -0.002411 -0.091094
v -0.050997 -0.008198 -0.049262
v -0.047648 -0.011686 -0.099919
v -0.043421 -0.006044 -0.099829
v -0.042414 0.000665 -0.091074
v -0.047427 0.009136 -0.091019
v -0.043426 0.003709 -0.099765
v -0.048537 0.003346 -0.091056
v -0.042453 -0.001167 -0.099797
v -0.053562 0.006642 -0.091035
v -0.052154 0.005841 -0.049258
v -0.048806 0.003364 -0.049279
v -0.055196 0.006446 -0.049254
v -0.055196 0.011513 -0.091003
v -0.062965 0.009136 -0.091019
v -0.064202 0.007842 -0.099738
v -0.066966 0.003709 -0.099765
v -0.099589 -0.019567 -0.098869
v -0.103246 -0.001571 -0.038843
v -0.103246 -0.001180 -0.098749
v -0.099588 0.016817 -0.038723
v -0.099588 0.017208 -0.098628
v -0.099733 -0.001180 -0.098749
v -0.099733 -0.001571 -0.038843
v -0.096343 -0.018223 -0.098860
v -0.096343 0.015472 -0.038731
v -0.096343 0.015864 -0.098637
v -0.089173 0.032796 -0.098527
v -0.086689 0.029921 -0.038637
v -0.086689 0.030312 -0.098543
v -0.073584 0.043212 -0.098459
v -0.072240 0.039967 -0.098480
v -0.072240 0.039575 -0.038574
v -0.055196 0.046478 -0.038529
v -0.073584 0.042821 -0.038553
v -0.055196 0.042965 -0.038552
v -0.089173 0.032405 -0.038621
v -0.038152 0.039575 -0.038574
v -0.055196 0.043357 -0.098458
v -0.038152 0.039967 -0.098480
v -0.036808 0.042820 -0.038553
v -0.023703 0.029921 -0.038637
v -0.023703 0.030312 -0.098543
v -0.014049 0.015864 -0.098637
v -0.014049 0.015472 -0.038731
v -0.021219 0.032405 -0.038621
v -0.021219 0.032796 -0.098527
v -0.010804 0.017208 -0.098628
v -0.010804 0.016817 -0.038723
v -0.007146 -0.001180 -0.098749
v -0.007146 -0.001571 -0.038843
v -0.010659 -0.001571 -0.038843
v -0.010804 -0.019959 -0.038963
v -0.010659 -0.001180 -0.098749
v -0.014049 -0.018223 -0.098860
v -0.014049 -0.018614 -0.038954
v -0.023703 -0.032671 -0.098954
v -0.023703 -0.033063 -0.039049
v -0.021219 -0.035547 -0.039065
v -0.021219 -0.035155 -0.098971
v -0.036808 -0.045571 -0.099039
v -0.038152 -0.042326 -0.099017
v -0.055196 -0.049229 -0.099063
v -0.055196 -0.045716 -0.099040
v -0.038152 -0.042717 -0.039112
v -0.055196 -0.049620 -0.039157
v -0.036808 -0.045963 -0.039133
v -0.055196 -0.046107 -0.039134
v -0.072240 -0.042717 -0.039112
v -0.086689 -0.033063 -0.039049
v -0.073584 -0.045963 -0.039133
v -0.072240 -0.042326 -0.099017
v -0.089173 -0.035547 -0.039065
v -0.096343 -0.018614 -0.038954
v -0.086689 -0.032671 -0.098954
v -0.073584 -0.045571 -0.099039
v -0.089173 -0.035155 -0.098971
v -0.099589 -0.019959 -0.038963
v -0.010804 -0.019567 -0.098869
v -0.036808 0.043212 -0.098459
v -0.055196 0.046869 -0.098435
vt 0.914200 0.838550
vt 0.914520 0.840760
vt 0.912530 0.839750
vt 0.963200 0.613500
vt 0.963220 0.615130
vt 0.960880 0.614230
vt 0.960810 0.612660
vt 0.950410 0.933450
vt 0.949490 0.931000
vt 0.950740 0.931030
vt 0.952070 0.933520
vt 0.915820 0.838950
vt 0.916720 0.840390
vt 0.916020 0.842520
vt 0.912530 0.841750
vt 0.913800 0.842870
vt 0.670450 0.969040
vt 0.668040 0.968790
vt 0.668070 0.967240
vt 0.670470 0.967780
vt 0.670460 0.965880
vt 0.668040 0.965230
vt 0.672830 0.967800
vt 0.670460 0.964280
vt 0.672840 0.965730
vt 0.968950 0.712710
vt 0.966680 0.711470
vt 0.969050 0.710830
vt 0.959860 0.598570
vt 0.958550 0.598880
vt 0.958680 0.596220
vt 0.961060 0.599720
vt 0.959860 0.600500
vt 0.961590 0.601170
vt 0.963080 0.599570
vt 0.858310 0.960930
vt 0.859310 0.949560
vt 0.859850 0.960870
vt 0.965190 0.730500
vt 0.965630 0.741810
vt 0.964210 0.741820
vt 0.966850 0.730470
vt 0.967180 0.741820
vt 0.966030 0.747250
vt 0.965000 0.746780
vt 0.964940 0.743590
vt 0.607010 0.920190
vt 0.607010 0.931510
vt 0.605370 0.920300
vt 0.866100 0.831380
vt 0.866980 0.842700
vt 0.866100 0.842840
vt 0.960020 0.596310
vt 0.960560 0.594410
vt 0.629440 0.933060
vt 0.631460 0.944280
vt 0.629440 0.944370
vt 0.630940 0.932970
vt 0.962030 0.595500
vt 0.632070 0.933000
vt 0.969020 0.708220
vt 0.966680 0.709440
vt 0.966630 0.707630
vt 0.968870 0.706320
vt 0.963130 0.594410
vt 0.950340 0.928650
vt 0.953000 0.928760
vt 0.952080 0.931080
vt 0.963470 0.596190
vt 0.965070 0.596250
vt 0.953330 0.931150
vt 0.966550 0.706660
vt 0.953330 0.933620
vt 0.964210 0.708610
vt 0.964040 0.597720
vt 0.733270 0.953900
vt 0.734660 0.965170
vt 0.733170 0.965230
vt 0.734330 0.953860
vt 0.736160 0.965170
vt 0.736160 0.953870
vt 0.861220 0.949520
vt 0.861830 0.949520
vt 0.861830 0.960840
vt 0.860440 0.949530
vt 0.965230 0.598450
vt 0.958420 0.613610
vt 0.948630 0.928650
vt 0.964130 0.600360
vt 0.958390 0.615720
vt 0.960750 0.616230
vt 0.960750 0.617460
vt 0.958390 0.618110
vt 0.963160 0.617050
vt 0.670420 0.970020
vt 0.672800 0.969500
vt 0.964210 0.710850
vt 0.892060 0.943540
vt 0.908270 0.948300
vt 0.892020 0.948300
vt 0.908190 0.952010
vt 0.891950 0.952010
vt 0.825750 0.926700
vt 0.825220 0.927490
vt 0.821620 0.923890
vt 0.829910 0.929430
vt 0.948840 0.805560
vt 0.953200 0.821870
vt 0.948840 0.821790
vt 0.830100 0.928500
vt 0.838100 0.946120
vt 0.838330 0.949520
vt 0.822130 0.949520
vt 0.822410 0.923370
vt 0.821890 0.946120
vt 0.819680 0.919200
vt 0.837970 0.941730
vt 0.821770 0.941730
vt 0.820610 0.919010
vt 0.819680 0.914110
vt 0.820610 0.914300
vt 0.837980 0.937020
vt 0.821780 0.937020
vt 0.932400 0.918400
vt 0.929600 0.914280
vt 0.933200 0.917870
vt 0.929070 0.915070
vt 0.838120 0.932700
vt 0.934210 0.922750
vt 0.935140 0.922570
vt 0.730320 0.952510
vt 0.714080 0.952510
vt 0.714080 0.947430
vt 0.730320 0.947430
vt 0.714110 0.942710
vt 0.934210 0.927470
vt 0.935140 0.927650
vt 0.730360 0.957180
vt 0.714110 0.957180
vt 0.924720 0.913260
vt 0.821910 0.932700
vt 0.822160 0.929430
vt 0.838360 0.929430
vt 0.924900 0.912330
vt 0.920010 0.913260
vt 0.641760 0.964070
vt 0.625520 0.964070
vt 0.625480 0.959780
vt 0.641720 0.959780
vt 0.625480 0.955070
vt 0.641720 0.955070
vt 0.915650 0.915070
vt 0.919820 0.912330
vt 0.948220 0.859470
vt 0.952920 0.859380
vt 0.952920 0.875600
vt 0.958000 0.875600
vt 0.958000 0.859380
vt 0.915120 0.914280
vt 0.962700 0.875690
vt 0.962700 0.859470
vt 0.912320 0.918400
vt 0.911530 0.917870
vt 0.909580 0.922570
vt 0.625510 0.950660
vt 0.641760 0.950660
vt 0.625580 0.947220
vt 0.910520 0.922750
vt 0.641820 0.947220
vt 0.947930 0.680080
vt 0.964210 0.684400
vt 0.947970 0.684400
vt 0.910520 0.927470
vt 0.909580 0.927650
vt 0.964180 0.680080
vt 0.842500 0.909950
vt 0.845240 0.914110
vt 0.844300 0.914300
vt 0.845240 0.919200
vt 0.844300 0.919010
vt 0.964210 0.689120
vt 0.843290 0.923890
vt 0.842500 0.923370
vt 0.947970 0.689120
vt 0.964180 0.693500
vt 0.912320 0.931820
vt 0.915120 0.935940
vt 0.911530 0.932350
vt 0.947940 0.693500
vt 0.915650 0.935150
vt 0.947880 0.696880
vt 0.920010 0.936960
vt 0.924720 0.936960
vt 0.919820 0.937890
vt 0.964120 0.696880
vt 0.957910 0.805640
vt 0.962260 0.805560
vt 0.962260 0.821790
vt 0.924900 0.937890
vt 0.929070 0.935150
vt 0.957910 0.821870
vt 0.953200 0.805640
vt 0.834810 0.928500
vt 0.839700 0.927490
vt 0.835000 0.929430
vt 0.839170 0.926700
vt 0.892020 0.933830
vt 0.908300 0.938460
vt 0.892060 0.938460
vt 0.908300 0.943540
vt 0.932400 0.931820
vt 0.933200 0.932350
vt 0.929600 0.935940
vt 0.920850 0.659530
vt 0.936800 0.663040
vt 0.920600 0.663060
vt 0.908260 0.933830
vt 0.937060 0.659510
vt 0.937200 0.654850
vt 0.920990 0.654870
vt 0.937200 0.649770
vt 0.920990 0.649790
vt 0.937060 0.645040
vt 0.920850 0.645060
vt 0.843290 0.909420
vt 0.936800 0.641370
vt 0.920600 0.641390
vt 0.839170 0.906610
vt 0.839700 0.905820
vt 0.835000 0.903880
vt 0.834810 0.904810
vt 0.829910 0.903880
vt 0.948220 0.875690
vt 0.830100 0.904810
vt 0.825220 0.905820
vt 0.730420 0.939060
vt 0.730350 0.942710
vt 0.714170 0.939060
vt 0.825750 0.906610
vt 0.821620 0.909420
vt 0.822410 0.909950
vt 0.964210 0.744970
vt 0.965980 0.743020
vt 0.967170 0.743120
vt 0.968390 0.744090
vt 0.968390 0.746070
vt 0.967640 0.746910
vt 0.966870 0.747240
vn 0.3770 0.6483 -0.6615
vn -0.0002 0.0035 -1.0000
vn -0.2786 0.6842 -0.6740
vn -0.1793 0.9517 -0.2493
vn 0.3288 0.9146 -0.2355
vn 0.7006 0.6744 -0.2330
vn 0.7232 0.1826 -0.6661
vn 0.6268 -0.3909 -0.6741
vn -0.0000 -0.7326 -0.6806
vn -0.7182 0.1967 -0.6675
vn -0.6268 -0.3909 -0.6741
vn -0.9717 -0.0181 -0.2355
vn -0.8952 -0.3827 -0.2283
vn -0.5595 -0.7927 -0.2419
vn -0.6948 -0.3000 0.6536
vn -0.0099 -0.9742 -0.2257
vn -0.4006 -0.6573 0.6384
vn 0.1466 -0.7522 0.6425
vn -0.3227 -0.4860 0.8122
vn -0.5857 -0.0747 0.8071
vn -0.7498 0.1262 0.6495
vn -0.3830 0.3931 0.8359
vn -0.6506 0.4116 0.6382
vn -0.7714 -0.1907 0.6071
vn -0.4155 -0.6434 0.6430
vn -0.2975 0.6879 0.6620
vn 0.2094 -0.4972 0.8420
vn -0.0112 -0.7903 0.6127
vn 0.6310 -0.4313 0.6449
vn 0.7721 -0.1927 0.6056
vn 0.5773 -0.1141 0.8085
vn 0.4228 -0.6315 0.6499
vn 0.5550 -0.7953 -0.2440
vn 0.8991 -0.3706 -0.2328
vn 0.7528 0.1098 0.6490
vn 0.4682 0.5963 0.6521
vn 0.8919 0.3928 -0.2242
vn 0.4927 0.3343 0.8034
vn 0.9717 -0.0181 -0.2355
vn 0.0973 0.5765 0.8113
vn 0.3054 0.6823 0.6642
vn 0.6505 0.4157 0.6357
vn -0.0060 0.7441 0.6681
vn 0.0029 0.7486 0.6630
vn -0.4696 0.5997 0.6480
vn -0.6790 0.6960 -0.2335
vn -0.8919 0.3928 -0.2242
vn -0.6894 -0.2812 -0.6676
vn -0.7462 -0.0043 0.6657
vn -0.7462 0.0043 -0.6657
vn -0.6894 0.2812 0.6676
vn -0.6894 0.2899 -0.6638
vn 0.6571 0.0049 -0.7538
vn 0.6571 -0.0049 0.7538
vn 0.6071 0.2564 -0.7521
vn 0.6071 -0.2564 0.7521
vn 0.6071 -0.2465 -0.7554
vn -0.5276 0.5320 -0.6623
vn 0.4647 -0.4696 0.7507
vn 0.4647 -0.4597 -0.7568
vn -0.2856 0.6937 -0.6612
vn 0.2515 -0.6022 -0.7577
vn 0.2515 -0.6120 0.7498
vn -0.0000 0.7418 0.6706
vn -0.2856 0.6850 0.6702
vn -0.0000 -0.6621 0.7495
vn -0.5276 0.5233 0.6692
vn -0.2515 -0.6120 0.7498
vn 0.0000 -0.6522 -0.7580
vn -0.2515 -0.6022 -0.7577
vn 0.2856 0.6850 0.6702
vn -0.4647 -0.4696 0.7507
vn -0.4647 -0.4597 -0.7568
vn -0.6071 -0.2465 -0.7554
vn -0.6071 -0.2564 0.7521
vn 0.5276 0.5233 0.6692
vn 0.5276 0.5320 -0.6623
vn 0.6894 0.2899 -0.6638
vn 0.6894 0.2812 0.6676
vn 0.7462 0.0044 -0.6657
vn 0.7462 -0.0043 0.6657
vn -0.6571 -0.0049 0.7538
vn 0.6894 -0.2899 0.6638
vn -0.6571 0.0049 -0.7538
vn -0.6071 0.2564 -0.7521
vn -0.6071 0.2465 0.7554
vn -0.4647 0.4696 -0.7507
vn -0.4647 0.4597 0.7568
vn 0.5276 -0.5320 0.6623
vn 0.5276 -0.5233 -0.6692
vn 0.2856 -0.6850 -0.6702
vn -0.2515 0.6120 -0.7498
vn 0.0000 -0.7418 -0.6706
vn 0.0000 0.6621 -0.7495
vn -0.2515 0.6022 0.7577
vn -0.0000 -0.7505 0.6608
vn 0.2856 -0.6937 0.6612
vn 0.0000 0.6522 0.7580
vn 0.2515 0.6022 0.7577
vn 0.4647 0.4597 0.7568
vn -0.2856 -0.6937 0.6612
vn 0.2515 0.6120 -0.7498
vn -0.5276 -0.5320 0.6623
vn 0.6071 0.2465 0.7554
vn 0.4647 0.4696 -0.7507
vn -0.2856 -0.6850 -0.6702
vn -0.5276 -0.5233 -0.6692
vn -0.6894 -0.2899 0.6638
vn 0.6894 -0.2812 -0.6676
vn 0.2856 0.6937 -0.6612
vn 0.0000 0.7505 -0.6608
usemtl mat20.001
s 1
f 1/1/1 2/2/2 3/3/3
f 1/4/1 3/5/3 4/6/4
f 1/4/1 4/6/4 5/7/5
f 1/8/1 5/9/5 6/10/6
f 7/11/7 1/8/1 6/10/6
f 7/12/7 2/2/2 1/1/1
f 8/13/8 2/2/2 7/12/7
f 9/14/9 2/2/2 8/13/8
f 3/3/3 2/2/2 10/15/10
f 10/15/10 2/2/2 11/16/11
f 11/16/11 2/2/2 9/14/9
f 12/17/12 10/18/10 11/19/11
f 12/17/12 11/19/11 13/20/13
f 13/20/13 11/19/11 14/21/14
f 14/21/14 11/19/11 9/22/9
f 15/23/15 13/20/13 14/21/14
f 9/22/9 16/24/16 14/21/14
f 17/25/17 14/21/14 16/24/16
f 15/23/15 14/21/14 17/25/17
f 17/26/17 16/27/16 18/28/18
f 19/29/19 17/30/17 18/31/18
f 20/32/20 17/30/17 19/29/19
f 20/32/20 15/33/15 17/30/17
f 20/32/20 21/34/21 15/33/15
f 21/34/21 20/32/20 22/35/22
f 20/36/20 23/37/23 22/38/22
f 20/39/20 24/40/24 23/41/23
f 19/42/19 24/40/24 20/39/20
f 19/42/19 25/43/25 24/40/24
f 26/44/26 23/45/23 25/46/25
f 27/47/27 25/48/25 19/49/19
f 27/50/27 28/51/28 25/52/25
f 19/29/19 18/31/18 27/53/27
f 18/31/18 29/54/29 27/53/27
f 30/55/30 27/56/27 31/57/31
f 30/55/30 32/58/32 27/56/27
f 29/54/29 31/59/31 27/53/27
f 32/58/32 28/60/28 27/56/27
f 29/61/29 33/62/33 34/63/34
f 35/64/35 29/61/29 34/63/34
f 29/61/29 18/28/18 33/62/33
f 29/54/29 35/65/35 31/59/31
f 36/66/36 35/67/35 37/68/37
f 38/69/38 35/65/35 36/70/36
f 35/67/35 39/71/39 37/68/37
f 31/59/31 35/65/35 38/69/38
f 35/64/35 34/63/34 39/72/39
f 7/11/7 37/68/37 39/71/39
f 8/73/8 7/11/7 39/71/39
f 8/74/8 39/72/39 34/63/34
f 38/69/38 36/70/36 40/75/40
f 41/76/41 38/77/38 40/78/40
f 41/76/41 42/79/42 38/77/38
f 42/79/42 31/80/31 38/77/38
f 42/79/42 30/81/30 31/80/31
f 43/82/43 41/83/41 40/84/40
f 22/38/22 43/82/43 40/84/40
f 22/38/22 26/85/26 43/82/43
f 22/38/22 23/37/23 26/85/26
f 44/86/44 22/35/22 40/75/40
f 40/75/40 36/70/36 44/86/44
f 44/87/44 5/7/5 4/6/4
f 44/88/44 36/66/36 5/9/5
f 44/86/44 45/89/45 22/35/22
f 44/87/44 4/6/4 45/90/45
f 45/90/45 46/91/46 47/92/47
f 45/90/45 4/6/4 46/91/46
f 45/90/45 47/92/47 21/93/21
f 45/89/45 21/34/21 22/35/22
f 46/91/46 10/94/10 47/92/47
f 47/95/47 10/18/10 12/17/12
f 21/96/21 47/95/47 12/17/12
f 46/91/46 3/5/3 10/94/10
f 4/6/4 3/5/3 46/91/46
f 36/66/36 37/68/37 6/10/6
f 7/11/7 6/10/6 37/68/37
f 36/66/36 6/10/6 5/9/5
f 8/74/8 34/63/34 33/62/33
f 9/97/9 8/74/8 33/62/33
f 16/27/16 9/97/9 33/62/33
f 18/28/18 16/27/16 33/62/33
f 21/96/21 13/20/13 15/23/15
f 21/96/21 12/17/12 13/20/13
f 48/98/48 49/99/49 50/100/50
f 50/100/50 49/99/49 51/101/51
f 50/100/50 51/101/51 52/102/52
f 53/103/53 50/104/50 52/105/52
f 53/103/53 48/106/48 50/104/50
f 54/107/54 55/108/55 53/109/53
f 53/103/53 55/110/55 48/106/48
f 56/111/56 54/112/54 53/113/53
f 53/103/53 52/105/52 57/114/57
f 56/111/56 53/113/53 57/115/57
f 57/114/57 52/105/52 58/116/58
f 59/117/59 57/115/57 60/118/60
f 59/117/59 56/111/56 57/115/57
f 57/114/57 58/116/58 60/119/60
f 60/119/60 61/120/61 62/121/62
f 60/119/60 58/116/58 61/120/61
f 63/122/63 60/118/60 62/123/62
f 63/122/63 59/117/59 60/118/60
f 63/124/63 64/125/64 65/126/65
f 63/124/63 66/127/66 64/125/64
f 66/128/66 63/122/63 62/123/62
f 59/129/59 63/124/63 65/126/65
f 59/129/59 65/126/65 67/130/67
f 58/131/58 67/132/67 65/133/65
f 58/131/58 65/133/65 61/134/61
f 61/134/61 65/133/65 64/135/64
f 56/136/56 67/130/67 51/137/51
f 52/138/52 51/139/51 67/132/67
f 52/138/52 67/132/67 58/131/58
f 56/136/56 59/129/59 67/130/67
f 68/140/68 64/125/64 66/127/66
f 66/128/66 62/123/62 69/141/69
f 66/128/66 69/141/69 70/142/70
f 66/128/66 70/142/70 68/143/68
f 68/140/68 71/144/71 64/125/64
f 72/145/72 71/144/71 68/140/68
f 68/146/68 70/147/70 73/148/73
f 68/146/68 73/148/73 72/149/72
f 72/149/72 73/148/73 74/150/74
f 72/149/72 74/150/74 75/151/75
f 75/152/75 76/153/76 72/145/72
f 72/145/72 76/153/76 71/144/71
f 71/154/71 76/155/76 77/156/77
f 76/155/76 78/157/78 77/156/77
f 76/155/76 79/158/79 78/157/78
f 75/152/75 79/159/79 76/153/76
f 79/158/79 80/160/80 78/157/78
f 79/158/79 81/161/81 80/160/80
f 82/162/82 81/163/81 79/159/79
f 82/162/82 79/159/79 75/152/75
f 82/162/82 83/164/83 81/163/81
f 75/151/75 84/165/84 82/166/82
f 82/166/82 84/165/84 85/167/85
f 82/162/82 86/168/86 83/164/83
f 82/166/82 85/167/85 86/169/86
f 86/170/86 87/171/87 88/172/88
f 86/168/86 88/173/88 89/174/89
f 86/168/86 89/174/89 83/164/83
f 86/170/86 85/175/85 87/171/87
f 85/176/85 90/177/90 87/178/87
f 87/178/87 90/177/90 91/179/91
f 87/178/87 91/179/91 92/180/92
f 88/172/88 87/171/87 92/181/92
f 92/180/92 93/182/93 94/183/94
f 92/180/92 91/179/91 93/182/93
f 88/172/88 92/181/92 95/184/95
f 95/184/95 92/181/92 94/185/94
f 95/186/95 96/187/96 97/188/97
f 88/173/88 95/186/95 97/188/97
f 95/184/95 94/185/94 98/189/98
f 95/186/95 98/190/98 96/187/96
f 99/191/99 98/189/98 94/185/94
f 99/192/99 96/187/96 98/190/98
f 100/193/100 101/194/101 99/192/99
f 99/192/99 101/194/101 96/187/96
f 99/191/99 94/185/94 102/195/102
f 100/196/100 99/197/99 102/198/102
f 100/193/100 103/199/103 101/194/101
f 104/200/104 103/199/103 100/193/100
f 100/196/100 102/198/102 105/201/105
f 104/202/104 100/196/100 105/201/105
f 105/203/105 106/204/106 107/205/107
f 105/203/105 102/206/102 106/204/106
f 55/110/55 105/203/105 107/205/107
f 104/202/104 105/201/105 55/108/55
f 106/207/106 103/208/103 107/209/107
f 107/209/107 103/208/103 108/210/108
f 55/110/55 107/205/107 48/106/48
f 107/209/107 108/210/108 48/98/48
f 48/98/48 108/210/108 49/99/49
f 54/211/54 49/212/49 108/213/108
f 54/211/54 108/213/108 104/200/104
f 104/200/104 108/213/108 103/199/103
f 93/214/93 101/215/101 106/216/106
f 102/206/102 93/182/93 106/204/106
f 106/207/106 101/217/101 103/208/103
f 54/107/54 104/202/104 55/108/55
f 102/206/102 94/183/94 93/182/93
f 93/214/93 96/218/96 101/215/101
f 97/219/97 96/218/96 93/214/93
f 97/219/97 93/214/93 91/220/91
f 88/173/88 97/188/97 89/174/89
f 89/221/89 97/219/97 91/220/91
f 89/221/89 91/220/91 90/222/90
f 83/223/83 90/222/90 109/224/109
f 85/176/85 109/225/109 90/177/90
f 83/223/83 89/221/89 90/222/90
f 81/226/81 109/224/109 80/227/80
f 84/228/84 80/229/80 109/225/109
f 81/226/81 83/223/83 109/224/109
f 84/228/84 109/225/109 85/176/85
f 84/228/84 78/230/78 80/229/80
f 84/228/84 74/231/74 78/230/78
f 75/151/75 74/150/74 84/165/84
f 74/231/74 77/232/77 78/230/78
f 71/154/71 77/156/77 110/233/110
f 73/234/73 110/235/110 77/232/77
f 74/231/74 73/234/73 77/232/77
f 64/135/64 110/236/110 111/237/111
f 64/135/64 71/238/71 110/236/110
f 70/239/70 111/240/111 110/235/110
f 73/234/73 70/239/70 110/235/110
f 61/134/61 64/135/64 111/237/111
f 62/121/62 61/120/61 111/240/111
f 62/121/62 111/240/111 69/241/69
f 70/239/70 69/241/69 111/240/111
f 54/211/54 56/136/56 51/137/51
f 54/211/54 51/137/51 49/212/49
f 24/242/24 25/46/25 23/45/23
f 25/46/25 28/243/28 32/244/32
f 26/44/26 25/46/25 32/244/32
f 32/244/32 30/245/30 42/246/42
f 26/44/26 32/244/32 41/247/41
f 42/246/42 41/247/41 32/244/32
f 41/247/41 43/248/43 26/44/26
