# OBJ generated by ONSHAPE BY PTC INC, 1.197 Units = meters
mtllib atril.mtl
g Part 1
v 0.50771 1.96915 1 
v 0.50771 1.96915 0 
v -0.268619 1.96915 0 
v -0.268619 1.96915 1 
v 1.09742 -1.98714 1 
v 1.09742 -1.98714 0 
v -1.13452 -1.98714 1 
v -1.13452 -1.98714 0 
v -0.29 1.87147 1 
v -0.298552 1.83239 1 
v -0.534219 1.92492 1 
v -0.542771 1.88584 1 
v -0.29 1.87147 0.8 
v -0.534219 1.92492 0.8 
v -0.298552 1.83239 0.8 
v -0.542771 1.88584 0.8 
v -0.298552 1.83239 0.2 
v -0.29 1.87147 0.2 
v -0.29 1.87147 0 
v -0.298552 1.83239 0 
v -0.542771 1.88584 0 
v -0.534219 1.92492 0 
v -0.542771 1.88584 0.2 
v -0.534219 1.92492 0.2 
vn 0 1 0 
vn 0.989073 0.147428 0 
vn 0 -1 0 
vn 0 0 1 
vn 0.213807 0.976876 0 
vn 0 0 -1 
vn -0.213807 -0.976876 0 
vn -0.976876 0.213807 0 
vn 0 0 -1 
vn -0.213807 -0.976876 0 
vn 0 0 1 
vn 0.213807 0.976876 0 
vn -0.976876 0.213807 0 
usemtl 0.615686_0.811765_0.929412_0.000000_0.000000
o mesh0
f 1//1 2//1 3//1 
f 3//1 4//1 1//1 
o mesh1
f 5//2 6//2 2//2 
f 2//2 1//2 5//2 
o mesh2
f 7//3 8//3 6//3 
f 6//3 5//3 7//3 
o mesh3
f 5//4 9//4 10//4 
f 9//4 11//4 12//4 
f 12//4 10//4 9//4 
f 1//4 4//4 9//4 
f 9//4 5//4 1//4 
f 10//4 7//4 5//4 
o mesh4
f 11//5 9//5 13//5 
f 13//5 14//5 11//5 
o mesh5
f 15//6 16//6 14//6 
f 14//6 13//6 15//6 
o mesh6
f 15//7 10//7 12//7 
f 12//7 16//7 15//7 
o mesh7
f 14//8 16//8 12//8 
f 12//8 11//8 14//8 
o mesh8
f 8//8 15//8 17//8 
f 18//8 17//8 15//8 
f 15//8 13//8 18//8 
f 3//8 19//8 18//8 
f 4//8 3//8 13//8 
f 18//8 13//8 3//8 
f 17//8 20//8 8//8 
f 7//8 10//8 15//8 
f 15//8 8//8 7//8 
f 13//8 9//8 4//8 
o mesh9
f 19//9 20//9 21//9 
f 6//9 8//9 20//9 
f 2//9 6//9 19//9 
f 20//9 19//9 6//9 
f 21//9 22//9 19//9 
f 19//9 3//9 2//9 
o mesh10
f 17//10 23//10 21//10 
f 21//10 20//10 17//10 
o mesh11
f 17//11 18//11 24//11 
f 24//11 23//11 17//11 
o mesh12
f 22//12 24//12 18//12 
f 18//12 19//12 22//12 
o mesh13
f 24//13 22//13 21//13 
f 21//13 23//13 24//13 
