# OBJ generated by ONSHAPE BY PTC INC, 1.197 Units = meters
mtllib atrrr.mtl
g Part 1
v 0.50771 1.96915 1 
v 0.50771 1.78253 1 
v 0.50771 1.78253 0.131299 
v -0.309464 1.78253 0.131299 
v -0.268619 1.96915 1 
v -1.13452 -1.98714 1 
v 1.09742 -1.98714 1 
v 0.535527 1.78253 1 
v 0.535527 1.78253 0 
v -0.309464 1.78253 0 
v -1.13452 -1.98714 0 
v 1.09742 -1.98714 0 
v -0.32749 1.70018 0 
v -0.314358 1.76018 0 
v -0.314358 1.76018 -0.28 
v -0.32749 1.70018 -0.3 
v -0.314358 1.76018 -0.3 
v -0.0893578 1.70018 -0.3 
v -0.0893578 1.70018 0 
v -0.0893578 1.86018 -0.3 
v -0.314358 1.86018 -0.3 
v -0.0893578 1.76018 -0.28 
v -0.0893578 1.86018 -0.28 
v -0.0893578 1.76018 0 
v -0.314358 1.86018 -0.28 
v 0.313859 1.76018 0 
v 0.313859 1.70018 0 
v 0.538859 1.76018 0 
v 0.547803 1.70018 0 
v 0.538859 1.76018 -0.28 
v 0.313859 1.76018 -0.28 
v 0.547803 1.70018 -0.3 
v 0.313859 1.70018 -0.3 
v 0.538859 1.76018 -0.3 
v 0.313859 1.86018 -0.3 
v 0.313859 1.86018 -0.28 
v 0.538859 1.86018 -0.3 
v 0.538859 1.86018 -0.28 
vn 1 0 0 
vn 0 0.977694 -0.210035 
vn 0 0 1 
vn 0 1 0 
vn 0 -1 0 
vn -0.976876 0.213807 0 
vn 0 0 -1 
vn 1 0 0 
vn 0 1 0 
vn 0 0 1 
vn -1 0 0 
vn 0 1 0 
vn 0 0 -1 
vn 0 -1 0 
vn 0.989073 0.147428 0 
vn -1 0 0 
vn 0 0 -1 
vn 0 0 1 
vn 1 0 0 
vn 0 1 0 
usemtl 0.615686_0.811765_0.929412_0.000000_0.000000
o mesh0
f 1//1 2//1 3//1 
o mesh1
f 3//2 4//2 5//2 
f 5//2 1//2 3//2 
o mesh2
f 5//3 6//3 2//3 
f 7//3 8//3 2//3 
f 2//3 6//3 7//3 
f 2//3 1//3 5//3 
o mesh3
f 8//4 9//4 3//4 
f 10//4 4//4 3//4 
f 3//4 9//4 10//4 
f 3//4 2//4 8//4 
o mesh4
f 6//5 11//5 12//5 
f 12//5 7//5 6//5 
o mesh5
f 13//6 14//6 15//6 
f 6//6 14//6 13//6 
f 15//6 16//6 13//6 
f 4//6 10//6 14//6 
f 15//6 17//6 16//6 
f 6//6 5//6 4//6 
f 14//6 6//6 4//6 
f 13//6 11//6 6//6 
o mesh6
f 18//5 19//5 13//5 
f 13//5 16//5 18//5 
o mesh7
f 20//7 18//7 17//7 
f 18//7 16//7 17//7 
f 17//7 21//7 20//7 
o mesh8
f 19//8 18//8 22//8 
f 20//8 23//8 22//8 
f 22//8 18//8 20//8 
f 22//8 24//8 19//8 
o mesh9
f 14//9 24//9 22//9 
f 22//9 15//9 14//9 
o mesh10
f 25//10 15//10 22//10 
f 22//10 23//10 25//10 
o mesh11
f 21//11 17//11 15//11 
f 15//11 25//11 21//11 
o mesh12
f 21//12 25//12 23//12 
f 23//12 20//12 21//12 
o mesh13
f 10//13 26//13 24//13 
f 19//13 24//13 26//13 
f 26//13 27//13 19//13 
f 11//13 13//13 19//13 
f 12//13 11//13 27//13 
f 19//13 27//13 11//13 
f 24//13 14//13 10//13 
f 9//13 28//13 26//13 
f 26//13 10//13 9//13 
f 27//13 29//13 12//13 
o mesh14
f 28//12 30//12 31//12 
f 31//12 26//12 28//12 
o mesh15
f 32//14 29//14 27//14 
f 27//14 33//14 32//14 
o mesh16
f 29//15 32//15 30//15 
f 8//15 29//15 28//15 
f 32//15 34//15 30//15 
f 30//15 28//15 29//15 
f 7//15 12//15 29//15 
f 29//15 8//15 7//15 
f 28//15 9//15 8//15 
o mesh17
f 35//16 33//16 31//16 
f 27//16 26//16 31//16 
f 31//16 33//16 27//16 
f 31//16 36//16 35//16 
o mesh18
f 35//17 37//17 34//17 
f 34//17 33//17 35//17 
f 34//17 32//17 33//17 
o mesh19
f 36//18 31//18 30//18 
f 30//18 38//18 36//18 
o mesh20
f 38//19 30//19 34//19 
f 34//19 37//19 38//19 
o mesh21
f 37//20 35//20 36//20 
f 36//20 38//20 37//20 
