# OBJ generated by ONSHAPE BY PTC INC, 1.197 Units = meters
mtllib frame.mtl
g Part 1
v -0.317988 -0.282661 0.365 
v -0.347988 -0.282661 0.365 
v -0.347988 -0.282661 0.42 
v -0.317988 -0.282661 0.42 
v -0.347988 -0.277661 0.365 
v -0.317988 -0.277661 0.365 
v -0.317988 -0.277661 0.36 
v -0.347988 -0.277661 0.36 
v -0.317988 -0.282661 0.36 
v -0.347988 -0.282661 0.36 
v -0.347988 -0.282661 0.025 
v -0.317988 -0.282661 0.025 
v -0.317988 -0.277661 0.42 
v -0.347988 -0.277661 0.42 
v -0.317988 -0.277661 0.425 
v -0.347988 -0.277661 0.425 
v -0.347988 -0.297691 0.425 
v -0.317988 -0.297691 0.425 
v -0.347988 -0.297691 0 
v -0.317988 -0.297691 0 
v -0.347988 0.402309 0 
v -0.347988 0.402309 0.025 
v -0.317988 0.372165 0 
v -0.317988 0.372165 0.025 
v -0.0129879 0.402309 0 
v -0.0129879 0.372165 0 
v -0.0129879 0.372165 -0.5 
v -0.0129879 0.402309 -0.5 
v 0.0425315 0.402309 -0.5 
v 0.0425315 0.372165 -0.5 
v 0.0425315 0.402309 0 
v 0.0425315 0.372165 0 
v 0.352012 0.402309 0.025 
v 0.352012 0.402309 0 
v 0.322012 0.372165 0.025 
v 0.322012 0.372165 0 
v 0.352012 -0.28263 0.025 
v 0.322012 -0.28263 0.025 
v 0.352012 -0.297691 0 
v 0.322012 -0.297691 0 
v 0.322012 -0.28263 0.359394 
v 0.352012 -0.28263 0.359394 
v 0.322012 -0.297691 0.425 
v 0.352012 -0.297691 0.425 
v 0.322012 -0.27763 0.425 
v 0.352012 -0.27763 0.425 
v 0.352012 -0.27763 0.359394 
v 0.322012 -0.27763 0.359394 
v 0.322012 -0.27763 0.365 
v 0.352012 -0.27763 0.365 
v 0.322012 -0.28263 0.365 
v 0.352012 -0.28263 0.365 
v 0.322012 -0.28263 0.42 
v 0.322012 -0.27763 0.42 
v 0.352012 -0.28263 0.42 
v 0.352012 -0.27763 0.42 
vn 0 1 0 
vn 0 0 1 
vn 0 0 -1 
vn 0 1 0 
vn 0 0 1 
vn 0 -1 0 
vn -1 0 0 
vn 1 3.31481e-16 0 
vn 0 0 -1 
vn -1 0 0 
vn 1 0 0 
vn 0 1 0 
vn 1.73472e-16 -1 0 
vn 0 0 1 
vn 0 0 -1 
vn 0 1 0 
vn 0 -1 0 
vn 0 0 1 
vn 0 0 -1 
vn 0 1 0 
vn 0 0 1 
vn -1 0 0 
vn 1 1.58603e-16 0 
vn 0 1 0 
vn 0 0 -1 
usemtl 0.615686_0.811765_0.929412_0.000000_0.000000
o mesh0
f 1//1 2//1 3//1 
f 3//1 4//1 1//1 
o mesh1
f 5//2 2//2 1//2 
f 1//2 6//2 5//2 
o mesh2
f 7//1 8//1 5//1 
f 5//1 6//1 7//1 
o mesh3
f 7//3 9//3 10//3 
f 10//3 8//3 7//3 
o mesh4
f 11//4 10//4 9//4 
f 9//4 12//4 11//4 
o mesh5
f 13//3 4//3 3//3 
f 3//3 14//3 13//3 
o mesh6
f 15//4 13//4 14//4 
f 14//4 16//4 15//4 
o mesh7
f 17//5 18//5 15//5 
f 15//5 16//5 17//5 
o mesh8
f 17//6 19//6 20//6 
f 20//6 18//6 17//6 
o mesh9
f 21//7 19//7 11//7 
f 19//7 2//7 10//7 
f 10//7 11//7 19//7 
f 8//7 10//7 2//7 
f 2//7 5//7 8//7 
f 17//7 3//7 2//7 
f 2//7 19//7 17//7 
f 16//7 14//7 3//7 
f 3//7 17//7 16//7 
f 11//7 22//7 21//7 
o mesh10
f 15//8 18//8 4//8 
f 18//8 9//8 1//8 
f 1//8 4//8 18//8 
f 6//8 1//8 9//8 
f 9//8 7//8 6//8 
f 20//8 12//8 9//8 
f 9//8 18//8 20//8 
f 23//8 24//8 12//8 
f 12//8 20//8 23//8 
f 4//8 13//8 15//8 
o mesh11
f 19//9 21//9 23//9 
f 25//9 26//9 23//9 
f 23//9 21//9 25//9 
f 23//9 20//9 19//9 
o mesh12
f 27//10 26//10 25//10 
f 25//10 28//10 27//10 
o mesh13
f 27//9 28//9 29//9 
f 29//9 30//9 27//9 
o mesh14
f 29//11 31//11 32//11 
f 32//11 30//11 29//11 
o mesh15
f 22//12 31//12 25//12 
f 28//12 25//12 31//12 
f 31//12 29//12 28//12 
f 33//12 34//12 31//12 
f 31//12 22//12 33//12 
f 25//12 21//12 22//12 
o mesh16
f 35//13 26//13 32//13 
f 30//13 32//13 26//13 
f 26//13 27//13 30//13 
f 24//13 23//13 26//13 
f 26//13 35//13 24//13 
f 32//13 36//13 35//13 
o mesh17
f 37//14 33//14 35//14 
f 33//14 22//14 24//14 
f 24//14 35//14 33//14 
f 11//14 12//14 24//14 
f 24//14 22//14 11//14 
f 35//14 38//14 37//14 
o mesh18
f 31//15 34//15 36//15 
f 39//15 40//15 36//15 
f 36//15 34//15 39//15 
f 36//15 32//15 31//15 
o mesh19
f 37//16 38//16 41//16 
f 41//16 42//16 37//16 
o mesh20
f 43//17 40//17 39//17 
f 39//17 44//17 43//17 
o mesh21
f 45//18 43//18 44//18 
f 44//18 46//18 45//18 
o mesh22
f 47//19 42//19 41//19 
f 41//19 48//19 47//19 
o mesh23
f 48//20 49//20 50//20 
f 50//20 47//20 48//20 
o mesh24
f 49//21 51//21 52//21 
f 52//21 50//21 49//21 
o mesh25
f 36//22 40//22 38//22 
f 40//22 51//22 41//22 
f 41//22 38//22 40//22 
f 48//22 41//22 51//22 
f 51//22 49//22 48//22 
f 43//22 53//22 51//22 
f 51//22 40//22 43//22 
f 45//22 54//22 53//22 
f 53//22 43//22 45//22 
f 38//22 35//22 36//22 
o mesh26
f 46//23 44//23 55//23 
f 44//23 42//23 52//23 
f 52//23 55//23 44//23 
f 50//23 52//23 42//23 
f 42//23 47//23 50//23 
f 39//23 37//23 42//23 
f 42//23 44//23 39//23 
f 34//23 33//23 37//23 
f 37//23 39//23 34//23 
f 55//23 56//23 46//23 
o mesh27
f 51//24 53//24 55//24 
f 55//24 52//24 51//24 
o mesh28
f 56//25 55//25 53//25 
f 53//25 54//25 56//25 
o mesh29
f 45//24 46//24 56//24 
f 56//24 54//24 45//24 
