# OBJ generated by ONSHAPE BY PTC INC, 1.197 Units = meters
mtllib tubo_frame2.mtl
g Part 1
v -0.317988 -0.282661 0.365 
v -0.347988 -0.282661 0.365 
v -0.347988 -0.282661 0.42 
v -0.317988 -0.282661 0.42 
v -0.347988 -0.277661 0.365 
v -0.317988 -0.277661 0.365 
v -0.317988 -0.277661 0.36 
v -0.347988 -0.277661 0.36 
v -0.317988 -0.282661 0.36 
v -0.347988 -0.282661 0.36 
v -0.347988 -0.282661 0.025 
v -0.317988 -0.282661 0.025 
v -0.317988 -0.277661 0.42 
v -0.347988 -0.277661 0.42 
v -0.317988 -0.277661 0.425 
v -0.347988 -0.277661 0.425 
v -0.347988 -0.297691 0.425 
v -0.317988 -0.297691 0.425 
v -0.347988 -0.297691 0 
v -0.317988 -0.297691 0 
v -0.347988 0.402309 0 
v -0.347988 0.402309 0.025 
v -0.317988 0.372165 0 
v -0.317988 0.372165 0.025 
v -0.0129879 0.402309 0 
v -0.0129879 0.372165 0 
v -0.0129879 0.372165 -1 
v -0.0129879 0.402309 -1 
v 0.352012 -0.28263 0.025 
v 0.352012 0.402309 0.025 
v 0.322012 0.372165 0.025 
v 0.322012 -0.28263 0.025 
v 0.322012 -0.28263 0.359394 
v 0.352012 -0.28263 0.359394 
v 0.352012 -0.27763 0.359394 
v 0.322012 -0.27763 0.359394 
v 0.322012 -0.27763 0.365 
v 0.352012 -0.27763 0.365 
v 0.322012 -0.28263 0.365 
v 0.352012 -0.28263 0.365 
v 0.322012 -0.28263 0.42 
v 0.352012 -0.28263 0.42 
v 0.352012 -0.27763 0.42 
v 0.322012 -0.27763 0.42 
v 0.322012 -0.27763 0.425 
v 0.352012 -0.27763 0.425 
v 0.322012 -0.297691 0.425 
v 0.352012 -0.297691 0.425 
v 0.322012 0.372165 0 
v 0.322012 -0.297691 0 
v 0.352012 -0.297691 0 
v 0.352012 0.402309 0 
v 0.0425315 0.402309 0 
v 0.0425315 0.402309 -1 
v 0.0425315 0.372165 0 
v 0.0425315 0.372165 -1 
v -0.298565 0.364635 -1 
v 0.301435 0.364635 -1 
v 0.301435 0.410776 -1 
v -0.298565 0.410776 -1 
v -0.298565 0.364635 -1.3 
v -0.298565 0.410776 -1.3 
v 0.301435 0.410776 -1.3 
v 0.301435 0.364635 -1.3 
vn 0 1 0 
vn 0 0 1 
vn 0 0 -1 
vn 0 1 0 
vn 0 0 1 
vn 0 -1 0 
vn -1 0 0 
vn 1 3.31481e-16 0 
vn 0 0 -1 
vn -1 0 0 
vn 0 0 1 
vn 0 1 0 
vn 0 0 -1 
vn 0 0 1 
vn 0 1 0 
vn 0 0 -1 
vn 0 0 1 
vn -1 0 0 
vn 1 1.58603e-16 0 
vn 0 -1 0 
vn 0 1 0 
vn 0 0 -1 
vn 1 0 0 
vn 0 0 1 
vn -1 0 0 
vn 0 1 0 
vn 1 0 0 
vn 0 -1 0 
vn 0 0 -1 
usemtl 0.615686_0.811765_0.929412_0.000000_0.000000
o mesh0
f 1//1 2//1 3//1 
f 3//1 4//1 1//1 
o mesh1
f 5//2 2//2 1//2 
f 1//2 6//2 5//2 
o mesh2
f 7//1 8//1 5//1 
f 5//1 6//1 7//1 
o mesh3
f 7//3 9//3 10//3 
f 10//3 8//3 7//3 
o mesh4
f 11//4 10//4 9//4 
f 9//4 12//4 11//4 
o mesh5
f 13//3 4//3 3//3 
f 3//3 14//3 13//3 
o mesh6
f 15//4 13//4 14//4 
f 14//4 16//4 15//4 
o mesh7
f 17//5 18//5 15//5 
f 15//5 16//5 17//5 
o mesh8
f 17//6 19//6 20//6 
f 20//6 18//6 17//6 
o mesh9
f 21//7 19//7 11//7 
f 19//7 2//7 10//7 
f 10//7 11//7 19//7 
f 8//7 10//7 2//7 
f 2//7 5//7 8//7 
f 17//7 3//7 2//7 
f 2//7 19//7 17//7 
f 16//7 14//7 3//7 
f 3//7 17//7 16//7 
f 11//7 22//7 21//7 
o mesh10
f 15//8 18//8 4//8 
f 18//8 9//8 1//8 
f 1//8 4//8 18//8 
f 6//8 1//8 9//8 
f 9//8 7//8 6//8 
f 20//8 12//8 9//8 
f 9//8 18//8 20//8 
f 23//8 24//8 12//8 
f 12//8 20//8 23//8 
f 4//8 13//8 15//8 
o mesh11
f 19//9 21//9 23//9 
f 25//9 26//9 23//9 
f 23//9 21//9 25//9 
f 23//9 20//9 19//9 
o mesh12
f 27//10 26//10 25//10 
f 25//10 28//10 27//10 
o mesh13
f 29//11 30//11 31//11 
f 30//11 22//11 24//11 
f 24//11 31//11 30//11 
f 11//11 12//11 24//11 
f 24//11 22//11 11//11 
f 31//11 32//11 29//11 
o mesh14
f 29//12 32//12 33//12 
f 33//12 34//12 29//12 
o mesh15
f 35//13 34//13 33//13 
f 33//13 36//13 35//13 
o mesh16
f 36//12 37//12 38//12 
f 38//12 35//12 36//12 
o mesh17
f 37//14 39//14 40//14 
f 40//14 38//14 37//14 
o mesh18
f 39//15 41//15 42//15 
f 42//15 40//15 39//15 
o mesh19
f 43//16 42//16 41//16 
f 41//16 44//16 43//16 
o mesh20
f 45//15 46//15 43//15 
f 43//15 44//15 45//15 
o mesh21
f 45//17 47//17 48//17 
f 48//17 46//17 45//17 
o mesh22
f 49//18 50//18 32//18 
f 50//18 39//18 33//18 
f 33//18 32//18 50//18 
f 36//18 33//18 39//18 
f 39//18 37//18 36//18 
f 47//18 41//18 39//18 
f 39//18 50//18 47//18 
f 45//18 44//18 41//18 
f 41//18 47//18 45//18 
f 32//18 31//18 49//18 
o mesh23
f 46//19 48//19 42//19 
f 48//19 34//19 40//19 
f 40//19 42//19 48//19 
f 38//19 40//19 34//19 
f 34//19 35//19 38//19 
f 51//19 29//19 34//19 
f 34//19 48//19 51//19 
f 52//19 30//19 29//19 
f 29//19 51//19 52//19 
f 42//19 43//19 46//19 
o mesh24
f 47//20 50//20 51//20 
f 51//20 48//20 47//20 
o mesh25
f 22//21 53//21 25//21 
f 28//21 25//21 53//21 
f 53//21 54//21 28//21 
f 30//21 52//21 53//21 
f 53//21 22//21 30//21 
f 25//21 21//21 22//21 
o mesh26
f 31//20 26//20 55//20 
f 56//20 55//20 26//20 
f 26//20 27//20 56//20 
f 24//20 23//20 26//20 
f 26//20 31//20 24//20 
f 55//20 49//20 31//20 
o mesh27
f 53//22 52//22 49//22 
f 51//22 50//22 49//22 
f 49//22 52//22 51//22 
f 49//22 55//22 53//22 
o mesh28
f 54//23 53//23 55//23 
f 55//23 56//23 54//23 
o mesh29
f 57//24 27//24 28//24 
f 58//24 56//24 27//24 
f 27//24 57//24 58//24 
f 58//24 59//24 54//24 
f 59//24 60//24 28//24 
f 54//24 56//24 58//24 
f 28//24 60//24 57//24 
f 28//24 54//24 59//24 
o mesh30
f 61//25 57//25 60//25 
f 60//25 62//25 61//25 
o mesh31
f 62//26 60//26 59//26 
f 59//26 63//26 62//26 
o mesh32
f 63//27 59//27 58//27 
f 58//27 64//27 63//27 
o mesh33
f 64//28 58//28 57//28 
f 57//28 61//28 64//28 
o mesh34
f 64//29 61//29 62//29 
f 62//29 63//29 64//29 
