# Blender v2.93.5 OBJ File: 'CIRS tank.blend'
# www.blender.org
v -8.000000 7.999999 -0.150000
v -8.000000 4.015289 -0.150000
v -12.000000 4.015289 -0.150000
v -8.000000 4.015289 -0.150000
v -8.000000 3.993954 1.050000
v -8.000000 -3.998145 1.050000
v -1.866607 7.999999 -0.150000
v -1.866607 4.015289 -0.150000
v -6.008260 4.015289 -0.150000
v 1.855507 7.999999 -0.150000
v 1.855507 4.015289 -0.150000
v 5.997302 7.999999 -0.150000
v 5.997302 4.015289 -0.150000
v 8.000000 7.999999 -0.150000
v 8.000000 4.015289 -0.150000
v 8.000000 -4.037512 -0.150000
v 8.000000 -8.000000 -0.150000
v 5.997302 -8.000000 -0.150000
v -6.008260 7.999999 -0.150000
v -6.008260 4.015289 -0.150000
v -6.549786 3.993954 1.050000
v -8.000000 4.015289 -0.150000
v 1.796919 3.993954 5.050000
v 1.796919 -3.998145 5.050000
v -1.808018 -3.998145 5.050000
v 8.000000 3.993954 1.050000
v 8.000000 -3.998145 1.050000
v 6.538827 -3.998145 1.050000
v 5.607776 3.993954 1.426190
v 5.607776 -3.998145 1.426191
v 1.897651 -3.998145 5.009300
v 12.000000 7.999999 -0.150000
v 12.000000 4.015289 -0.150000
v 8.000000 4.015289 -0.150000
v 6.538827 3.993954 1.050000
v 5.997302 4.015289 -0.150000
v -6.549786 3.993954 1.050000
v -6.549786 -3.998145 1.050000
v -8.000000 -3.998145 1.050000
v -1.908749 3.993954 5.009299
v -1.908749 -3.998145 5.009299
v -5.618741 -3.998145 1.426197
v 5.607776 -3.998145 1.426191
v 5.997302 -4.037512 -0.150000
v 1.855507 -4.037512 -0.150000
v -1.808018 -3.998145 5.050000
v 1.855507 -3.998589 4.991413
v -1.866607 -3.998589 4.991413
v -1.866607 4.015289 -0.150000
v -5.618741 3.993954 1.426197
v -6.549786 -3.998145 1.050000
v -6.008260 -4.037512 -0.150000
v -8.000000 -4.037512 -0.150000
v -5.618741 -3.998145 1.426197
v -1.866607 -4.037512 -0.150000
v 6.538827 -3.998145 1.050000
v 8.000000 -4.037512 -0.150000
v -6.008260 -4.037512 -0.150000
v -6.008260 -8.000000 -0.150000
v -8.000000 -8.000000 -0.150000
v -1.866607 -4.037512 -0.150000
v -1.866607 -8.000000 -0.150000
v 1.855507 -4.037512 -0.150000
v 1.855507 -8.000000 -0.150000
v 5.997302 -4.037512 -0.150000
v 8.000000 4.015289 -0.150000
v 8.000000 -4.037512 -0.150000
v 8.000000 -3.998145 1.050000
v 12.000000 -4.037512 -0.150000
v 12.000000 -8.000000 -0.150000
v -8.000000 -4.037512 -0.150000
v -12.000000 -4.037512 -0.150000
v -12.000000 -8.000000 -0.150000
v -5.809025 3.993954 1.282233
v -6.008260 4.003581 0.508560
v -6.052782 3.993954 1.160186
v -6.312902 3.993954 1.078636
v 6.301943 3.993954 1.078636
v 5.997302 4.003581 0.508560
v 6.041821 3.993954 1.160184
v 5.798062 3.993954 1.282229
v 5.607776 3.993954 1.426190
v -6.312902 -3.998145 1.078636
v -6.008260 -4.015901 0.508766
v -6.052782 -3.998145 1.160185
v -5.809025 -3.998145 1.282233
v 5.798062 -3.998145 1.282229
v 5.997302 -4.015901 0.508766
v 6.041821 -3.998145 1.160184
v 6.301943 -3.998145 1.078636
v -5.809025 -3.998145 1.282233
v -5.809025 3.993954 1.282233
v -6.052782 -3.998145 1.160185
v -6.052782 3.993954 1.160186
v -6.312902 -3.998145 1.078636
v -6.312902 3.993954 1.078636
v 6.301943 -3.998145 1.078636
v 6.301943 3.993954 1.078636
v 6.041821 -3.998145 1.160184
v 6.041821 3.993954 1.160184
v 5.798062 -3.998145 1.282229
v 5.798062 3.993954 1.282229
v 1.855507 4.015289 -0.150000
v -1.808018 3.993954 5.050000
v -1.842959 3.993954 5.044547
v -1.866607 3.994195 4.991412
v -1.879829 3.993954 5.029650
v -1.908749 3.993954 5.009299
v 1.897651 3.993954 5.009300
v 1.868729 3.993954 5.029650
v 1.855507 3.994195 4.991412
v 1.831859 3.993954 5.044547
v 1.796919 3.993954 5.050000
v -1.908749 -3.998145 5.009299
v -1.879829 -3.998145 5.029650
v -1.842959 -3.998145 5.044547
v 1.796919 -3.998145 5.050000
v 1.831859 -3.998145 5.044547
v 1.868730 -3.998145 5.029649
v 1.897651 -3.998145 5.009300
v -1.842959 -3.998145 5.044547
v -1.842959 3.993954 5.044547
v -1.879829 -3.998145 5.029650
v -1.879829 3.993954 5.029650
v 1.868730 -3.998145 5.029649
v 1.868729 3.993954 5.029650
v 1.831859 -3.998145 5.044547
v -12.000000 7.999999 -0.150000
v -8.000000 -4.037512 -0.150000
v -8.000000 3.993954 1.050000
v -1.808018 3.993954 5.050000
v 6.538827 3.993954 1.050000
v 1.897651 3.993954 5.009300
v 8.000000 3.993954 1.050000
v -8.000000 3.993954 1.050000
v -5.618741 3.993954 1.426197
v -8.000000 -3.998145 1.050000
v 8.000000 -3.998145 1.050000
v 8.000000 3.993954 1.050000
v 1.831859 3.993954 5.044547
vn 0.0000 0.0000 -1.0000
vn 1.0000 0.0000 0.0000
vn 0.0013 -0.9999 -0.0160
vn 0.0005 -0.9999 -0.0172
vn 0.0000 -0.9998 -0.0178
vn -0.0773 0.0000 -0.9970
vn 0.0773 0.0000 -0.9970
vn -0.0601 0.0000 -0.9982
vn -0.6502 -0.0000 -0.7598
vn -0.6370 -0.0000 -0.7709
vn -0.0005 -0.9999 -0.0172
vn -0.0013 -0.9999 -0.0160
vn 0.0601 0.0000 -0.9982
vn 0.6370 0.0000 -0.7709
vn 0.6502 0.0000 -0.7598
vn -0.0076 0.9998 -0.0197
vn -0.0024 0.9996 -0.0295
vn -0.0027 0.9999 -0.0098
vn 0.0003 1.0000 -0.0079
vn -0.0037 1.0000 -0.0082
vn 0.0037 1.0000 -0.0082
vn 0.0015 -1.0000 -0.0053
vn 0.0041 -0.9999 -0.0107
vn 0.0010 0.9995 -0.0318
vn 0.0024 0.9996 -0.0295
vn 0.0000 0.9995 -0.0328
vn 0.0076 0.9998 -0.0197
vn 0.0027 0.9999 -0.0098
vn -0.0010 0.9995 -0.0318
vn -1.0000 0.0000 0.0000
vn 0.0105 -0.9998 -0.0152
vn 0.0085 -0.9998 -0.0172
vn 0.0061 -0.9999 -0.0144
vn 0.0030 -0.9999 -0.0153
vn -0.0030 -0.9999 -0.0153
vn -0.0085 -0.9998 -0.0172
vn -0.0061 -0.9999 -0.0144
vn -0.0105 -0.9998 -0.0152
vn -0.0041 -0.9999 -0.0107
vn 0.0055 0.9996 -0.0282
vn 0.0157 0.9994 -0.0318
vn 0.0112 0.9996 -0.0265
vn 0.0194 0.9994 -0.0279
vn -0.0194 0.9994 -0.0279
vn -0.0157 0.9994 -0.0318
vn -0.0112 0.9996 -0.0265
vn -0.0055 0.9996 -0.0282
vn 0.5277 0.0000 -0.8494
vn 0.3746 0.0000 -0.9272
vn 0.2105 0.0000 -0.9776
vn -0.2105 0.0000 -0.9776
vn -0.3746 0.0000 -0.9272
vn -0.5277 -0.0000 -0.8494
vn -0.0015 -1.0000 -0.0053
vn 0.0002 -1.0000 -0.0043
vn 0.0011 -1.0000 -0.0050
vn 0.0020 -1.0000 -0.0044
vn 0.0028 -1.0000 -0.0053
vn 0.0038 -1.0000 -0.0044
vn -0.0038 -1.0000 -0.0044
vn -0.0028 -1.0000 -0.0053
vn -0.0020 -1.0000 -0.0044
vn -0.0011 -1.0000 -0.0051
vn -0.0002 -1.0000 -0.0043
vn 0.0071 0.9999 -0.0082
vn 0.0052 0.9999 -0.0098
vn 0.0021 1.0000 -0.0093
vn -0.0003 1.0000 -0.0079
vn -0.0021 1.0000 -0.0093
vn -0.0052 0.9999 -0.0098
vn -0.0071 0.9999 -0.0082
vn 0.2662 0.0000 -0.9639
vn 0.2661 0.0000 -0.9639
vn 0.4782 0.0000 -0.8782
vn 0.4782 0.0000 -0.8783
vn -0.4782 0.0000 -0.8783
vn -0.2662 0.0000 -0.9639
s 1
f 1//1 2//1 3//1
f 4//2 5//2 6//2
f 7//1 8//1 9//1
f 10//1 11//1 8//1
f 12//1 13//1 11//1
f 14//1 15//1 13//1
f 16//1 17//1 18//1
f 19//1 9//1 2//1
f 20//3 21//4 22//5
f 23//6 24//6 25//7
f 26//1 27//1 28//8
f 29//9 30//9 31//10
f 32//1 33//1 15//1
f 34//5 35//11 36//12
f 37//13 38//13 39//1
f 40//14 41//14 42//15
f 43//16 44//17 45//18
f 46//19 47//20 48//21
f 49//22 50//23 20//3
f 51//24 52//25 53//26
f 54//27 55//28 52//25
f 56//29 57//26 44//17
f 58//1 59//1 60//1
f 61//1 62//1 59//1
f 63//1 64//1 62//1
f 65//1 18//1 64//1
f 66//30 67//30 68//30
f 69//1 70//1 17//1
f 2//1 71//1 72//1
f 33//1 69//1 16//1
f 71//1 60//1 73//1
f 50//23 74//31 75//32
f 74//31 76//33 75//32
f 76//33 77//34 75//32
f 77//34 21//4 75//32
f 35//11 78//35 79//36
f 78//35 80//37 79//36
f 80//37 81//38 79//36
f 81//38 82//39 79//36
f 51//24 83//40 84//41
f 83//40 85//42 84//41
f 85//42 86//43 84//41
f 86//43 54//27 84//41
f 43//16 87//44 88//45
f 87//44 89//46 88//45
f 89//46 90//47 88//45
f 90//47 56//29 88//45
f 42//15 91//48 92//48
f 91//48 93//49 94//49
f 93//49 95//50 96//50
f 95//50 38//13 37//13
f 28//8 97//51 98//51
f 97//51 99//52 100//52
f 99//52 101//53 102//53
f 101//53 30//9 29//9
f 36//12 82//39 103//54
f 104//55 105//56 106//57
f 105//56 107//58 106//57
f 107//58 108//59 106//57
f 109//60 110//61 111//62
f 110//61 112//63 111//62
f 112//63 113//64 111//62
f 114//65 115//66 48//21
f 115//66 116//67 48//21
f 116//67 46//19 48//21
f 117//68 118//69 47//20
f 118//69 119//70 47//20
f 119//70 120//71 47//20
f 25//7 121//72 122//73
f 121//72 123//74 124//75
f 123//74 41//14 40//14
f 31//10 125//76 126//76
f 126//76 125//76 127//77
f 127//77 24//6 23//6
f 111//62 113//64 106//57
f 128//1 1//1 3//1
f 129//2 4//2 6//2
f 19//1 7//1 9//1
f 7//1 10//1 8//1
f 10//1 12//1 11//1
f 12//1 14//1 13//1
f 65//1 16//1 18//1
f 1//1 19//1 2//1
f 130//5 22//5 21//4
f 20//3 75//32 21//4
f 131//7 23//6 25//7
f 132//8 26//1 28//8
f 133//10 29//9 31//10
f 14//1 32//1 15//1
f 79//36 36//12 35//11
f 34//5 134//5 35//11
f 135//1 37//13 39//1
f 136//15 40//14 42//15
f 45//18 47//20 120//71
f 120//71 43//16 45//18
f 88//45 44//17 43//16
f 55//28 48//21 47//20
f 46//19 117//68 47//20
f 47//20 45//18 55//28
f 75//32 20//3 50//23
f 49//22 106//57 108//59
f 108//59 50//23 49//22
f 53//26 137//26 51//24
f 51//24 84//41 52//25
f 52//25 84//41 54//27
f 54//27 114//65 55//28
f 48//21 55//28 114//65
f 44//17 88//45 56//29
f 56//29 138//26 57//26
f 71//1 58//1 60//1
f 58//1 61//1 59//1
f 61//1 63//1 62//1
f 63//1 65//1 64//1
f 139//30 66//30 68//30
f 16//1 69//1 17//1
f 3//1 2//1 72//1
f 15//1 33//1 16//1
f 72//1 71//1 73//1
f 136//15 42//15 92//48
f 92//48 91//48 94//49
f 94//49 93//49 96//50
f 96//50 95//50 37//13
f 132//8 28//8 98//51
f 98//51 97//51 100//52
f 100//52 99//52 102//53
f 102//53 101//53 29//9
f 111//62 103//54 109//60
f 36//12 79//36 82//39
f 82//39 109//60 103//54
f 131//7 25//7 122//73
f 122//73 121//72 124//75
f 124//75 123//74 40//14
f 133//10 31//10 126//76
f 140//77 126//76 127//77
f 140//77 127//77 23//6
f 106//57 49//22 103//54
f 103//54 111//62 106//57
f 113//64 104//55 106//57
