# Blender 3.3.8
# www.blender.org
o Bottom_Hull_phy
v 0.049104 0.033077 0.175879
v -0.029262 0.028805 0.175879
v 0.050716 -0.029719 0.175879
v -0.029262 -0.029719 0.175879
v -0.029262 -0.029719 0.175879
v -0.043228 0.037348 0.175879
v -0.052836 -0.060757 0.175879
v -0.097010 -0.000018 0.175879
v -0.062431 0.091758 0.175879
v -0.064666 0.103960 0.175879
v -0.067963 0.121324 0.175879
v -0.069409 0.130804 0.175879
v -0.066975 0.146745 0.175879
v -0.065354 0.152874 0.175879
v -0.065354 0.158317 0.175879
v -0.091074 0.158317 0.175879
v -0.065354 0.158317 0.175879
v -0.091074 0.158317 0.175879
v -0.111816 0.084365 0.175879
v -0.107694 0.158088 0.175879
v 0.088148 0.091758 0.175879
v -0.031211 0.030613 0.163013
v 0.122728 -0.000018 0.175879
v -0.061499 -0.103996 0.175879
v -0.064796 -0.121360 0.175879
v -0.066242 -0.130841 0.175879
v -0.063808 -0.146781 0.175879
v -0.062186 -0.152910 0.175879
v -0.062186 -0.158354 0.175879
v -0.087907 -0.158354 0.175879
v -0.062186 -0.158354 0.175879
v -0.087907 -0.158354 0.175879
v -0.108649 -0.084401 0.175879
v -0.104526 -0.158124 0.175879
v 0.090383 0.103960 0.175879
v 0.093680 0.121324 0.175879
v 0.095126 0.130804 0.175879
v 0.092692 0.146745 0.175879
v 0.091071 0.152874 0.175879
v 0.091071 0.158317 0.175879
v 0.116792 0.158317 0.175879
v 0.091071 0.158317 0.175879
v 0.116792 0.158317 0.175879
v 0.137534 0.084365 0.175879
v 0.133411 0.158088 0.175879
v -0.098959 0.001790 0.163013
v 0.083710 -0.096279 0.175879
v 0.091959 -0.130841 0.175879
v 0.089525 -0.146781 0.175879
v 0.087904 -0.152910 0.175879
v 0.087904 -0.158354 0.175879
v 0.113624 -0.158354 0.175879
v 0.087904 -0.158354 0.175879
v 0.113624 -0.158354 0.175879
v 0.134366 -0.084401 0.175879
v 0.130244 -0.158124 0.175879
v 0.048767 -0.027911 0.163013
v 0.050716 -0.029719 0.175879
v -0.054785 -0.058949 0.163013
v 0.047155 0.034885 0.163013
v -0.045177 0.039156 0.163013
v -0.031211 -0.027911 0.163013
v -0.031211 -0.027911 0.163013
v -0.064380 0.093566 0.163013
v -0.066615 0.105768 0.163013
v -0.069912 0.123132 0.163013
v -0.071358 0.132612 0.163013
v -0.068924 0.148553 0.163013
v -0.067302 0.154682 0.163013
v -0.067302 0.160125 0.163013
v -0.093023 0.160125 0.163013
v -0.067302 0.160125 0.163013
v -0.093023 0.160125 0.163013
v -0.113765 0.086173 0.163013
v -0.109643 0.159896 0.163013
v 0.086199 0.093566 0.163013
v 0.120779 0.001790 0.163013
v -0.063448 -0.102188 0.163013
v -0.066745 -0.119552 0.163013
v -0.068191 -0.129033 0.163013
v -0.065757 -0.144973 0.163013
v -0.064135 -0.151102 0.163013
v -0.064135 -0.156546 0.163013
v -0.089856 -0.156546 0.163013
v -0.064135 -0.156546 0.163013
v -0.089856 -0.156546 0.163013
v -0.110598 -0.082593 0.163013
v -0.106475 -0.156316 0.163013
v 0.088435 0.105768 0.163013
v 0.091732 0.123132 0.163013
v 0.093178 0.132612 0.163013
v 0.090743 0.148553 0.163013
v 0.089122 0.154682 0.163013
v 0.089122 0.160125 0.163013
v 0.114843 0.160125 0.163013
v 0.089122 0.160125 0.163013
v 0.114843 0.160125 0.163013
v 0.135585 0.086173 0.163013
v 0.131462 0.159896 0.163013
v 0.081761 -0.094471 0.163013
v 0.090010 -0.129033 0.163013
v 0.087576 -0.144973 0.163013
v 0.085955 -0.151102 0.163013
v 0.085955 -0.156546 0.163013
v 0.111675 -0.156546 0.163013
v 0.085955 -0.156546 0.163013
v 0.111675 -0.156546 0.163013
v 0.132417 -0.082593 0.163013
v 0.128295 -0.156316 0.163013
v 0.048767 -0.027911 0.163013
v 0.050716 -0.029719 0.175879
v 0.049104 0.033077 0.175879
v -0.029262 0.028805 0.175879
v -0.029262 -0.029719 0.175879
v -0.029262 -0.029719 0.175879
v -0.043228 0.037348 0.175879
v -0.052836 -0.060757 0.175879
v -0.097010 -0.000018 0.175879
v -0.062431 0.091758 0.175879
v -0.064666 0.103960 0.175879
v -0.067963 0.121324 0.175879
v -0.069409 0.130804 0.175879
v -0.066975 0.146745 0.175879
v -0.065354 0.152874 0.175879
v -0.065354 0.158317 0.175879
v -0.107694 0.158088 0.175879
v -0.111816 0.084365 0.175879
v -0.091074 0.158317 0.175879
v -0.091074 0.158317 0.175879
v -0.065354 0.158317 0.175879
v 0.116792 0.158317 0.175879
v 0.133411 0.158088 0.175879
v -0.064796 -0.121360 0.175879
v -0.061499 -0.103996 0.175879
v -0.066242 -0.130841 0.175879
v -0.063808 -0.146781 0.175879
v -0.062186 -0.152910 0.175879
v -0.062186 -0.158354 0.175879
v -0.104526 -0.158124 0.175879
v -0.108649 -0.084401 0.175879
v 0.091071 0.158317 0.175879
v -0.087907 -0.158354 0.175879
v -0.087907 -0.158354 0.175879
v -0.062186 -0.158354 0.175879
v 0.116792 0.158317 0.175879
v 0.091071 0.158317 0.175879
v 0.122728 -0.000018 0.175879
v 0.137534 0.084365 0.175879
v 0.091071 0.152874 0.175879
v 0.092692 0.146745 0.175879
v 0.095126 0.130804 0.175879
v 0.093680 0.121324 0.175879
v 0.090383 0.103960 0.175879
v 0.088148 0.091758 0.175879
v -0.031211 -0.027911 0.163013
v 0.048767 -0.027911 0.163013
v -0.054785 -0.058949 0.163013
v -0.031211 -0.027911 0.163013
v 0.091959 -0.130841 0.175879
v 0.083710 -0.096279 0.175879
v 0.089525 -0.146781 0.175879
v 0.087904 -0.152910 0.175879
v 0.087904 -0.158354 0.175879
v 0.130244 -0.158124 0.175879
v 0.134366 -0.084401 0.175879
v 0.113624 -0.158354 0.175879
v 0.113624 -0.158354 0.175879
v 0.087904 -0.158354 0.175879
v 0.047155 0.034885 0.163013
v -0.031211 0.030613 0.163013
v -0.045177 0.039156 0.163013
v 0.050716 -0.029719 0.175879
v -0.098959 0.001790 0.163013
v -0.064380 0.093566 0.163013
v -0.069912 0.123132 0.163013
v -0.071358 0.132612 0.163013
v -0.068924 0.148553 0.163013
v -0.067302 0.154682 0.163013
v -0.067302 0.160125 0.163013
v -0.109643 0.159896 0.163013
v -0.113765 0.086173 0.163013
v -0.093023 0.160125 0.163013
v -0.093023 0.160125 0.163013
v -0.067302 0.160125 0.163013
v 0.114843 0.160125 0.163013
v 0.131462 0.159896 0.163013
v -0.066745 -0.119552 0.163013
v -0.063448 -0.102188 0.163013
v -0.068191 -0.129033 0.163013
v -0.065757 -0.144973 0.163013
v -0.064135 -0.151102 0.163013
v -0.064135 -0.156546 0.163013
v -0.106475 -0.156316 0.163013
v -0.110598 -0.082593 0.163013
v 0.089122 0.160125 0.163013
v -0.089856 -0.156546 0.163013
v -0.089856 -0.156546 0.163013
v -0.064135 -0.156546 0.163013
v 0.114843 0.160125 0.163013
v 0.089122 0.160125 0.163013
v 0.120779 0.001790 0.163013
v 0.135585 0.086173 0.163013
v 0.089122 0.154682 0.163013
v 0.090743 0.148553 0.163013
v 0.093178 0.132612 0.163013
v 0.091732 0.123132 0.163013
v 0.088435 0.105768 0.163013
v 0.086199 0.093566 0.163013
v 0.090010 -0.129033 0.163013
v 0.087576 -0.144973 0.163013
v 0.085955 -0.151102 0.163013
v 0.085955 -0.156546 0.163013
v 0.128295 -0.156316 0.163013
v 0.132417 -0.082593 0.163013
v 0.111675 -0.156546 0.163013
v 0.111675 -0.156546 0.163013
v 0.085955 -0.156546 0.163013
v 0.048767 -0.027911 0.163013
v 0.049104 0.033077 0.175879
v -0.029262 0.028805 0.175879
v -0.029262 -0.029719 0.175879
v -0.043228 0.037348 0.175879
v -0.052836 -0.060757 0.175879
v -0.097010 -0.000018 0.175879
v -0.062431 0.091758 0.175879
v -0.064666 0.103960 0.175879
v -0.067963 0.121324 0.175879
v -0.069409 0.130804 0.175879
v -0.066975 0.146745 0.175879
v -0.065354 0.152874 0.175879
v -0.107694 0.158088 0.175879
v -0.111816 0.084365 0.175879
v -0.091074 0.158317 0.175879
v -0.065354 0.158317 0.175879
v 0.116792 0.158317 0.175879
v 0.133411 0.158088 0.175879
v -0.064796 -0.121360 0.175879
v -0.061499 -0.103996 0.175879
v -0.066242 -0.130841 0.175879
v -0.063808 -0.146781 0.175879
v -0.062186 -0.152910 0.175879
v -0.062186 -0.158354 0.175879
v -0.104526 -0.158124 0.175879
v -0.108649 -0.084401 0.175879
v 0.091071 0.158317 0.175879
v -0.087907 -0.158354 0.175879
v -0.062186 -0.158354 0.175879
v 0.116792 0.158317 0.175879
v 0.091071 0.158317 0.175879
v 0.122728 -0.000018 0.175879
v 0.137534 0.084365 0.175879
v 0.091071 0.152874 0.175879
v 0.092692 0.146745 0.175879
v 0.095126 0.130804 0.175879
v 0.093680 0.121324 0.175879
v 0.090383 0.103960 0.175879
v 0.088148 0.091758 0.175879
v 0.091959 -0.130841 0.175879
v 0.083710 -0.096279 0.175879
v 0.089525 -0.146781 0.175879
v 0.087904 -0.152910 0.175879
v 0.130244 -0.158124 0.175879
v 0.134366 -0.084401 0.175879
v 0.113624 -0.158354 0.175879
v 0.087904 -0.158354 0.175879
v 0.050716 -0.029719 0.175879
vn 0.9744 -0.1486 -0.1685
vn 0.9805 0.1497 -0.1275
vn 0.9860 -0.0551 -0.1571
vn 0.9609 0.2542 -0.1098
vn -0.0000 -0.0000 -1.0000
vn 0.9887 -0.0000 -0.1498
vn -0.9860 0.0551 0.1571
vn -0.0000 0.9903 0.1392
vn 0.0137 -0.9899 -0.1412
vn -0.0000 -0.9903 -0.1392
vn -0.0137 0.9899 0.1412
vn 0.9822 0.1355 -0.1298
vn -0.9887 -0.0000 0.1498
vn -0.8158 0.5428 0.1999
vn -0.9609 -0.2542 0.1098
vn -0.9805 -0.1497 0.1275
vn -0.9744 0.1486 0.1685
vn -0.9677 0.1837 0.1724
vn 0.9656 -0.1935 -0.1735
vn -0.9774 -0.1715 0.1240
vn -0.9690 0.1775 0.1717
vn 0.9677 -0.1837 -0.1724
vn 0.9705 -0.1703 -0.1709
vn 0.9883 0.0553 -0.1419
vn 0.0137 0.9905 0.1371
vn -0.0000 -0.0000 1.0000
vn -0.0137 -0.9905 -0.1371
vn -0.9883 -0.0553 0.1419
vn -0.9767 0.1347 0.1669
vn -0.0538 0.9877 0.1470
vn 0.5214 0.8523 0.0408
vn 0.9387 0.3313 -0.0956
vn 0.9762 0.1788 -0.1227
vn 0.9511 -0.2516 -0.1794
vn 0.9744 -0.1488 -0.1685
vn 0.9805 0.1496 -0.1275
vn 0.9751 0.1852 -0.1217
vn 0.7800 -0.5924 -0.2014
vn -0.8936 -0.4429 0.0731
vn -0.9663 -0.2306 0.1140
vn -0.9511 0.2516 0.1794
vn -0.9744 0.1488 0.1685
vn 0.9510 -0.2516 -0.1794
vt 1.000000 0.000000
vt 1.000000 1.000000
vt 1.000000 1.000000
vt 1.000000 0.000000
vt 1.000000 0.000000
vt 1.000000 0.000000
vt 1.000000 0.000000
vt 1.000000 0.000000
vt 1.000000 0.000000
vt 1.000000 0.000000
vt 1.000000 0.000000
vt 1.000000 0.000000
vt 1.000000 0.000000
vt 1.000000 0.000000
vt 1.000000 0.000000
vt 1.000000 0.000000
vt 1.000000 0.000000
vt 1.000000 0.000000
vt 1.000000 0.000000
vt 1.000000 0.000000
vt 1.000000 0.000000
vt 1.000000 0.000000
vt 1.000000 0.000000
vt 1.000000 0.000000
vt 1.000000 0.000000
vt 1.000000 0.000000
vt 1.000000 0.000000
vt 1.000000 0.000000
vt 1.000000 0.000000
vt 1.000000 0.000000
vt 1.000000 0.000000
vt 1.000000 0.000000
vt 0.000000 0.000000
vt 1.000000 0.000000
vt 1.000000 0.000000
vt 1.000000 0.000000
vt 1.000000 0.000000
vt 0.000000 0.000000
vt 0.000000 0.000000
vt 1.000000 0.000000
vt 1.000000 0.000000
vt 1.000000 1.000000
vt 1.000000 1.000000
vt 0.000000 0.000000
vt 1.000000 0.000000
vt 1.000000 0.000000
vt 1.000000 0.000000
vt 1.000000 0.000000
vt 1.000000 0.000000
vt 1.000000 0.000000
vt 1.000000 0.000000
vt 1.000000 0.000000
vt 1.000000 0.000000
vt 1.000000 0.000000
vt 1.000000 0.000000
vt 1.000000 0.000000
vt 1.000000 0.000000
vt 1.000000 0.000000
vt 1.000000 0.000000
vt 1.000000 0.000000
vt 1.000000 0.000000
vt 1.000000 0.000000
vt 1.000000 0.000000
vt 1.000000 0.000000
vt 1.000000 0.000000
vt 1.000000 0.000000
vt 1.000000 0.000000
vt 1.000000 0.000000
vt 1.000000 0.000000
vt 1.000000 0.000000
vt 0.000000 0.000000
vt 1.000000 0.000000
vt 1.000000 0.000000
vt 1.000000 0.000000
vt 1.000000 0.000000
vt 0.000000 0.000000
vt 0.000000 0.000000
vt 0.000000 0.000000
vt 1.000000 1.000000
vt 0.000000 0.000000
vt 1.000000 1.000000
vt 0.000000 0.000000
vt 0.000000 0.000000
vt 0.000000 0.000000
vt 0.000000 0.000000
vt 0.000000 0.000000
vt 0.000000 0.000000
vt 0.000000 0.000000
vt 0.000000 0.000000
vt 0.000000 0.000000
vt 1.000000 0.000000
vt 0.000000 0.000000
vt 0.000000 0.000000
vt 0.000000 0.000000
vt 0.000000 0.000000
vt 1.000000 0.000000
vt 0.000000 0.000000
vt 1.000000 0.000000
vt 0.000000 0.000000
vt 0.000000 0.000000
vt 0.000000 0.000000
vt 0.000000 0.000000
vt 0.000000 0.000000
vt 0.000000 0.000000
vt 0.000000 0.000000
vt 0.000000 0.000000
vt 1.000000 0.000000
vt 0.000000 0.000000
vt 0.000000 0.000000
vt 0.000000 0.000000
vt 0.000000 0.000000
vt 1.000000 0.000000
vt 0.000000 0.000000
vt 1.000000 0.000000
vt 0.000000 0.000000
vt 0.000000 0.000000
vt 0.000000 0.000000
vt 0.000000 0.000000
vt 0.000000 0.000000
vt 0.000000 0.000000
vt 0.000000 0.000000
vt 0.000000 0.000000
vt 0.000000 0.000000
vt 1.000000 1.000000
vt 0.000000 0.000000
vt 0.000000 0.000000
vt 1.000000 1.000000
vt 0.000000 0.000000
vt 0.000000 0.000000
vt 0.000000 0.000000
vt 0.000000 0.000000
vt 0.000000 0.000000
vt 0.000000 0.000000
vt 0.000000 0.000000
vt 0.000000 0.000000
vt 0.000000 0.000000
vt 0.000000 0.000000
vt 0.000000 0.000000
vt 0.000000 0.000000
vt 0.000000 0.000000
vt 0.000000 0.000000
vt 0.000000 0.000000
vt 0.000000 0.000000
vt 0.000000 0.000000
vt 0.000000 0.000000
vt 0.000000 0.000000
vt 1.000000 0.000000
vt 0.000000 0.000000
vt 1.000000 0.000000
vt 1.000000 0.000000
vt 0.000000 0.000000
vt 1.000000 0.000000
vt 0.000000 0.000000
vt 0.000000 0.000000
vt 0.000000 0.000000
vt 1.000000 0.000000
vt 1.000000 0.000000
vt 0.000000 0.000000
vt 0.000000 0.000000
vt 0.000000 0.000000
vt 0.000000 0.000000
vt 0.000000 0.000000
vt 0.000000 0.000000
vt 0.000000 0.000000
vt 0.000000 0.000000
vt 0.000000 0.000000
vt 0.000000 0.000000
vt 1.000000 1.000000
vt 0.000000 0.000000
vt 0.000000 0.000000
vt 0.000000 0.000000
vt 0.000000 0.000000
vt 0.000000 0.000000
vt 0.000000 0.000000
vt 0.000000 0.000000
vt 0.000000 0.000000
vt 0.000000 0.000000
vt 0.000000 0.000000
vt 0.000000 0.000000
vt 0.000000 0.000000
vt 0.000000 0.000000
vt 1.000000 0.000000
vt 0.000000 0.000000
vt 1.000000 0.000000
vt 0.000000 0.000000
vt 0.000000 0.000000
vt 0.000000 0.000000
vt 0.000000 0.000000
vt 0.000000 0.000000
vt 0.000000 0.000000
vt 0.000000 0.000000
vt 1.000000 0.000000
vt 0.000000 0.000000
vt 0.000000 0.000000
vt 0.000000 0.000000
vt 0.000000 0.000000
vt 0.000000 0.000000
vt 0.000000 0.000000
vt 1.000000 0.000000
vt 1.000000 0.000000
vt 0.000000 0.000000
vt 0.000000 0.000000
vt 0.000000 0.000000
vt 0.000000 0.000000
vt 0.000000 0.000000
vt 0.000000 0.000000
vt 0.000000 0.000000
vt 0.000000 0.000000
vt 0.000000 0.000000
vt 0.000000 0.000000
vt 0.000000 0.000000
vt 0.000000 0.000000
vt 0.000000 0.000000
vt 0.000000 0.000000
vt 0.000000 0.000000
vt 0.000000 0.000000
vt 0.000000 0.000000
vt 0.000000 0.000000
vt 0.000000 0.000000
s 0
f 25/15/1 26/16/1 80/55/1
f 26/16/2 27/17/2 81/56/2
f 55/36/3 56/37/3 109/75/3
f 27/17/4 28/18/4 82/57/4
f 54/35/5 52/34/5 105/72/5
f 28/18/6 29/19/6 83/58/6
f 74/49/7 19/10/7 20/11/7
f 42/30/8 43/31/8 97/70/8
f 18/9/5 16/7/5 71/46/5
f 32/22/5 30/20/5 84/59/5
f 15/6/5 17/8/5 72/47/5
f 109/75/9 56/37/9 54/35/9
f 29/19/5 31/21/5 85/60/5
f 85/60/10 31/21/10 32/22/10
f 20/11/11 18/9/11 73/48/11
f 40/28/5 42/30/5 96/69/5
f 5/3/5 4/2/5 63/43/5
f 43/31/5 41/29/5 95/68/5
f 23/13/12 55/36/12 108/74/12
f 93/66/13 39/27/13 40/28/13
f 60/41/14 1/1/14 21/12/14
f 92/65/15 38/26/15 39/27/15
f 91/64/16 37/25/16 38/26/16
f 90/63/17 36/24/17 37/25/17
f 89/62/18 35/23/18 36/24/18
f 7/4/19 24/14/19 78/53/19
f 46/32/20 8/5/20 19/10/20
f 76/51/21 21/12/21 35/23/21
f 24/14/22 25/15/22 79/54/22
f 125/91/5 130/96/5 184/149/5
f 138/107/5 192/152/5 198/156/5
f 115/81/5 114/79/5 155/124/5
f 131/98/5 185/150/5 199/157/5
f 110/76/5 218/165/5 156/125/5
f 58/39/5 172/140/5 160/130/5
f 201/158/23 202/159/23 148/117/23
f 202/159/24 186/151/24 132/100/24
f 186/151/25 199/157/25 145/114/25
f 184/149/8 183/148/8 129/95/8
f 177/145/5 178/146/5 176/144/5
f 176/144/26 175/143/26 65/44/26
f 65/44/26 174/142/26 176/144/26
f 197/155/27 143/111/27 139/108/27
f 140/109/28 194/154/28 193/153/28
f 118/84/29 173/141/29 194/154/29
f 169/137/30 170/138/30 113/78/30
f 116/82/31 113/78/31 170/138/31
f 119/85/32 116/82/32 171/139/32
f 174/142/33 65/44/33 120/86/33
f 124/90/34 123/89/34 177/145/34
f 130/96/6 124/90/6 178/146/6
f 123/89/35 122/88/35 176/144/35
f 175/143/36 176/144/36 122/88/36
f 65/44/37 175/143/37 121/87/37
f 157/126/38 158/127/38 115/81/38
f 218/165/10 172/140/10 115/80/10
f 172/140/39 218/165/39 100/71/39
f 209/160/40 159/129/40 160/130/40
f 161/131/41 210/161/41 211/162/41
f 210/161/42 161/131/42 159/129/42
f 162/132/13 211/162/13 217/164/13
f 168/136/10 217/164/10 216/163/10
f 118/84/5 224/172/5 232/180/5
f 235/184/5 236/186/5 248/200/5
f 162/132/5 261/214/5 260/213/5
f 116/82/5 222/170/5 220/167/5
f 131/98/5 235/184/5 248/200/5
f 132/100/5 236/186/5 235/185/5
f 119/85/5 225/173/5 222/170/5
f 132/100/5 236/186/5 251/204/5
f 168/136/5 265/218/5 261/214/5
f 133/101/5 237/187/5 238/188/5
f 164/133/5 262/215/5 263/216/5
f 120/86/5 226/174/5 225/173/5
f 146/115/5 249/202/5 252/205/5
f 135/103/5 239/189/5 237/187/5
f 121/87/5 227/175/5 226/174/5
f 149/118/5 252/205/5 253/206/5
f 136/104/5 240/190/5 239/189/5
f 122/88/5 228/176/5 227/175/5
f 150/119/5 253/206/5 254/207/5
f 137/105/5 241/191/5 240/190/5
f 167/135/5 264/217/5 265/218/5
f 123/89/5 229/177/5 228/176/5
f 151/120/5 254/207/5 255/208/5
f 138/106/5 242/193/5 241/191/5
f 167/135/5 264/217/5 262/215/5
f 124/90/5 230/178/5 229/177/5
f 152/121/5 255/208/5 256/209/5
f 139/108/5 243/194/5 244/195/5
f 165/134/5 263/216/5 250/203/5
f 134/102/5 238/188/5 223/171/5
f 131/99/5 235/185/5 245/196/5
f 154/123/5 257/210/5 219/166/5
f 126/92/5 231/179/5 232/180/5
f 153/122/5 256/209/5 257/210/5
f 160/130/5 259/212/5 266/219/5
f 140/109/5 244/195/5 224/172/5
f 113/78/5 220/167/5 219/166/5
f 144/112/5 247/199/5 242/192/5
f 148/117/5 251/204/5 250/203/5
f 143/111/5 246/197/5 247/198/5
f 130/96/5 234/182/5 230/178/5
f 130/97/5 234/183/5 233/181/5
f 159/129/5 258/211/5 259/212/5
f 143/111/5 246/197/5 243/194/5
f 145/114/5 248/200/5 236/186/5
f 172/140/5 266/219/5 221/169/5
f 126/92/5 231/179/5 233/181/5
f 161/131/5 260/213/5 258/211/5
f 115/81/5 221/168/5 223/171/5
f 141/110/5 245/196/5 249/202/5
f 220/167/26 221/169/26 266/219/26
f 250/203/26 251/204/26 257/210/26
f 219/166/26 266/219/26 250/203/26
f 263/216/26 250/203/26 266/219/26
f 263/216/26 258/211/26 264/217/26
f 251/204/26 249/202/26 254/207/26
f 222/170/26 225/173/26 232/180/26
f 237/187/26 224/172/26 239/189/26
f 233/181/26 227/175/26 228/176/26
f 25/15/1 80/55/1 79/54/1
f 26/16/2 81/56/2 80/55/2
f 55/36/3 109/75/3 108/74/3
f 27/17/4 82/57/4 81/56/4
f 54/35/5 105/72/5 107/73/5
f 28/18/6 83/58/6 82/57/6
f 74/49/7 20/11/7 75/50/7
f 42/30/8 97/70/8 96/69/8
f 18/9/5 71/46/5 73/48/5
f 32/22/5 84/59/5 86/61/5
f 15/6/5 72/47/5 70/45/5
f 109/75/9 54/35/9 107/73/9
f 29/19/5 85/60/5 83/58/5
f 85/60/10 32/22/10 86/61/10
f 20/11/11 73/48/11 75/50/11
f 40/28/5 96/69/5 94/67/5
f 5/3/5 63/43/5 62/42/5
f 43/31/5 95/68/5 97/70/5
f 23/13/12 108/74/12 77/52/12
f 93/66/13 40/28/13 94/67/13
f 60/41/14 21/12/14 76/51/14
f 92/65/15 39/27/15 93/66/15
f 91/64/16 38/26/16 92/65/16
f 90/63/17 37/25/17 91/64/17
f 89/62/18 36/24/18 90/63/18
f 7/4/19 78/53/19 59/40/19
f 46/32/20 19/10/20 74/49/20
f 76/51/21 35/23/21 89/62/21
f 24/14/22 79/54/22 78/53/22
f 125/91/5 184/149/5 179/147/5
f 138/107/5 198/156/5 144/112/5
f 115/81/5 155/124/5 158/127/5
f 131/98/5 199/157/5 145/114/5
f 110/76/5 156/125/5 57/38/5
f 58/39/5 160/130/5 47/33/5
f 201/158/23 148/117/23 147/116/23
f 202/159/24 132/100/24 148/117/24
f 186/151/25 145/114/25 132/100/25
f 184/149/8 129/95/8 130/96/8
f 197/155/27 139/108/27 193/153/27
f 140/109/28 193/153/28 139/108/28
f 118/84/29 194/154/29 140/109/29
f 169/137/30 113/78/30 112/77/30
f 116/82/31 170/138/31 171/139/31
f 119/85/32 171/139/32 174/142/32
f 174/142/33 120/86/33 119/85/33
f 124/90/43 177/145/43 178/146/43
f 130/96/6 178/146/6 184/149/6
f 123/89/35 176/144/35 177/145/35
f 175/143/36 122/88/36 121/87/36
f 65/44/37 121/87/37 120/86/37
f 157/126/38 115/81/38 117/83/38
f 218/165/10 115/80/10 158/128/10
f 172/140/39 100/71/39 160/130/39
f 209/160/40 160/130/40 100/71/40
f 161/131/41 211/162/41 162/132/41
f 210/161/42 159/129/42 209/160/42
f 162/132/13 217/164/13 168/136/13
f 168/136/10 216/163/10 167/135/10
f 118/84/5 232/180/5 127/93/5
f 162/132/5 260/213/5 161/131/5
f 116/82/5 220/167/5 113/78/5
f 131/98/5 248/200/5 145/114/5
f 132/100/5 235/185/5 131/99/5
f 119/85/5 222/170/5 116/82/5
f 132/100/5 251/204/5 148/117/5
f 168/136/5 261/214/5 162/132/5
f 133/101/5 238/188/5 134/102/5
f 164/133/5 263/216/5 165/134/5
f 120/86/5 225/173/5 119/85/5
f 146/115/5 252/205/5 149/118/5
f 135/103/5 237/187/5 133/101/5
f 121/87/5 226/174/5 120/86/5
f 149/118/5 253/206/5 150/119/5
f 136/104/5 239/189/5 135/103/5
f 122/88/5 227/175/5 121/87/5
f 150/119/5 254/207/5 151/120/5
f 137/105/5 240/190/5 136/104/5
f 167/135/5 265/218/5 168/136/5
f 123/89/5 228/176/5 122/88/5
f 151/120/5 255/208/5 152/121/5
f 138/106/5 241/191/5 137/105/5
f 167/135/5 262/215/5 164/133/5
f 124/90/5 229/177/5 123/89/5
f 152/121/5 256/209/5 153/122/5
f 139/108/5 244/195/5 140/109/5
f 165/134/5 250/203/5 147/116/5
f 134/102/5 223/171/5 117/83/5
f 131/99/5 245/196/5 141/110/5
f 154/123/5 219/166/5 112/77/5
f 126/92/5 232/180/5 127/93/5
f 153/122/5 257/210/5 154/123/5
f 160/130/5 266/219/5 172/140/5
f 140/109/5 224/172/5 118/84/5
f 113/78/5 219/166/5 112/77/5
f 144/112/5 242/192/5 138/107/5
f 148/117/5 250/203/5 147/116/5
f 143/111/5 247/198/5 144/113/5
f 130/96/5 230/178/5 124/90/5
f 130/97/5 233/181/5 128/94/5
f 159/129/5 259/212/5 160/130/5
f 143/111/5 243/194/5 139/108/5
f 145/114/5 236/186/5 132/100/5
f 172/140/5 221/169/5 115/80/5
f 126/92/5 233/181/5 128/94/5
f 161/131/5 258/211/5 159/129/5
f 115/81/5 223/171/5 117/83/5
f 141/110/5 249/202/5 146/115/5
f 220/167/26 266/219/26 219/166/26
f 250/203/26 257/210/26 219/166/26
f 263/216/26 266/219/26 259/212/26
f 258/211/26 263/216/26 259/212/26
f 263/216/26 264/217/26 262/215/26
f 264/217/26 258/211/26 265/218/26
f 248/201/26 251/204/26 236/186/26
f 251/204/26 256/209/26 257/210/26
f 251/204/26 255/208/26 256/209/26
f 249/202/26 251/204/26 248/201/26
f 253/206/26 249/202/26 252/205/26
f 251/204/26 254/207/26 255/208/26
f 254/207/26 249/202/26 253/206/26
f 222/170/26 232/180/26 224/172/26
f 241/191/5 247/199/5 242/193/5
f 247/199/26 243/194/26 246/197/26
f 243/194/26 224/172/26 244/195/26
f 224/172/26 220/167/26 222/170/26
f 220/167/26 223/171/26 221/169/26
f 224/172/26 223/171/26 220/167/26
f 247/199/26 224/172/26 243/194/26
f 240/190/26 247/199/26 241/191/26
f 239/189/26 247/199/26 240/190/26
f 224/172/26 238/188/26 223/171/26
f 224/172/26 237/187/26 238/188/26
f 239/189/26 224/172/26 247/199/26
f 226/174/26 232/180/26 225/173/26
f 232/180/26 233/181/26 231/179/26
f 233/181/26 230/178/26 234/183/26
f 233/181/26 229/177/26 230/178/26
f 226/174/26 233/181/26 232/180/26
f 227/175/26 233/181/26 226/174/26
f 233/181/26 228/176/26 229/177/26
l 1 2
l 9 10
l 17 18
l 34 33
l 50 49
l 9 64
l 87 33
l 102 49
l 137 191
l 2 6
l 10 11
l 2 22
l 51 50
l 10 65
l 34 88
l 50 103
l 107 106
l 110 58
l 163 162
l 154 208
l 4 3
l 11 12
l 43 45
l 53 51
l 57 3
l 11 66
l 51 104
l 168 163
l 195 200
l 203 204
l 12 13
l 45 44
l 67 12
l 98 44
l 124 125
l 180 182
l 196 197
l 204 205
l 164 213
l 217 212
l 7 5
l 13 14
l 54 53
l 13 68
l 45 99
l 187 133
l 190 189
l 195 141
l 197 198
l 203 149
l 205 206
l 214 165
l 216 213
l 6 9
l 14 15
l 6 61
l 14 69
l 142 143
l 166 167
l 126 180
l 182 183
l 134 188
l 191 190
l 142 196
l 206 207
l 166 215
l 44 23
l 48 47
l 47 100
l 114 111
l 156 111
l 181 127
l 135 189
l 207 208
l 215 216
l 33 8
l 32 34
l 49 48
l 48 101
l 106 104
l 128 129
l 200 203
l 206 152
