# Blender 3.3.8
# www.blender.org
o Hull_R2_phy
v -0.048425 0.156314 -0.063964
v -0.048424 0.156312 -0.057326
v -0.048421 0.156305 -0.044882
v -0.049865 0.062755 -0.057753
v -0.049862 0.062748 -0.045308
v -0.048421 0.156305 -0.044882
v -0.179423 0.156065 -0.044911
v -0.180526 0.061207 -0.044749
v -0.186647 0.066484 -0.044758
v -0.185666 0.150787 -0.044902
v -0.189599 0.146358 -0.044895
v -0.190476 0.070913 -0.044766
v -0.192389 0.075385 -0.044773
v -0.191616 0.141887 -0.044887
v -0.049862 0.062748 -0.045308
v -0.048421 0.156305 -0.044882
v -0.192084 0.061177 0.011458
v -0.190980 0.156035 0.011296
v -0.048405 0.156275 0.011326
v -0.049846 0.062719 0.010899
v -0.208528 0.141857 0.011321
v -0.209301 0.075355 0.011434
v -0.207388 0.070883 0.011442
v -0.178182 0.156065 -0.044911
v -0.179286 0.061207 -0.044749
v -0.206510 0.146329 0.011313
v -0.202578 0.150757 0.011305
v -0.203558 0.066454 0.011449
v -0.197438 0.061177 0.011458
v -0.196335 0.156035 0.011296
v -0.048405 0.156275 0.011326
v -0.049846 0.062719 0.010899
v -0.048424 0.156312 -0.060577
v -0.049866 0.062757 -0.064391
v -0.049865 0.062755 -0.057753
v -0.048424 0.156312 -0.057326
v -0.172741 0.156072 -0.057356
v -0.180530 0.061213 -0.057194
v -0.179964 0.066491 -0.057203
v -0.178984 0.150794 -0.057347
v -0.182916 0.146365 -0.057339
v -0.183794 0.070920 -0.057210
v -0.185707 0.075392 -0.057218
v -0.184933 0.141893 -0.057332
v -0.049865 0.062755 -0.057753
v -0.048424 0.156312 -0.057326
v -0.171500 0.156072 -0.057356
v -0.179289 0.061213 -0.057194
v -0.048424 0.156312 -0.060577
v -0.049865 0.062755 -0.061004
v -0.184933 0.141893 -0.060582
v -0.185707 0.075392 -0.060469
v -0.183794 0.070920 -0.060461
v -0.182916 0.146365 -0.060590
v -0.178984 0.150794 -0.060598
v -0.179964 0.066491 -0.060454
v -0.180530 0.061213 -0.060445
v -0.172741 0.156072 -0.060607
v -0.048424 0.156312 -0.060577
v -0.049865 0.062755 -0.061004
v -0.049865 0.062755 -0.061004
v -0.049865 0.062755 -0.057753
v -0.049862 0.062748 -0.045308
v -0.171501 0.156073 -0.060743
v -0.048405 0.156275 0.011326
v -0.049865 0.062755 -0.057753
v -0.048424 0.156312 -0.057326
v -0.172741 0.156072 -0.057356
v -0.180530 0.061213 -0.057194
v -0.179964 0.066491 -0.057203
v -0.178984 0.150794 -0.057347
v -0.182916 0.146365 -0.057339
v -0.183794 0.070920 -0.057210
v -0.185707 0.075392 -0.057218
v -0.184933 0.141893 -0.057332
v -0.049865 0.062755 -0.057753
v -0.048424 0.156312 -0.057326
v -0.171500 0.156072 -0.057356
v -0.179289 0.061213 -0.057194
v -0.171501 0.156073 -0.060743
v -0.171500 0.156072 -0.060607
v -0.179289 0.061213 -0.060445
v -0.049846 0.062719 0.010899
v -0.048421 0.156305 -0.044882
v -0.049846 0.062719 0.010899
v -0.048424 0.156312 -0.057326
v -0.049866 0.062757 -0.064391
v -0.048425 0.156314 -0.063964
v -0.172741 0.156073 -0.063994
v -0.173845 0.061215 -0.063832
v -0.179965 0.066493 -0.063841
v -0.178984 0.150796 -0.063985
v -0.182917 0.146367 -0.063977
v -0.183794 0.070922 -0.063848
v -0.185708 0.075393 -0.063856
v -0.184934 0.141895 -0.063970
v -0.049866 0.062757 -0.064391
v -0.048425 0.156314 -0.063964
v -0.171501 0.156073 -0.063994
v -0.172604 0.061215 -0.063832
v -0.048425 0.156314 -0.063964
v -0.049866 0.062757 -0.064391
v -0.049866 0.062757 -0.064391
v -0.048425 0.156314 -0.063964
v -0.192389 0.075385 -0.044773
v -0.191616 0.141887 -0.044887
v -0.048424 0.156312 -0.060577
v -0.048424 0.156312 -0.057326
v -0.048424 0.156312 -0.060577
v -0.049865 0.062755 -0.061004
v -0.049865 0.062755 -0.057753
v -0.049862 0.062748 -0.045308
v -0.048405 0.156275 0.011326
v -0.049865 0.062755 -0.057753
v -0.049846 0.062719 0.010899
v -0.049846 0.062719 0.010899
v -0.048424 0.156312 -0.057326
v -0.049866 0.062757 -0.064391
v -0.048425 0.156314 -0.063964
v -0.049866 0.062757 -0.064391
v -0.048425 0.156314 -0.063964
v -0.048424 0.156312 -0.060577
v -0.048424 0.156312 -0.060577
v -0.049865 0.062755 -0.061004
v -0.049865 0.062755 -0.057753
v -0.049865 0.062755 -0.057753
v -0.049846 0.062719 0.010899
v -0.049846 0.062719 0.010899
v -0.049866 0.062757 -0.064391
v -0.048425 0.156314 -0.063964
v -0.044056 0.156305 -0.044882
v -0.044056 0.156305 -0.044882
v -0.045481 0.062719 0.010899
v -0.045481 0.062719 0.010899
v -0.044059 0.156312 -0.057326
v -0.045481 0.062719 0.010899
v -0.044059 0.156312 -0.057326
v -0.045481 0.062719 0.010899
v -0.044059 0.156312 -0.057326
v -0.044056 0.156305 -0.044882
v -0.044040 0.156275 0.011326
v -0.044060 0.156314 -0.063964
v -0.044060 0.156314 -0.063964
v -0.044040 0.156275 0.011326
v -0.045481 0.062719 0.010899
v -0.044059 0.156312 -0.060577
v -0.044059 0.156312 -0.057326
v -0.044059 0.156312 -0.060577
v -0.044060 0.156314 -0.063964
v -0.045501 0.062757 -0.064391
v -0.044060 0.156314 -0.063964
v -0.045481 0.062719 0.010899
v -0.045501 0.062757 -0.064391
v -0.045481 0.062719 0.010899
v -0.044059 0.156312 -0.060577
v -0.044059 0.156312 -0.060577
v -0.044056 0.156305 -0.044882
v -0.044056 0.156305 -0.044882
v -0.045481 0.062719 0.010899
v -0.045481 0.062719 0.010899
v -0.044059 0.156312 -0.057326
v -0.045481 0.062719 0.010899
v -0.044059 0.156312 -0.057326
v -0.045481 0.062719 0.010899
v -0.044059 0.156312 -0.057326
v -0.044056 0.156305 -0.044882
v -0.044040 0.156275 0.011326
v -0.044060 0.156314 -0.063964
v -0.044060 0.156314 -0.063964
v -0.044040 0.156275 0.011326
v -0.045481 0.062719 0.010899
v -0.044059 0.156312 -0.060577
v -0.044059 0.156312 -0.057326
v -0.044059 0.156312 -0.060577
v -0.044060 0.156314 -0.063964
v -0.045501 0.062757 -0.064391
v -0.044060 0.156314 -0.063964
v -0.045481 0.062719 0.010899
v -0.045501 0.062757 -0.064391
v -0.045481 0.062719 0.010899
v -0.044059 0.156312 -0.060577
v -0.044059 0.156312 -0.060577
vn -0.8241 -0.3534 -0.4427
vn 0.0119 -0.9999 -0.0005
vn -0.7005 -0.6063 -0.3765
vn -0.6943 0.6158 -0.3725
vn -0.6103 0.7214 -0.3273
vn -0.0000 -0.0000 1.0000
vn -0.0002 -0.0046 1.0000
vn -0.0000 0.0017 1.0000
vn -0.7298 0.6476 -0.2192
vn -0.6406 -0.7432 -0.1931
vn -0.0017 1.0000 0.0001
vn -0.0000 1.0000 0.0005
vn -0.9575 0.0106 -0.2881
vn -0.0000 -1.0000 -0.0005
vn -0.8793 0.3962 -0.2643
vn -0.7373 -0.6379 -0.2222
vn -0.6340 0.7496 -0.1903
vn 0.0108 -0.9999 0.0019
vn -0.8859 -0.3795 -0.2667
vn -0.6456 0.7637 0.0006
vn -0.7478 0.6640 0.0006
vn -0.7564 -0.6541 -0.0001
vn -0.9194 -0.3934 -0.0000
vn -0.8810 0.0094 -0.4731
vn -0.8190 0.3687 -0.4396
vn -0.0018 1.0000 -0.0005
vn -0.6159 -0.7148 -0.3311
vn -0.9115 0.4112 -0.0000
vn -0.9999 0.0116 -0.0000
vn -0.7564 -0.6541 -0.0000
vn -0.7478 0.6640 -0.0000
vn -0.6456 0.7637 -0.0000
vn 0.0119 -0.9999 -0.0000
vn -0.9943 0.1066 -0.0000
vn -0.0000 1.0000 -0.0000
vn -0.0020 1.0000 -0.0000
vn -0.0000 -1.0000 -0.0000
vn 0.0120 -0.9997 0.0232
vn -0.0000 -0.0017 -1.0000
vn 0.0002 0.0046 -1.0000
vn -0.9999 0.0116 0.0003
vn -0.9115 0.4112 0.0005
vn -0.0020 1.0000 0.0005
vn -0.9943 0.1066 0.0003
vn -0.0000 0.0046 -1.0000
vn -0.0000 -0.0046 1.0000
vn 0.9999 -0.0154 -0.0003
vn 0.0039 0.0017 1.0000
vn -0.0019 1.0000 0.0005
vn 0.0126 -0.9999 -0.0005
vn -0.0045 -0.0017 -1.0000
vn -0.4000 -0.4652 -0.7897
vn 0.9999 -0.0152 -0.0000
vt 0.313806 0.000000
vt 0.313806 0.000000
vt 0.313806 0.000000
vt 0.331985 1.000000
vt 0.331985 1.000000
vt 0.313806 0.000000
vt 1.000000 0.000000
vt 1.000000 1.000000
vt 1.000000 1.000000
vt 1.000000 0.000000
vt 1.000000 0.000000
vt 1.000000 1.000000
vt 1.000000 1.000000
vt 1.000000 0.000000
vt 0.331985 1.000000
vt 0.313806 0.000000
vt 1.000000 1.000000
vt 1.000000 0.000000
vt 0.313806 0.000000
vt 0.331985 1.000000
vt 1.000000 0.000000
vt 1.000000 1.000000
vt 1.000000 1.000000
vt 1.000000 0.000000
vt 1.000000 1.000000
vt 1.000000 0.000000
vt 1.000000 0.000000
vt 1.000000 1.000000
vt 1.000000 1.000000
vt 1.000000 0.000000
vt 0.313806 0.000000
vt 0.331985 1.000000
vt 0.313806 0.000000
vt 0.331985 1.000000
vt 0.331985 1.000000
vt 0.313806 0.000000
vt 1.000000 0.000000
vt 1.000000 1.000000
vt 1.000000 1.000000
vt 1.000000 0.000000
vt 1.000000 0.000000
vt 1.000000 1.000000
vt 1.000000 1.000000
vt 1.000000 0.000000
vt 0.331985 1.000000
vt 0.313806 0.000000
vt 1.000000 0.000000
vt 1.000000 1.000000
vt 0.313806 0.000000
vt 0.331985 1.000000
vt 1.000000 0.000000
vt 1.000000 1.000000
vt 1.000000 1.000000
vt 1.000000 0.000000
vt 1.000000 0.000000
vt 1.000000 1.000000
vt 1.000000 1.000000
vt 1.000000 0.000000
vt 0.313806 0.000000
vt 0.331985 1.000000
vt 0.331985 1.000000
vt 0.331985 1.000000
vt 0.331985 1.000000
vt 0.313806 0.000000
vt 0.331985 1.000000
vt 0.313806 0.000000
vt 1.000000 0.000000
vt 1.000000 1.000000
vt 1.000000 1.000000
vt 1.000000 0.000000
vt 1.000000 0.000000
vt 1.000000 1.000000
vt 1.000000 1.000000
vt 1.000000 0.000000
vt 0.331985 1.000000
vt 0.313806 0.000000
vt 1.000000 0.000000
vt 1.000000 1.000000
vt 1.000000 0.000000
vt 1.000000 1.000000
vt 0.331985 1.000000
vt 0.313806 0.000000
vt 0.331985 1.000000
vt 0.313806 0.000000
vt 0.331985 1.000000
vt 0.313806 0.000000
vt 1.000000 0.000000
vt 1.000000 1.000000
vt 1.000000 1.000000
vt 1.000000 0.000000
vt 1.000000 0.000000
vt 1.000000 1.000000
vt 1.000000 1.000000
vt 1.000000 0.000000
vt 0.331985 1.000000
vt 0.313806 0.000000
vt 1.000000 0.000000
vt 1.000000 1.000000
vt 0.000000 0.000000
vt 0.331985 1.000000
vt 0.313806 0.000000
vt 0.000000 0.000000
vt 1.000000 1.000000
vt 1.000000 0.000000
vt 0.313806 0.000000
vt 0.000000 0.000000
vt 0.000000 0.000000
vt 0.313806 0.000000
vt 0.331985 1.000000
vt 0.331985 1.000000
vt 0.331985 1.000000
vt 0.313806 0.000000
vt 0.331985 1.000000
vt 0.000000 0.000000
vt 0.331985 1.000000
vt 0.331985 1.000000
vt 0.313806 0.000000
vt 0.331985 1.000000
vt 0.313806 0.000000
vt 0.000000 0.000000
vt 0.000000 0.000000
vt 0.000000 0.000000
vt 0.000000 0.000000
vt 0.331985 1.000000
vt 0.331985 1.000000
vt 0.000000 0.000000
vt 0.000000 0.000000
vt 0.331985 1.000000
vt 0.313806 0.000000
vt 0.313806 0.000000
vt 0.331985 1.000000
vt 0.331985 1.000000
vt 0.313806 0.000000
vt 0.331985 1.000000
vt 0.313806 0.000000
vt 0.331985 1.000000
vt 0.313806 0.000000
vt 0.313806 0.000000
vt 0.313806 0.000000
vt 0.313806 0.000000
vt 0.313806 0.000000
vt 0.000000 0.000000
vt 0.313806 0.000000
vt 0.331985 1.000000
vt 0.313806 0.000000
vt 0.000000 0.000000
vt 0.313806 0.000000
vt 0.000000 0.000000
vt 0.313806 0.000000
vt 0.313806 0.000000
vt 0.000000 0.000000
vt 0.000000 0.000000
vt 0.000000 0.000000
vt 0.331985 1.000000
vt 0.000000 0.000000
vt 0.000000 0.000000
vt 0.000000 0.000000
vt 0.000000 0.000000
vt 0.000000 0.000000
vt 0.313806 0.000000
vt 0.000000 0.000000
vt 0.313806 0.000000
vt 0.000000 0.000000
vt 0.331985 1.000000
vt 0.000000 0.000000
vt 0.331985 1.000000
vt 0.000000 0.000000
vt 0.313806 0.000000
vt 0.000000 0.000000
vt 0.331985 1.000000
vt 0.000000 0.000000
vt 0.313806 0.000000
vt 0.000000 0.000000
vt 0.331985 1.000000
vt 0.000000 0.000000
vt 0.313806 0.000000
vt 0.000000 0.000000
vt 0.313806 0.000000
vt 0.000000 0.000000
vt 0.313806 0.000000
vt 0.000000 0.000000
vt 0.313806 0.000000
vt 0.313806 0.000000
vt 0.000000 0.000000
vt 0.000000 0.000000
vt 0.313806 0.000000
vt 0.000000 0.000000
vt 0.331985 1.000000
vt 0.000000 0.000000
vt 0.313806 0.000000
vt 0.000000 0.000000
vt 0.313806 0.000000
vt 0.000000 0.000000
vt 0.313806 0.000000
vt 0.000000 0.000000
vt 0.313806 0.000000
vt 0.000000 0.000000
vt 0.000000 0.000000
vt 0.331985 1.000000
vt 0.000000 0.000000
vt 0.000000 0.000000
vt 0.000000 0.000000
vt 0.000000 0.000000
vt 0.000000 0.000000
s 0
f 43/43/1 12/12/1 13/13/1
f 48/48/2 15/15/2 25/25/2
f 42/42/3 9/9/3 12/12/3
f 10/10/4 41/41/4 11/11/4
f 7/7/5 40/40/5 10/10/5
f 49/49/6 1/1/6 98/96/6
f 18/18/7 20/20/7 19/19/7
f 28/28/8 26/26/8 23/23/8
f 29/29/8 27/27/8 28/28/8
f 23/23/8 21/21/8 22/22/8
f 19/19/6 32/32/6 31/31/6
f 17/17/8 30/30/8 29/29/8
f 27/27/9 11/11/9 26/26/9
f 9/9/10 29/29/10 28/28/10
f 19/19/11 24/24/11 18/18/11
f 18/18/12 7/7/12 30/30/12
f 21/21/13 13/13/13 22/22/13
f 8/8/14 17/17/14 29/29/14
f 31/31/6 16/16/6 19/19/6
f 26/26/15 14/14/15 21/21/15
f 12/12/16 28/28/16 23/23/16
f 20/20/6 5/5/6 32/32/6
f 30/30/17 10/10/17 27/27/17
f 25/25/18 20/20/18 17/17/18
f 13/13/19 23/23/19 22/22/19
f 58/58/20 92/90/20 55/55/20
f 55/55/21 93/91/21 54/54/21
f 15/15/6 62/62/6 63/63/6
f 53/53/22 91/89/22 56/56/22
f 52/52/23 94/92/23 53/53/23
f 39/39/6 69/68/6 38/38/6
f 15/15/6 35/35/6 5/5/6
f 14/14/24 43/43/24 13/13/24
f 11/11/25 44/44/25 14/14/25
f 6/6/6 46/46/6 16/16/6
f 97/95/6 104/101/6 103/100/6
f 8/8/14 48/48/14 25/25/14
f 16/16/26 47/47/26 24/24/26
f 24/24/12 37/37/12 7/7/12
f 39/39/27 8/8/27 9/9/27
f 47/47/6 68/67/6 37/37/6
f 15/15/6 83/81/6 20/20/6
f 46/46/6 78/77/6 47/47/6
f 38/38/6 79/78/6 48/48/6
f 36/36/6 77/76/6 46/46/6
f 41/41/6 75/74/6 44/44/6
f 44/44/6 74/73/6 43/43/6
f 45/45/6 66/65/6 35/35/6
f 43/43/6 73/72/6 42/42/6
f 42/42/6 70/69/6 39/39/6
f 50/50/6 4/4/6 76/75/6
f 40/40/6 72/71/6 41/41/6
f 37/37/6 71/70/6 40/40/6
f 16/16/6 2/2/6 3/3/6
f 48/48/6 76/75/6 45/45/6
f 67/66/6 49/49/6 77/76/6
f 72/71/28 51/51/28 75/74/28
f 75/74/29 52/52/29 74/73/29
f 76/75/6 60/60/6 66/65/6
f 74/73/23 53/53/23 73/72/23
f 73/72/30 56/56/30 70/69/30
f 71/70/31 54/54/31 72/71/31
f 68/67/32 55/55/32 71/70/32
f 98/96/6 34/34/6 97/95/6
f 82/80/33 76/75/33 79/78/33
f 70/69/34 57/57/34 69/68/34
f 81/79/35 68/67/35 78/77/35
f 32/32/6 65/64/6 31/31/6
f 49/49/36 78/77/36 77/76/36
f 57/57/37 79/78/37 69/68/37
f 31/31/6 84/82/6 6/6/6
f 100/98/38 50/50/38 82/80/38
f 50/50/6 34/34/6 61/61/6
f 100/98/39 89/87/39 99/97/39
f 98/96/6 87/85/6 97/95/6
f 94/92/39 96/94/39 93/91/39
f 90/88/39 92/90/39 89/87/39
f 91/89/39 93/91/39 92/90/39
f 97/95/40 99/97/40 98/96/40
f 50/50/6 87/85/6 60/60/6
f 51/51/41 95/93/41 52/52/41
f 54/54/42 96/94/42 51/51/42
f 59/59/6 98/96/6 49/49/6
f 90/88/14 82/80/14 57/57/14
f 98/96/43 81/79/43 49/49/43
f 77/76/6 33/33/6 49/49/6
f 99/97/12 58/58/12 81/79/12
f 91/89/44 57/57/44 56/56/44
f 85/83/6 113/112/6 65/64/6
f 63/63/6 111/110/6 112/111/6
f 13/13/6 106/104/6 105/103/6
f 50/50/6 114/113/6 110/109/6
f 49/49/6 119/119/6 98/96/6
f 50/50/6 118/118/6 97/95/6
f 104/102/6 120/120/6 102/99/6
f 86/84/6 107/105/6 33/33/6
f 63/63/6 115/115/6 83/81/6
f 119/119/6 142/140/6 98/96/6
f 110/109/6 126/125/6 124/124/6
f 110/109/6 129/128/6 118/118/6
f 146/146/6 181/203/6 155/157/6
f 6/6/6 132/130/6 16/16/6
f 123/123/6 148/148/6 109/107/6
f 65/64/12 140/138/12 84/82/12
f 98/96/6 143/141/6 104/101/6
f 20/20/6 134/132/6 32/32/6
f 120/120/6 153/155/6 129/127/6
f 147/147/35 107/105/35 117/117/35
f 104/102/6 151/152/6 121/121/6
f 127/126/6 152/153/6 115/114/6
f 16/16/12 135/133/12 46/46/12
f 83/81/6 133/131/6 20/20/6
f 109/108/12 149/150/12 119/119/12
f 121/121/45 150/151/45 120/120/45
f 86/84/6 147/147/6 117/117/6
f 145/144/46 113/112/46 116/116/46
f 107/106/6 155/157/6 122/122/6
f 32/32/6 136/134/6 85/83/6
f 85/83/6 145/144/6 116/116/6
f 46/46/6 137/135/6 77/76/6
f 77/76/6 139/137/6 86/84/6
f 153/155/14 127/126/14 129/127/14
f 113/112/6 141/139/6 65/64/6
f 115/115/6 138/136/6 83/81/6
f 122/122/6 156/158/6 123/123/6
f 84/82/6 131/129/6 6/6/6
f 171/187/47 179/201/47 174/193/47
f 131/129/6 158/162/6 132/130/6
f 144/143/6 167/180/6 141/139/6
f 141/139/6 166/178/6 140/138/6
f 156/158/6 174/193/6 148/148/6
f 133/131/6 160/166/6 134/132/6
f 149/150/6 168/182/6 142/140/6
f 142/140/6 169/183/6 143/141/6
f 153/155/6 180/202/6 154/156/6
f 132/130/6 161/168/6 135/133/6
f 143/142/6 177/198/6 151/152/6
f 145/144/6 170/186/6 144/143/6
f 155/157/6 182/204/6 156/158/6
f 134/132/6 162/170/6 136/134/6
f 139/137/6 173/192/6 147/147/6
f 147/147/6 172/190/6 146/145/6
f 135/133/6 163/172/6 137/135/6
f 152/154/6 164/174/6 138/136/6
f 148/149/6 175/196/6 149/150/6
f 138/136/6 159/164/6 133/131/6
f 150/151/6 179/201/6 153/155/6
f 151/152/6 176/197/6 150/151/6
f 137/135/6 165/176/6 139/137/6
f 154/156/6 178/200/6 152/153/6
f 136/134/6 171/188/6 145/144/6
f 140/138/6 157/160/6 131/129/6
f 43/43/1 42/42/1 12/12/1
f 48/48/2 45/45/2 15/15/2
f 42/42/3 39/39/3 9/9/3
f 10/10/4 40/40/4 41/41/4
f 7/7/5 37/37/5 40/40/5
f 49/49/6 33/33/6 1/1/6
f 18/18/48 17/17/48 20/20/48
f 28/28/8 27/27/8 26/26/8
f 29/29/8 30/30/8 27/27/8
f 23/23/8 26/26/8 21/21/8
f 19/19/6 20/20/6 32/32/6
f 17/17/8 18/18/8 30/30/8
f 27/27/9 10/10/9 11/11/9
f 9/9/10 8/8/10 29/29/10
f 19/19/49 16/16/49 24/24/49
f 18/18/12 24/24/12 7/7/12
f 21/21/13 14/14/13 13/13/13
f 8/8/14 25/25/14 17/17/14
f 31/31/6 6/6/6 16/16/6
f 26/26/15 11/11/15 14/14/15
f 12/12/16 9/9/16 28/28/16
f 20/20/6 15/15/6 5/5/6
f 30/30/17 7/7/17 10/10/17
f 25/25/2 15/15/2 20/20/2
f 13/13/19 12/12/19 23/23/19
f 58/58/20 89/87/20 92/90/20
f 55/55/21 92/90/21 93/91/21
f 15/15/6 45/45/6 62/62/6
f 53/53/22 94/92/22 91/89/22
f 52/52/23 95/93/23 94/92/23
f 39/39/6 70/69/6 69/68/6
f 15/15/6 45/45/6 35/35/6
f 14/14/24 44/44/24 43/43/24
f 11/11/25 41/41/25 44/44/25
f 6/6/6 36/36/6 46/46/6
f 97/95/6 98/96/6 104/101/6
f 8/8/14 38/38/14 48/48/14
f 16/16/43 46/46/43 47/47/43
f 24/24/12 47/47/12 37/37/12
f 39/39/44 38/38/44 8/8/44
f 47/47/6 78/77/6 68/67/6
f 15/15/6 63/63/6 83/81/6
f 46/46/6 77/76/6 78/77/6
f 38/38/6 69/68/6 79/78/6
f 36/36/6 67/66/6 77/76/6
f 41/41/6 72/71/6 75/74/6
f 44/44/6 75/74/6 74/73/6
f 45/45/6 76/75/6 66/65/6
f 43/43/6 74/73/6 73/72/6
f 42/42/6 73/72/6 70/69/6
f 50/50/6 61/61/6 4/4/6
f 40/40/6 71/70/6 72/71/6
f 37/37/6 68/67/6 71/70/6
f 16/16/6 46/46/6 2/2/6
f 48/48/6 79/78/6 76/75/6
f 67/66/6 59/59/6 49/49/6
f 72/71/28 54/54/28 51/51/28
f 75/74/29 51/51/29 52/52/29
f 76/75/6 50/50/6 60/60/6
f 74/73/23 52/52/23 53/53/23
f 73/72/30 53/53/30 56/56/30
f 71/70/31 55/55/31 54/54/31
f 68/67/32 58/58/32 55/55/32
f 98/96/6 1/1/6 34/34/6
f 82/80/33 50/50/33 76/75/33
f 70/69/34 56/56/34 57/57/34
f 81/79/35 58/58/35 68/67/35
f 32/32/6 85/83/6 65/64/6
f 49/49/36 81/79/36 78/77/36
f 57/57/37 82/80/37 79/78/37
f 31/31/6 65/64/6 84/82/6
f 100/98/50 97/95/50 50/50/50
f 50/50/6 97/95/6 34/34/6
f 100/98/39 90/88/39 89/87/39
f 98/96/6 88/86/6 87/85/6
f 94/92/39 95/93/39 96/94/39
f 90/88/39 91/89/39 92/90/39
f 91/89/39 94/92/39 93/91/39
f 97/95/51 100/98/51 99/97/51
f 50/50/6 97/95/6 87/85/6
f 51/51/41 96/94/41 95/93/41
f 54/54/42 93/91/42 96/94/42
f 59/59/6 88/86/6 98/96/6
f 90/88/14 100/98/14 82/80/14
f 98/96/43 99/97/43 81/79/43
f 77/76/6 86/84/6 33/33/6
f 99/97/12 89/87/12 58/58/12
f 91/89/52 90/88/52 57/57/52
f 85/83/6 116/116/6 113/112/6
f 63/63/6 62/62/6 111/110/6
f 13/13/6 14/14/6 106/104/6
f 50/50/6 76/75/6 114/113/6
f 49/49/6 109/108/6 119/119/6
f 50/50/6 110/109/6 118/118/6
f 104/102/6 121/121/6 120/120/6
f 86/84/6 117/117/6 107/105/6
f 63/63/6 112/111/6 115/115/6
f 119/119/6 149/150/6 142/140/6
f 110/109/6 114/113/6 126/125/6
f 110/109/6 124/124/6 129/128/6
f 146/146/6 172/189/6 181/203/6
f 6/6/6 131/129/6 132/130/6
f 123/123/6 156/158/6 148/148/6
f 65/64/12 141/139/12 140/138/12
f 98/96/6 142/140/6 143/141/6
f 20/20/6 133/131/6 134/132/6
f 120/120/6 150/151/6 153/155/6
f 147/147/35 146/145/35 107/105/35
f 104/102/6 143/142/6 151/152/6
f 127/126/6 154/156/6 152/153/6
f 16/16/12 132/130/12 135/133/12
f 83/81/6 138/136/6 133/131/6
f 109/108/12 148/149/12 149/150/12
f 121/121/45 151/152/45 150/151/45
f 86/84/6 139/137/6 147/147/6
f 145/144/46 144/143/46 113/112/46
f 107/106/6 146/146/6 155/157/6
f 32/32/6 134/132/6 136/134/6
f 85/83/6 136/134/6 145/144/6
f 46/46/6 135/133/6 137/135/6
f 77/76/6 137/135/6 139/137/6
f 153/155/14 154/156/14 127/126/14
f 113/112/6 144/143/6 141/139/6
f 115/115/6 152/154/6 138/136/6
f 122/122/6 155/157/6 156/158/6
f 84/82/6 140/138/6 131/129/6
f 158/161/6 157/159/6 166/177/6
f 167/179/6 170/185/6 171/187/6
f 158/161/6 166/177/6 167/179/6
f 171/187/6 162/169/6 160/165/6
f 158/161/47 167/179/47 171/187/47
f 165/175/6 163/171/6 161/167/6
f 173/191/6 165/175/6 161/167/6
f 173/191/6 161/167/6 158/161/6
f 171/187/6 160/165/6 159/163/6
f 173/191/47 158/161/47 171/187/47
f 182/204/6 181/203/6 172/189/6
f 174/193/6 182/204/6 172/189/6
f 174/193/6 172/189/6 173/191/6
f 171/187/6 159/163/6 164/173/6
f 174/193/53 173/191/53 171/187/53
f 169/184/6 168/181/6 175/195/6
f 177/198/6 169/184/6 175/195/6
f 177/198/6 175/195/6 174/193/6
f 179/201/6 176/197/6 177/198/6
f 179/201/47 177/198/47 174/193/47
f 171/187/6 164/173/6 178/200/6
f 171/187/6 178/200/6 180/202/6
f 171/187/6 180/202/6 179/201/6
f 131/129/6 157/160/6 158/162/6
f 144/143/6 170/186/6 167/180/6
f 141/139/6 167/180/6 166/178/6
f 156/158/6 182/204/6 174/193/6
f 133/131/6 159/164/6 160/166/6
f 149/150/6 175/196/6 168/182/6
f 142/140/6 168/182/6 169/183/6
f 153/155/6 179/201/6 180/202/6
f 132/130/6 158/162/6 161/168/6
f 143/142/6 169/184/6 177/198/6
f 145/144/6 171/188/6 170/186/6
f 155/157/6 181/203/6 182/204/6
f 134/132/6 160/166/6 162/170/6
f 139/137/6 165/176/6 173/192/6
f 147/147/6 173/192/6 172/190/6
f 135/133/6 161/168/6 163/172/6
f 152/154/6 178/199/6 164/174/6
f 148/149/6 174/194/6 175/196/6
f 138/136/6 164/174/6 159/164/6
f 150/151/6 176/197/6 179/201/6
f 151/152/6 177/198/6 176/197/6
f 137/135/6 163/172/6 165/176/6
f 154/156/6 180/202/6 178/200/6
f 136/134/6 162/170/6 171/188/6
f 140/138/6 166/178/6 157/160/6
l 1 101
l 34 102
l 128 116
l 125 126
l 108 46
l 111 125
l 119 130
l 64 80
l 80 99
