# Blender 3.3.8
# www.blender.org
o Weight_center2_vis
v 0.047370 0.000271 0.176198
v 0.047526 -0.000896 0.176246
v 0.047651 0.001057 0.176571
v 0.047249 -0.000185 0.181033
v 0.047653 -0.001145 0.178804
v 0.047888 -0.002298 0.175695
v 0.048143 -0.001959 0.176093
v 0.048299 -0.001869 0.176589
v 0.048655 -0.002352 0.181046
v 0.049957 -0.002666 0.181043
v 0.047737 -0.002067 0.181319
v 0.049577 -0.002959 0.181318
v 0.048360 -0.005291 0.181362
v 0.050598 -0.002535 0.180974
v 0.051221 -0.002645 0.181314
v 0.052715 -0.004699 0.181351
v 0.050790 -0.005447 0.181358
v 0.052325 -0.001725 0.181318
v 0.051644 -0.002055 0.181075
v 0.052309 -0.001138 0.181018
v 0.052147 -0.001087 0.176517
v 0.051500 -0.001923 0.176508
v 0.051643 -0.001990 0.176098
v 0.050532 -0.002476 0.176220
v 0.049315 -0.002396 0.176584
v 0.049270 -0.002594 0.176039
v 0.051613 -0.002632 0.175681
v 0.049514 -0.003145 0.175668
v 0.052197 -0.001530 0.175930
v 0.052612 -0.000279 0.175976
v 0.053205 -0.000399 0.175656
v 0.052394 0.000000 0.176515
v 0.052204 0.000982 0.176530
v 0.052440 0.000872 0.176018
v 0.051465 0.001932 0.176510
v 0.051283 0.002311 0.181072
v 0.050497 0.002449 0.176346
v 0.051008 0.002566 0.175933
v 0.049316 0.002666 0.175960
v 0.049867 0.003230 0.175647
v 0.048407 0.002614 0.175717
v 0.047660 0.001586 0.175915
v 0.049366 0.002411 0.176515
v 0.048286 0.002073 0.180934
v 0.048273 0.001887 0.176423
v 0.046814 0.000569 0.175667
v 0.047017 -0.001031 0.175695
v 0.030285 0.025315 0.175682
v 0.030025 -0.024487 0.175738
v 0.032207 -0.027344 0.175665
v 0.030865 -0.026076 0.175645
v 0.030253 -0.026573 0.176149
v 0.029777 -0.026300 0.176679
v 0.031533 -0.027781 0.176187
v 0.030540 -0.027316 0.176931
v 0.031818 -0.028254 0.176800
v 0.033276 -0.028707 0.176676
v 0.033557 -0.028512 0.182787
v 0.066526 -0.028450 0.176184
v 0.033399 -0.028093 0.175861
v 0.066578 -0.028724 0.176873
v 0.066237 -0.028520 0.182711
v 0.067543 -0.028143 0.182819
v 0.066263 -0.028035 0.184109
v 0.033398 -0.027725 0.184647
v 0.031861 -0.027407 0.184119
v 0.032141 -0.026423 0.185467
v 0.066324 -0.027126 0.185369
v 0.033774 -0.026662 0.185772
v 0.066239 -0.025696 0.186343
v 0.033272 -0.025501 0.186383
v 0.066185 -0.024198 0.186777
v 0.033646 -0.024246 0.186780
v 0.067504 -0.024523 0.186389
v 0.067921 0.024826 0.186138
v 0.066189 0.024243 0.186780
v 0.051174 0.006132 0.186777
v 0.055850 0.002010 0.186769
v 0.053516 0.005117 0.186762
v 0.056184 -0.000415 0.186775
v 0.033655 0.024192 0.186780
v 0.054985 0.003683 0.186787
v 0.054726 0.003547 0.186514
v 0.055631 0.001884 0.186538
v 0.055419 0.001691 0.181625
v 0.053349 0.004616 0.181597
v 0.054798 0.003159 0.181685
v 0.055697 -0.000000 0.181710
v 0.055030 0.002099 0.181364
v 0.052346 0.001709 0.181320
v 0.052911 0.000074 0.181314
v 0.052267 0.001305 0.181063
v 0.051273 0.002643 0.181320
v 0.053883 0.003780 0.181357
v 0.049889 0.002971 0.181320
v 0.051808 0.005500 0.181689
v 0.051612 0.005277 0.181366
v 0.049937 0.005763 0.181642
v 0.048074 0.005515 0.181669
v 0.048347 0.005363 0.181374
v 0.046476 0.004626 0.181652
v 0.045635 0.003646 0.181414
v 0.044440 0.001937 0.181678
v 0.044638 0.001697 0.181365
v 0.046975 -0.000349 0.181318
v 0.044416 -0.000593 0.181368
v 0.047697 -0.001495 0.181040
v 0.045690 -0.003644 0.181372
v 0.045295 -0.003433 0.181640
v 0.046454 -0.004607 0.181636
v 0.047996 -0.005484 0.181653
v 0.048076 -0.005694 0.186544
v 0.046356 -0.004853 0.186520
v 0.046749 -0.005400 0.186785
v 0.045271 -0.004270 0.186788
v 0.043983 -0.001992 0.186775
v 0.045030 -0.003524 0.186601
v 0.044231 -0.001860 0.186456
v 0.043854 0.000010 0.186697
v 0.044141 0.000000 0.181660
v 0.044224 0.001854 0.186483
v 0.045082 0.003514 0.186512
v 0.044201 0.002481 0.186742
v 0.046214 0.005090 0.186781
v 0.046380 0.004870 0.186526
v 0.048085 0.005694 0.186544
v 0.048582 0.006157 0.186791
v 0.049926 0.006011 0.186505
v 0.051767 0.005680 0.186510
v 0.053449 0.004875 0.186538
v 0.044425 -0.001889 0.181646
v 0.049942 -0.006014 0.186526
v 0.049392 -0.006328 0.186784
v 0.052443 -0.005768 0.186791
v 0.053456 -0.004858 0.186507
v 0.051757 -0.005693 0.186546
v 0.054488 -0.004073 0.186688
v 0.055596 -0.001889 0.186481
v 0.055489 -0.002994 0.186799
v 0.055894 -0.000000 0.186519
v 0.055391 -0.001927 0.181633
v 0.055457 -0.000506 0.181373
v 0.054450 -0.003139 0.181362
v 0.052573 0.000168 0.181030
v 0.053363 -0.004609 0.181602
v 0.054530 -0.003440 0.181642
v 0.051799 -0.005498 0.181665
v 0.049917 -0.005759 0.181631
v 0.047335 0.001358 0.181284
v 0.047451 0.001021 0.181043
v 0.048285 0.002555 0.181326
v 0.048591 0.002375 0.181127
v 0.050204 0.002659 0.181059
v 0.033127 0.025940 0.186179
v 0.032170 -0.024287 0.186340
v 0.032077 0.024829 0.186223
v 0.031228 0.026652 0.184514
v 0.033539 0.028016 0.184132
v 0.033864 0.027041 0.185492
v 0.032472 0.027404 0.184652
v 0.066496 0.025552 0.186381
v 0.067622 0.026449 0.185480
v 0.069078 0.023944 0.185437
v 0.069356 0.025422 0.184650
v 0.068747 0.026787 0.184119
v 0.070001 0.024327 0.184086
v 0.069976 -0.024330 0.184132
v 0.070104 0.025582 0.182819
v 0.070467 0.024299 0.182752
v 0.069388 0.026714 0.182968
v 0.070646 0.024938 0.176752
v 0.070482 -0.024276 0.182771
v 0.070633 -0.024848 0.176657
v 0.069924 -0.026005 0.182887
v 0.069694 -0.026900 0.176964
v 0.069741 -0.026336 0.176186
v 0.068536 -0.027614 0.176149
v 0.068038 -0.027019 0.175651
v 0.068261 -0.028093 0.176679
v 0.069285 -0.025662 0.175657
v 0.069806 0.024487 0.175738
v 0.052406 0.001682 0.175713
v 0.067628 0.027332 0.175662
v 0.069017 0.026056 0.175651
v 0.051416 0.002850 0.175649
v 0.069454 0.026765 0.176203
v 0.068297 0.027781 0.176187
v 0.069585 0.027038 0.176968
v 0.070355 0.024769 0.176158
v 0.068015 0.028253 0.176798
v 0.067954 0.027975 0.182861
v 0.066851 0.027924 0.184166
v 0.066266 0.027180 0.185337
v 0.032287 0.028143 0.182819
v 0.033653 0.028519 0.182795
v 0.033255 0.028724 0.176872
v 0.066324 0.028514 0.182695
v 0.033305 0.028450 0.176184
v 0.031569 0.028093 0.176679
v 0.031294 0.027614 0.176149
v 0.033356 0.027815 0.175726
v 0.066431 0.028093 0.175861
v 0.066554 0.028707 0.176676
v 0.031794 0.027018 0.175650
v 0.030096 0.026348 0.176190
v 0.029428 0.024492 0.176173
v 0.029204 0.024940 0.176768
v 0.029386 -0.024545 0.176226
v 0.029349 0.024277 0.182773
v 0.029133 -0.024587 0.176931
v 0.029364 -0.024305 0.182752
v 0.029726 -0.025583 0.182819
v 0.030433 -0.026700 0.182957
v 0.030463 -0.026009 0.184119
v 0.029829 -0.024327 0.184086
v 0.029854 0.024330 0.184132
v 0.030717 -0.024006 0.185387
v 0.031136 -0.025256 0.185457
v 0.030839 0.024026 0.185498
v 0.030469 0.025423 0.184642
v 0.029894 0.025993 0.182861
v 0.030136 0.026900 0.176964
v 0.031161 0.027429 0.182974
v 0.031863 -0.027962 0.182889
v 0.066474 -0.027815 0.175726
v 0.070028 -0.024505 0.175852
v 0.068661 -0.027436 0.182957
v 0.067969 -0.027407 0.184119
v 0.069368 -0.026009 0.184119
v 0.067722 -0.026417 0.185450
v 0.068713 -0.025234 0.185448
v 0.069031 -0.024086 0.185445
vn 0.9019 -0.0878 -0.4228
vn 0.9073 0.4175 0.0490
vn 0.8530 0.3318 -0.4029
vn 0.8978 -0.4249 -0.1157
vn 0.9094 0.0467 0.4133
vn 0.3304 0.1077 -0.9377
vn 0.5508 0.6125 -0.5670
vn 0.2039 0.2505 -0.9464
vn 0.2270 0.7625 -0.6059
vn 0.0380 0.2751 -0.9607
vn 0.6452 0.7523 -0.1335
vn 0.7880 0.4742 0.3927
vn 0.4295 0.8399 0.3317
vn 0.2386 0.9601 -0.1456
vn -0.0320 0.9094 0.4148
vn 0.0437 0.2990 0.9532
vn 0.2094 0.2051 0.9561
vn 0.1149 0.4214 0.8995
vn -0.2431 0.9169 0.3166
vn -0.1499 0.2977 0.9428
vn -0.2591 0.1865 0.9477
vn -0.2057 0.3633 0.9087
vn -0.0714 0.4782 0.8753
vn -0.5824 0.6993 0.4145
vn -0.6125 0.7754 -0.1534
vn -0.8569 0.3598 0.3691
vn -0.8922 0.4094 -0.1908
vn -0.2121 0.8942 -0.3942
vn -0.5445 0.6409 -0.5411
vn -0.1684 0.2500 -0.9535
vn -0.7097 0.4705 -0.5244
vn -0.1976 0.0299 -0.9798
vn -0.7079 0.0832 -0.7014
vn -0.7897 -0.2640 -0.5537
vn -0.8957 -0.4274 -0.1226
vn -0.9858 -0.0106 -0.1676
vn -0.6154 -0.7532 -0.2323
vn -0.3208 -0.1994 -0.9259
vn -0.2636 -0.6622 -0.7015
vn -0.4738 -0.7509 0.4601
vn -0.0904 -0.8937 0.4394
vn -0.8029 -0.4246 0.4184
vn -0.1805 -0.9546 -0.2370
vn 0.2309 -0.9551 -0.1854
vn 0.1698 -0.7438 -0.6465
vn -0.0078 -0.2205 -0.9754
vn 0.1777 -0.3307 -0.9269
vn 0.6171 -0.7344 -0.2826
vn 0.7630 -0.5422 -0.3519
vn 0.6821 -0.7162 0.1479
vn 0.2834 -0.0648 -0.9568
vn -0.2558 -0.1783 -0.9502
vn -0.3971 -0.0705 -0.9151
vn -0.3545 0.1339 -0.9254
vn -0.1574 -0.3035 -0.9398
vn -0.6179 -0.4625 -0.6359
vn -0.8571 -0.4583 -0.2355
vn -0.6917 -0.7074 -0.1450
vn -0.4363 -0.6635 -0.6079
vn -0.4305 -0.8804 -0.1991
vn -0.1482 -0.9441 -0.2944
vn -0.1400 -0.9686 0.2054
vn -0.4696 -0.8585 0.2060
vn 0.1336 -0.7828 -0.6078
vn -0.0780 -0.5767 -0.8132
vn 0.1683 -0.9723 -0.1622
vn 0.1261 -0.9757 0.1792
vn 0.3842 -0.9024 0.1949
vn 0.1411 -0.8779 0.4575
vn -0.1622 -0.8220 0.5459
vn -0.4837 -0.7418 0.4646
vn -0.4194 -0.5526 0.7203
vn -0.0941 -0.6057 0.7901
vn 0.1445 -0.6968 0.7026
vn 0.1333 -0.4188 0.8982
vn -0.1923 -0.3774 0.9059
vn -0.1290 -0.1331 0.9827
vn 0.1262 -0.1266 0.9839
vn 0.3884 -0.1742 0.9049
vn 0.1498 0.1226 0.9811
vn 0.4646 0.2173 0.8584
vn -0.0614 -0.3197 0.9455
vn 0.0641 -0.2880 0.9555
vn -0.3078 0.0243 0.9511
vn -0.3155 -0.1083 0.9427
vn -0.2698 -0.1973 0.9425
vn -0.1922 -0.2780 0.9411
vn -0.1385 0.1344 0.9812
vn -0.7261 -0.5384 0.4277
vn -0.5369 -0.7227 0.4353
vn -0.8542 -0.2749 0.4413
vn -0.8793 -0.2336 0.4151
vn -0.5199 -0.7064 0.4803
vn -0.7647 -0.5077 0.3968
vn -0.4329 -0.1809 0.8831
vn -0.9424 -0.0254 0.3334
vn -0.5351 0.0533 0.8431
vn -0.2444 -0.1855 0.9518
vn -0.3056 -0.0028 0.9522
vn -0.3300 -0.3112 0.8912
vn -0.1401 -0.2823 0.9490
vn -0.1291 -0.4459 0.8857
vn 0.0254 -0.2888 0.9571
vn -0.3104 -0.8872 0.3415
vn 0.1258 -0.4812 0.8675
vn -0.0083 -0.8834 0.4686
vn 0.3167 -0.8864 0.3378
vn 0.3065 -0.8554 0.4175
vn 0.5381 -0.7145 0.4471
vn 0.5506 -0.4488 0.7039
vn 0.7853 -0.5858 0.2002
vn 0.8753 -0.3373 0.3466
vn 0.4522 -0.1317 0.8822
vn 0.3077 -0.1695 0.9363
vn 0.3287 0.0487 0.9432
vn 0.4854 0.0618 0.8721
vn 0.8589 -0.3197 0.4001
vn 0.3968 0.3613 0.8438
vn 0.8285 0.2987 0.4737
vn 0.7676 0.5389 0.3469
vn 0.3253 0.8523 0.4097
vn 0.5007 0.7116 0.4928
vn 0.2966 0.8852 0.3585
vn 0.5421 0.7467 0.3853
vn 0.1505 0.2940 0.9439
vn 0.2003 0.1751 0.9640
vn 0.7572 0.4985 0.4221
vn 0.3128 0.1332 0.9404
vn 0.8880 0.2825 0.3627
vn 0.6410 0.0003 0.7675
vn 0.9199 -0.0196 0.3917
vn 0.9289 -0.2521 0.2713
vn 0.2819 -0.1485 0.9479
vn 0.1871 -0.2675 0.9452
vn 0.5238 -0.7293 0.4401
vn -0.0037 -0.9540 0.2999
vn -0.3143 -0.8794 0.3577
vn 0.0299 0.2664 0.9634
vn -0.0511 0.9117 0.4076
vn -0.1050 0.2698 0.9572
vn -0.2473 0.8830 0.3989
vn -0.5001 0.4048 0.7655
vn -0.5697 0.8015 0.1819
vn -0.5479 0.7030 0.4535
vn -0.7363 0.5688 0.3666
vn -0.8985 0.2834 0.3351
vn -0.2139 0.1215 0.9693
vn -0.9068 -0.0274 0.4206
vn -0.8343 0.2982 0.4636
vn -0.3770 0.2530 0.8910
vn -0.8893 -0.0522 0.4544
vn -0.3009 0.8597 0.4128
vn 0.0144 0.9018 0.4320
vn 0.3787 -0.7561 0.5337
vn 0.1353 -0.1949 0.9715
vn -0.4424 0.2330 0.8660
vn -0.2236 0.4592 0.8598
vn -0.6717 0.0958 0.7346
vn -0.4170 -0.1373 0.8985
vn -0.5908 0.5912 0.5490
vn -0.7387 0.3593 0.5703
vn -0.3583 0.7428 0.5656
vn -0.0901 0.6830 0.7248
vn -0.1321 0.8787 0.4586
vn 0.1579 0.3994 0.9031
vn 0.1178 0.7014 0.7030
vn 0.4193 0.5605 0.7141
vn 0.7419 0.3656 0.5620
vn 0.6880 0.0845 0.7207
vn 0.8855 0.1328 0.4452
vn 0.6153 0.6344 0.4678
vn 0.9755 0.1240 0.1816
vn 0.8975 0.3912 0.2035
vn 0.9727 -0.1390 0.1861
vn 0.8724 -0.1463 0.4664
vn 0.9485 0.2302 -0.2176
vn 0.7616 0.6344 -0.1325
vn 0.7552 0.6195 0.2142
vn 0.9351 -0.1955 -0.2957
vn 0.7476 0.1579 -0.6451
vn 0.8581 -0.4707 0.2050
vn 0.7805 -0.6097 -0.1384
vn 0.6869 -0.4270 -0.5881
vn 0.4711 -0.6204 -0.6270
vn 0.4730 -0.8505 -0.2302
vn 0.2985 -0.1577 -0.9413
vn 0.1783 -0.2593 -0.9492
vn 0.5702 -0.0692 -0.8186
vn 0.2834 0.1880 -0.9404
vn 0.3854 0.0577 -0.9210
vn -0.1084 -0.1943 -0.9749
vn 0.1589 0.3005 -0.9405
vn 0.6384 0.4932 -0.5909
vn 0.4426 0.6643 -0.6024
vn 0.4401 0.8760 -0.1973
vn 0.4782 0.8545 0.2029
vn 0.2357 0.8534 0.4649
vn 0.1319 0.9740 0.1840
vn -0.1218 0.9739 0.1916
vn -0.3898 0.8985 0.2018
vn 0.1480 0.9440 -0.2948
vn -0.1681 0.9723 -0.1622
vn -0.1337 0.7828 -0.6078
vn -0.4729 0.8505 -0.2301
vn -0.4725 0.6170 -0.6293
vn -0.0706 0.3776 -0.9233
vn -0.1853 0.2550 -0.9490
vn 0.0782 0.5768 -0.8132
vn -0.6753 0.4327 -0.5973
vn -0.7622 0.0808 -0.6423
vn -0.9507 0.2267 -0.2118
vn -0.8015 -0.1335 -0.5829
vn -0.9755 -0.1669 -0.1433
vn -0.9725 0.1375 0.1878
vn -0.9749 -0.1270 0.1828
vn -0.9023 -0.3850 0.1940
vn -0.7448 -0.4722 0.4715
vn -0.7459 -0.6317 0.2111
vn -0.8782 -0.1463 0.4554
vn -0.8790 0.1331 0.4579
vn -0.7037 -0.0864 0.7053
vn -0.6142 -0.3287 0.7175
vn -0.8562 0.4714 0.2114
vn -0.7774 0.6131 -0.1402
vn -0.6214 0.7510 0.2234
vn 0.0706 -0.3771 -0.9235
vn 0.6311 -0.7463 0.2116
vn 0.7423 -0.4774 0.4701
vn 0.4702 -0.7464 0.4710
vn 0.4245 -0.5530 0.7169
vn 0.6238 -0.3248 0.7108
vn 0.6867 -0.0831 0.7222
s 1
f 1//1 5//2 2//3
f 1//1 3//4 4//5
f 4//5 5//2 1//1
f 2//3 47//6 1//1
f 2//3 7//7 6//8
f 2//3 6//8 47//6
f 6//8 26//9 28//10
f 7//7 26//9 6//8
f 8//11 26//9 7//7
f 2//3 8//11 7//7
f 2//3 5//2 8//11
f 107//12 8//11 5//2
f 9//13 25//14 8//11
f 9//13 8//11 107//12
f 10//15 9//13 12//16
f 10//15 25//14 9//13
f 9//13 11//17 12//16
f 12//16 11//17 13//18
f 10//15 14//19 25//14
f 14//19 10//15 15//20
f 15//20 10//15 12//16
f 18//21 15//20 16//22
f 15//20 17//23 16//22
f 15//20 12//16 17//23
f 18//21 19//24 15//20
f 19//24 14//19 15//20
f 14//19 19//24 22//25
f 19//24 20//26 22//25
f 22//25 20//26 21//27
f 24//28 22//25 23//29
f 14//19 22//25 24//28
f 25//14 14//19 24//28
f 25//14 24//28 26//9
f 26//9 24//28 28//10
f 24//28 27//30 28//10
f 23//29 29//31 27//30
f 24//28 23//29 27//30
f 29//31 31//32 27//30
f 21//27 30//33 29//31
f 29//31 30//33 31//32
f 22//25 29//31 23//29
f 22//25 21//27 29//31
f 34//34 31//32 30//33
f 33//35 30//33 32//36
f 33//35 34//34 30//33
f 34//34 35//37 182//38
f 33//35 35//37 34//34
f 35//37 38//39 182//38
f 36//40 153//41 35//37
f 92//42 36//40 35//37
f 92//42 35//37 33//35
f 35//37 153//41 37//43
f 35//37 37//43 38//39
f 37//43 43//44 39//45
f 37//43 39//45 38//39
f 38//39 39//45 40//46
f 39//45 41//47 40//46
f 45//48 42//49 41//47
f 39//45 45//48 41//47
f 43//44 45//48 39//45
f 44//50 3//4 45//48
f 43//44 44//50 45//48
f 45//48 3//4 42//49
f 3//4 1//1 42//49
f 42//49 1//1 46//51
f 47//6 46//51 1//1
f 46//51 47//6 51//52
f 47//6 6//8 51//52
f 51//52 49//53 48//54
f 48//54 46//51 51//52
f 6//8 28//10 51//52
f 28//10 50//55 51//52
f 50//55 52//56 51//52
f 53//57 52//56 55//58
f 50//55 54//59 52//56
f 54//59 55//58 52//56
f 54//59 56//60 55//58
f 56//60 57//61 58//62
f 56//60 58//62 224//63
f 57//61 56//60 54//59
f 59//64 57//61 60//65
f 59//64 61//66 57//61
f 60//65 57//61 54//59
f 61//66 62//67 57//61
f 62//67 58//62 57//61
f 61//66 63//68 62//67
f 64//69 62//67 63//68
f 58//62 62//67 64//69
f 65//70 224//63 58//62
f 65//70 58//62 64//69
f 65//70 66//71 224//63
f 65//70 67//72 66//71
f 69//73 65//70 68//74
f 65//70 64//69 68//74
f 69//73 67//72 65//70
f 69//73 68//74 70//75
f 71//76 69//73 70//75
f 71//76 67//72 69//73
f 73//77 71//76 70//75
f 73//77 70//75 72//78
f 72//78 70//75 74//79
f 72//78 74//79 76//80
f 74//79 75//81 76//80
f 77//82 76//80 127//83
f 80//84 76//80 78//85
f 78//85 76//80 82//86
f 79//87 76//80 77//82
f 72//78 76//80 80//84
f 82//86 76//80 79//87
f 76//80 81//88 127//83
f 82//86 79//87 83//89
f 78//85 82//86 83//89
f 83//89 79//87 130//90
f 78//85 83//89 84//91
f 84//91 83//89 85//92
f 130//90 86//93 83//89
f 85//92 83//89 87//94
f 83//89 86//93 87//94
f 85//92 87//94 89//95
f 88//96 85//92 142//97
f 142//97 85//92 89//95
f 89//95 90//98 91//99
f 89//95 91//99 142//97
f 92//42 91//99 90//98
f 94//100 93//101 90//98
f 36//40 90//98 93//101
f 36//40 92//42 90//98
f 94//100 90//98 89//95
f 89//95 87//94 94//100
f 87//94 86//93 94//100
f 86//93 97//102 94//100
f 94//100 97//102 93//101
f 97//102 95//103 93//101
f 86//93 96//104 97//102
f 97//102 100//105 95//103
f 97//102 98//106 100//105
f 96//104 98//106 97//102
f 98//106 99//107 100//105
f 98//106 126//108 99//107
f 126//108 101//109 99//107
f 99//107 101//109 100//105
f 100//105 101//109 102//110
f 101//109 122//111 102//110
f 102//110 103//112 104//113
f 102//110 122//111 103//112
f 102//110 104//113 149//114
f 149//114 104//113 105//115
f 105//115 106//116 11//17
f 105//115 104//113 106//116
f 150//117 105//115 4//5
f 150//117 149//114 105//115
f 107//12 105//115 11//17
f 107//12 4//5 105//115
f 107//12 5//2 4//5
f 11//17 106//116 108//118
f 106//116 131//119 108//118
f 131//119 109//120 108//118
f 11//17 108//118 13//18
f 108//118 111//121 13//18
f 110//122 111//121 108//118
f 110//122 112//123 111//121
f 113//124 110//122 109//120
f 113//124 112//123 110//122
f 114//125 112//123 113//124
f 115//126 114//125 113//124
f 117//127 115//126 113//124
f 115//126 116//128 73//77
f 114//125 115//126 73//77
f 116//128 115//126 117//127
f 116//128 117//127 118//129
f 116//128 118//129 119//130
f 120//131 121//132 119//130
f 119//130 118//129 120//131
f 103//112 121//132 120//131
f 122//111 121//132 103//112
f 104//113 103//112 120//131
f 122//111 123//133 121//132
f 124//134 123//133 122//111
f 124//134 81//88 123//133
f 124//134 122//111 125//135
f 126//108 124//134 125//135
f 127//83 81//88 124//134
f 127//83 124//134 126//108
f 127//83 126//108 128//136
f 128//136 126//108 98//106
f 77//82 127//83 128//136
f 129//137 77//82 128//136
f 128//136 98//106 129//137
f 130//90 129//137 86//93
f 86//93 129//137 96//104
f 129//137 98//106 96//104
f 79//87 129//137 130//90
f 79//87 77//82 129//137
f 125//135 101//109 126//108
f 125//135 122//111 101//109
f 123//133 81//88 119//130
f 123//133 119//130 121//132
f 106//116 104//113 120//131
f 120//131 131//119 106//116
f 120//131 118//129 131//119
f 118//129 109//120 131//119
f 119//130 81//88 73//77
f 116//128 119//130 73//77
f 117//127 109//120 118//129
f 113//124 109//120 117//127
f 133//138 114//125 73//77
f 114//125 133//138 112//123
f 112//123 133//138 132//139
f 72//78 133//138 73//77
f 134//140 133//138 72//78
f 133//138 136//141 132//139
f 133//138 134//140 136//141
f 137//142 134//140 72//78
f 134//140 137//142 135//143
f 136//141 134//140 135//143
f 135//143 145//144 136//141
f 135//143 146//145 145//144
f 137//142 146//145 135//143
f 138//146 146//145 137//142
f 137//142 139//147 138//146
f 72//78 80//84 139//147
f 72//78 139//147 137//142
f 139//147 80//84 138//146
f 80//84 140//148 138//146
f 146//145 138//146 141//149
f 88//96 138//146 140//148
f 141//149 138//146 88//96
f 142//97 141//149 88//96
f 142//97 91//99 143//150
f 141//149 142//97 143//150
f 143//150 18//21 16//22
f 143//150 91//99 18//21
f 20//26 19//24 18//21
f 20//26 18//21 91//99
f 20//26 91//99 144//151
f 144//151 33//35 32//36
f 32//36 21//27 144//151
f 144//151 92//42 33//35
f 21//27 20//26 144//151
f 92//42 144//151 91//99
f 145//144 143//150 16//22
f 145//144 146//145 143//150
f 146//145 141//149 143//150
f 147//152 145//144 16//22
f 17//23 147//152 16//22
f 136//141 145//144 147//152
f 148//153 147//152 17//23
f 148//153 136//141 147//152
f 13//18 148//153 17//23
f 111//121 148//153 13//18
f 132//139 148//153 112//123
f 132//139 136//141 148//153
f 112//123 148//153 111//121
f 84//91 85//92 140//148
f 78//85 84//91 140//148
f 140//148 85//92 88//96
f 78//85 140//148 80//84
f 109//120 110//122 108//118
f 3//4 150//117 4//5
f 44//50 150//117 3//4
f 150//117 44//50 149//114
f 44//50 152//154 149//114
f 149//114 152//154 151//155
f 152//154 153//41 95//103
f 152//154 95//103 151//155
f 152//154 43//44 153//41
f 152//154 44//50 43//44
f 153//41 93//101 95//103
f 153//41 36//40 93//101
f 100//105 151//155 95//103
f 151//155 102//110 149//114
f 100//105 102//110 151//155
f 81//88 156//156 73//77
f 81//88 154//157 156//156
f 156//156 219//158 155//159
f 156//156 155//159 73//77
f 156//156 154//157 157//160
f 219//158 156//156 220//161
f 156//156 157//160 220//161
f 154//157 160//162 157//160
f 160//162 159//163 158//164
f 154//157 159//163 160//162
f 161//165 159//163 154//157
f 161//165 193//166 159//163
f 161//165 162//167 193//166
f 76//80 161//165 154//157
f 161//165 75//81 162//167
f 76//80 75//81 161//165
f 75//81 164//168 162//167
f 75//81 163//169 164//168
f 164//168 163//169 166//170
f 162//167 164//168 165//171
f 166//170 169//172 168//173
f 172//174 169//172 166//170
f 167//175 172//174 166//170
f 167//175 166//170 163//169
f 164//168 166//170 168//173
f 171//176 168//173 169//172
f 188//177 170//178 168//173
f 171//176 188//177 168//173
f 164//168 168//173 170//178
f 165//171 164//168 170//178
f 171//176 169//172 172//174
f 171//176 172//174 173//179
f 189//180 171//176 173//179
f 173//179 172//174 174//181
f 175//182 173//179 174//181
f 176//183 173//179 175//182
f 176//183 175//182 177//184
f 179//185 177//184 175//182
f 180//186 177//184 178//187
f 180//186 176//183 177//184
f 226//188 176//183 180//186
f 184//189 181//190 180//186
f 181//190 226//188 180//186
f 27//30 180//186 178//187
f 31//32 180//186 27//30
f 184//189 180//186 31//32
f 184//189 182//38 185//191
f 184//189 31//32 182//38
f 183//192 184//189 185//191
f 183//192 185//191 40//46
f 185//191 38//39 40//46
f 182//38 38//39 185//191
f 183//192 186//193 184//189
f 183//192 187//194 186//193
f 187//194 188//177 186//193
f 186//193 188//177 171//176
f 184//189 186//193 189//180
f 186//193 171//176 189//180
f 181//190 184//189 189//180
f 187//194 190//195 188//177
f 188//177 190//195 191//196
f 165//171 170//178 191//196
f 188//177 191//196 170//178
f 192//197 165//171 191//196
f 162//167 165//171 192//197
f 193//166 162//167 192//197
f 193//166 192//197 158//164
f 193//166 158//164 159//163
f 192//197 191//196 197//198
f 192//197 197//198 195//199
f 192//197 195//199 158//164
f 158//164 195//199 194//200
f 197//198 203//201 195//199
f 203//201 196//202 195//199
f 196//202 194//200 195//199
f 198//203 199//204 196//202
f 196//202 199//204 194//200
f 198//203 200//205 199//204
f 201//206 200//205 198//203
f 201//206 204//207 200//205
f 201//206 198//203 202//208
f 202//208 187//194 183//192
f 201//206 202//208 183//192
f 198//203 203//201 202//208
f 202//208 203//201 187//194
f 203//201 190//195 187//194
f 198//203 196//202 203//201
f 190//195 203//201 197//198
f 48//54 200//205 204//207
f 48//54 205//209 200//205
f 48//54 206//210 205//209
f 49//53 206//210 48//54
f 206//210 207//211 205//209
f 208//212 210//213 207//211
f 208//212 207//211 206//210
f 209//214 207//211 210//213
f 209//214 210//213 211//215
f 210//213 53//57 212//216
f 210//213 212//216 211//215
f 208//212 53//57 210//213
f 208//212 52//56 53//57
f 214//217 212//216 213//218
f 53//57 213//218 212//216
f 214//217 215//219 212//216
f 215//219 211//215 212//216
f 209//214 211//215 215//219
f 216//220 209//214 215//219
f 216//220 215//219 217//221
f 218//222 217//221 215//219
f 218//222 215//219 214//217
f 67//72 218//222 214//217
f 155//159 217//221 218//222
f 71//76 218//222 67//72
f 71//76 155//159 218//222
f 219//158 217//221 155//159
f 219//158 220//161 216//220
f 219//158 216//220 217//221
f 216//220 221//223 209//214
f 216//220 220//161 221//223
f 220//161 157//160 221//223
f 222//224 221//223 223//225
f 157//160 223//225 221//223
f 222//224 207//211 221//223
f 205//209 207//211 222//224
f 205//209 222//224 200//205
f 199//204 200//205 222//224
f 199//204 222//224 223//225
f 199//204 223//225 194//200
f 160//162 194//200 223//225
f 157//160 160//162 223//225
f 207//211 209//214 221//223
f 66//71 214//217 213//218
f 67//72 214//217 66//71
f 55//58 224//63 213//218
f 66//71 213//218 224//63
f 53//57 55//58 213//218
f 55//58 56//60 224//63
f 49//53 52//56 208//212
f 49//53 208//212 206//210
f 204//207 41//47 48//54
f 204//207 201//206 183//192
f 204//207 40//46 41//47
f 204//207 183//192 40//46
f 190//195 197//198 191//196
f 160//162 158//164 194//200
f 28//10 27//30 178//187
f 28//10 178//187 50//55
f 178//187 225//226 50//55
f 225//226 60//65 50//55
f 225//226 59//64 60//65
f 225//226 177//184 59//64
f 225//226 178//187 177//184
f 60//65 54//59 50//55
f 181//190 189//180 226//188
f 189//180 173//179 226//188
f 226//188 173//179 176//183
f 179//185 175//182 227//227
f 179//185 227//227 63//68
f 61//66 179//185 63//68
f 59//64 179//185 61//66
f 59//64 177//184 179//185
f 229//228 228//229 227//227
f 229//228 227//227 174//181
f 175//182 174//181 227//227
f 230//230 228//229 229//228
f 231//231 230//230 229//228
f 231//231 229//228 167//175
f 167//175 229//228 174//181
f 232//232 231//231 167//175
f 74//79 232//232 163//169
f 74//79 231//231 232//232
f 232//232 167//175 163//169
f 74//79 230//230 231//231
f 70//75 68//74 230//230
f 74//79 70//75 230//230
f 230//230 68//74 228//229
f 68//74 64//69 228//229
f 228//229 63//68 227//227
f 228//229 64//69 63//68
f 167//175 174//181 172//174
f 74//79 163//169 75//81
f 73//77 155//159 71//76
f 76//80 154//157 81//88
f 49//53 51//52 52//56
f 48//54 41//47 46//51
f 41//47 42//49 46//51
f 153//41 43//44 37//43
f 34//34 182//38 31//32
f 30//33 21//27 32//36
f 12//16 13//18 17//23
f 9//13 107//12 11//17
f 8//11 25//14 26//9
