# Blender 3.3.8
# www.blender.org
o Weight_left_vis
v 0.115200 -0.126821 0.176419
v 0.115403 -0.127102 0.175993
v 0.114960 -0.127962 0.178804
v 0.115123 -0.125924 0.176246
v 0.115043 -0.127684 0.176496
v 0.115376 -0.127028 0.181050
v 0.115001 -0.125672 0.178804
v 0.114479 -0.124795 0.181006
v 0.115234 -0.125864 0.181058
v 0.114937 -0.124773 0.181313
v 0.115532 -0.122027 0.181363
v 0.117243 -0.123419 0.181425
v 0.112777 -0.123765 0.181312
v 0.113383 -0.124203 0.181014
v 0.112139 -0.124143 0.181075
v 0.110771 -0.124516 0.181323
v 0.110652 -0.121636 0.181348
v 0.113586 -0.121334 0.181366
v 0.112819 -0.121019 0.181631
v 0.110927 -0.121248 0.181667
v 0.110978 -0.121052 0.186546
v 0.109264 -0.121857 0.186507
v 0.109352 -0.122108 0.181602
v 0.108166 -0.123255 0.181642
v 0.107278 -0.124754 0.181633
v 0.108244 -0.123551 0.181362
v 0.107190 -0.126173 0.181370
v 0.107073 -0.124788 0.186481
v 0.106741 -0.126671 0.186519
v 0.106937 -0.126674 0.181710
v 0.107186 -0.128370 0.181625
v 0.107780 -0.129849 0.181685
v 0.107567 -0.128784 0.181363
v 0.109934 -0.127782 0.181319
v 0.108685 -0.130486 0.181357
v 0.109204 -0.131331 0.181597
v 0.110729 -0.132242 0.181689
v 0.111430 -0.129116 0.181035
v 0.112706 -0.129750 0.181322
v 0.112678 -0.129454 0.181063
v 0.110928 -0.132024 0.181367
v 0.111051 -0.129259 0.181314
v 0.110414 -0.128124 0.181044
v 0.110066 -0.126791 0.181030
v 0.110410 -0.127711 0.176524
v 0.109781 -0.126039 0.181325
v 0.110296 -0.125596 0.181092
v 0.111063 -0.124682 0.181057
v 0.110506 -0.125650 0.176511
v 0.111158 -0.124827 0.176499
v 0.111028 -0.124756 0.176098
v 0.112201 -0.124358 0.176527
v 0.112156 -0.124159 0.176024
v 0.113365 -0.124301 0.176199
v 0.114524 -0.124228 0.175683
v 0.111067 -0.124115 0.175681
v 0.112799 -0.123661 0.175669
v 0.130909 -0.099753 0.175665
v 0.132233 -0.101047 0.175646
v 0.096654 -0.098673 0.175726
v 0.094873 -0.098364 0.176679
v 0.096614 -0.098037 0.176184
v 0.094590 -0.098838 0.176149
v 0.095592 -0.098326 0.182819
v 0.096904 -0.097973 0.182711
v 0.096567 -0.097763 0.176873
v 0.129863 -0.098369 0.176676
v 0.129579 -0.098559 0.182787
v 0.131313 -0.098847 0.176800
v 0.131263 -0.099138 0.182889
v 0.129724 -0.099348 0.184647
v 0.131255 -0.099693 0.184119
v 0.131001 -0.100641 0.185407
v 0.132629 -0.101117 0.184119
v 0.133357 -0.101555 0.182819
v 0.132670 -0.100425 0.182957
v 0.131929 -0.101857 0.185469
v 0.133232 -0.102809 0.184086
v 0.132037 -0.151547 0.184695
v 0.132320 -0.103098 0.185401
v 0.130982 -0.151222 0.185779
v 0.131708 -0.153125 0.184119
v 0.130730 -0.152827 0.185467
v 0.129816 -0.151650 0.186396
v 0.128602 -0.152742 0.186347
v 0.129546 -0.153806 0.185460
v 0.128596 -0.155078 0.184132
v 0.128285 -0.154092 0.185498
v 0.130285 -0.154499 0.184119
v 0.129846 -0.155228 0.182819
v 0.130976 -0.154540 0.182957
v 0.132264 -0.153132 0.182887
v 0.130565 -0.155190 0.176679
v 0.130848 -0.154716 0.176149
v 0.132068 -0.153472 0.176190
v 0.130362 -0.154112 0.175652
v 0.128783 -0.154881 0.175726
v 0.113281 -0.129715 0.175713
v 0.131886 -0.152437 0.175676
v 0.094525 -0.153793 0.175662
v 0.111926 -0.129678 0.175700
v 0.110309 -0.128967 0.175656
v 0.110619 -0.128636 0.175921
v 0.093806 -0.100776 0.175657
v 0.092398 -0.150908 0.175738
v 0.093157 -0.152489 0.175651
v 0.109443 -0.126304 0.175656
v 0.110465 -0.125205 0.175929
v 0.110027 -0.126448 0.175976
v 0.110240 -0.126733 0.176515
v 0.110178 -0.127604 0.176019
v 0.111074 -0.128601 0.176527
v 0.111509 -0.128954 0.176458
v 0.112187 -0.129174 0.176455
v 0.113108 -0.129210 0.176478
v 0.113824 -0.129012 0.176438
v 0.113969 -0.129199 0.175968
v 0.114949 -0.128950 0.175697
v 0.115648 -0.127746 0.175681
v 0.115734 -0.126124 0.175705
v 0.114725 -0.128335 0.176244
v 0.114123 -0.129027 0.181012
v 0.114887 -0.128354 0.181062
v 0.114671 -0.129079 0.181313
v 0.114192 -0.132166 0.181373
v 0.114462 -0.132324 0.181669
v 0.112595 -0.132538 0.181642
v 0.110767 -0.132423 0.186510
v 0.109099 -0.131588 0.186538
v 0.109028 -0.131829 0.186762
v 0.107846 -0.130238 0.186514
v 0.107585 -0.130370 0.186787
v 0.095906 -0.150329 0.186787
v 0.106749 -0.128682 0.186769
v 0.106970 -0.128559 0.186538
v 0.106458 -0.126251 0.186775
v 0.096921 -0.102251 0.186777
v 0.107199 -0.123684 0.186799
v 0.108218 -0.122624 0.186688
v 0.110293 -0.120965 0.186791
v 0.113453 -0.120440 0.186798
v 0.129423 -0.102809 0.186779
v 0.116961 -0.122065 0.186774
v 0.128549 -0.151251 0.186780
v 0.118697 -0.124939 0.186776
v 0.118778 -0.126894 0.186697
v 0.118435 -0.125017 0.186456
v 0.118492 -0.126879 0.181660
v 0.118242 -0.124985 0.181646
v 0.117610 -0.123352 0.186501
v 0.118230 -0.126284 0.181370
v 0.116260 -0.122231 0.181636
v 0.114757 -0.121335 0.181650
v 0.116361 -0.121984 0.186515
v 0.114658 -0.121117 0.186543
v 0.112798 -0.120763 0.186526
v 0.115730 -0.126872 0.181320
v 0.117965 -0.128567 0.181364
v 0.118159 -0.128810 0.181678
v 0.118376 -0.128731 0.186483
v 0.116167 -0.131709 0.186526
v 0.117489 -0.130375 0.186512
v 0.116076 -0.131463 0.181652
v 0.116933 -0.130499 0.181415
v 0.114448 -0.132503 0.186544
v 0.112602 -0.132786 0.186505
v 0.111351 -0.132886 0.186777
v 0.113943 -0.132956 0.186792
v 0.116329 -0.131931 0.186781
v 0.118388 -0.129359 0.186742
v 0.129780 -0.101534 0.186372
v 0.096650 -0.100875 0.186367
v 0.094713 -0.151023 0.186379
v 0.096123 -0.151735 0.186570
v 0.093588 -0.150538 0.185772
v 0.094959 -0.102099 0.186134
v 0.093452 -0.151711 0.185404
v 0.092809 -0.152437 0.184119
v 0.094443 -0.152865 0.185454
v 0.092400 -0.150683 0.184490
v 0.093327 -0.102185 0.184610
v 0.092080 -0.151998 0.182819
v 0.092769 -0.153134 0.182949
v 0.091550 -0.151344 0.176752
v 0.091740 -0.150709 0.182752
v 0.092585 -0.102141 0.182771
v 0.093173 -0.100421 0.182887
v 0.092444 -0.101566 0.176657
v 0.093043 -0.101920 0.175852
v 0.093362 -0.100094 0.176186
v 0.093419 -0.099531 0.176964
v 0.094462 -0.099013 0.182957
v 0.093832 -0.100661 0.184564
v 0.095153 -0.099054 0.184119
v 0.095164 -0.100258 0.185475
v 0.096678 -0.099472 0.185471
v 0.129329 -0.100405 0.185772
v 0.130891 -0.102808 0.186340
v 0.096870 -0.098457 0.184109
v 0.095077 -0.099442 0.175651
v 0.091843 -0.151181 0.176158
v 0.092574 -0.153463 0.176968
v 0.092709 -0.153192 0.176203
v 0.093848 -0.154228 0.176187
v 0.094122 -0.154705 0.176798
v 0.094175 -0.154416 0.182888
v 0.094183 -0.153860 0.184119
v 0.095853 -0.154523 0.184086
v 0.095886 -0.153669 0.185330
v 0.128474 -0.155579 0.182795
v 0.095808 -0.154996 0.182695
v 0.128868 -0.155791 0.176872
v 0.128823 -0.155516 0.176184
v 0.095708 -0.154573 0.175861
v 0.095575 -0.155185 0.176676
v 0.115460 -0.124904 0.175637
v 0.114432 -0.124898 0.176267
v 0.133039 -0.102645 0.175738
v 0.132769 -0.151628 0.176173
v 0.133679 -0.102599 0.176226
v 0.132848 -0.100556 0.176150
v 0.133319 -0.100837 0.176679
v 0.132575 -0.099808 0.176932
v 0.131589 -0.099325 0.176187
v 0.129730 -0.098980 0.175861
v 0.133932 -0.102562 0.176931
v 0.133697 -0.102840 0.182752
v 0.132852 -0.151414 0.182773
v 0.132985 -0.152079 0.176769
v 0.132019 -0.154022 0.176964
vn -0.8664 -0.3268 -0.3776
vn -0.7898 0.0849 -0.6075
vn -0.9779 -0.0119 -0.2086
vn -0.9342 0.3474 -0.0813
vn -0.8891 0.4571 0.0228
vn -0.8749 0.1234 0.4684
vn -0.9187 -0.3941 0.0259
vn -0.8933 -0.3295 0.3056
vn -0.5811 -0.7123 0.3937
vn -0.6528 -0.6664 -0.3602
vn -0.2407 -0.2005 0.9497
vn -0.0050 -0.2806 0.9598
vn -0.2426 -0.3982 0.8846
vn -0.5797 -0.4174 0.6998
vn -0.2876 0.0056 0.9577
vn -0.2976 -0.9053 0.3032
vn 0.2472 -0.9041 0.3485
vn 0.2153 -0.9640 -0.1557
vn 0.2006 -0.2266 0.9531
vn 0.1871 -0.4360 0.8803
vn -0.0728 -0.4703 0.8795
vn 0.0052 -0.8938 0.4484
vn -0.3121 -0.8523 0.4197
vn 0.2588 -0.8904 0.3745
vn 0.2309 -0.8884 0.3968
vn 0.0379 -0.9161 0.3991
vn 0.5554 -0.8114 0.1819
vn 0.5219 -0.6998 0.4878
vn 0.7266 -0.5816 0.3658
vn 0.3703 -0.2606 0.8916
vn 0.8289 -0.3132 0.4634
vn 0.5305 -0.0620 0.8454
vn 0.8934 -0.2993 0.3351
vn 0.9426 0.0086 0.3338
vn 0.9072 0.0114 0.4206
vn 0.8833 0.2181 0.4150
vn 0.7736 0.4941 0.3968
vn 0.4357 0.1727 0.8834
vn 0.3358 0.3056 0.8910
vn 0.2955 0.0992 0.9502
vn 0.7355 0.5254 0.4277
vn 0.5322 0.6971 0.4804
vn 0.3261 0.8816 0.3413
vn 0.1370 0.4445 0.8853
vn 0.1709 0.2456 0.9542
vn 0.0078 0.8891 0.4577
vn 0.4072 0.8113 0.4196
vn -0.0011 0.3063 0.9519
vn 0.7861 0.4899 0.3770
vn 0.6536 0.7186 -0.2376
vn 0.9177 0.0371 0.3956
vn 0.9044 0.4069 -0.1287
vn 0.2617 -0.0685 0.9627
vn 0.7965 -0.4236 0.4314
vn 0.5407 -0.7104 0.4506
vn 0.5838 -0.7954 -0.1629
vn 0.8855 -0.4253 -0.1870
vn 0.5244 -0.6625 -0.5349
vn 0.1769 -0.7835 -0.5957
vn -0.2182 -0.8877 -0.4053
vn 0.1499 -0.2426 -0.9585
vn -0.0020 -0.3066 -0.9518
vn -0.1996 -0.2582 -0.9452
vn -0.1736 0.2624 -0.9492
vn 0.1628 0.2998 -0.9400
vn 0.2594 0.1732 -0.9501
vn -0.0639 0.3783 -0.9235
vn 0.0882 0.5752 -0.8132
vn -0.4601 0.6286 -0.6270
vn -0.1197 0.7851 -0.6078
vn -0.4578 0.8587 -0.2302
vn -0.1511 0.9751 -0.1622
vn -0.3682 0.9091 0.1949
vn -0.1089 0.9778 0.1792
vn 0.1648 0.9414 -0.2944
vn 0.1571 0.9660 0.2054
vn 0.4460 0.8726 -0.1991
vn 0.4847 0.8501 0.2060
vn 0.1769 0.8185 0.5466
vn 0.4965 0.7342 0.4631
vn 0.4350 0.5513 0.7119
vn 0.7537 0.4582 0.4711
vn 0.7569 0.6184 0.2111
vn 0.8800 0.1304 0.4566
vn 0.9090 0.3689 0.1940
vn 0.6164 0.3181 0.7203
vn 0.9770 0.1097 0.1829
vn 0.9665 -0.1533 0.2059
vn 0.8160 -0.1731 0.5516
vn 0.7032 0.0748 0.7071
vn 0.5990 -0.1077 0.7935
vn 0.5439 -0.4297 0.7208
vn 0.7345 -0.4951 0.4641
vn 0.3697 -0.1945 0.9086
vn 0.3194 -0.6193 0.7173
vn 0.1340 -0.4105 0.9019
vn 0.0701 -0.6868 0.7234
vn 0.1314 -0.8732 0.4694
vn 0.4594 -0.7529 0.4713
vn 0.3676 -0.9097 0.1935
vn 0.6178 -0.7573 0.2116
vn 0.4577 -0.8588 -0.2302
vn 0.7666 -0.6267 -0.1400
vn 0.8504 -0.4828 0.2092
vn 0.4615 -0.6254 -0.6292
vn 0.3490 -0.1400 -0.9266
vn 0.6677 -0.4444 -0.5972
vn 0.1805 -0.2588 -0.9489
vn 0.0639 -0.3781 -0.9235
vn 0.1170 0.3921 -0.9124
vn -0.0812 0.4006 -0.9126
vn -0.1640 -0.2978 -0.9405
vn 0.1513 0.1245 -0.9806
vn 0.5477 0.4315 -0.7168
vn -0.2866 -0.1828 -0.9405
vn -0.3865 -0.0509 -0.9209
vn -0.2957 0.1629 -0.9413
vn 0.1971 -0.0285 -0.9800
vn 0.8576 0.3194 -0.4031
vn 0.7074 -0.0952 -0.7004
vn 0.7003 -0.4825 -0.5261
vn 0.9863 -0.0036 -0.1647
vn 0.3105 0.5926 -0.7432
vn 0.1974 0.9294 -0.3118
vn -0.1316 0.9555 -0.2642
vn -0.3926 0.7307 -0.5585
vn -0.2171 0.2229 -0.9504
vn -0.4440 0.8712 -0.2095
vn -0.2981 0.0863 -0.9506
vn -0.3197 -0.0684 -0.9450
vn -0.7219 0.5659 -0.3983
vn -0.4229 0.8127 0.4009
vn -0.8034 0.4956 0.3301
vn -0.1944 0.2238 0.9550
vn -0.1166 0.4839 0.8673
vn -0.5438 0.4579 0.7033
vn 0.0240 0.8830 0.4687
vn -0.3009 0.8918 0.3379
vn 0.3298 0.8737 0.3577
vn 0.0206 0.9538 0.2998
vn 0.5496 0.7131 0.4353
vn 0.1972 0.2748 0.9411
vn 0.2735 0.1925 0.9424
vn 0.3176 0.1027 0.9426
vn -0.1544 -0.0671 0.9857
vn 0.8589 0.2597 0.4413
vn 0.3075 -0.0297 0.9511
vn -0.1401 0.1301 0.9815
vn 0.2117 -0.1254 0.9693
vn 0.4929 -0.4136 0.7655
vn 0.0987 -0.2732 0.9569
vn -0.0369 -0.2572 0.9656
vn 0.1332 0.1332 0.9821
vn -0.6409 0.0110 0.7675
vn 0.1254 -0.1263 0.9840
vn -0.3204 -0.1220 0.9394
vn -0.1937 -0.2080 0.9588
vn -0.8913 -0.2732 0.3620
vn -0.9195 0.0360 0.3915
vn -0.8350 -0.2951 0.4644
vn -0.8084 -0.5300 0.2561
vn -0.4848 -0.0564 0.8728
vn -0.5865 -0.7052 0.3983
vn -0.5127 -0.7634 0.3929
vn -0.3501 -0.8964 0.2718
vn -0.4474 0.1395 0.8834
vn -0.8691 0.3527 0.3467
vn -0.9243 0.2685 0.2713
vn -0.7748 0.5996 0.2002
vn -0.5108 0.7385 0.4400
vn -0.5253 0.7239 0.4472
vn -0.2913 0.8607 0.4175
vn -0.0590 0.2892 0.9555
vn 0.0670 0.3188 0.9454
vn -0.1824 0.2708 0.9452
vn -0.2793 0.1535 0.9479
vn 0.1974 0.3816 0.9030
vn -0.1628 0.3957 0.9038
vn -0.5012 0.1570 0.8510
vn -0.3848 -0.1846 0.9043
vn -0.1217 -0.3526 0.9278
vn -0.6319 -0.3198 0.7060
vn -0.4254 -0.5427 0.7242
vn -0.6126 -0.0666 0.7876
vn -0.8476 -0.1165 0.5178
vn -0.8198 0.1411 0.5549
vn -0.7547 -0.4620 0.4658
vn -0.9747 -0.1073 0.1962
vn -0.9093 -0.3644 0.2007
vn -0.9666 0.1571 0.2023
vn -0.7727 -0.6208 -0.1325
vn -0.7563 -0.6193 0.2107
vn -0.9524 -0.2134 -0.2176
vn -0.9315 0.2121 -0.2957
vn -0.8471 0.4852 0.2169
vn -0.7503 -0.1447 -0.6450
vn -0.5689 0.0793 -0.8186
vn -0.6792 0.4391 -0.5881
vn -0.7696 0.6234 -0.1384
vn -0.6207 0.7535 0.2167
vn -0.7197 0.4384 0.5383
vn -0.4589 0.5128 0.7256
vn -0.4579 0.7546 0.4700
vn -0.1504 0.6818 0.7159
vn 0.1087 0.6058 0.7882
vn 0.4185 0.1314 0.8986
vn -0.1228 0.8786 0.4615
vn -0.6470 -0.4818 -0.5910
vn -0.4543 -0.6564 -0.6023
vn -0.4555 -0.8681 -0.1972
vn -0.4881 -0.8485 0.2042
vn -0.4886 -0.7346 0.4707
vn -0.1599 -0.8796 0.4481
vn -0.1514 -0.6912 0.7066
vn -0.1634 -0.9708 0.1755
vn 0.1052 -0.9759 0.1911
vn -0.1646 -0.9413 -0.2948
vn 0.1509 -0.9752 -0.1622
vn 0.1198 -0.7850 -0.6077
vn -0.0883 -0.5752 -0.8132
vn -0.0266 -0.0403 -0.9988
vn 0.3983 0.0635 -0.9151
vn 0.7602 -0.0944 -0.6427
vn 0.8038 0.1193 -0.5829
vn 0.6259 0.4516 -0.6358
vn 0.8650 0.4430 -0.2355
vn 0.7041 0.6951 -0.1450
vn 0.4479 0.6556 -0.6079
vn 0.9783 0.1496 -0.1433
vn 0.9465 -0.2436 -0.2116
s 1
f 4//1 2//2 1//3
f 5//4 1//3 2//2
f 1//3 3//5 6//6
f 5//4 3//5 1//3
f 1//3 7//7 4//1
f 6//6 7//7 1//3
f 9//8 7//7 6//6
f 7//7 8//9 217//10
f 4//1 7//7 217//10
f 8//9 7//7 9//8
f 8//9 9//8 10//11
f 13//12 10//11 11//13
f 10//11 12//14 11//13
f 157//15 12//14 10//11
f 14//16 10//11 13//12
f 14//16 8//9 10//11
f 15//17 14//16 13//12
f 15//17 52//18 14//16
f 16//19 15//17 13//12
f 16//19 13//12 17//20
f 13//12 18//21 17//20
f 13//12 11//13 18//21
f 19//22 17//20 18//21
f 153//23 19//22 18//21
f 19//22 20//24 17//20
f 19//22 21//25 20//24
f 156//26 21//25 19//22
f 22//27 23//28 21//25
f 21//25 23//28 20//24
f 22//27 24//29 23//28
f 20//24 23//28 17//20
f 23//28 26//30 17//20
f 23//28 24//29 26//30
f 24//29 25//31 26//30
f 25//31 27//32 26//30
f 24//29 28//33 25//31
f 30//34 28//33 29//35
f 25//31 28//33 30//34
f 30//34 31//36 27//32
f 27//32 25//31 30//34
f 29//35 31//36 30//34
f 31//36 32//37 33//38
f 27//32 31//36 33//38
f 35//39 34//40 33//38
f 33//38 32//37 35//39
f 131//41 36//42 32//37
f 32//37 36//42 35//39
f 36//42 37//43 41//44
f 36//42 41//44 35//39
f 35//39 41//44 42//45
f 40//46 38//47 42//45
f 41//44 39//48 42//45
f 40//46 42//45 39//48
f 35//39 42//45 34//40
f 43//49 34//40 42//45
f 38//47 43//49 42//45
f 38//47 112//50 43//49
f 44//51 43//49 45//52
f 43//49 44//51 34//40
f 43//49 112//50 45//52
f 44//51 46//53 34//40
f 47//54 46//53 44//51
f 33//38 34//40 46//53
f 33//38 46//53 27//32
f 47//54 48//55 16//19
f 47//54 16//19 46//53
f 48//55 15//17 16//19
f 15//17 48//55 52//18
f 52//18 48//55 50//56
f 48//55 47//54 49//57
f 48//55 49//57 50//56
f 52//18 50//56 51//58
f 52//18 51//58 53//59
f 54//60 52//18 53//59
f 53//59 56//61 57//62
f 54//60 53//59 57//62
f 54//60 57//62 55//63
f 57//62 200//64 58//65
f 57//62 56//61 200//64
f 55//63 57//62 58//65
f 55//63 58//65 59//66
f 60//67 225//68 58//65
f 200//64 60//67 58//65
f 60//67 63//69 62//70
f 60//67 62//70 225//68
f 60//67 200//64 63//69
f 62//70 63//69 61//71
f 66//72 61//71 64//73
f 62//70 61//71 66//72
f 66//72 64//73 65//74
f 66//72 65//74 67//75
f 62//70 66//72 67//75
f 65//74 68//76 67//75
f 69//77 67//75 68//76
f 69//77 68//76 70//78
f 71//79 70//78 68//76
f 71//79 72//80 70//78
f 71//79 73//81 72//80
f 73//81 74//82 72//80
f 72//80 76//83 70//78
f 72//80 74//82 76//83
f 74//82 78//84 75//85
f 74//82 75//85 76//83
f 73//81 77//86 74//82
f 77//86 78//84 74//82
f 78//84 227//87 75//85
f 228//88 227//87 78//84
f 79//89 228//88 78//84
f 79//89 78//84 80//90
f 77//86 80//90 78//84
f 81//91 79//89 80//90
f 81//91 83//92 79//89
f 79//89 83//92 82//93
f 84//94 86//95 83//92
f 84//94 83//92 81//91
f 85//96 88//97 86//95
f 84//94 85//96 86//95
f 86//95 87//98 89//99
f 86//95 88//97 87//98
f 83//92 86//95 89//99
f 89//99 87//98 90//100
f 83//92 89//99 82//93
f 82//93 89//99 91//101
f 89//99 90//100 91//101
f 93//102 230//103 91//101
f 230//103 92//104 91//101
f 93//102 91//101 90//100
f 82//93 91//101 92//104
f 93//102 94//105 230//103
f 99//106 95//107 94//105
f 99//106 94//105 96//108
f 95//107 230//103 94//105
f 97//109 96//108 94//105
f 96//108 101//110 98//111
f 96//108 98//111 99//106
f 96//108 97//109 100//112
f 96//108 100//112 101//110
f 100//112 102//113 101//110
f 103//114 101//110 102//113
f 100//112 106//115 102//113
f 106//115 105//116 104//117
f 106//115 104//117 107//118
f 106//115 107//118 102//113
f 107//118 103//114 102//113
f 111//119 103//114 107//118
f 111//119 107//118 109//120
f 107//118 104//117 56//61
f 108//121 107//118 56//61
f 108//121 109//120 107//118
f 51//58 108//121 56//61
f 50//56 108//121 51//58
f 49//57 109//120 108//121
f 50//56 49//57 108//121
f 109//120 49//57 110//122
f 45//52 111//119 109//120
f 45//52 109//120 110//122
f 111//119 112//50 103//114
f 45//52 112//50 111//119
f 112//50 113//123 103//114
f 112//50 114//124 113//123
f 103//114 113//123 101//110
f 113//123 114//124 101//110
f 114//124 115//125 98//111
f 114//124 98//111 101//110
f 115//125 117//126 98//111
f 117//126 118//127 98//111
f 115//125 116//128 117//126
f 99//106 118//127 119//129
f 99//106 98//111 118//127
f 99//106 119//129 59//66
f 119//129 120//130 59//66
f 119//129 2//2 120//130
f 121//131 2//2 119//129
f 121//131 119//129 118//127
f 5//4 2//2 121//131
f 121//131 3//5 5//4
f 117//126 121//131 118//127
f 116//128 121//131 117//126
f 116//128 122//132 121//131
f 122//132 3//5 121//131
f 115//125 122//132 116//128
f 123//133 3//5 122//132
f 122//132 115//125 40//46
f 40//46 115//125 114//124
f 122//132 40//46 39//48
f 123//133 122//132 124//134
f 125//135 124//134 39//48
f 122//132 39//48 124//134
f 125//135 164//136 124//134
f 127//137 126//138 125//135
f 41//44 127//137 125//135
f 41//44 125//135 39//48
f 37//43 127//137 41//44
f 128//139 127//137 37//43
f 166//140 127//137 128//139
f 129//141 128//139 36//42
f 36//42 128//139 37//43
f 130//142 128//139 129//141
f 131//41 130//142 129//141
f 132//143 130//142 131//41
f 134//144 132//143 131//41
f 134//144 133//145 132//143
f 132//143 133//145 130//142
f 134//144 131//41 135//146
f 136//147 133//145 134//144
f 134//144 29//35 136//147
f 137//148 133//145 136//147
f 137//148 136//147 138//149
f 138//149 136//147 28//33
f 136//147 29//35 28//33
f 139//150 138//149 28//33
f 139//150 24//29 22//27
f 28//33 24//29 139//150
f 140//151 139//150 22//27
f 139//150 140//151 137//148
f 137//148 138//149 139//150
f 21//25 140//151 22//27
f 141//152 140//151 21//25
f 140//151 141//152 137//148
f 141//152 21//25 156//26
f 137//148 141//152 142//153
f 146//154 144//155 142//153
f 145//156 146//154 142//153
f 141//152 143//157 142//153
f 143//157 145//156 142//153
f 145//156 147//158 146//154
f 146//154 147//158 148//159
f 148//159 147//158 149//160
f 147//158 150//161 149//160
f 151//162 149//160 12//14
f 149//160 150//161 12//14
f 12//14 150//161 152//163
f 12//14 152//163 11//13
f 152//163 153//23 11//13
f 154//164 152//163 150//161
f 154//164 155//165 152//163
f 152//163 155//165 153//23
f 155//165 19//22 153//23
f 156//26 19//22 155//165
f 155//165 141//152 156//26
f 143//157 141//152 155//165
f 143//157 155//165 154//164
f 143//157 154//164 150//161
f 145//156 150//161 147//158
f 145//156 143//157 150//161
f 11//13 153//23 18//21
f 157//15 151//162 12//14
f 157//15 158//166 151//162
f 158//166 159//167 148//159
f 151//162 158//166 148//159
f 159//167 160//168 148//159
f 162//169 160//168 159//167
f 148//159 160//168 146//154
f 161//170 162//169 163//171
f 163//171 162//169 164//136
f 164//136 162//169 159//167
f 164//136 159//167 158//166
f 164//136 158//166 124//134
f 125//135 163//171 164//136
f 126//138 163//171 125//135
f 165//172 163//171 126//138
f 161//170 163//171 165//172
f 166//140 165//172 127//137
f 127//137 165//172 126//138
f 168//173 165//172 166//140
f 167//174 168//173 166//140
f 128//139 167//174 166//140
f 167//174 133//145 168//173
f 130//142 167//174 128//139
f 130//142 133//145 167//174
f 133//145 144//155 168//173
f 168//173 144//155 169//175
f 168//173 169//175 165//172
f 165//172 169//175 161//170
f 169//175 162//169 161//170
f 169//175 144//155 170//176
f 169//175 170//176 162//169
f 162//169 170//176 160//168
f 170//176 146//154 160//168
f 170//176 144//155 146//154
f 124//134 158//166 157//15
f 157//15 123//133 124//134
f 6//6 123//133 157//15
f 6//6 3//5 123//133
f 148//159 149//160 151//162
f 142//153 171//177 172//178
f 142//153 172//178 137//148
f 137//148 172//178 176//179
f 137//148 176//179 133//145
f 176//179 173//180 133//145
f 174//181 133//145 173//180
f 173//180 177//182 179//183
f 173//180 175//184 177//182
f 174//181 173//180 179//183
f 175//184 180//185 177//182
f 181//186 180//185 175//184
f 176//179 181//186 175//184
f 176//179 175//184 173//180
f 179//183 177//182 178//187
f 177//182 180//185 178//187
f 180//185 185//188 182//189
f 186//190 185//188 180//185
f 181//186 186//190 180//185
f 178//187 180//185 182//189
f 202//191 183//192 182//189
f 184//193 202//191 182//189
f 184//193 182//189 185//188
f 178//187 182//189 183//192
f 184//193 185//188 186//190
f 188//194 186//190 187//195
f 184//193 186//190 188//194
f 201//196 184//193 188//194
f 201//196 188//194 189//197
f 189//197 188//194 190//198
f 104//117 190//198 63//69
f 189//197 190//198 104//117
f 190//198 191//199 63//69
f 190//198 188//194 191//199
f 191//199 188//194 187//195
f 191//199 187//195 192//200
f 193//201 192//200 187//195
f 195//202 194//203 193//201
f 193//201 194//203 192//200
f 181//186 193//201 187//195
f 176//179 193//201 181//186
f 176//179 195//202 193//201
f 176//179 172//178 195//202
f 172//178 196//204 195//202
f 197//205 196//204 172//178
f 197//205 71//79 196//204
f 171//177 197//205 172//178
f 197//205 73//81 71//79
f 171//177 73//81 197//205
f 171//177 77//86 73//81
f 198//206 80//90 77//86
f 171//177 198//206 77//86
f 81//91 80//90 198//206
f 84//94 81//91 198//206
f 142//153 198//206 171//177
f 84//94 198//206 142//153
f 195//202 196//204 194//203
f 196//204 199//207 194//203
f 71//79 199//207 196//204
f 194//203 199//207 64//73
f 199//207 65//74 64//73
f 68//76 65//74 199//207
f 71//79 68//76 199//207
f 194//203 64//73 192//200
f 61//71 191//199 192//200
f 61//71 192//200 64//73
f 61//71 63//69 191//199
f 105//116 189//197 104//117
f 104//117 63//69 200//64
f 105//116 201//196 189//197
f 105//116 106//115 201//196
f 106//115 203//208 201//196
f 203//208 184//193 201//196
f 203//208 202//191 184//193
f 100//112 204//209 203//208
f 100//112 203//208 106//115
f 204//209 202//191 203//208
f 204//209 205//210 202//191
f 202//191 205//210 206//211
f 207//212 183//192 206//211
f 202//191 206//211 183//192
f 179//183 178//187 207//212
f 207//212 178//187 183//192
f 208//213 207//212 206//211
f 209//214 207//212 208//213
f 209//214 179//183 207//212
f 209//214 208//213 87//98
f 209//214 87//98 88//97
f 174//181 179//183 209//214
f 174//181 209//214 88//97
f 208//213 206//211 211//215
f 208//213 211//215 210//216
f 208//213 210//216 87//98
f 87//98 210//216 90//100
f 211//215 215//217 210//216
f 212//218 90//100 210//216
f 215//217 212//218 210//216
f 213//219 212//218 215//217
f 213//219 215//217 214//220
f 213//219 94//105 93//102
f 213//219 93//102 212//218
f 97//109 213//219 214//220
f 97//109 94//105 213//219
f 214//220 204//209 100//112
f 97//109 214//220 100//112
f 214//220 215//217 204//209
f 215//217 205//210 204//209
f 205//210 215//217 211//215
f 212//218 93//102 90//100
f 205//210 211//215 206//211
f 181//186 187//195 186//190
f 174//181 88//97 85//96
f 133//145 174//181 144//155
f 174//181 85//96 144//155
f 144//155 85//96 84//94
f 144//155 84//94 142//153
f 134//144 135//146 29//35
f 135//146 31//36 29//35
f 135//146 131//41 31//36
f 129//141 36//42 131//41
f 120//130 216//221 59//66
f 120//130 55//63 216//221
f 4//1 120//130 2//2
f 4//1 55//63 120//130
f 4//1 217//10 55//63
f 217//10 54//60 55//63
f 217//10 8//9 54//60
f 8//9 14//16 54//60
f 216//221 55//63 59//66
f 38//47 114//124 112//50
f 40//46 114//124 38//47
f 49//57 47//54 110//122
f 44//51 45//52 110//122
f 110//122 47//54 44//51
f 56//61 104//117 200//64
f 59//66 218//222 99//106
f 99//106 219//223 95//107
f 218//222 219//223 99//106
f 218//222 220//224 219//223
f 218//222 221//225 220//224
f 220//224 221//225 222//226
f 218//222 59//66 221//225
f 222//226 76//83 75//85
f 222//226 221//225 223//227
f 222//226 223//227 76//83
f 223//227 69//77 70//78
f 224//228 69//77 223//227
f 223//227 70//78 76//83
f 224//228 223//227 221//225
f 67//75 69//77 224//228
f 58//65 224//228 221//225
f 225//68 224//228 58//65
f 225//68 67//75 224//228
f 62//70 67//75 225//68
f 58//65 221//225 59//66
f 220//224 222//226 226//229
f 226//229 222//226 75//85
f 226//229 75//85 227//87
f 228//88 226//229 227//87
f 228//88 229//230 226//229
f 229//230 228//88 92//104
f 230//103 229//230 92//104
f 95//107 229//230 230//103
f 219//223 229//230 95//107
f 79//89 82//93 92//104
f 79//89 92//104 228//88
f 220//224 229//230 219//223
f 220//224 226//229 229//230
f 53//59 51//58 56//61
f 14//16 52//18 54//60
f 27//32 46//53 26//30
f 46//53 16//19 26//30
f 31//36 131//41 32//37
f 26//30 16//19 17//20
f 9//8 6//6 157//15
f 9//8 157//15 10//11
