# Blender 3.3.8
# www.blender.org
o Weight_center1_vis
v 0.097150 0.000000 0.176419
v 0.097243 -0.000896 0.176246
v 0.097236 0.000821 0.176284
v 0.096970 -0.000188 0.181038
v 0.097370 -0.001145 0.178804
v 0.097370 0.001145 0.178804
v 0.097828 -0.002040 0.175962
v 0.098015 -0.001869 0.176589
v 0.098993 -0.002592 0.176045
v 0.098303 -0.002930 0.175647
v 0.081932 -0.027357 0.175669
v 0.099946 -0.003160 0.175658
v 0.096860 -0.001475 0.175686
v 0.096423 0.000624 0.175647
v 0.080015 0.025316 0.175675
v 0.096806 0.000332 0.175862
v 0.097352 0.002130 0.175693
v 0.097476 0.001526 0.176095
v 0.098331 0.002399 0.175964
v 0.099011 0.002420 0.176449
v 0.099019 0.002934 0.175710
v 0.100370 0.003008 0.175668
v 0.083072 0.027815 0.175726
v 0.081507 0.027020 0.175653
v 0.117333 0.027355 0.175669
v 0.118734 0.026052 0.175650
v 0.118982 -0.025671 0.175651
v 0.119522 0.024487 0.175738
v 0.102788 0.000685 0.175651
v 0.101906 0.002035 0.175713
v 0.101370 0.001882 0.176190
v 0.102165 0.000866 0.176010
v 0.102110 -0.000000 0.176515
v 0.101923 0.000975 0.176524
v 0.102284 0.000061 0.181030
v 0.102030 0.001148 0.181046
v 0.100274 0.002577 0.181005
v 0.100810 0.002195 0.176501
v 0.101325 0.002027 0.180990
v 0.102398 0.001054 0.181319
v 0.101591 0.002219 0.181319
v 0.099912 0.002972 0.181315
v 0.103599 0.003780 0.181357
v 0.103065 0.004616 0.181597
v 0.101525 0.005500 0.181689
v 0.101328 0.005277 0.181365
v 0.103165 0.004875 0.186538
v 0.099654 0.005763 0.181642
v 0.101483 0.005680 0.186510
v 0.100891 0.006132 0.186777
v 0.103233 0.005117 0.186762
v 0.104701 0.003683 0.186787
v 0.115917 0.024230 0.186780
v 0.083394 0.024214 0.186780
v 0.105567 0.002010 0.186769
v 0.115901 -0.024199 0.186777
v 0.105900 -0.000415 0.186775
v 0.097802 0.005694 0.186544
v 0.099642 0.006011 0.186505
v 0.098298 0.006157 0.186792
v 0.096097 0.004870 0.186526
v 0.095931 0.005090 0.186781
v 0.094799 0.003514 0.186512
v 0.094562 0.003683 0.186787
v 0.093679 0.001896 0.186764
v 0.093941 0.001854 0.186483
v 0.093571 0.000010 0.186697
v 0.083343 -0.024233 0.186780
v 0.093687 -0.001943 0.186776
v 0.094801 -0.003511 0.186501
v 0.096074 -0.004856 0.186515
v 0.095473 -0.004786 0.186774
v 0.099659 -0.006014 0.186526
v 0.097792 -0.005694 0.186543
v 0.097690 -0.005477 0.181650
v 0.101474 -0.005693 0.186546
v 0.101520 -0.005497 0.181667
v 0.099633 -0.005759 0.181631
v 0.098861 -0.005457 0.181366
v 0.101790 -0.005100 0.181345
v 0.100464 -0.002901 0.181330
v 0.099259 -0.002898 0.181294
v 0.101588 -0.002207 0.181313
v 0.100417 -0.002531 0.181073
v 0.101419 -0.001998 0.181048
v 0.102104 -0.001043 0.181090
v 0.102581 -0.000711 0.181326
v 0.104163 -0.003148 0.181364
v 0.105174 -0.000506 0.181373
v 0.105107 -0.001927 0.181633
v 0.104246 -0.003440 0.181642
v 0.105312 -0.001889 0.186481
v 0.105610 0.000000 0.186519
v 0.105414 0.000000 0.181710
v 0.105135 0.001691 0.181625
v 0.104746 0.002098 0.181363
v 0.104515 0.003159 0.181685
v 0.105348 0.001884 0.186538
v 0.104442 0.003547 0.186514
v 0.105205 -0.002994 0.186799
v 0.103790 -0.004619 0.186773
v 0.104493 -0.003557 0.186600
v 0.102159 -0.005768 0.186791
v 0.103173 -0.004858 0.186507
v 0.103080 -0.004609 0.181602
v 0.099010 -0.006349 0.186798
v 0.101924 -0.001058 0.176284
v 0.102333 -0.000280 0.175972
v 0.101236 -0.001873 0.176622
v 0.101345 -0.002003 0.176092
v 0.100263 -0.002421 0.176445
v 0.100240 -0.002618 0.176006
v 0.099032 -0.002396 0.176584
v 0.101380 -0.002575 0.175698
v 0.102376 -0.001462 0.175691
v 0.099627 -0.002670 0.181041
v 0.098431 -0.002380 0.181035
v 0.097662 -0.002215 0.181320
v 0.096902 -0.004799 0.181363
v 0.095166 -0.003433 0.181423
v 0.094127 -0.000591 0.181372
v 0.096172 -0.004607 0.181636
v 0.094141 -0.001889 0.181646
v 0.093947 -0.001860 0.186456
v 0.093858 0.000000 0.181660
v 0.094354 0.001697 0.181365
v 0.094156 0.001937 0.181678
v 0.095350 0.003643 0.181414
v 0.098063 0.005365 0.181375
v 0.096192 0.004626 0.181652
v 0.097791 0.005515 0.181669
v 0.097870 0.002468 0.181328
v 0.098894 0.002531 0.181048
v 0.097924 0.002063 0.181075
v 0.097105 0.000928 0.181074
v 0.096833 0.001010 0.181322
v 0.096699 -0.000700 0.181324
v 0.097430 -0.001510 0.181052
v 0.100232 0.002488 0.176227
v 0.099614 0.002677 0.181066
v 0.083315 -0.026209 0.186106
v 0.081852 -0.025716 0.185906
v 0.082161 -0.027400 0.184642
v 0.083280 -0.027825 0.184508
v 0.080934 -0.026642 0.184514
v 0.080158 -0.026709 0.182974
v 0.081592 -0.027975 0.182862
v 0.080185 -0.025405 0.184651
v 0.079545 -0.024327 0.184086
v 0.080436 -0.024007 0.185392
v 0.079807 0.024245 0.184609
v 0.081427 0.024346 0.186129
v 0.082023 -0.024541 0.186376
v 0.083072 0.025489 0.186403
v 0.083150 0.026594 0.185792
v 0.116039 0.026240 0.186076
v 0.083341 0.027772 0.184621
v 0.081808 0.027280 0.184594
v 0.081468 0.026068 0.185460
v 0.080313 0.025795 0.184591
v 0.079623 0.026005 0.182887
v 0.079066 0.024277 0.182773
v 0.079852 0.026900 0.176964
v 0.079443 -0.025583 0.182819
v 0.079081 -0.024305 0.182752
v 0.078850 -0.024587 0.176931
v 0.079102 -0.024545 0.176226
v 0.078920 0.024940 0.176768
v 0.079145 0.024492 0.176173
v 0.079741 -0.024487 0.175738
v 0.079813 0.026348 0.176190
v 0.081011 0.027614 0.176149
v 0.081285 0.028093 0.176679
v 0.082004 0.028143 0.182819
v 0.080886 0.027436 0.182957
v 0.083369 0.028519 0.182795
v 0.082971 0.028724 0.176872
v 0.116040 0.028514 0.182695
v 0.117683 0.027963 0.182888
v 0.115923 0.027848 0.184492
v 0.117458 0.027299 0.184563
v 0.119084 0.026009 0.184119
v 0.117882 0.025980 0.185472
v 0.119111 0.026707 0.182950
v 0.119301 0.027038 0.176968
v 0.119820 0.025582 0.182819
v 0.119978 0.025865 0.176745
v 0.120183 0.024299 0.182752
v 0.119475 0.024406 0.184556
v 0.119540 -0.024907 0.184262
v 0.118295 0.024413 0.185781
v 0.118681 -0.024494 0.185478
v 0.117925 -0.025936 0.185472
v 0.118464 -0.026787 0.184119
v 0.116020 -0.026165 0.186127
v 0.117232 -0.024474 0.186391
v 0.117167 0.024541 0.186395
v 0.115860 -0.027824 0.184560
v 0.117259 -0.028143 0.182819
v 0.117148 -0.027373 0.184648
v 0.118386 -0.027429 0.182974
v 0.117978 -0.028093 0.176679
v 0.118252 -0.027614 0.176149
v 0.116242 -0.028450 0.176184
v 0.116294 -0.028724 0.176873
v 0.083115 -0.028093 0.175861
v 0.081250 -0.027781 0.176187
v 0.116191 -0.027815 0.175726
v 0.117751 -0.027018 0.175650
v 0.119458 -0.026336 0.176186
v 0.119744 -0.024505 0.175852
v 0.120414 0.024546 0.176814
v 0.120072 0.024769 0.176158
v 0.119170 0.026765 0.176203
v 0.118013 0.027781 0.176187
v 0.117731 0.028253 0.176798
v 0.116270 0.028707 0.176676
v 0.116148 0.028093 0.175861
v 0.083021 0.028450 0.176184
v 0.120198 -0.024276 0.182771
v 0.120349 -0.024848 0.176657
v 0.119653 -0.025993 0.182861
v 0.119411 -0.026900 0.176964
v 0.079969 -0.026573 0.176149
v 0.080575 -0.026073 0.175647
v 0.079493 -0.026300 0.176679
v 0.080256 -0.027316 0.176931
v 0.081534 -0.028254 0.176800
v 0.083273 -0.028512 0.182787
v 0.115953 -0.028520 0.182711
v 0.082993 -0.028707 0.176676
v 0.097981 0.001874 0.176438
vn 0.8936 -0.3491 -0.2821
vn 0.9689 0.0254 -0.2462
vn 0.6678 -0.0562 -0.7422
vn 0.9063 0.4199 0.0475
vn 0.8640 0.3090 -0.3974
vn 0.9075 -0.4187 0.0339
vn 0.9212 0.0216 0.3884
vn 0.2682 0.1427 -0.9527
vn 0.5324 0.5853 -0.6115
vn 0.6441 0.7494 -0.1536
vn 0.1751 0.7702 -0.6133
vn -0.0187 0.2696 -0.9628
vn 0.1076 0.2273 -0.9679
vn 0.2308 0.9609 -0.1528
vn 0.1778 -0.2602 -0.9491
vn -0.1573 -0.3057 -0.9391
vn -0.2563 -0.1784 -0.9500
vn 0.1734 -0.0381 -0.9841
vn -0.3510 0.1338 -0.9267
vn 0.2124 -0.1867 -0.9592
vn 0.6706 -0.4090 -0.6190
vn 0.4089 -0.7219 -0.5582
vn 0.6584 -0.7287 -0.1881
vn 0.2447 -0.9307 -0.2719
vn 0.0703 -0.4061 -0.9111
vn -0.1852 0.2561 -0.9487
vn -0.0800 -0.3198 -0.9441
vn -0.0705 0.3764 -0.9238
vn 0.1584 0.3047 -0.9392
vn 0.0779 0.5766 -0.8133
vn 0.2821 0.1879 -0.9408
vn 0.3860 0.0578 -0.9207
vn 0.2952 -0.1580 -0.9423
vn -0.2354 -0.0422 -0.9710
vn -0.2499 -0.2098 -0.9453
vn -0.6197 -0.6767 -0.3976
vn -0.7228 -0.2667 -0.6376
vn -0.7933 0.0963 -0.6011
vn -0.9109 -0.3919 -0.1292
vn -0.9877 -0.0179 -0.1554
vn -0.9212 -0.0451 0.3865
vn -0.8013 -0.4178 0.4282
vn -0.5851 -0.7077 0.3960
vn -0.4686 -0.8829 0.0292
vn -0.2532 -0.8896 0.3801
vn -0.3051 -0.1113 0.9458
vn -0.2291 -0.2548 0.9395
vn -0.3298 -0.3113 0.8913
vn -0.1293 -0.4461 0.8856
vn -0.0225 -0.3234 0.9460
vn -0.4324 -0.1800 0.8835
vn -0.7647 -0.5077 0.3968
vn -0.5199 -0.7064 0.4802
vn -0.3104 -0.8871 0.3415
vn -0.3143 -0.8794 0.3577
vn -0.5369 -0.7227 0.4353
vn -0.0037 -0.9540 0.2999
vn -0.0083 -0.8833 0.4688
vn -0.0614 -0.3197 0.9455
vn -0.1922 -0.2781 0.9411
vn 0.1290 0.1502 0.9802
vn -0.2698 -0.1973 0.9425
vn -0.1424 0.1235 0.9821
vn 0.0641 -0.2880 0.9555
vn -0.3078 0.0243 0.9511
vn -0.3155 -0.1083 0.9427
vn 0.1239 -0.1444 0.9817
vn 0.3065 -0.8554 0.4175
vn 0.1914 -0.2681 0.9442
vn 0.5238 -0.7294 0.4401
vn 0.2693 -0.1977 0.9426
vn 0.7329 -0.5274 0.4298
vn 0.3068 -0.1146 0.9448
vn 0.8762 -0.2891 0.3855
vn 0.6413 0.0002 0.7673
vn 0.3182 0.1277 0.9394
vn 0.8863 0.2889 0.3620
vn -0.1303 -0.1486 0.9803
vn 0.7989 0.5442 0.2561
vn 0.1900 0.2114 0.9588
vn 0.4991 0.7723 0.3930
vn 0.5742 0.7153 0.3983
vn 0.0324 0.2579 0.9656
vn 0.3342 0.9025 0.2718
vn -0.0541 0.9153 0.3992
vn 0.2969 0.8577 0.4197
vn -0.0210 0.8936 0.4483
vn -0.2466 0.8842 0.3968
vn -0.2745 0.8854 0.3751
vn -0.1927 0.4305 0.8818
vn 0.0627 0.4720 0.8794
vn -0.0690 0.2499 0.9658
vn -0.2268 0.2500 0.9413
vn 0.0455 0.3390 0.9397
vn -0.2750 0.8270 0.4904
vn -0.0415 0.9346 0.3532
vn -0.6013 0.6782 0.4225
vn -0.6410 0.7590 -0.1144
vn -0.8039 0.3891 0.4499
vn -0.2607 0.0670 0.9631
vn -0.3756 0.2541 0.8913
vn -0.5336 0.0532 0.8440
vn -0.8339 0.2983 0.4643
vn -0.7371 0.5693 0.3640
vn -0.9003 0.2791 0.3341
vn -0.9424 -0.0254 0.3334
vn -0.9068 -0.0274 0.4206
vn -0.8793 -0.2336 0.4150
vn -0.7261 -0.5384 0.4277
vn -0.8542 -0.2749 0.4413
vn -0.2351 0.1400 0.9618
vn -0.7164 0.5501 0.4292
vn -0.2565 0.2498 0.9337
vn -0.5484 0.7654 0.3369
vn -0.1113 0.2717 0.9559
vn -0.5345 0.6906 0.4873
vn -0.8405 0.3837 -0.3825
vn -0.5297 0.6194 -0.5794
vn -0.2450 0.9492 -0.1974
vn -0.1821 0.7445 -0.6423
vn -0.1507 0.2506 -0.9563
vn -0.2992 0.1428 -0.9435
vn 0.4161 0.8447 0.3366
vn 0.7670 0.5120 0.3869
vn 0.2153 0.2288 0.9494
vn 0.2762 0.0756 0.9581
vn 0.5706 0.4276 0.7011
vn 0.2370 0.4022 0.8843
vn 0.4859 0.0642 0.8716
vn 0.8298 0.3098 0.4642
vn 0.9199 -0.0198 0.3916
vn 0.4475 -0.1321 0.8845
vn 0.8753 -0.3373 0.3465
vn 0.5501 -0.4450 0.7067
vn 0.5380 -0.7143 0.4475
vn 0.1261 -0.4823 0.8669
vn 0.3168 -0.8864 0.3375
vn 0.1620 -0.2218 0.9615
vn 0.2358 -0.8983 0.3707
vn 0.5887 -0.6447 0.4876
vn 0.8276 -0.3094 0.4684
vn 0.2893 -0.1078 0.9512
vn -0.2161 -0.8965 -0.3868
vn 0.0640 -0.5348 0.8426
vn -0.1245 -0.5215 0.8441
vn 0.1461 -0.5062 0.8500
vn -0.3952 -0.1661 0.9035
vn -0.4269 -0.4190 0.8014
vn -0.3509 -0.7478 0.5636
vn -0.6014 -0.6003 0.5273
vn -0.1214 -0.8346 0.5373
vn -0.7474 -0.3547 0.5617
vn -0.7506 -0.6220 0.2228
vn -0.4691 -0.8574 0.2118
vn -0.6854 -0.0997 0.7214
vn -0.8863 -0.1329 0.4436
vn -0.8228 0.1274 0.5539
vn -0.5053 0.1447 0.8507
vn -0.7270 0.4268 0.5379
vn -0.4836 0.4677 0.7399
vn -0.1805 0.3670 0.9125
vn 0.1460 0.5227 0.8399
vn -0.1512 0.5964 0.7883
vn 0.3666 0.1831 0.9122
vn 0.5126 0.4611 0.7243
vn 0.4259 0.7268 0.5388
vn 0.1231 0.8368 0.5335
vn -0.1245 0.8304 0.5431
vn -0.4295 0.7292 0.5328
vn -0.6279 0.7449 0.2255
vn -0.8550 0.4705 0.2184
vn -0.9507 0.2268 -0.2116
vn -0.9691 0.1395 0.2034
vn -0.7776 0.6130 -0.1400
vn -0.9749 -0.1270 0.1829
vn -0.8978 -0.3911 0.2024
vn -0.9755 -0.1669 -0.1433
vn -0.8571 -0.4583 -0.2355
vn -0.8015 -0.1335 -0.5829
vn -0.7618 0.0810 -0.6427
vn -0.6178 -0.4627 -0.6358
vn -0.3967 -0.0705 -0.9153
vn -0.6755 0.4324 -0.5973
vn -0.4725 0.6171 -0.6292
vn -0.4729 0.8505 -0.2301
vn -0.3813 0.9016 0.2044
vn -0.1242 0.9702 0.2079
vn -0.1681 0.9723 -0.1622
vn 0.1462 0.9708 0.1901
vn 0.1480 0.9440 -0.2948
vn 0.4730 0.8543 0.2153
vn 0.7436 0.4741 0.4715
vn 0.7415 0.6354 0.2157
vn 0.7445 0.6553 -0.1282
vn 0.9036 0.3806 0.1967
vn 0.9713 0.1377 -0.1940
vn 0.8838 0.4035 -0.2369
vn 0.9722 0.1248 0.1982
vn 0.8287 0.1570 0.5372
vn 0.9719 -0.1250 0.1995
vn 0.8413 -0.2367 0.4861
vn 0.6077 0.1474 0.7804
vn 0.6747 -0.1519 0.7223
vn 0.5138 -0.4620 0.7229
vn 0.6399 -0.6148 0.4612
vn 0.3615 -0.7450 0.5606
vn 0.3850 -0.1690 0.9073
vn 0.1137 -0.8318 0.5433
vn 0.3843 -0.8994 0.2085
vn 0.1272 -0.9726 0.1946
vn -0.1424 -0.9691 0.2013
vn 0.6182 -0.7562 0.2144
vn 0.4730 -0.8505 -0.2302
vn 0.7803 -0.6098 -0.1386
vn 0.8562 -0.4743 0.2047
vn 0.4711 -0.6203 -0.6271
vn 0.1683 -0.9723 -0.1622
vn 0.1336 -0.7828 -0.6078
vn -0.1481 -0.9441 -0.2944
vn -0.0778 -0.5767 -0.8132
vn -0.4366 -0.6634 -0.6077
vn 0.0706 -0.3776 -0.9233
vn 0.6869 -0.4266 -0.5884
vn 0.5705 -0.0695 -0.8184
vn 0.7574 0.1669 -0.6312
vn 0.9349 -0.1957 -0.2960
vn 0.6210 0.5007 -0.6030
vn 0.4431 0.6642 -0.6020
vn 0.4401 0.8760 -0.1972
vn -0.1337 0.7828 -0.6077
vn -0.6918 -0.7074 -0.1451
vn -0.4304 -0.8804 -0.1992
s 1
f 3//1 1//2 16//3
f 1//2 5//4 2//5
f 3//1 6//6 1//2
f 2//5 16//3 1//2
f 1//2 6//6 4//7
f 4//7 5//4 1//2
f 2//5 13//8 16//3
f 2//5 7//9 13//8
f 2//5 8//10 7//9
f 8//10 9//11 7//9
f 9//11 12//12 10//13
f 8//10 113//14 9//11
f 7//9 9//11 10//13
f 10//13 209//15 11//16
f 10//13 12//12 209//15
f 13//8 10//13 225//17
f 10//13 11//16 225//17
f 13//8 7//9 10//13
f 14//18 13//8 225//17
f 15//19 17//20 14//18
f 15//19 14//18 225//17
f 13//8 14//18 16//3
f 17//20 16//3 14//18
f 18//21 16//3 17//20
f 19//22 18//21 17//20
f 232//23 18//21 19//22
f 20//24 232//23 19//22
f 20//24 19//22 21//25
f 19//22 17//20 21//25
f 24//26 21//25 15//19
f 15//19 21//25 17//20
f 24//26 22//27 21//25
f 24//26 23//28 25//29
f 24//26 25//29 22//27
f 23//28 218//30 25//29
f 25//29 26//31 22//27
f 26//31 28//32 27//33
f 26//31 27//33 29//34
f 26//31 29//34 30//35
f 26//31 30//35 22//27
f 31//36 22//27 30//35
f 32//37 30//35 29//34
f 32//37 31//36 30//35
f 32//37 29//34 108//38
f 34//39 32//37 108//38
f 34//39 108//38 33//40
f 35//41 34//39 33//40
f 35//41 36//42 34//39
f 36//42 39//43 34//39
f 34//39 39//43 31//36
f 34//39 31//36 32//37
f 31//36 39//43 38//44
f 39//43 37//45 38//44
f 39//43 36//42 40//46
f 39//43 40//46 41//47
f 43//48 41//47 40//46
f 43//48 46//49 41//47
f 37//45 39//43 41//47
f 37//45 41//47 42//50
f 46//49 42//50 41//47
f 43//48 40//46 96//51
f 96//51 97//52 43//48
f 97//52 44//53 43//48
f 44//53 46//49 43//48
f 44//53 45//54 46//49
f 44//53 49//55 45//54
f 47//56 49//55 44//53
f 59//57 48//58 49//55
f 49//55 48//58 45//54
f 49//55 50//59 59//57
f 51//60 50//59 49//55
f 51//60 49//55 47//56
f 51//60 53//61 50//59
f 52//62 53//61 51//60
f 53//61 54//63 60//64
f 50//59 53//61 60//64
f 57//65 53//61 55//66
f 55//66 53//61 52//62
f 56//67 53//61 57//65
f 60//64 58//68 59//57
f 50//59 60//64 59//57
f 60//64 54//63 62//69
f 60//64 62//69 58//68
f 58//68 62//69 61//70
f 62//69 64//71 63//72
f 62//69 63//72 61//70
f 62//69 54//63 64//71
f 64//71 54//63 65//73
f 64//71 65//73 63//72
f 63//72 65//73 66//74
f 65//73 67//75 66//74
f 65//73 54//63 67//75
f 69//76 124//77 67//75
f 67//75 54//63 68//78
f 69//76 67//75 68//78
f 69//76 70//79 124//77
f 69//76 72//80 70//79
f 72//80 69//76 68//78
f 72//80 71//81 70//79
f 71//81 122//82 70//79
f 106//83 72//80 68//78
f 72//80 106//83 74//84
f 72//80 74//84 71//81
f 74//84 106//83 73//85
f 122//82 74//84 75//86
f 71//81 74//84 122//82
f 74//84 78//87 75//86
f 73//85 78//87 74//84
f 73//85 76//88 78//87
f 78//87 76//88 77//89
f 78//87 80//90 79//91
f 75//86 78//87 79//91
f 78//87 77//89 80//90
f 81//92 79//91 80//90
f 83//93 81//92 80//90
f 81//92 82//94 79//91
f 83//93 84//95 81//92
f 84//95 82//94 81//92
f 84//95 116//96 82//94
f 85//97 109//98 84//95
f 85//97 84//95 83//93
f 85//97 86//99 109//98
f 86//99 85//97 83//93
f 86//99 83//93 87//100
f 88//101 87//100 80//90
f 87//100 83//93 80//90
f 89//102 87//100 88//101
f 90//103 89//102 88//101
f 91//104 90//103 88//101
f 91//104 92//105 90//103
f 94//106 92//105 93//107
f 90//103 92//105 94//106
f 94//106 95//108 89//102
f 89//102 90//103 94//106
f 93//107 95//108 94//106
f 89//102 95//108 96//51
f 95//108 97//52 96//51
f 95//108 99//109 97//52
f 98//110 99//109 95//108
f 47//56 44//53 99//109
f 99//109 44//53 97//52
f 99//109 51//60 47//56
f 52//62 51//60 99//109
f 55//66 52//62 99//109
f 55//66 99//109 98//110
f 55//66 98//110 93//107
f 55//66 93//107 57//65
f 98//110 95//108 93//107
f 96//51 40//46 87//100
f 96//51 87//100 89//102
f 57//65 93//107 92//105
f 100//111 57//65 92//105
f 102//112 100//111 92//105
f 56//67 57//65 100//111
f 56//67 100//111 101//113
f 101//113 100//111 102//112
f 101//113 102//112 104//114
f 103//115 101//113 104//114
f 101//113 103//115 56//67
f 104//114 105//116 76//88
f 76//88 103//115 104//114
f 76//88 105//116 77//89
f 104//114 91//104 105//116
f 77//89 105//116 80//90
f 105//116 88//101 80//90
f 105//116 91//104 88//101
f 106//83 76//88 73//85
f 106//83 103//115 76//88
f 56//67 106//83 68//78
f 103//115 106//83 56//67
f 102//112 91//104 104//114
f 92//105 91//104 102//112
f 35//41 87//100 40//46
f 86//99 87//100 35//41
f 36//42 35//41 40//46
f 109//98 86//99 107//117
f 107//117 86//99 33//40
f 33//40 86//99 35//41
f 108//38 107//117 33//40
f 109//98 107//117 110//118
f 111//119 109//98 110//118
f 111//119 110//118 112//120
f 84//95 109//98 111//119
f 113//14 111//119 9//11
f 113//14 84//95 111//119
f 9//11 111//119 112//120
f 9//11 112//120 12//12
f 112//120 114//121 12//12
f 110//118 115//122 114//121
f 112//120 110//118 114//121
f 12//12 114//121 27//33
f 115//122 27//33 114//121
f 29//34 27//33 115//122
f 115//122 108//38 29//34
f 110//118 107//117 115//122
f 107//117 108//38 115//122
f 116//96 84//95 113//14
f 117//123 113//14 8//10
f 116//96 113//14 117//123
f 138//124 8//10 5//4
f 117//123 8//10 138//124
f 117//123 138//124 118//125
f 137//126 120//127 118//125
f 117//123 118//125 82//94
f 82//94 118//125 119//128
f 138//124 137//126 118//125
f 118//125 120//127 119//128
f 137//126 121//129 120//127
f 121//129 123//130 120//127
f 123//130 70//79 120//127
f 120//127 70//79 122//82
f 122//82 75//86 119//128
f 120//127 122//82 119//128
f 124//77 70//79 123//130
f 67//75 124//77 125//131
f 125//131 124//77 123//130
f 121//129 126//132 125//131
f 125//131 123//130 121//129
f 125//131 66//74 67//75
f 126//132 127//133 125//131
f 127//133 66//74 125//131
f 63//72 66//74 127//133
f 128//134 63//72 127//133
f 128//134 127//133 126//132
f 130//135 63//72 128//134
f 129//136 130//135 128//134
f 131//137 130//135 129//136
f 61//70 130//135 58//68
f 61//70 63//72 130//135
f 58//68 130//135 131//137
f 59//57 58//68 48//58
f 48//58 58//68 131//137
f 48//58 131//137 129//136
f 45//54 48//58 46//49
f 46//49 48//58 129//136
f 46//49 129//136 42//50
f 129//136 132//138 42//50
f 133//139 42//50 132//138
f 134//140 133//139 132//138
f 135//141 134//140 132//138
f 135//141 6//6 134//140
f 135//141 132//138 136//142
f 4//7 6//6 135//141
f 135//141 137//126 4//7
f 135//141 136//142 137//126
f 138//124 4//7 137//126
f 138//124 5//4 4//7
f 132//138 128//134 136//142
f 136//142 126//132 137//126
f 128//134 126//132 136//142
f 134//140 6//6 232//23
f 133//139 134//140 232//23
f 133//139 232//23 20//24
f 139//143 133//139 20//24
f 37//45 133//139 139//143
f 140//144 133//139 37//45
f 133//139 140//144 42//50
f 140//144 37//45 42//50
f 38//44 37//45 139//143
f 31//36 139//143 22//27
f 38//44 139//143 31//36
f 139//143 20//24 21//25
f 139//143 21//25 22//27
f 129//136 128//134 132//138
f 137//126 126//132 121//129
f 82//94 119//128 79//91
f 119//128 75//86 79//91
f 116//96 117//123 82//94
f 68//78 141//145 195//146
f 68//78 195//146 56//67
f 68//78 153//147 141//145
f 141//145 153//147 142//148
f 141//145 142//148 143//149
f 142//148 145//150 143//149
f 141//145 143//149 144//151
f 145//150 148//152 146//153
f 145//150 146//153 147//154
f 143//149 145//150 147//154
f 142//148 148//152 145//150
f 142//148 150//155 148//152
f 148//152 150//155 149//156
f 151//157 149//156 150//155
f 152//158 151//157 150//155
f 152//158 160//159 151//157
f 152//158 159//160 160//159
f 152//158 150//155 153//147
f 153//147 150//155 142//148
f 152//158 153//147 68//78
f 152//158 154//161 159//160
f 54//63 154//161 152//158
f 54//63 152//158 68//78
f 53//61 154//161 54//63
f 156//162 155//163 154//161
f 53//61 156//162 154//161
f 156//162 197//164 183//165
f 53//61 197//164 156//162
f 156//162 181//166 180//167
f 156//162 183//165 181//166
f 156//162 180//167 157//168
f 156//162 157//168 155//163
f 155//163 157//168 158//169
f 159//160 155//163 158//169
f 159//160 158//169 160//159
f 160//159 158//169 175//170
f 160//159 175//170 161//171
f 151//157 160//159 161//171
f 168//172 162//173 161//171
f 163//174 168//172 161//171
f 151//157 161//171 162//173
f 162//173 165//175 149//156
f 151//157 162//173 149//156
f 149//156 165//175 164//176
f 162//173 166//177 165//175
f 166//177 164//176 165//175
f 166//177 226//178 164//176
f 167//179 226//178 166//177
f 167//179 166//177 168//172
f 167//179 168//172 169//180
f 167//179 224//181 226//178
f 170//182 167//179 169//180
f 170//182 169//180 15//19
f 15//19 169//180 171//183
f 15//19 172//184 24//26
f 15//19 171//183 172//184
f 173//185 172//184 163//174
f 171//183 163//174 172//184
f 173//185 163//174 175//170
f 173//185 175//170 174//186
f 157//168 176//187 174//186
f 158//169 157//168 174//186
f 177//188 173//185 174//186
f 177//188 174//186 176//187
f 158//169 174//186 175//170
f 178//189 217//190 176//187
f 217//190 177//188 176//187
f 180//167 179//191 178//189
f 180//167 178//189 176//187
f 180//167 176//187 157//168
f 180//167 181//166 179//191
f 183//165 182//192 181//166
f 181//166 182//192 184//193
f 181//166 184//193 179//191
f 185//194 179//191 184//193
f 185//194 184//193 186//195
f 182//192 186//195 184//193
f 212//196 187//197 186//195
f 187//197 185//194 186//195
f 212//196 186//195 188//198
f 182//192 189//199 186//195
f 189//199 188//198 186//195
f 220//200 188//198 189//199
f 190//201 220//200 189//199
f 191//202 189//199 183//165
f 192//203 189//199 191//202
f 192//203 190//201 189//199
f 183//165 189//199 182//192
f 192//203 193//204 190//201
f 193//204 194//205 190//201
f 193//204 200//206 194//205
f 193//204 195//146 200//206
f 196//207 195//146 193//204
f 196//207 193//204 192//203
f 56//67 195//146 196//207
f 56//67 196//207 53//61
f 196//207 192//203 191//202
f 196//207 191//202 197//164
f 196//207 197//164 53//61
f 195//146 198//208 200//206
f 141//145 198//208 195//146
f 141//145 144//151 198//208
f 200//206 198//208 199//209
f 198//208 230//210 199//209
f 229//211 230//210 198//208
f 144//151 229//211 198//208
f 200//206 199//209 201//212
f 194//205 200//206 201//212
f 202//213 223//214 201//212
f 223//214 222//215 201//212
f 194//205 201//212 222//215
f 202//213 201//212 199//209
f 202//213 203//216 223//214
f 205//217 202//213 199//209
f 204//218 202//213 205//217
f 204//218 203//216 202//213
f 204//218 205//217 231//219
f 204//218 231//219 206//220
f 206//220 231//219 207//221
f 206//220 207//221 11//16
f 208//222 206//220 11//16
f 208//222 204//218 206//220
f 209//15 208//222 11//16
f 208//222 203//216 204//218
f 208//222 209//15 203//216
f 27//33 203//216 209//15
f 27//33 210//223 203//216
f 211//224 210//223 27//33
f 28//32 211//224 27//33
f 213//225 221//226 211//224
f 211//224 221//226 210//223
f 28//32 213//225 211//224
f 213//225 212//196 221//226
f 213//225 187//197 212//196
f 214//227 187//197 213//225
f 28//32 26//31 213//225
f 26//31 214//227 213//225
f 214//227 185//194 187//197
f 25//29 215//228 214//227
f 25//29 214//227 26//31
f 215//228 185//194 214//227
f 215//228 216//229 185//194
f 185//194 216//229 179//191
f 216//229 217//190 178//189
f 217//190 216//229 215//228
f 216//229 178//189 179//191
f 219//230 177//188 217//190
f 219//230 217//190 218//30
f 218//30 217//190 215//228
f 219//230 172//184 173//185
f 219//230 173//185 177//188
f 23//28 219//230 218//30
f 23//28 172//184 219//230
f 218//30 215//228 25//29
f 212//196 188//198 220//200
f 212//196 220//200 221//226
f 223//214 221//226 222//215
f 221//226 220//200 222//215
f 210//223 221//226 223//214
f 210//223 223//214 203//216
f 190//201 222//215 220//200
f 11//16 207//221 224//181
f 11//16 224//181 225//17
f 170//182 225//17 224//181
f 207//221 227//231 224//181
f 226//178 224//181 227//231
f 227//231 228//232 147//154
f 207//221 228//232 227//231
f 226//178 227//231 146//153
f 227//231 147//154 146//153
f 228//232 229//211 147//154
f 144//151 147//154 229//211
f 144//151 143//149 147//154
f 230//210 229//211 231//219
f 228//232 231//219 229//211
f 205//217 230//210 231//219
f 205//217 199//209 230//210
f 231//219 228//232 207//221
f 226//178 146//153 164//176
f 190//201 194//205 222//215
f 197//164 191//202 183//165
f 23//28 24//26 172//184
f 171//183 168//172 163//174
f 163//174 161//171 175//170
f 169//180 168//172 171//183
f 225//17 170//182 15//19
f 170//182 224//181 167//179
f 162//173 168//172 166//177
f 148//152 164//176 146//153
f 148//152 149//156 164//176
f 154//161 155//163 159//160
f 12//12 27//33 209//15
f 232//23 6//6 3//1
f 232//23 3//1 18//21
f 18//21 3//1 16//3
f 2//5 5//4 8//10
