# Blender v2.93.6 OBJ File: 'Reach Bravo.blend'
# www.blender.org
v -0.161922 0.028600 -0.086533
v -0.161922 0.027625 -0.093935
v -0.161922 0.024768 -0.100833
v -0.161922 0.020223 -0.106756
v -0.161922 0.014300 -0.111301
v -0.161922 0.007402 -0.114158
v -0.161922 -0.000000 -0.115133
v -0.161922 -0.007402 -0.114158
v -0.161922 -0.014300 -0.111301
v -0.161922 -0.020223 -0.106756
v -0.161922 -0.024768 -0.100833
v -0.161922 -0.027625 -0.093935
v -0.161922 -0.028600 -0.086533
v -0.161922 -0.027625 -0.079131
v -0.161922 -0.024768 -0.072233
v -0.161922 -0.020223 -0.066310
v -0.161922 -0.014300 -0.061765
v -0.161922 -0.007402 -0.058907
v -0.161922 -0.000000 -0.057933
v -0.161922 0.007402 -0.058907
v -0.161922 0.014300 -0.061765
v -0.161922 0.020223 -0.066310
v -0.161922 0.024768 -0.072233
v -0.161922 0.027625 -0.079131
v 0.054044 0.027622 -0.093934
v 0.054044 0.028597 -0.086533
v 0.054044 0.024765 -0.100831
v 0.054044 0.020221 -0.106754
v 0.054044 0.014298 -0.111298
v 0.054044 0.007401 -0.114155
v 0.054044 -0.000000 -0.115130
v 0.054044 -0.007401 -0.114155
v 0.054044 -0.014298 -0.111298
v 0.054044 -0.020221 -0.106754
v 0.054044 -0.024765 -0.100831
v 0.054044 -0.027622 -0.093934
v 0.054044 -0.028597 -0.086533
v 0.054044 -0.027622 -0.079132
v 0.054044 -0.024765 -0.072235
v 0.054044 -0.020221 -0.066312
v 0.054044 -0.014298 -0.061768
v 0.054044 -0.007401 -0.058911
v 0.054044 -0.000000 -0.057936
v 0.054044 0.007401 -0.058911
v 0.054044 0.014298 -0.061768
v 0.054044 0.020221 -0.066312
v 0.054044 0.024765 -0.072235
v 0.054044 0.027622 -0.079132
v 0.091576 0.006775 -0.088348
v 0.091576 0.007014 -0.086533
v 0.091576 0.006075 -0.090040
v 0.091576 0.004960 -0.091493
v 0.091576 0.003507 -0.092608
v 0.091576 0.001815 -0.093308
v 0.091576 -0.000000 -0.093547
v 0.091576 -0.001815 -0.093308
v 0.091576 -0.003507 -0.092608
v 0.091576 -0.004960 -0.091493
v 0.091576 -0.006075 -0.090040
v 0.091576 -0.006776 -0.088348
v 0.091576 -0.007015 -0.086533
v 0.091576 -0.006776 -0.084717
v 0.091576 -0.006075 -0.083026
v 0.091576 -0.004960 -0.081573
v 0.091576 -0.003507 -0.080458
v 0.091576 -0.001815 -0.079757
v 0.091576 -0.000000 -0.079518
v 0.091576 0.001815 -0.079757
v 0.091576 0.003507 -0.080458
v 0.091576 0.004960 -0.081573
v 0.091576 0.006075 -0.083026
v 0.091576 0.006775 -0.084717
v 0.112599 -0.000000 -0.086533
v 0.103690 0.005013 -0.087876
v 0.103997 0.005013 -0.086533
v 0.102650 0.005013 -0.089427
v 0.102650 0.005013 -0.089427
v 0.103690 0.003670 -0.090203
v 0.103997 0.002506 -0.090874
v 0.103690 0.001343 -0.091546
v 0.102650 -0.000000 -0.092321
v 0.102650 -0.000000 -0.092321
v 0.103690 -0.001343 -0.091546
v 0.103997 -0.002506 -0.090874
v 0.103690 0.005013 -0.085190
v 0.103690 -0.003670 -0.090203
v 0.102650 0.005013 -0.083639
v 0.102650 -0.005013 -0.089427
v 0.102650 -0.005013 -0.089427
v 0.103690 -0.005013 -0.087876
v 0.103997 -0.005013 -0.086533
v 0.103690 -0.005013 -0.085190
v 0.102650 -0.005013 -0.083639
v 0.102650 -0.005013 -0.083639
v 0.103690 -0.003670 -0.082863
v 0.103997 -0.002506 -0.082192
v 0.103690 -0.001343 -0.081520
v 0.102650 -0.000000 -0.080745
v 0.102650 -0.000000 -0.080745
v 0.103690 0.001343 -0.081520
v 0.103997 0.002506 -0.082192
v 0.103690 0.003670 -0.082863
v 0.102650 0.005013 -0.083639
v 0.091576 -0.000000 -0.080745
v 0.091576 -0.000000 -0.080745
v 0.091576 0.005013 -0.083639
v 0.091576 0.005013 -0.083639
v 0.091576 -0.005013 -0.089427
v 0.091576 -0.005013 -0.089427
v 0.091576 -0.000000 -0.092321
v 0.091576 -0.000000 -0.092321
v 0.091576 -0.005013 -0.083639
v 0.091576 0.005013 -0.089427
v -0.053936 -0.020223 -0.066310
v -0.053936 0.028600 -0.086533
v -0.053936 0.014300 -0.111301
v -0.053936 -0.000000 -0.115133
v -0.053936 -0.014300 -0.111301
v -0.053936 -0.024768 -0.100833
v -0.053936 -0.028600 -0.086533
v -0.053936 -0.024768 -0.072233
v -0.053936 -0.014300 -0.061765
v -0.053936 -0.000000 -0.057933
v -0.053936 0.014300 -0.061765
v -0.053936 0.024768 -0.072233
v -0.053936 0.007402 -0.058907
v -0.053936 0.027625 -0.079131
v -0.053936 0.024768 -0.100833
v -0.053936 0.027625 -0.093935
v -0.053936 0.007402 -0.114158
v -0.053936 -0.020223 -0.106756
v -0.053936 -0.027625 -0.079131
v -0.053936 -0.007402 -0.058907
v -0.053936 0.020223 -0.066310
v -0.053936 0.020223 -0.106756
v -0.053936 -0.007402 -0.114158
v -0.053936 -0.027625 -0.093935
v -0.161922 0.028600 -0.086533
v -0.161922 0.027625 -0.093935
v -0.161922 0.024768 -0.100833
v -0.161922 0.020223 -0.106756
v 0.091576 0.006075 -0.083026
v 0.091576 0.006775 -0.084717
v -0.161922 0.014300 -0.111301
v -0.161922 0.007402 -0.114158
v -0.161922 -0.000000 -0.115133
v -0.161922 -0.007402 -0.114158
v -0.161922 -0.014300 -0.111301
v -0.161922 -0.020223 -0.106756
v -0.161922 -0.024768 -0.100833
v -0.161922 -0.027625 -0.093935
v -0.161922 -0.028600 -0.086533
v -0.161922 -0.027625 -0.079131
v -0.161922 -0.024768 -0.072233
v -0.161922 -0.020223 -0.066310
v -0.161922 -0.014300 -0.061765
v -0.161922 -0.007402 -0.058907
v -0.161922 -0.000000 -0.057933
v -0.161922 0.007402 -0.058907
v -0.161922 0.014300 -0.061765
v -0.161922 0.020223 -0.066310
v -0.161922 0.024768 -0.072233
v -0.161922 0.027625 -0.079131
v 0.054044 0.027622 -0.093934
v 0.054044 0.028597 -0.086533
v 0.054044 0.024765 -0.100831
v 0.054044 0.014298 -0.111298
v 0.054044 0.007401 -0.114155
v 0.054044 -0.014298 -0.111298
v 0.054044 -0.020221 -0.106754
v 0.054044 -0.028597 -0.086533
v 0.054044 -0.027622 -0.079132
v 0.054044 -0.014298 -0.061768
v 0.054044 -0.007401 -0.058911
v 0.054044 0.014298 -0.061768
v 0.054044 0.020221 -0.066312
v 0.091576 0.006775 -0.088348
v 0.091576 0.007014 -0.086533
v 0.091576 0.006075 -0.090040
v 0.091576 0.003507 -0.092608
v 0.091576 0.001815 -0.093308
v 0.091576 -0.003507 -0.092608
v 0.091576 -0.004960 -0.091493
v 0.091576 -0.007015 -0.086533
v 0.091576 -0.006776 -0.084717
v 0.091576 -0.003507 -0.080458
v 0.091576 -0.001815 -0.079757
v 0.091576 0.003507 -0.080458
v 0.091576 0.004960 -0.081573
v 0.102650 -0.000000 -0.092321
v 0.102650 -0.000000 -0.092321
v 0.102650 -0.000000 -0.092321
v 0.103690 0.005013 -0.085190
v 0.102650 0.005013 -0.083639
v 0.102650 0.005013 -0.083639
v 0.102650 -0.005013 -0.089427
v 0.102650 -0.005013 -0.089427
v 0.103690 -0.005013 -0.087876
v 0.102650 -0.005013 -0.083639
v 0.102650 -0.005013 -0.083639
v 0.102650 -0.005013 -0.083639
v 0.103690 -0.001343 -0.081520
v 0.102650 -0.000000 -0.080745
v 0.102650 -0.000000 -0.080745
v 0.091576 -0.005013 -0.089427
v 0.091576 -0.005013 -0.089427
v 0.091576 -0.005013 -0.089427
v 0.091576 -0.000000 -0.092321
v 0.091576 -0.000000 -0.080745
v 0.091576 -0.000000 -0.080745
v 0.091576 -0.005013 -0.083639
v 0.091576 -0.005013 -0.083639
v 0.102650 0.005013 -0.089427
v 0.102650 0.005013 -0.089427
v 0.091576 0.005013 -0.089427
v 0.091576 0.005013 -0.089427
v 0.091576 0.005013 -0.083639
v 0.091576 0.005013 -0.083639
v 0.054044 -0.000000 -0.115130
v 0.054044 -0.024765 -0.100831
v 0.054044 -0.024765 -0.072235
v 0.054044 0.027622 -0.079132
v 0.091576 -0.000000 -0.093547
v 0.091576 -0.006075 -0.090040
v 0.091576 -0.006075 -0.083026
v 0.091576 -0.000000 -0.079518
v 0.103690 0.005013 -0.087876
v 0.103997 0.005013 -0.086533
v 0.102650 0.005013 -0.089427
v 0.103690 0.003670 -0.090203
v 0.103997 0.002506 -0.090874
v 0.103690 -0.003670 -0.090203
v 0.102650 -0.005013 -0.089427
v 0.103997 -0.005013 -0.086533
v 0.054044 -0.000000 -0.057936
v 0.103690 -0.003670 -0.082863
v 0.102650 -0.000000 -0.080745
v 0.103690 0.001343 -0.081520
v 0.103690 0.003670 -0.082863
v 0.102650 0.005013 -0.083639
v 0.091576 0.005013 -0.083639
v 0.091576 -0.000000 -0.092321
v 0.091576 -0.000000 -0.092321
v 0.103997 -0.002506 -0.090874
v 0.054044 0.024765 -0.072235
v 0.054044 0.020221 -0.106754
v 0.054044 -0.007401 -0.114155
v 0.054044 -0.027622 -0.093934
v 0.054044 -0.020221 -0.066312
v 0.054044 0.007401 -0.058911
v 0.091576 0.004960 -0.091493
v 0.103997 -0.002506 -0.082192
v 0.091576 -0.001815 -0.093308
v 0.091576 -0.006776 -0.088348
v 0.091576 -0.004960 -0.081573
v 0.091576 0.001815 -0.079757
v 0.103690 0.001343 -0.091546
v 0.103690 -0.001343 -0.091546
v 0.103690 -0.005013 -0.085190
v 0.103997 0.002506 -0.082192
v 0.091576 -0.000000 -0.080745
vt 1.000000 1.000000
vt 0.958333 0.750000
vt 1.000000 0.750000
vt 0.916667 1.000000
vt 0.916667 0.750000
vt 0.875000 0.750000
vt 0.875000 1.000000
vt 0.833333 0.750000
vt 0.833333 1.000000
vt 0.791667 0.750000
vt 0.750000 1.000000
vt 0.750000 0.750000
vt 0.708333 0.750000
vt 0.708333 1.000000
vt 0.666667 0.750000
vt 0.666667 1.000000
vt 0.625000 0.750000
vt 0.625000 1.000000
vt 0.583333 0.750000
vt 0.583333 1.000000
vt 0.541666 0.750000
vt 0.541666 1.000000
vt 0.500000 0.750000
vt 0.500000 1.000000
vt 0.458333 0.750000
vt 0.458333 1.000000
vt 0.416666 0.750000
vt 0.416666 1.000000
vt 0.375000 0.750000
vt 0.375000 1.000000
vt 0.333333 0.750000
vt 0.333333 1.000000
vt 0.291667 0.750000
vt 0.291667 1.000000
vt 0.250000 0.750000
vt 0.250000 1.000000
vt 0.208333 0.750000
vt 0.208333 1.000000
vt 0.166666 0.750000
vt 0.166666 1.000000
vt 0.125000 0.750000
vt 0.125000 1.000000
vt 0.083333 0.750000
vt 0.083333 1.000000
vt 0.041666 0.750000
vt 0.041666 1.000000
vt -0.000000 0.750000
vt 0.990000 0.250000
vt 0.630000 0.042154
vt 0.630000 0.457846
vt 0.446153 0.363249
vt 0.468781 0.308622
vt 0.468781 0.308622
vt 0.436910 0.250000
vt 0.436910 0.250000
vt 0.343455 0.088132
vt 0.031219 0.308622
vt 0.063091 0.250000
vt 0.063091 0.250000
vt 0.053847 0.363249
vt 0.031219 0.308622
vt 0.053847 0.363249
vt 0.250000 0.023502
vt 0.191378 0.031219
vt 0.191378 0.031219
vt 0.476498 0.250000
vt 0.476498 0.250000
vt 0.089841 0.410159
vt 0.089841 0.410159
vt 0.136751 0.053847
vt 0.136751 0.053847
vt 0.468781 0.191378
vt 0.468781 0.191378
vt 0.136751 0.446153
vt 0.136751 0.446153
vt 0.089841 0.089841
vt 0.089841 0.089841
vt 0.446153 0.136751
vt 0.446153 0.136751
vt 0.191378 0.468781
vt 0.191378 0.468781
vt 0.250000 0.476498
vt 0.308622 0.468781
vt 0.308622 0.468781
vt 0.053847 0.136751
vt 0.053847 0.136751
vt 0.410159 0.089841
vt 0.410159 0.089841
vt 0.250000 0.476498
vt 0.363249 0.446153
vt 0.363249 0.446153
vt 0.031219 0.191378
vt 0.031219 0.191378
vt 0.363249 0.053847
vt 0.363249 0.053847
vt 0.410159 0.410159
vt 0.410159 0.410159
vt 0.023502 0.250000
vt 0.023502 0.250000
vt 0.308622 0.031219
vt 0.308622 0.031219
vt 0.446153 0.363249
vt 0.031219 0.308622
vt 0.250000 0.023502
vt 0.250000 0.250000
vt 0.296221 0.422501
vt 0.250000 0.422501
vt 0.349593 0.422501
vt 0.376279 0.376279
vt 0.349593 0.422501
vt 0.399390 0.336250
vt 0.422501 0.296221
vt 0.449187 0.250000
vt 0.422501 0.203779
vt 0.399390 0.163750
vt 0.376279 0.123721
vt 0.349593 0.077499
vt 0.296221 0.077499
vt 0.349593 0.077499
vt 0.250000 0.077499
vt 0.203779 0.077499
vt 0.150407 0.077499
vt 0.150407 0.077499
vt 0.123721 0.123721
vt 0.100610 0.163750
vt 0.077499 0.203779
vt 0.050813 0.250000
vt 0.050813 0.250000
vt 0.077499 0.296221
vt 0.100610 0.336250
vt 0.123721 0.376279
vt 0.150407 0.422501
vt 0.203779 0.422501
vt 0.833333 0.798562
vt 0.833333 0.749999
vt 1.000000 0.749999
vt 0.666667 0.798562
vt 0.666667 0.749999
vt 0.833333 0.798562
vt 0.666667 0.798562
vt 0.500000 0.749999
vt 0.666667 0.749999
vt 0.500000 0.798562
vt 0.377991 0.803123
vt 0.333333 0.798562
vt 0.211325 0.803123
vt 0.166667 0.798562
vt 0.288675 0.803123
vt 0.166667 0.798562
vt -0.000000 0.798562
vt -0.000000 0.749999
vt -0.000000 0.500000
vt 0.041666 0.500000
vt 0.083333 0.500000
vt 0.125000 0.500000
vt 0.166666 0.500000
vt 0.208333 0.500000
vt 0.250000 0.500000
vt 0.291667 0.500000
vt 0.333333 0.500000
vt 0.375000 0.500000
vt 0.416666 0.500000
vt 0.458333 0.500000
vt 0.500000 0.500000
vt 0.541666 0.500000
vt 0.583333 0.500000
vt 0.625000 0.500000
vt 0.666667 0.500000
vt 0.708333 0.500000
vt 0.750000 0.500000
vt 0.791667 0.500000
vt 0.833333 0.500000
vt 0.875000 0.500000
vt 0.916667 0.500000
vt 0.958333 0.500000
vt 1.000000 0.500000
vt 0.958333 1.000000
vt 0.791667 1.000000
vt -0.000000 1.000000
vt 0.687883 0.481822
vt 0.750000 0.490000
vt 0.812117 0.481822
vt 0.870000 0.457846
vt 0.919706 0.419706
vt 0.957846 0.370000
vt 0.981822 0.312117
vt 0.981822 0.187883
vt 0.957846 0.130000
vt 0.919706 0.080294
vt 0.870000 0.042154
vt 0.812117 0.018178
vt 0.750000 0.010000
vt 0.687883 0.018178
vt 0.580294 0.080294
vt 0.542154 0.130000
vt 0.518178 0.187883
vt 0.510000 0.250000
vt 0.518178 0.312117
vt 0.542154 0.370000
vt 0.580294 0.419706
vt 0.343455 0.088132
vt 0.363249 0.053847
vt 0.410159 0.089841
vt 0.446153 0.136751
vt 0.468781 0.191378
vt 0.476498 0.250000
vt 0.468781 0.308622
vt 0.446153 0.363249
vt 0.410159 0.410159
vt 0.343455 0.411868
vt 0.363249 0.446153
vt 0.308622 0.468781
vt 0.250000 0.476498
vt 0.191378 0.468781
vt 0.156546 0.411868
vt 0.136751 0.446153
vt 0.089841 0.410159
vt 0.053847 0.363249
vt 0.023502 0.250000
vt 0.031219 0.191378
vt 0.053847 0.136751
vt 0.089841 0.089841
vt 0.156546 0.088132
vt 0.136751 0.053847
vt 0.191378 0.031219
vt 0.250000 0.023502
vt 0.308622 0.031219
vt 0.156546 0.411868
vt 0.449187 0.250000
vt 0.150407 0.422501
vt 0.955342 0.803123
vt 0.916667 0.804471
vt 0.877991 0.803123
vt 0.833333 0.798562
vt 1.000000 0.798562
vt 0.833333 0.749999
vt 0.788675 0.803123
vt 0.711325 0.803123
vt 0.750000 0.804471
vt 0.666667 0.798562
vt 0.622008 0.803123
vt 0.583333 0.804471
vt 0.544658 0.803123
vt 0.500000 0.798562
vt 0.500000 0.798562
vt 0.666667 0.749999
vt 0.500000 0.749999
vt 0.333333 0.749999
vt 0.500000 0.749999
vt 0.455342 0.803123
vt 0.416667 0.804471
vt 0.333333 0.798562
vt 0.333333 0.749999
vt 0.333333 0.798562
vt 0.166667 0.749999
vt 0.250000 0.804471
vt 0.166667 0.798562
vt 0.122008 0.803123
vt 0.083333 0.804471
vt 0.044658 0.803123
vt 0.166667 0.749999
vt 0.166667 0.749999
vt -0.000000 0.798562
vt -0.000000 0.749999
vn 0.0000 1.0000 0.0000
vn 0.0000 0.9659 -0.2588
vn 0.0000 0.8660 -0.5000
vn 0.0000 0.7071 -0.7071
vn 0.0000 0.5000 -0.8660
vn 0.0000 0.2588 -0.9659
vn 0.0000 0.0000 -1.0000
vn 0.0000 -0.2588 -0.9659
vn 0.0000 -0.5000 -0.8660
vn 0.0000 -0.7071 -0.7071
vn 0.0000 -0.8660 -0.5000
vn 0.0000 -0.9659 -0.2588
vn 0.0000 -1.0000 0.0000
vn 0.0000 -0.9659 0.2588
vn 0.0000 -0.8660 0.5000
vn 0.0000 -0.7071 0.7071
vn 0.0000 -0.5000 0.8660
vn 0.0000 -0.2588 0.9659
vn 0.0000 0.0000 1.0000
vn 0.0000 0.2588 0.9659
vn 0.0000 0.5000 0.8660
vn 0.0000 0.7071 0.7071
vn 0.0000 0.8660 0.5000
vn 0.0000 0.9659 0.2588
vn -1.0000 0.0000 0.0000
vn 0.4985 0.4334 -0.7507
vn 0.4985 0.2243 -0.8373
vn 0.9922 0.0000 0.1240
vn 0.9363 0.0000 0.3511
vn 1.0000 0.0000 0.0000
vn 0.4985 0.4334 0.7507
vn 0.4985 0.2243 0.8373
vn 0.4985 -0.8669 0.0000
vn 0.4985 -0.8373 0.2243
vn 0.4985 0.0000 -0.8669
vn 0.4985 0.6130 0.6130
vn 0.4985 -0.7507 0.4334
vn 0.4985 -0.2243 -0.8373
vn 0.4985 0.7507 0.4334
vn 0.4985 -0.6130 0.6130
vn 0.4985 -0.4334 -0.7507
vn 0.4985 0.8373 0.2243
vn 0.4985 0.8669 0.0000
vn 0.4985 0.8373 -0.2243
vn 0.4985 -0.4334 0.7507
vn 0.4985 -0.6130 -0.6130
vn 0.4985 0.7507 -0.4334
vn 0.4985 -0.2243 0.8373
vn 0.4985 -0.7507 -0.4334
vn 0.4985 0.6130 -0.6130
vn 0.4985 0.0000 0.8669
vn 0.4985 -0.8373 -0.2243
vn 1.0000 0.0000 0.0002
vn 0.5030 0.8252 -0.2570
vn 0.5035 0.8640 0.0000
vn 0.4774 0.7106 0.5169
vn 0.5030 0.6351 -0.5861
vn 0.5035 0.4320 -0.7482
vn 0.5030 0.1900 -0.8431
vn 0.3509 0.0000 -0.9364
vn 0.5030 -0.1900 -0.8431
vn 0.5035 -0.4320 -0.7482
vn 0.5030 -0.6351 -0.5861
vn 0.8634 -0.4368 -0.2522
vn 0.5030 -0.8252 -0.2570
vn 0.5035 -0.8640 0.0000
vn 0.5030 -0.8252 0.2570
vn 0.2029 -0.3241 0.9240
vn 0.1916 -0.2644 0.9452
vn 0.5030 -0.6351 0.5861
vn 0.5035 -0.4320 0.7482
vn 0.5030 -0.1900 0.8431
vn 0.5025 -0.0371 0.8637
vn 0.5025 0.0371 0.8637
vn 0.5030 0.1900 0.8431
vn 0.5035 0.4320 0.7482
vn 0.5030 0.6351 0.5861
vn 0.7391 0.4162 0.5296
vn 0.5030 0.8252 0.2570
vn 0.0000 0.8089 0.5879
vn 0.0000 -0.6996 -0.7145
vn 0.0000 -0.8089 0.5879
vn 0.0000 0.3789 0.9254
vn 0.0000 0.2995 0.9541
vn 0.8462 0.0000 0.5328
vn -0.0001 -0.5000 -0.8660
vn -0.9963 0.0000 0.0861
vn -0.3417 -0.4826 -0.8064
s 1
f 165/1/1 129/2/2 115/3/1
f 129/2/2 166/4/3 128/5/3
f 166/4/3 135/6/4 128/5/3
f 246/7/4 116/8/5 135/6/4
f 167/9/5 130/10/6 116/8/5
f 130/10/6 219/11/7 117/12/7
f 219/11/7 136/13/8 117/12/7
f 247/14/8 118/15/9 136/13/8
f 169/16/9 131/17/10 118/15/9
f 170/18/10 119/19/11 131/17/10
f 220/20/11 137/21/12 119/19/11
f 248/22/12 120/23/13 137/21/12
f 171/24/13 132/25/14 120/23/13
f 172/26/14 121/27/15 132/25/14
f 221/28/15 114/29/16 121/27/15
f 249/30/16 122/31/17 114/29/16
f 173/32/17 133/33/18 122/31/17
f 174/34/18 123/35/19 133/33/18
f 235/36/19 126/37/20 123/35/19
f 250/38/20 124/39/21 126/37/20
f 175/40/21 134/41/22 124/39/21
f 176/42/22 125/43/23 134/41/22
f 245/44/23 127/45/24 125/43/23
f 222/46/24 115/47/1 127/45/24
f 146/48/25 154/49/25 162/50/25
f 29/51/26 181/52/27 30/53/27
f 243/54/28 208/55/19 206/56/29
f 256/57/30 209/58/30 261/59/30
f 45/60/31 68/61/32 188/62/31
f 37/63/33 62/64/34 38/65/34
f 31/66/35 181/52/27 55/67/35
f 45/60/31 70/68/36 46/69/36
f 38/65/34 63/70/37 39/71/37
f 31/66/35 56/72/38 32/73/38
f 46/69/36 71/74/39 47/75/39
f 39/71/37 64/76/40 40/77/40
f 33/78/41 56/72/38 182/79/41
f 48/80/42 71/74/39 72/81/42
f 26/82/43 177/83/44 25/84/44
f 40/77/40 186/85/45 41/86/45
f 33/78/41 58/87/46 34/88/46
f 48/80/42 50/89/43 26/82/43
f 25/84/44 51/90/47 27/91/47
f 41/86/45 66/92/48 42/93/48
f 35/94/49 58/87/46 59/95/49
f 27/91/47 52/96/50 28/97/50
f 42/93/48 67/98/51 43/99/51
f 35/94/49 60/100/52 36/101/52
f 29/51/26 52/96/50 180/102/26
f 43/99/51 68/61/32 44/103/32
f 36/101/52 184/104/33 37/63/33
f 73/105/53 227/106/54 228/107/55
f 73/105/53 229/108/56 227/106/54
f 229/108/56 230/109/57 214/110/19
f 73/105/53 231/111/58 230/109/57
f 231/111/58 73/105/53 257/112/59
f 190/113/60 257/112/59 73/105/53
f 190/113/60 73/105/53 258/114/61
f 258/114/61 73/105/53 244/115/62
f 244/115/62 73/105/53 232/116/63
f 73/105/53 233/117/64 232/116/63
f 233/117/64 198/118/65 196/119/30
f 198/118/65 73/105/53 234/120/66
f 234/120/66 73/105/53 259/121/67
f 259/121/67 73/105/53 199/122/68
f 200/123/69 73/105/53 236/124/70
f 252/125/71 236/124/70 73/105/53
f 252/125/71 73/105/53 202/126/72
f 203/127/73 73/105/53 237/128/74
f 238/129/75 237/128/74 73/105/53
f 73/105/53 260/130/76 238/129/75
f 73/105/53 239/131/77 260/130/76
f 240/132/78 239/131/77 73/105/53
f 193/133/79 240/132/78 73/105/53
f 228/107/55 193/133/79 73/105/53
f 76/134/80 215/135/1 218/136/1
f 192/137/5 242/138/5 77/139/5
f 82/140/81 205/141/14 111/142/8
f 89/143/13 92/144/13 201/145/82
f 97/146/17 204/147/17 95/148/17
f 99/149/83 103/150/84 107/151/20
f 127/45/24 1/152/1 24/153/24
f 125/43/23 24/153/24 23/154/23
f 134/41/22 23/154/23 22/155/22
f 124/39/21 22/155/22 21/156/21
f 126/37/20 21/156/21 20/157/20
f 123/35/19 20/157/20 19/158/19
f 133/33/18 19/158/19 18/159/18
f 122/31/17 18/159/18 17/160/17
f 114/29/16 17/160/17 16/161/16
f 121/27/15 16/161/16 15/162/15
f 132/25/14 15/162/15 14/163/14
f 120/23/13 14/163/14 13/164/13
f 137/21/12 13/164/13 12/165/12
f 119/19/11 12/165/12 11/166/11
f 131/17/10 11/166/11 10/167/10
f 118/15/9 10/167/10 9/168/9
f 136/13/8 9/168/9 8/169/8
f 117/12/7 8/169/8 7/170/7
f 130/10/6 7/170/7 6/171/6
f 116/8/5 6/171/6 5/172/5
f 135/6/4 5/172/5 4/173/4
f 128/5/3 4/173/4 3/174/3
f 129/2/2 3/174/3 2/175/2
f 115/3/1 2/175/2 1/176/1
f 165/1/1 164/177/2 129/2/2
f 129/2/2 164/177/2 166/4/3
f 166/4/3 246/7/4 135/6/4
f 246/7/4 167/9/5 116/8/5
f 167/9/5 168/178/6 130/10/6
f 130/10/6 168/178/6 219/11/7
f 219/11/7 247/14/8 136/13/8
f 247/14/8 169/16/9 118/15/9
f 169/16/9 170/18/10 131/17/10
f 170/18/10 220/20/11 119/19/11
f 220/20/11 248/22/12 137/21/12
f 248/22/12 171/24/13 120/23/13
f 171/24/13 172/26/14 132/25/14
f 172/26/14 221/28/15 121/27/15
f 221/28/15 249/30/16 114/29/16
f 249/30/16 173/32/17 122/31/17
f 173/32/17 174/34/18 133/33/18
f 174/34/18 235/36/19 123/35/19
f 235/36/19 250/38/20 126/37/20
f 250/38/20 175/40/21 124/39/21
f 175/40/21 176/42/22 134/41/22
f 176/42/22 245/44/23 125/43/23
f 245/44/23 222/46/24 127/45/24
f 222/46/24 165/179/1 115/47/1
f 162/50/25 163/180/25 138/181/25
f 138/181/25 139/182/25 140/183/25
f 140/183/25 141/184/25 146/48/25
f 141/184/25 144/185/25 146/48/25
f 144/185/25 145/186/25 146/48/25
f 146/48/25 147/187/25 148/188/25
f 148/188/25 149/189/25 150/190/25
f 150/190/25 151/191/25 152/192/25
f 152/192/25 153/193/25 154/49/25
f 154/49/25 155/194/25 156/195/25
f 156/195/25 157/196/25 154/49/25
f 157/196/25 158/197/25 154/49/25
f 158/197/25 159/198/25 162/50/25
f 159/198/25 160/199/25 162/50/25
f 160/199/25 161/200/25 162/50/25
f 162/50/25 138/181/25 140/183/25
f 146/48/25 148/188/25 154/49/25
f 148/188/25 150/190/25 154/49/25
f 150/190/25 152/192/25 154/49/25
f 162/50/25 140/183/25 146/48/25
f 154/49/25 158/197/25 162/50/25
f 29/51/26 180/102/26 181/52/27
f 208/55/19 207/201/19 206/56/29
f 206/56/29 224/202/30 183/203/30
f 183/203/30 57/204/30 206/56/29
f 57/204/30 253/205/30 243/54/28
f 206/56/29 57/204/30 243/54/28
f 253/205/30 223/206/30 243/54/28
f 223/206/30 54/207/30 243/54/28
f 54/207/30 53/208/30 243/54/28
f 53/208/30 251/209/30 216/210/30
f 243/54/28 53/208/30 216/210/30
f 251/209/30 179/211/30 216/210/30
f 216/210/30 179/211/30 49/212/30
f 49/212/30 178/213/30 216/210/30
f 178/213/30 143/214/30 217/215/29
f 216/210/30 178/213/30 217/215/29
f 143/214/30 142/216/30 217/215/29
f 142/216/30 189/217/30 217/215/29
f 189/217/30 69/218/30 217/215/29
f 69/218/30 256/57/30 261/59/30
f 217/215/29 69/218/30 261/59/30
f 256/57/30 226/219/30 209/58/30
f 226/219/30 187/220/30 209/58/30
f 187/220/30 65/221/30 209/58/30
f 65/221/30 255/222/30 211/223/30
f 209/58/30 65/221/30 211/223/30
f 255/222/30 225/224/30 211/223/30
f 225/224/30 185/225/30 211/223/30
f 185/225/30 61/226/30 211/223/30
f 61/226/30 254/227/30 206/56/29
f 211/223/30 61/226/30 206/56/29
f 254/227/30 224/202/30 206/56/29
f 261/59/30 241/228/19 217/215/29
f 45/60/31 44/103/32 68/61/32
f 37/63/33 184/104/33 62/64/34
f 31/66/35 30/53/27 181/52/27
f 45/60/31 188/62/31 70/68/36
f 38/65/34 62/64/34 63/70/37
f 31/66/35 55/67/35 56/72/38
f 46/69/36 70/68/36 71/74/39
f 39/71/37 63/70/37 64/76/40
f 33/78/41 32/73/38 56/72/38
f 48/80/42 47/75/39 71/74/39
f 26/82/43 50/89/43 177/83/44
f 40/77/40 64/76/40 186/85/45
f 33/78/41 182/79/41 58/87/46
f 48/80/42 72/81/42 50/89/43
f 25/84/44 177/83/44 51/90/47
f 41/86/45 186/85/45 66/92/48
f 35/94/49 34/88/46 58/87/46
f 27/91/47 51/90/47 52/96/50
f 42/93/48 66/92/48 67/98/51
f 35/94/49 59/95/49 60/100/52
f 29/51/26 28/97/50 52/96/50
f 43/99/51 67/98/51 68/61/32
f 36/101/52 60/100/52 184/104/33
f 229/108/56 73/105/53 230/109/57
f 190/113/60 191/229/7 257/112/59
f 233/117/64 73/105/53 198/118/65
f 200/123/69 199/122/68 73/105/53
f 203/127/73 202/126/72 73/105/53
f 193/133/79 194/230/85 240/132/78
f 85/231/1 75/232/1 74/233/1
f 76/134/80 213/234/19 215/135/1
f 85/231/1 74/233/1 76/134/80
f 218/136/1 195/235/1 76/134/80
f 195/235/1 85/231/1 76/134/80
f 242/138/5 113/236/5 77/139/5
f 77/139/5 78/237/5 80/238/5
f 78/237/5 79/239/5 80/238/5
f 80/238/5 192/137/5 77/139/5
f 82/140/81 81/240/19 83/241/9
f 83/241/9 84/242/9 86/243/86
f 86/243/86 88/244/87 197/245/88
f 82/140/81 83/241/9 86/243/86
f 111/142/8 110/246/7 82/140/81
f 82/140/81 86/243/86 197/245/88
f 205/141/14 109/247/19 111/142/8
f 82/140/81 197/245/88 205/141/14
f 212/248/13 108/249/13 89/143/13
f 89/143/13 90/250/13 92/144/13
f 90/250/13 91/251/13 92/144/13
f 92/144/13 93/252/19 201/145/82
f 201/145/82 212/248/13 89/143/13
f 112/253/17 94/254/17 210/255/17
f 94/254/17 95/148/17 204/147/17
f 210/255/17 94/254/17 204/147/17
f 95/148/17 96/256/17 97/146/17
f 99/149/83 98/257/19 100/258/21
f 100/258/21 101/259/21 102/260/21
f 100/258/21 102/260/21 103/150/84
f 104/261/20 105/262/19 99/149/83
f 87/263/19 106/264/19 107/151/20
f 107/151/20 104/261/20 99/149/83
f 99/149/83 100/258/21 103/150/84
f 103/150/84 87/263/19 107/151/20
f 127/45/24 115/47/1 1/152/1
f 125/43/23 127/45/24 24/153/24
f 134/41/22 125/43/23 23/154/23
f 124/39/21 134/41/22 22/155/22
f 126/37/20 124/39/21 21/156/21
f 123/35/19 126/37/20 20/157/20
f 133/33/18 123/35/19 19/158/19
f 122/31/17 133/33/18 18/159/18
f 114/29/16 122/31/17 17/160/17
f 121/27/15 114/29/16 16/161/16
f 132/25/14 121/27/15 15/162/15
f 120/23/13 132/25/14 14/163/14
f 137/21/12 120/23/13 13/164/13
f 119/19/11 137/21/12 12/165/12
f 131/17/10 119/19/11 11/166/11
f 118/15/9 131/17/10 10/167/10
f 136/13/8 118/15/9 9/168/9
f 117/12/7 136/13/8 8/169/8
f 130/10/6 117/12/7 7/170/7
f 116/8/5 130/10/6 6/171/6
f 135/6/4 116/8/5 5/172/5
f 128/5/3 135/6/4 4/173/4
f 129/2/2 128/5/3 3/174/3
f 115/3/1 129/2/2 2/175/2
