# Blender v2.93.6 OBJ File: 'Reach Bravo.blend'
# www.blender.org
v 0.000038 -0.044941 -0.086477
v 0.000038 -0.022471 -0.125397
v 0.000038 -0.038920 -0.108948
v 0.000038 -0.044941 -0.000004
v 0.000038 -0.038920 0.022467
v 0.000038 -0.022471 0.038917
v 0.000038 0.044941 -0.086477
v 0.000038 0.000000 -0.131418
v 0.000038 0.038920 -0.108948
v 0.000038 0.022471 -0.125397
v 0.000038 0.000000 0.044937
v 0.000038 0.044941 -0.000004
v 0.000038 0.022471 0.038917
v 0.000038 0.038920 0.022467
v 0.053102 -0.044941 -0.086477
v 0.053102 0.000000 -0.131418
v 0.053102 -0.038920 -0.108948
v 0.053102 -0.022471 -0.125397
v 0.053102 0.000000 0.044937
v 0.053102 -0.044941 -0.000004
v 0.053102 -0.022471 0.038917
v 0.053102 -0.038920 0.022467
v 0.053102 0.044941 -0.086477
v 0.053102 0.022471 -0.125397
v 0.053102 0.038920 -0.108948
v 0.053102 0.044941 -0.000004
v 0.053102 0.038920 0.022467
v 0.053102 0.022471 0.038917
v 0.000038 0.000000 -0.131418
v 0.000038 0.022471 -0.125397
v 0.053102 0.038920 -0.108948
v 0.053102 0.022471 -0.125397
v 0.000038 0.038920 -0.108948
v 0.053102 0.044941 -0.086477
v 0.000038 0.044941 -0.086477
v 0.000038 0.022471 0.038917
v 0.000038 0.000000 0.044937
v 0.000038 0.038920 0.022467
v 0.053102 0.022471 0.038917
v 0.053102 0.038920 0.022467
v 0.000038 0.044941 -0.000004
v 0.053102 0.044941 -0.000004
v 0.053102 0.000000 -0.131418
v 0.053102 -0.022471 -0.125397
v 0.000038 -0.038920 -0.108948
v 0.000038 -0.022471 -0.125397
v 0.053102 -0.038920 -0.108948
v 0.000038 -0.044941 -0.086477
v 0.053102 -0.044941 -0.086477
v 0.053102 -0.022471 0.038917
v 0.053102 0.000000 0.044937
v 0.053102 -0.038920 0.022467
v 0.000038 -0.022471 0.038917
v 0.000038 -0.038920 0.022467
v 0.053102 -0.044941 -0.000004
v 0.000038 -0.044941 -0.000004
vt 0.561292 0.750000
vt 0.438708 1.000000
vt 0.438708 0.750000
vt 0.406854 0.733253
vt 0.383535 0.687500
vt 0.438708 0.500000
vt 0.406854 0.233253
vt 0.383535 0.187500
vt 0.438708 0.000000
vt 0.561292 0.250000
vt 0.438708 0.500000
vt 0.438708 0.250000
vt 0.125000 0.625000
vt 0.375000 0.562500
vt 0.375000 0.625000
vt 0.125000 0.562500
vt 0.375000 0.500000
vt 0.406854 0.250000
vt 0.406854 0.500000
vt 0.625000 0.625000
vt 0.875000 0.562500
vt 0.875000 0.625000
vt 0.625000 0.500000
vt 0.593146 0.250000
vt 0.625000 0.250000
vt 0.593146 0.500000
vt 0.125000 0.687500
vt 0.375000 0.687500
vt 0.125000 0.750000
vt 0.406854 0.750000
vt 0.406854 1.000000
vt 0.625000 0.687500
vt 0.625000 1.000000
vt 0.593146 0.750000
vt 0.625000 0.750000
vt 0.593146 1.000000
vt 0.561292 1.000000
vt 0.375000 0.625000
vt 0.383535 0.562500
vt 0.406854 0.516747
vt 0.561292 0.500000
vt 0.561292 0.750000
vt 0.593146 0.516747
vt 0.616465 0.562500
vt 0.625000 0.625000
vt 0.616465 0.687500
vt 0.593146 0.733253
vt 0.438708 0.750000
vt 0.375000 0.125000
vt 0.383535 0.062500
vt 0.406854 0.016747
vt 0.561292 0.000000
vt 0.561292 0.250000
vt 0.593146 0.016747
vt 0.616465 0.062500
vt 0.625000 0.125000
vt 0.616465 0.187500
vt 0.593146 0.233253
vt 0.438708 0.250000
vt 0.561292 0.500000
vt 0.125000 0.500000
vt 0.625000 0.562500
vt 0.375000 0.750000
vt 0.875000 0.687500
vn 0.0000 -0.9914 0.1305
vn 0.0000 -0.9914 -0.1305
vn 1.0000 0.0000 0.0000
vn -1.0000 0.0000 0.0000
vn 0.0000 0.9914 0.1305
vn 0.0000 0.9914 -0.1305
vn 0.0000 0.0000 -1.0000
vn 0.0000 0.5000 -0.8660
vn 0.0000 0.8660 -0.5000
vn 0.0000 0.0000 1.0000
vn 0.0000 0.5000 0.8660
vn 0.0000 0.8660 0.5000
vn 0.0000 -0.5000 -0.8660
vn 0.0000 -0.8660 -0.5000
vn 0.0000 -0.5000 0.8660
vn 0.0000 -0.8660 0.5000
s 1
f 20/1/1 1/2/2 15/3/2
f 47/4/3 44/5/3 34/6/3
f 33/7/4 30/8/4 48/9/4
f 12/10/5 23/11/6 7/12/6
f 8/13/7 32/14/8 16/15/7
f 10/16/8 25/17/9 32/14/8
f 9/18/9 23/11/6 25/19/9
f 19/20/10 13/21/11 11/22/10
f 39/23/11 14/24/12 13/25/11
f 27/26/12 12/10/5 14/24/12
f 16/15/7 46/27/13 8/13/7
f 18/28/13 3/29/14 46/27/13
f 17/30/14 1/2/2 3/31/14
f 11/22/10 21/32/15 19/20/10
f 53/33/15 22/34/16 21/35/15
f 5/36/16 20/1/1 22/34/16
f 20/1/1 4/37/1 1/2/2
f 44/5/3 43/38/3 34/6/3
f 43/38/3 24/39/3 34/6/3
f 24/39/3 31/40/3 34/6/3
f 34/6/3 42/41/3 55/42/3
f 42/41/3 40/43/3 55/42/3
f 40/43/3 28/44/3 51/45/3
f 51/45/3 50/46/3 52/47/3
f 52/47/3 55/42/3 51/45/3
f 55/42/3 49/48/3 34/6/3
f 51/45/3 55/42/3 40/43/3
f 49/48/3 47/4/3 34/6/3
f 30/8/4 29/49/4 48/9/4
f 29/49/4 2/50/4 48/9/4
f 2/50/4 45/51/4 48/9/4
f 48/9/4 56/52/4 41/53/4
f 56/52/4 54/54/4 41/53/4
f 54/54/4 6/55/4 37/56/4
f 37/56/4 36/57/4 38/58/4
f 38/58/4 41/53/4 37/56/4
f 41/53/4 35/59/4 48/9/4
f 37/56/4 41/53/4 54/54/4
f 35/59/4 33/7/4 48/9/4
f 12/10/5 26/60/5 23/11/6
f 8/13/7 10/16/8 32/14/8
f 10/16/8 9/61/9 25/17/9
f 9/18/9 7/12/6 23/11/6
f 19/20/10 39/62/11 13/21/11
f 39/23/11 27/26/12 14/24/12
f 27/26/12 26/60/5 12/10/5
f 16/15/7 18/28/13 46/27/13
f 18/28/13 17/63/14 3/29/14
f 17/30/14 15/3/2 1/2/2
f 11/22/10 53/64/15 21/32/15
f 53/33/15 5/36/16 22/34/16
f 5/36/16 4/37/1 20/1/1
