# Blender v3.0.1 OBJ File: 'blackbox.blend'
# www.blender.org
mtllib arriba.mtl
o arriba_mesh7.001
v -0.147354 0.033780 0.081338
v -0.147354 -0.050980 0.081851
v -0.147354 -0.051207 0.082342
v -0.147354 -0.050632 0.079729
v -0.147354 -0.050632 0.080271
v -0.147354 0.033605 0.080271
v -0.147354 0.033663 0.080809
v -0.147354 -0.054550 0.084883
v -0.147354 -0.055084 0.084971
v -0.147354 -0.052599 0.083981
v -0.147354 -0.053047 0.084284
v -0.147354 -0.050807 0.081338
v -0.147354 -0.050691 0.080809
v -0.147354 -0.054028 0.084738
v -0.147354 -0.053525 0.084538
v -0.147354 -0.051814 0.083237
v -0.147354 -0.052186 0.083630
v -0.147354 -0.051486 0.082806
v -0.147354 0.033605 0.079729
v -0.147354 -0.050807 0.078662
v -0.147354 -0.050691 0.079191
v -0.147354 0.033780 0.078662
v -0.147354 -0.051207 0.077658
v -0.147354 -0.050980 0.078149
v -0.147354 -0.051814 0.076763
v -0.147354 -0.051486 0.077194
v -0.147354 -0.078402 -0.000000
v -0.147354 0.035572 0.076020
v -0.147354 0.036020 0.075716
v -0.147354 0.034787 0.076763
v -0.147354 0.035159 0.076370
v -0.147354 0.033663 0.079191
v -0.147354 -0.052599 0.076020
v -0.147354 -0.052186 0.076370
v -0.147354 -0.054028 0.075262
v -0.147354 -0.053525 0.075462
v -0.147354 -0.055625 0.085000
v -0.147354 0.035159 0.083630
v -0.147354 0.034787 0.083237
v -0.147354 0.034180 0.077658
v -0.147354 0.034459 0.077194
v -0.147354 0.033953 0.078149
v -0.147354 -0.053047 0.075716
v -0.147354 0.034180 0.082342
v -0.147354 0.033953 0.081851
v -0.147354 0.034459 0.082806
v -0.147354 -0.078402 0.160000
v -0.147354 0.061598 0.160000
v -0.147354 0.037001 0.084738
v -0.147354 -0.058651 0.076020
v -0.147354 -0.058203 0.075716
v -0.147354 -0.059436 0.076763
v -0.147354 -0.059063 0.076370
v -0.147354 -0.060443 0.081338
v -0.147354 -0.060559 0.080809
v -0.147354 -0.059436 0.083237
v -0.147354 -0.059763 0.082806
v -0.147354 0.043415 0.081338
v -0.147354 0.043242 0.081851
v -0.147354 0.035572 0.083981
v -0.147354 0.036498 0.084538
v -0.147354 -0.060042 0.077658
v -0.147354 -0.059763 0.077194
v -0.147354 -0.060042 0.082342
v -0.147354 -0.060270 0.081851
v -0.147354 -0.059063 0.083630
v -0.147354 0.039672 0.084883
v -0.147354 0.039138 0.084971
v -0.147354 0.041623 0.083981
v -0.147354 0.041175 0.084284
v -0.147354 0.043015 0.082342
v -0.147354 0.061598 0.000000
v -0.147354 0.042736 0.077194
v -0.147354 0.043015 0.077658
v -0.147354 0.036020 0.084284
v -0.147354 -0.060443 0.078662
v -0.147354 -0.060270 0.078149
v -0.147354 -0.060617 0.079729
v -0.147354 -0.060559 0.079191
v -0.147354 -0.060617 0.080271
v -0.147354 -0.057221 0.084738
v -0.147354 -0.057724 0.084538
v -0.147354 0.040194 0.084738
v -0.147354 0.040697 0.084538
v -0.147354 0.042408 0.083237
v -0.147354 0.042036 0.083630
v -0.147354 0.042736 0.082806
v -0.147354 0.043590 0.080271
v -0.147354 0.043532 0.080809
v -0.147354 0.043590 0.079729
v -0.147354 0.043242 0.078149
v -0.147354 0.038598 0.085000
v -0.147354 0.038057 0.084971
v -0.147354 -0.058651 0.083981
v -0.147354 -0.058203 0.084284
v -0.147354 0.043415 0.078662
v -0.147354 0.043532 0.079191
v -0.147354 0.042408 0.076763
v -0.147354 0.041623 0.076020
v -0.147354 0.042036 0.076370
v -0.147354 0.040194 0.075262
v -0.147354 0.040697 0.075462
v -0.147354 0.036498 0.075462
v -0.147354 0.037001 0.075262
v -0.147354 0.037523 0.084883
v -0.147354 -0.055625 0.075000
v -0.147354 -0.055084 0.075029
v -0.147354 -0.056165 0.084971
v -0.147354 0.041175 0.075716
v -0.147354 0.037523 0.075117
v -0.147354 0.038057 0.075029
v -0.147354 -0.054550 0.075117
v -0.147354 -0.056700 0.075117
v -0.147354 -0.056165 0.075029
v -0.147354 -0.057724 0.075462
v -0.147354 -0.057221 0.075262
v -0.147354 -0.056700 0.084883
v -0.147354 0.038598 0.075000
v -0.147354 0.039138 0.075029
v -0.147354 0.039672 0.075117
vt 0.483586 0.891581
vt 0.473592 0.129304
vt 0.472891 0.129707
vt 0.476650 0.128512
vt 0.475866 0.128581
vt 0.485229 0.891783
vt 0.484402 0.891731
vt 0.469378 0.135021
vt 0.469280 0.135827
vt 0.470585 0.131996
vt 0.470168 0.132704
vt 0.474328 0.128980
vt 0.475088 0.128738
vt 0.469561 0.134225
vt 0.469825 0.133450
vt 0.471623 0.130729
vt 0.471072 0.131335
vt 0.472232 0.130184
vt 0.486058 0.891739
vt 0.478203 0.128636
vt 0.477432 0.128530
vt 0.487680 0.891360
vt 0.475705 0.131367
vt 0.474984 0.131091
vt 0.477027 0.132156
vt 0.476389 0.131723
vt -0.009157 0.010827
vt 0.491625 0.888167
vt 0.492066 0.887397
vt 0.490529 0.889532
vt 0.491111 0.888881
vt 0.486878 0.891597
vt 0.478136 0.133228
vt 0.477611 0.132659
vt 0.479293 0.135254
vt 0.478981 0.134533
vt 0.469266 0.136635
vt 0.479991 0.889473
vt 0.480616 0.890061
vt 0.489194 0.890613
vt 0.489888 0.890112
vt 0.488455 0.891031
vt 0.478594 0.133855
vt 0.482024 0.890998
vt 0.482790 0.891335
vt 0.481297 0.890571
vt 0.994192 -0.005286
vt 0.997281 0.997531
vt 0.478178 0.886488
vt 0.478409 0.142197
vt 0.478825 0.141495
vt 0.481345 0.141191
vt 0.477923 0.142853
vt 0.474808 0.143285
vt 0.475576 0.143386
vt 0.472017 0.142051
vt 0.472656 0.142478
vt 0.483045 0.875461
vt 0.482263 0.875791
vt 0.479428 0.888813
vt 0.478516 0.887312
vt 0.480086 0.142205
vt 0.480740 0.141731
vt 0.473339 0.142828
vt 0.474060 0.143099
vt 0.471429 0.141553
vt 0.477795 0.882026
vt 0.477692 0.882929
vt 0.479072 0.878679
vt 0.478629 0.879456
vt 0.481519 0.876211
vt 0.007886 0.997166
vt 0.489458 0.876286
vt 0.488731 0.875853
vt 0.478935 0.888090
vt 0.478660 0.142929
vt 0.479390 0.142605
vt 0.477133 0.143329
vt 0.477905 0.143171
vt 0.476354 0.143401
vt 0.469730 0.138971
vt 0.470046 0.139690
vt 0.477987 0.881140
vt 0.478267 0.880279
vt 0.480173 0.877301
vt 0.479588 0.877958
vt 0.480819 0.876717
vt 0.484679 0.875085
vt 0.483853 0.875224
vt 0.485513 0.875044
vt 0.487963 0.875508
vt 0.477679 0.883837
vt 0.477757 0.884740
vt 0.470901 0.140989
vt 0.470439 0.140365
vt 0.487165 0.875256
vt 0.486345 0.875101
vt 0.486167 0.874539
vt 0.491318 0.878062
vt 0.490759 0.877397
vt 0.492551 0.880397
vt 0.492219 0.879571
vt 0.492430 0.886580
vt 0.492711 0.885726
vt 0.477924 0.885627
vt 0.479740 0.137588
vt 0.479674 0.136790
vt 0.469337 0.137434
vt 0.491806 0.878790
vt 0.492906 0.884846
vt 0.493013 0.883948
vt 0.479524 0.136010
vt 0.479619 0.139195
vt 0.479722 0.138392
vt 0.479168 0.140755
vt 0.479434 0.139985
vt 0.469492 0.138216
vt 0.493031 0.883044
vt 0.492960 0.882143
vt 0.492799 0.881258
vn -1.0000 0.0000 0.0000
vn -1.0000 0.0002 0.0000
usemtl arriba
s 1
f 1/1/1 2/2/1 3/3/1
f 4/4/1 5/5/1 6/6/1
f 5/5/1 1/1/1 7/7/1
f 1/1/1 8/8/1 9/9/2
f 1/1/1 10/10/1 11/11/1
f 1/1/1 12/12/1 2/2/1
f 1/1/1 5/5/1 13/13/1
f 7/7/1 6/6/1 5/5/1
f 1/1/1 14/14/1 8/8/1
f 11/11/1 15/15/1 1/1/1
f 1/1/1 16/16/1 17/17/1
f 3/3/1 18/18/1 1/1/1
f 6/6/1 19/19/1 4/4/1
f 19/19/1 20/20/1 21/21/1
f 22/22/1 23/23/1 24/24/1
f 22/22/1 25/25/1 26/26/1
f 27/27/1 28/28/1 29/29/1
f 27/27/1 30/30/1 31/31/1
f 15/15/1 14/14/1 1/1/1
f 18/18/1 16/16/1 1/1/1
f 20/20/1 19/19/1 32/32/1
f 21/21/1 4/4/1 19/19/1
f 26/26/1 23/23/1 22/22/1
f 22/22/1 33/33/1 34/34/1
f 22/22/1 35/35/1 36/36/1
f 37/37/1 38/38/1 39/39/1
f 31/31/1 28/28/1 27/27/1
f 27/27/1 40/40/1 41/41/1
f 42/42/1 27/27/1 35/35/1
f 17/17/1 10/10/1 1/1/1
f 13/13/1 12/12/1 1/1/1
f 34/34/1 25/25/1 22/22/1
f 36/36/1 43/43/1 22/22/1
f 37/37/1 44/44/1 45/45/1
f 39/39/1 46/46/1 37/37/1
f 47/47/1 48/48/1 49/49/1
f 27/27/1 50/50/1 51/51/1
f 27/27/1 52/52/1 53/53/1
f 47/47/1 54/54/1 55/55/1
f 47/47/1 56/56/1 57/57/1
f 48/48/1 58/58/1 59/59/1
f 41/41/1 30/30/1 27/27/1
f 35/35/1 22/22/1 42/42/1
f 32/32/1 22/22/1 20/20/1
f 43/43/1 33/33/1 22/22/1
f 46/46/1 44/44/1 37/37/1
f 47/47/1 60/60/1 38/38/1
f 49/49/1 61/61/1 47/47/1
f 53/53/1 50/50/1 27/27/1
f 27/27/1 62/62/1 63/63/1
f 55/55/1 27/27/1 47/47/1
f 47/47/1 64/64/1 65/65/1
f 47/47/1 66/66/1 56/56/1
f 48/48/1 67/67/1 68/68/1
f 48/48/1 69/69/1 70/70/1
f 59/59/1 71/71/1 48/48/1
f 72/72/1 73/73/1 74/74/1
f 42/42/1 40/40/1 27/27/1
f 24/24/1 20/20/1 22/22/1
f 38/38/1 37/37/1 47/47/1
f 61/61/1 75/75/1 47/47/1
f 63/63/1 52/52/1 27/27/1
f 27/27/1 76/76/1 77/77/1
f 27/27/1 78/78/1 79/79/1
f 55/55/1 80/80/1 27/27/1
f 57/57/1 64/64/1 47/47/1
f 47/47/1 81/81/1 82/82/1
f 48/48/1 83/83/1 67/67/1
f 70/70/1 84/84/1 48/48/1
f 48/48/1 85/85/1 86/86/1
f 71/71/1 87/87/1 48/48/1
f 48/48/1 88/88/1 89/89/1
f 48/48/1 72/72/1 90/90/1
f 74/74/1 91/91/1 72/72/1
f 9/9/2 37/37/1 1/1/1
f 75/75/1 60/60/1 47/47/1
f 48/48/1 92/92/1 93/93/1
f 77/77/1 62/62/1 27/27/1
f 80/80/1 78/78/1 27/27/1
f 47/47/1 94/94/1 66/66/1
f 82/82/1 95/95/1 47/47/1
f 84/84/1 83/83/1 48/48/1
f 87/87/1 85/85/1 48/48/1
f 90/90/1 88/88/1 48/48/1
f 72/72/1 96/96/1 97/97/1
f 72/72/1 98/98/1 73/73/1
f 72/72/1 99/99/1 100/100/1
f 72/72/1 101/101/1 102/102/1
f 27/27/1 103/103/1 104/104/1
f 45/45/1 1/1/1 37/37/1
f 93/93/1 105/105/1 48/48/1
f 27/27/1 106/106/1 107/107/1
f 79/79/1 76/76/1 27/27/1
f 95/95/1 94/94/1 47/47/1
f 47/47/1 37/37/1 108/108/1
f 86/86/1 69/69/1 48/48/1
f 97/97/1 90/90/1 72/72/1
f 100/100/1 98/98/1 72/72/1
f 102/102/1 109/109/1 72/72/1
f 72/72/1 110/110/1 111/111/1
f 104/104/1 72/72/1 27/27/1
f 105/105/1 49/49/1 48/48/1
f 107/107/1 112/112/1 27/27/1
f 27/27/1 113/113/1 114/114/1
f 27/27/1 115/115/1 116/116/1
f 65/65/1 54/54/1 47/47/1
f 108/108/1 117/117/1 47/47/1
f 89/89/1 58/58/1 48/48/1
f 109/109/1 99/99/1 72/72/1
f 72/72/1 118/118/1 119/119/1
f 104/104/1 110/110/1 72/72/1
f 112/112/1 35/35/1 27/27/1
f 116/116/1 113/113/1 27/27/1
f 117/117/1 81/81/1 47/47/1
f 91/91/1 96/96/1 72/72/1
f 119/119/1 120/120/1 72/72/1
f 29/29/1 103/103/1 27/27/1
f 51/51/1 115/115/1 27/27/1
f 120/120/1 101/101/1 72/72/1
f 114/114/1 106/106/1 27/27/1
f 111/111/1 118/118/1 72/72/1
f 68/68/1 92/92/1 48/48/1
